<?xml version="1.0" encoding="UTF-8"?>
<svg width="35px" height="35px" viewBox="0 0 35 35" version="1.1" xmlns="http://www.w3.org/2000/svg" xmlns:xlink="http://www.w3.org/1999/xlink">
    <!-- Generator: Sketch 52.5 (67469) - http://www.bohemiancoding.com/sketch -->
    <title>ic_qq</title>
    <desc>Created with Sketch.</desc>
    <g id="Page-1" stroke="none" stroke-width="1" fill="none" fill-rule="evenodd">
        <g id="PC端官网-" transform="translate(-703.000000, -5108.000000)">
            <g id="ic_qq" transform="translate(703.000000, 5108.000000)">
                <circle id="Oval-5-Copy-2" fill="#FEFEFE" cx="17.5" cy="17.5" r="17.5"></circle>
                <path d="M10.4681377,15.2976396 C10.3637444,15.5829038 10.516131,15.7631473 10.4681377,16.8507606 C10.4546593,17.1430179 9.24134905,18.4660202 8.75975863,19.8406408 C8.28233211,21.2047819 8.21667682,22.6292776 8.95338939,23.1892854 C9.69183857,23.7492727 10.3780319,21.3255321 10.4681377,21.6781441 C10.506856,21.832158 10.5556978,21.9922833 10.6146435,22.1567767 C10.894156,22.9177677 11.3028209,23.6204513 11.8212047,24.2314122 C11.9382278,24.3705375 11.1105806,24.6251629 10.6146435,25.5027758 C10.1178578,26.3795274 10.7569262,27.973787 13.2239621,27.973787 C16.4066742,27.973787 17.1172983,26.81091 17.1821445,26.81616 C17.4195849,26.834535 17.4355695,26.81616 17.6873368,26.81616 C17.9946556,26.81616 17.8675089,26.84241 18.1529427,26.81616 C18.3070263,26.8021531 19.8537636,28.2074124 21.9949307,27.973787 C25.6432683,27.5747863 25.0850307,26.3042841 24.7987484,25.5027963 C24.5006849,24.6653993 23.4431554,24.2734123 23.4903001,24.2200304 C24.364283,23.2163968 24.5023821,22.5995207 24.799597,21.6781441 C24.9208432,21.2992821 25.767889,23.7632796 26.4195674,23.1892854 C26.6915425,22.9495281 27.2346243,21.9537696 26.6915425,19.8406408 C26.1484606,17.7283939 25.0976605,17.2462749 25.1203941,16.8507606 C25.1675586,16.0265091 25.1406018,15.4472649 25.1001865,15.2976396 C24.9065359,14.5713952 24.5006849,14.7315205 24.5006849,14.5713952 C24.5006849,10.388881 21.4745826,7 17.7420594,7 C14.0095363,7 10.9851113,10.3897423 10.9851113,14.5713952 C10.9851113,14.9030071 10.701355,14.6580203 10.4689665,15.2976396 L10.4681377,15.2976396 Z" id="Shape" fill="#001936" fill-rule="nonzero"></path>
            </g>
        </g>
    </g>
</svg>