<?xml version="1.0" encoding="UTF-8"?>
<svg width="35px" height="35px" viewBox="0 0 35 35" version="1.1" xmlns="http://www.w3.org/2000/svg" xmlns:xlink="http://www.w3.org/1999/xlink">
    <!-- Generator: Sketch 52.5 (67469) - http://www.bohemiancoding.com/sketch -->
    <title>ic_weixin</title>
    <desc>Created with Sketch.</desc>
    <g id="Page-1" stroke="none" stroke-width="1" fill="none" fill-rule="evenodd">
        <g id="PC端官网-" transform="translate(-633.000000, -5108.000000)">
            <g id="ic_weixin" transform="translate(633.000000, 5108.000000)">
                <circle id="Oval-5" fill="#FEFEFE" cx="17.5" cy="17.5" r="17.5"></circle>
                <path d="M21.2181165,13.7700683 C21.4577204,13.7700683 21.696108,13.7878164 21.9332793,13.8157062 C21.2898761,10.7072531 18.0886714,8.4 14.431368,8.4 C10.3471563,8.4 7,11.290405 7,14.9579233 C7,17.0762859 8.11409707,18.8155998 9.97497974,20.1644555 L9.23184293,22.4843858 L11.8297811,21.1329947 C12.7590061,21.3231529 13.5057917,21.5196497 14.4325843,21.5196498 C14.6661068,21.5196498 14.8971968,21.5069725 15.1270705,21.4892244 C14.976595,20.9646932 14.89918,20.4203538 14.8971968,19.8728795 C14.8971968,16.5045435 17.6860883,13.7700683 21.2169003,13.7700683 L21.2181165,13.7700683 Z M17.2202595,11.6783278 C17.7797405,11.6783278 18.1507008,12.0611797 18.1507008,12.6417961 C18.1507008,13.2198771 17.7797405,13.6052644 17.2202595,13.6052644 C16.6632109,13.6052644 16.1049461,13.2198771 16.1049461,12.6417961 C16.1049461,12.0611797 16.6644272,11.6783278 17.2202595,11.6783278 Z M12.0183019,13.6052644 C11.4612533,13.6052644 10.8993397,13.2198771 10.8993397,12.6417961 C10.8993397,12.0611797 11.4612533,11.6783278 12.0183019,11.6783278 C12.5753504,11.6783278 12.9463107,12.0611797 12.9463107,12.6417961 C12.9463107,13.2198771 12.5753504,13.6052644 12.0183019,13.6052644 Z M28,19.7803359 C28,16.6972372 25.0274528,14.1846132 21.6875941,14.1846132 C18.1507008,14.1846132 15.3654581,16.6972372 15.3654581,19.7803359 C15.3654581,22.8697731 18.1507008,25.3773263 21.6875941,25.3773263 C22.4270821,25.3773263 23.175084,25.1833649 23.9182208,24.9894035 L25.9566779,26.1481009 L25.3971968,24.2211642 C26.8895517,23.0599314 28,21.5196497 28,19.7803359 Z M19.6381907,18.8168675 C19.2672304,18.8168675 18.8938376,18.4340156 18.8938376,18.0435574 C18.8938376,17.6594378 19.2672304,17.2727827 19.6381907,17.2727827 C20.2001043,17.2727827 20.568632,17.6594378 20.568632,18.0435574 C20.568632,18.4340156 20.2001042,18.8168675 19.6381907,18.8168675 Z M23.7260512,18.8168675 C23.3587397,18.8168675 22.9877795,18.4340156 22.9877795,18.0435574 C22.9877795,17.6594378 23.3587397,17.2727827 23.7260512,17.2727827 C24.2830997,17.2727827 24.6564925,17.6594378 24.6564925,18.0435574 C24.6564925,18.4340156 24.2830997,18.8168675 23.7260512,18.8168675 Z" id="Shape" fill="#001936" fill-rule="nonzero"></path>
            </g>
        </g>
    </g>
</svg>