<?xml version="1.0" encoding="UTF-8"?>
<svg width="198px" height="88px" viewBox="0 0 198 88" version="1.1" xmlns="http://www.w3.org/2000/svg" xmlns:xlink="http://www.w3.org/1999/xlink">
    <!-- Generator: Sketch 52.5 (67469) - http://www.bohemiancoding.com/sketch -->
    <title>logo_p05</title>
    <desc>Created with Sketch.</desc>
    <defs>
        <polygon id="path-1" points="0 0 198 0 198 88 0 88"></polygon>
        <polygon id="path-3" points="0 0.37337767 10.8232075 0.37337767 10.8232075 33.4008413 0 33.4008413"></polygon>
        <polygon id="path-5" points="0.0200713592 0.370102427 27.2419573 0.370102427 27.2419573 13.8567961 0.0200713592 13.8567961"></polygon>
        <polygon id="path-7" points="0 35.7058563 172.973966 35.7058563 172.973966 -0.000167961165 0 -0.000167961165"></polygon>
    </defs>
    <g id="Page-1" stroke="none" stroke-width="1" fill="none" fill-rule="evenodd">
        <g id="PC端官网-" transform="translate(-120.000000, -4343.000000)">
            <g id="logo_p05" transform="translate(120.000000, 4343.000000)">
                <mask id="mask-2" fill="white">
                    <use xlink:href="#path-1"></use>
                </mask>
                <g id="Rectangle-9-Copy-2"></g>
                <g id="Group-49" mask="url(#mask-2)">
                    <g transform="translate(13.000000, 26.000000)">
                        <g id="Group-3" stroke="none" stroke-width="1" fill="none" fill-rule="evenodd" transform="translate(0.000000, 0.853915)">
                            <mask id="mask-4" fill="white">
                                <use xlink:href="#path-3"></use>
                            </mask>
                            <g id="Clip-2"></g>
                            <path d="M3.2359818,16.8873194 C3.2359818,10.3040816 6.13667112,4.39016893 10.8232075,0.37337767 C4.46335801,3.16279272 -0.000209951456,9.52306214 -0.000209951456,16.8873194 C-0.000209951456,24.2515767 4.46335801,30.7231204 10.8232075,33.4008413 C6.24836529,29.38405 3.2359818,23.4705573 3.2359818,16.8873194" id="Fill-1" fill="#000000" mask="url(#mask-4)"></path>
                        </g>
                        <path d="M34.924333,17.741234 C34.924333,11.1579961 32.0232238,5.2440835 27.3371073,1.22729223 C33.6969568,4.01670728 38.1601049,10.3769767 38.1601049,17.741234 C38.1601049,25.1054913 33.6969568,31.577035 27.3371073,34.2547558 C31.9115296,30.2379646 34.924333,24.3244718 34.924333,17.741234" id="Fill-4" stroke="none" fill="#000000" fill-rule="evenodd"></path>
                        <path d="M19.1914947,2.34301626 C24.7707447,2.34301626 29.7915238,6.69447015 32.8043272,13.2781279 C30.3495748,5.46709393 25.2171015,-4.19897793e-05 19.1914947,-4.19897793e-05 C13.1663078,-4.19897793e-05 8.03383447,5.35581966 5.57908204,13.2781279 C8.59188544,6.58319587 13.5009704,2.34301626 19.1914947,2.34301626" id="Fill-6" stroke="none" fill="#000000" fill-rule="evenodd"></path>
                        <g id="Group-10" stroke="none" stroke-width="1" fill="none" fill-rule="evenodd" transform="translate(5.458738, 21.849060)">
                            <mask id="mask-6" fill="white">
                                <use xlink:href="#path-5"></use>
                            </mask>
                            <g id="Clip-9"></g>
                            <path d="M13.7991854,11.5126461 C19.3771757,11.4269859 24.3307704,6.99868981 27.2419573,0.370102427 C24.907717,8.21724806 19.8596442,13.7629058 13.8348772,13.8557044 C7.81011019,13.9485029 2.59575583,8.67200291 0.0200713592,0.788325728 C3.13533107,7.43622864 8.10908107,11.5999859 13.7991854,11.5126461" id="Fill-8" fill="#000000" mask="url(#mask-6)"></path>
                        </g>
                        <path d="M62.180693,9.91726699 C62.180693,9.23576456 62.0891541,8.62480583 61.9060765,8.08397087 C61.7225789,7.54313592 61.4622391,7.08376214 61.1246371,6.70584951 C60.7870352,6.3283568 60.3759502,6.03904369 59.892642,5.83875 C59.4084939,5.63887621 58.8638799,5.53809951 58.2567002,5.53809951 C57.6499405,5.53809951 57.1049066,5.63887621 56.6211784,5.83875 C56.1374502,6.03904369 55.7255255,6.3283568 55.3845643,6.70584951 C55.044443,7.08376214 54.7824235,7.54313592 54.598926,8.08397087 C54.4162682,8.62480583 54.3243095,9.23576456 54.3243095,9.91726699 C54.3243095,10.5983495 54.4162682,11.2088883 54.598926,11.7501432 C54.7824235,12.2909782 55.044443,12.7490922 55.3845643,13.1240655 C55.7255255,13.4986189 56.1374502,13.7866723 56.6211784,13.9865461 C57.1049066,14.1872597 57.6499405,14.2871966 58.2567002,14.2871966 C58.8638799,14.2871966 59.4084939,14.1872597 59.892642,13.9865461 C60.3759502,13.7866723 60.7870352,13.4986189 61.1246371,13.1240655 C61.4622391,12.7490922 61.7225789,12.2909782 61.9060765,11.7501432 C62.0891541,11.2088883 62.180693,10.5983495 62.180693,9.91726699 M64.541807,9.91726699 C64.541807,10.8271966 64.3919017,11.6699417 64.0912512,12.4455024 C63.7906007,13.221483 63.365659,13.8924879 62.816426,14.4589369 C62.2663532,15.0258058 61.605426,15.4679636 60.8328046,15.7858301 C60.0597633,16.1032767 59.2010619,16.262 58.2567002,16.262 C57.3182172,16.262 56.4624551,16.1032767 55.6898337,15.7858301 C54.9167925,15.4679636 54.2541857,15.0258058 53.7020133,14.4589369 C53.1494211,13.8924879 52.72196,13.221483 52.4183701,12.4455024 C52.1147803,11.6699417 51.9631954,10.8271966 51.9631954,9.91726699 C51.9631954,9.00691748 52.1147803,8.16417233 52.4183701,7.38861165 C52.72196,6.61305097 53.1494211,5.94162621 53.7020133,5.37517718 C54.2541857,4.80830825 54.9167925,4.36615049 55.6898337,4.04828398 C56.4624551,3.73125728 57.3182172,3.57211408 58.2567002,3.57211408 C58.8865546,3.57211408 59.4786177,3.64475728 60.0345692,3.7908835 C60.5892609,3.93700971 61.0990231,4.14276214 61.5625959,4.40940049 C62.0261687,4.67519903 62.4427124,4.99894417 62.811807,5.37937621 C63.1809017,5.76022816 63.4945692,6.18475 63.7519697,6.65420146 C64.0093701,7.12407282 64.2054648,7.63341505 64.3402536,8.18264806 C64.4746226,8.73230097 64.541807,9.31050728 64.541807,9.91726699" id="Fill-11" stroke="none" fill="#000000" fill-rule="evenodd"></path>
                        <path d="M70.328615,9.61628058 C70.7636345,9.61628058 71.1428068,9.56211311 71.4665519,9.45335825 C71.7894573,9.3450233 72.0556757,9.19469806 72.2647874,9.00280243 C72.4734791,8.8109068 72.629683,8.58331942 72.7329791,8.32004029 C72.8358553,8.05676117 72.8875034,7.76786796 72.8875034,7.45294078 C72.8875034,6.82350631 72.6800714,6.33977816 72.2647874,6.00217621 C71.8499233,5.66415437 71.2158699,5.4953534 70.3630471,5.4953534 L68.8862485,5.4953534 L68.8862485,9.61628058 L70.328615,9.61628058 Z M76.2702413,16.1247757 L74.1841636,16.1247757 C73.788615,16.1247757 73.5026612,15.9702515 73.3254621,15.6612029 L70.7149257,11.685982 C70.6175083,11.5369165 70.510433,11.431101 70.3928602,11.3681155 C70.2757073,11.3047102 70.1027073,11.2736374 69.8734403,11.2736374 L68.8862485,11.2736374 L68.8862485,16.1247757 L66.5763626,16.1247757 L66.5763626,3.70950631 L70.3630471,3.70950631 C71.2045325,3.70950631 71.9271854,3.79684612 72.5310058,3.97152573 C73.1348262,4.14620534 73.6298917,4.39058883 74.0162024,4.70551602 C74.4025131,5.0204432 74.6876272,5.39667621 74.8707049,5.83463495 C75.0537825,6.27217379 75.1457413,6.75506214 75.1457413,7.28120049 C75.1457413,7.69900388 75.0835956,8.09413252 74.9605641,8.4661665 C74.8375325,8.83778058 74.6603335,9.17580243 74.4285471,9.47939223 C74.1967607,9.78256214 73.9103869,10.0487806 73.5698456,10.2776277 C73.2293044,10.5068947 72.8413141,10.687033 72.4062947,10.8184626 C72.5553602,10.9045427 72.6926684,11.0065791 72.8186393,11.123732 C72.9441903,11.240885 73.0592437,11.3794529 73.1621199,11.5398558 L76.2702413,16.1247757 Z" id="Fill-13" stroke="none" fill="#000000" fill-rule="evenodd"></path>
                        <path d="M84.177601,11.4369796 L82.6663704,7.30681456 C82.5920476,7.1241568 82.5147854,6.90664709 82.4350039,6.65428544 C82.3543825,6.40276359 82.274601,6.1306665 82.1939796,5.83883398 C82.1200767,6.1306665 82.0423947,6.4040233 81.9626131,6.65890437 C81.8819917,6.91336553 81.8051495,7.13549417 81.7308267,7.32403058 L80.2279942,11.4369796 L84.177601,11.4369796 Z M88.256118,16.1247757 L86.4702709,16.1247757 C86.2695573,16.1247757 86.106635,16.0748073 85.9806641,15.9748704 C85.8546932,15.8745136 85.760635,15.7498024 85.6972296,15.6011568 L84.770084,13.0683024 L79.6271131,13.0683024 L78.6995476,15.6011568 C78.6537782,15.7325864 78.5651786,15.8530985 78.4333291,15.9614335 C78.3018995,16.0706083 78.1385573,16.1247757 77.9441422,16.1247757 L76.1410791,16.1247757 L81.0266495,3.70950631 L83.3793655,3.70950631 L88.256118,16.1247757 Z" id="Fill-15" stroke="none" fill="#000000" fill-rule="evenodd"></path>
                        <path d="M97.7006163,13.1969607 C97.8265871,13.1969607 97.9378614,13.2456694 98.0356988,13.3430869 L98.9456284,14.3302786 C98.4421648,14.9546743 97.8219682,15.4321039 97.0867182,15.7638272 C96.3510483,16.0959704 95.4684124,16.2622519 94.4375507,16.2622519 C93.5162837,16.2622519 92.6878153,16.1052083 91.9525653,15.7902811 C91.2168954,15.4753539 90.5887206,15.0373951 90.0676211,14.4764049 C89.5465216,13.9154146 89.1476138,13.2456694 88.870058,12.4671694 C88.5925022,11.6886694 88.4535143,10.8387859 88.4535143,9.91709903 C88.4535143,8.98407476 88.60216,8.12999223 88.8998711,7.35443155 C89.1975823,6.57845097 89.6166454,5.90996553 90.1579002,5.34939515 C90.6987352,4.78840485 91.3437061,4.35212573 92.0936527,4.03971796 C92.8440192,3.7277301 93.6737473,3.57194612 94.5836769,3.57194612 C95.4881478,3.57194612 96.2910022,3.72101165 96.99224,4.01872282 C97.693058,4.31643398 98.28974,4.70526408 98.7822862,5.18605291 L98.0096648,6.25974466 C97.9638954,6.32860874 97.905109,6.38823495 97.8333056,6.43988301 C97.7619221,6.49111117 97.6632449,6.51714515 97.537274,6.51714515 C97.4516138,6.51714515 97.3625944,6.49237087 97.2714755,6.44408204 C97.1799367,6.3957932 97.0795799,6.33532718 96.970825,6.26352379 C96.8620701,6.19214029 96.7360993,6.11361845 96.5929124,6.02753835 C96.4497255,5.94187816 96.2838638,5.86335631 96.0949075,5.79113301 C95.9063711,5.71974951 95.6871818,5.6601233 95.4381794,5.61141456 C95.1891769,5.56228592 94.9015434,5.53835146 94.5752789,5.53835146 C94.0197473,5.53835146 93.5116648,5.63702864 93.0514512,5.83480291 C92.5903978,6.03215728 92.1940095,6.31811117 91.8622862,6.69308447 C91.530143,7.06805777 91.2723226,7.52575194 91.0892449,8.0670068 C90.9057473,8.60742184 90.8146284,9.22425922 90.8146284,9.91709903 C90.8146284,10.6153976 90.9133056,11.236434 91.1110799,11.7802083 C91.3080143,12.3244024 91.5759124,12.7820966 91.9135143,13.1541306 C92.2511163,13.5261646 92.6491842,13.8108587 93.1072983,14.0082131 C93.5645726,14.2055675 94.0571187,14.3046646 94.5836769,14.3046646 C94.8986041,14.3046646 95.1832983,14.2874485 95.4381794,14.2534364 C95.6930604,14.2190044 95.9273663,14.164417 96.1423566,14.0900942 C96.3569269,14.0153515 96.55974,13.9196136 96.7516357,13.8020408 C96.9435313,13.6848879 97.1337473,13.5404413 97.3231235,13.368701 C97.3798104,13.3170529 97.4402765,13.2754825 97.502842,13.2439898 C97.5662473,13.2124971 97.6317522,13.1969607 97.7006163,13.1969607" id="Fill-17" stroke="none" fill="#000000" fill-rule="evenodd"></path>
                        <polygon id="Fill-19" stroke="none" fill="#000000" fill-rule="evenodd" points="107.806588 14.2188364 107.806588 16.1247757 100.534289 16.1247757 100.534289 3.70950631 102.844175 3.70950631 102.844175 14.2188364"></polygon>
                        <polygon id="Fill-21" stroke="none" fill="#000000" fill-rule="evenodd" points="111.772697 5.5468335 111.772697 8.98961748 116.117432 8.98961748 116.117432 10.7670665 111.772697 10.7670665 111.772697 14.2787146 117.285182 14.2787146 117.285182 16.1246078 109.454413 16.1246078 109.454413 3.70933835 117.285182 3.70933835 117.285182 5.5468335"></polygon>
                        <path d="M127.588382,13.1969607 C127.714353,13.1969607 127.825627,13.2456694 127.923464,13.3430869 L128.833394,14.3302786 C128.32993,14.9546743 127.709734,15.4321039 126.974484,15.7638272 C126.238814,16.0959704 125.356178,16.2622519 124.325316,16.2622519 C123.404049,16.2622519 122.575581,16.1052083 121.840331,15.7902811 C121.104661,15.4753539 120.476486,15.0373951 119.955387,14.4764049 C119.434287,13.9154146 119.035379,13.2456694 118.757824,12.4671694 C118.480268,11.6886694 118.34128,10.8387859 118.34128,9.91709903 C118.34128,8.98407476 118.489925,8.12999223 118.787637,7.35443155 C119.085348,6.57845097 119.504411,5.90996553 120.045666,5.34939515 C120.586501,4.78840485 121.231472,4.35212573 121.981418,4.03971796 C122.731785,3.7277301 123.561513,3.57194612 124.471442,3.57194612 C125.375913,3.57194612 126.178768,3.72101165 126.880006,4.01872282 C127.580824,4.31643398 128.177506,4.70526408 128.670052,5.18605291 L127.89743,6.25974466 C127.851661,6.32860874 127.792875,6.38823495 127.721071,6.43988301 C127.649688,6.49111117 127.55101,6.51714515 127.42504,6.51714515 C127.339379,6.51714515 127.25036,6.49237087 127.159241,6.44408204 C127.067702,6.3957932 126.967345,6.33532718 126.858591,6.26352379 C126.749836,6.19214029 126.623865,6.11361845 126.480678,6.02753835 C126.337491,5.94187816 126.171629,5.86335631 125.982673,5.79113301 C125.794137,5.71974951 125.574947,5.6601233 125.325945,5.61141456 C125.076942,5.56228592 124.789309,5.53835146 124.463044,5.53835146 C123.907513,5.53835146 123.39943,5.63702864 122.939217,5.83480291 C122.478163,6.03215728 122.081775,6.31811117 121.750052,6.69308447 C121.417908,7.06805777 121.160088,7.52575194 120.97701,8.0670068 C120.793513,8.60742184 120.702394,9.22425922 120.702394,9.91709903 C120.702394,10.6153976 120.801071,11.236434 120.998845,11.7802083 C121.19578,12.3244024 121.463678,12.7820966 121.80128,13.1541306 C122.138882,13.5261646 122.53695,13.8108587 122.995064,14.0082131 C123.452338,14.2055675 123.944884,14.3046646 124.471442,14.3046646 C124.78637,14.3046646 125.071064,14.2874485 125.325945,14.2534364 C125.580826,14.2190044 125.815132,14.164417 126.030122,14.0900942 C126.244692,14.0153515 126.447506,13.9196136 126.639401,13.8020408 C126.831297,13.6848879 127.021513,13.5404413 127.210889,13.368701 C127.267576,13.3170529 127.328042,13.2754825 127.390608,13.2439898 C127.454013,13.2124971 127.519518,13.1969607 127.588382,13.1969607" id="Fill-23" stroke="none" fill="#000000" fill-rule="evenodd"></path>
                        <polygon id="Fill-25" stroke="none" fill="#000000" fill-rule="evenodd" points="140.887883 3.70933835 140.887883 16.1246078 138.569599 16.1246078 138.569599 10.6986223 132.739667 10.6986223 132.739667 16.1246078 130.421383 16.1246078 130.421383 3.70933835 132.739667 3.70933835 132.739667 9.04966359 138.569599 9.04966359 138.569599 3.70933835"></polygon>
                        <path d="M150.212289,11.4369796 L148.701058,7.30681456 C148.626735,7.1241568 148.549473,6.90664709 148.469692,6.65428544 C148.38907,6.40276359 148.309289,6.1306665 148.228667,5.83883398 C148.154765,6.1306665 148.077083,6.4040233 147.997301,6.65890437 C147.91668,6.91336553 147.839837,7.13549417 147.765515,7.32403058 L146.262682,11.4369796 L150.212289,11.4369796 Z M154.290806,16.1247757 L152.504959,16.1247757 C152.304245,16.1247757 152.141323,16.0748073 152.015352,15.9748704 C151.889381,15.8745136 151.795323,15.7498024 151.731917,15.6011568 L150.804772,13.0683024 L145.661801,13.0683024 L144.734235,15.6011568 C144.688466,15.7325864 144.599867,15.8530985 144.468017,15.9614335 C144.336587,16.0706083 144.173245,16.1247757 143.97883,16.1247757 L142.175767,16.1247757 L147.061337,3.70950631 L149.414053,3.70950631 L154.290806,16.1247757 Z" id="Fill-27" stroke="none" fill="#000000" fill-rule="evenodd"></path>
                        <mask id="mask-8" fill="white">
                            <use xlink:href="#path-7"></use>
                        </mask>
                        <g id="Clip-30" stroke="none" fill="none"></g>
                        <polygon id="Fill-29" stroke="none" fill="#000000" fill-rule="evenodd" mask="url(#mask-8)" points="155.578228 16.1249437 157.896512 16.1249437 157.896512 3.70967427 155.578228 3.70967427"></polygon>
                        <path d="M171.136051,3.70933835 L171.136051,16.1246078 L169.951505,16.1246078 C169.768007,16.1246078 169.614743,16.0943748 169.491711,16.0347485 C169.36868,15.9747024 169.249847,15.8730859 169.135214,15.729899 L162.653172,7.45277282 C162.687604,7.83068544 162.7044,8.17962476 162.7044,8.50001068 L162.7044,16.1246078 L160.669551,16.1246078 L160.669551,3.70933835 L161.880131,3.70933835 C161.977549,3.70933835 162.061949,3.71395728 162.133752,3.72193544 C162.204716,3.7311733 162.268121,3.74838932 162.322709,3.7735835 C162.376876,3.79961748 162.429784,3.83698883 162.481432,3.88527767 C162.53308,3.93398641 162.589767,3.99823155 162.653172,4.07885291 L169.161248,12.3899913 C169.144032,12.1896976 169.129755,11.9923432 169.118417,11.7975083 C169.10666,11.6026733 169.101201,11.422535 169.101201,11.2566733 L169.101201,3.70933835 L171.136051,3.70933835 Z" id="Fill-31" stroke="none" fill="#000000" fill-rule="evenodd" mask="url(#mask-8)"></path>
                        <polygon id="Fill-32" stroke="none" fill="#000000" fill-rule="evenodd" mask="url(#mask-8)" points="53.5882617 24.691383 54.8870214 24.691383 54.8870214 29.4518223 56.6758078 29.4518223 56.6758078 30.7598199 53.5882617 30.7598199"></polygon>
                        <path d="M59.6820607,30.7598199 L60.8649272,30.7598199 L60.8649272,26.7850189 L59.6820607,26.7850189 L59.6820607,30.7598199 Z M59.5296359,25.3128393 C59.5296359,25.1121257 59.6022791,24.9391257 59.7471456,24.7938393 C59.8915922,24.648133 60.0658519,24.5759097 60.269085,24.5759097 C60.472318,24.5759097 60.6465777,24.648133 60.7914442,24.7938393 C60.9363107,24.9391257 61.008534,25.1121257 61.008534,25.3128393 C61.008534,25.517332 60.9363107,25.6915917 60.7914442,25.8368782 C60.6465777,25.9821646 60.472318,26.0548078 60.269085,26.0548078 C60.0658519,26.0548078 59.8915922,25.9821646 59.7471456,25.8368782 C59.6022791,25.6915917 59.5296359,25.517332 59.5296359,25.3128393 Z" id="Fill-33" stroke="none" fill="#000000" fill-rule="evenodd" mask="url(#mask-8)"></path>
                        <path d="M65.4439684,26.7851449 L65.4439684,27.256276 C65.8474951,26.8775235 66.2711772,26.6881473 66.7145947,26.6881473 C67.093767,26.6881473 67.4074345,26.8439313 67.6555971,27.1550794 C67.9033398,27.4662274 68.0272112,27.8634556 68.0272112,28.3471837 L68.0272112,30.7599459 L66.8258689,30.7599459 L66.8258689,28.5369799 C66.8258689,28.3089726 66.7637233,28.1162371 66.6385922,27.9591934 C66.5138811,27.8017299 66.3622961,27.723208 66.1834175,27.723208 C65.9675874,27.723208 65.7903883,27.822725 65.6518204,28.0213391 C65.5132524,28.2203731 65.4439684,28.4765138 65.4439684,28.7910211 L65.4439684,30.7599459 L64.260682,30.7599459 L64.260682,26.7851449 L65.4439684,26.7851449 Z" id="Fill-34" stroke="none" fill="#000000" fill-rule="evenodd" mask="url(#mask-8)"></path>
                        <polygon id="Fill-35" stroke="none" fill="#000000" fill-rule="evenodd" mask="url(#mask-8)" points="71.2467328 24.5896825 72.4207813 24.5896825 72.4207813 28.3356364 73.59441 26.7853549 75.0136818 26.7853549 73.6951867 28.5355102 75.1245362 30.7597359 73.7955434 30.7597359 72.4207813 28.6547626 72.4207813 30.7597359 71.2467328 30.7597359"></polygon>
                        <path d="M83.8376896,25.837508 L83.8376896,29.5859813 L84.35501,29.5859813 C84.8916459,29.5859813 85.332124,29.4394352 85.6772842,29.1467629 C86.0220245,28.8545104 86.1946046,28.3657434 86.1946046,27.6817216 C86.1946046,27.2840735 86.1114638,26.9321949 85.9451823,26.6256658 C85.7789007,26.3187167 85.5378765,26.1108648 85.2216896,26.00169 C84.9059226,25.8925153 84.6048522,25.837508 84.3184784,25.837508 L83.8376896,25.837508 Z M82.5200342,24.691593 L84.5909954,24.691593 C85.474891,24.691593 86.1870464,24.9704085 86.7262017,25.5280396 C87.265357,26.0856706 87.5353546,26.8205007 87.5353546,27.7325299 C87.5353546,28.6474983 87.256959,29.3810687 86.7005876,29.9324012 C86.1446362,30.4841536 85.4043473,30.7600299 84.4797211,30.7600299 L82.5200342,30.7600299 L82.5200342,24.691593 Z" id="Fill-36" stroke="none" fill="#000000" fill-rule="evenodd" mask="url(#mask-8)"></path>
                        <path d="M92.3534046,27.8898675 C92.1190988,27.8898675 91.923424,27.9830859 91.7663803,28.1695228 C91.6093367,28.3555398 91.5303949,28.5906854 91.5303949,28.8741199 C91.5303949,29.1394985 91.6051376,29.3523893 91.7546231,29.5140519 C91.9041085,29.6761345 92.1002032,29.7567558 92.3441667,29.7567558 C92.5780527,29.7567558 92.7787663,29.6639573 92.9446279,29.4771005 C93.1113294,29.2910835 93.1944701,29.0651757 93.1944701,28.800217 C93.1944701,28.553734 93.1113294,28.3404233 92.9446279,28.160285 C92.7787663,27.9797267 92.5814119,27.8898675 92.3534046,27.8898675 Z M93.2221837,30.7599039 L93.2221837,30.080501 L93.203708,30.080501 C93.0189507,30.3454597 92.8325138,30.5373553 92.6443973,30.655768 C92.4562808,30.7746005 92.2236546,30.8338068 91.9465187,30.8338068 C91.4812663,30.8338068 91.0848779,30.6335131 90.7586133,30.2329257 C90.4323488,29.8323383 90.2685867,29.3456709 90.2685867,28.7725034 C90.2685867,28.2056345 90.4428464,27.7198068 90.7909459,27.3141806 C91.1390454,26.9089743 91.5522299,26.7065811 92.0296595,26.7065811 C92.2576667,26.7065811 92.4625794,26.7573893 92.6443973,26.8590058 C92.8262153,26.9606223 93.0189507,27.1227049 93.2221837,27.3444136 L93.2221837,26.7943408 L94.4054701,26.7943408 L94.4054701,30.7599039 L93.2221837,30.7599039 Z" id="Fill-37" stroke="none" fill="#000000" fill-rule="evenodd" mask="url(#mask-8)"></path>
                        <polygon id="Fill-38" stroke="none" fill="#000000" fill-rule="evenodd" mask="url(#mask-8)" points="97.6616493 25.4216782 98.8445158 25.4216782 98.8445158 26.7851029 99.4134842 26.7851029 99.4134842 27.8713917 98.8445158 27.8713917 98.8445158 30.7599039 97.6616493 30.7599039 97.6616493 27.8713917 97.208574 27.8713917 97.208574 26.7851029 97.6616493 26.7851029"></polygon>
                        <path d="M103.972916,27.8898675 C103.73861,27.8898675 103.542935,27.9830859 103.385892,28.1695228 C103.228848,28.3555398 103.149906,28.5906854 103.149906,28.8741199 C103.149906,29.1394985 103.224649,29.3523893 103.374134,29.5140519 C103.52362,29.6761345 103.719715,29.7567558 103.963678,29.7567558 C104.197564,29.7567558 104.398278,29.6639573 104.564139,29.4771005 C104.730841,29.2910835 104.813982,29.0651757 104.813982,28.800217 C104.813982,28.553734 104.730841,28.3404233 104.564139,28.160285 C104.398278,27.9797267 104.200923,27.8898675 103.972916,27.8898675 Z M104.841695,30.7599039 L104.841695,30.080501 L104.823219,30.080501 C104.638462,30.3454597 104.452025,30.5373553 104.263909,30.655768 C104.075792,30.7746005 103.843166,30.8338068 103.56603,30.8338068 C103.100778,30.8338068 102.704389,30.6335131 102.378125,30.2329257 C102.05186,29.8323383 101.888098,29.3456709 101.888098,28.7725034 C101.888098,28.2056345 102.062358,27.7198068 102.410457,27.3141806 C102.758557,26.9089743 103.171741,26.7065811 103.649171,26.7065811 C103.877178,26.7065811 104.082091,26.7573893 104.263909,26.8590058 C104.445727,26.9606223 104.638462,27.1227049 104.841695,27.3444136 L104.841695,26.7943408 L106.024982,26.7943408 L106.024982,30.7599039 L104.841695,30.7599039 Z" id="Fill-39" stroke="none" fill="#000000" fill-rule="evenodd" mask="url(#mask-8)"></path>
                        <polygon id="Fill-40" stroke="none" fill="#000000" fill-rule="evenodd" mask="url(#mask-8)" points="113.966101 24.691383 115.264861 24.691383 115.264861 29.4518223 117.053648 29.4518223 117.053648 30.7598199 113.966101 30.7598199"></polygon>
                        <path d="M120.0599,30.7598199 L121.242767,30.7598199 L121.242767,26.7850189 L120.0599,26.7850189 L120.0599,30.7598199 Z M119.907476,25.3128393 C119.907476,25.1121257 119.980119,24.9391257 120.124985,24.7938393 C120.269432,24.648133 120.443692,24.5759097 120.646925,24.5759097 C120.850158,24.5759097 121.024417,24.648133 121.169284,24.7938393 C121.31415,24.9391257 121.386794,25.1121257 121.386794,25.3128393 C121.386794,25.517332 121.31415,25.6915917 121.169284,25.8368782 C121.024417,25.9821646 120.850158,26.0548078 120.646925,26.0548078 C120.443692,26.0548078 120.269432,25.9821646 120.124985,25.8368782 C119.980119,25.6915917 119.907476,25.517332 119.907476,25.3128393 Z" id="Fill-41" stroke="none" fill="#000000" fill-rule="evenodd" mask="url(#mask-8)"></path>
                        <path d="M125.821808,26.7851449 L125.821808,27.256276 C126.225335,26.8775235 126.649017,26.6881473 127.092434,26.6881473 C127.471607,26.6881473 127.785274,26.8439313 128.033437,27.1550794 C128.28118,27.4662274 128.405051,27.8634556 128.405051,28.3471837 L128.405051,30.7599459 L127.203709,30.7599459 L127.203709,28.5369799 C127.203709,28.3089726 127.141563,28.1162371 127.016432,27.9591934 C126.891721,27.8017299 126.740136,27.723208 126.561257,27.723208 C126.345427,27.723208 126.168228,27.822725 126.02966,28.0213391 C125.891092,28.2203731 125.821808,28.4765138 125.821808,28.7910211 L125.821808,30.7599459 L124.638522,30.7599459 L124.638522,26.7851449 L125.821808,26.7851449 Z" id="Fill-42" stroke="none" fill="#000000" fill-rule="evenodd" mask="url(#mask-8)"></path>
                        <polygon id="Fill-43" stroke="none" fill="#000000" fill-rule="evenodd" mask="url(#mask-8)" points="131.624615 24.5896825 132.798663 24.5896825 132.798663 28.3356364 133.972292 26.7853549 135.391564 26.7853549 134.073068 28.5355102 135.502418 30.7597359 134.173425 30.7597359 132.798663 28.6547626 132.798663 30.7597359 131.624615 30.7597359"></polygon>
                        <polygon id="Fill-44" stroke="none" fill="#000000" fill-rule="evenodd" mask="url(#mask-8)" points="142.463736 24.691383 143.627707 24.691383 144.606081 28.8282665 145.625185 24.691383 146.457853 24.691383 147.462261 28.8467422 148.45827 24.691383 149.623081 24.691383 148.153841 30.7598199 146.923945 30.7598199 146.034171 27.0394801 145.142717 30.7598199 143.91786 30.7598199"></polygon>
                        <path d="M155.287193,28.7817413 C155.287193,28.5134233 155.199434,28.2795374 155.023914,28.0792437 C154.848395,27.87895 154.643482,27.7785932 154.409176,27.7785932 C154.165633,27.7785932 153.956101,27.8726515 153.780582,28.060768 C153.605062,28.2484646 153.516883,28.4739524 153.516883,28.7355519 C153.516883,29.0219257 153.604223,29.2654694 153.778062,29.4657631 C153.952322,29.6660568 154.162693,29.7664136 154.409176,29.7664136 C154.643482,29.7664136 154.848395,29.6681563 155.023914,29.4729015 C155.199434,29.2772267 155.287193,29.0467 155.287193,28.7817413 M152.343254,28.7817413 C152.343254,28.168683 152.538929,27.6681587 152.930278,27.2797485 C153.321208,26.8913383 153.823832,26.6973432 154.43689,26.6973432 C155.006698,26.6973432 155.485388,26.8955374 155.872118,27.2910859 C156.258429,27.6874743 156.452004,28.1779209 156.452004,28.7632655 C156.452004,29.3612073 156.258429,29.8571126 155.872118,30.2514015 C155.485388,30.6456903 155.0004,30.8430447 154.418414,30.8430447 C153.762106,30.8430447 153.251924,30.6343529 152.888708,30.2169694 C152.525072,29.7995859 152.343254,29.3208966 152.343254,28.7817413" id="Fill-45" stroke="none" fill="#000000" fill-rule="evenodd" mask="url(#mask-8)"></path>
                        <path d="M160.683618,26.7851449 L160.683618,27.3717493 L160.702093,27.3717493 C160.819246,27.1748148 160.955295,27.0186109 161.111499,26.9027177 C161.266863,26.7872444 161.41047,26.7297177 161.543159,26.7297177 C161.62336,26.7297177 161.695584,26.7360163 161.760249,26.7481934 L161.760249,28.0423342 C161.661992,28.0234386 161.564994,28.0146206 161.469256,28.0146206 C161.225712,28.0146206 161.037176,28.0998609 160.902807,28.2711813 C160.768858,28.4420818 160.702093,28.6818464 160.702093,28.9896352 L160.702093,30.7599459 L159.500751,30.7599459 L159.500751,26.7851449 L160.683618,26.7851449 Z" id="Fill-46" stroke="none" fill="#000000" fill-rule="evenodd" mask="url(#mask-8)"></path>
                        <polygon id="Fill-47" stroke="none" fill="#000000" fill-rule="evenodd" mask="url(#mask-8)" points="164.656529 30.7598199 165.839396 30.7598199 165.839396 24.5897665 164.656529 24.5897665"></polygon>
                        <path d="M170.910101,27.8713917 C170.716526,27.8713917 170.535128,27.9608311 170.366327,28.1392898 C170.197526,28.3177485 170.113125,28.5600325 170.113125,28.864882 C170.113125,29.1084257 170.187028,29.3162777 170.336514,29.4888578 C170.485159,29.6614379 170.665718,29.7479379 170.877769,29.7479379 C171.12971,29.7479379 171.340082,29.6542995 171.509303,29.4682825 C171.678104,29.2814257 171.762924,29.0500592 171.762924,28.7725034 C171.762924,28.531899 171.680623,28.3215277 171.516021,28.1418092 C171.351839,27.961251 171.149866,27.8713917 170.910101,27.8713917 Z M171.7814,24.5898505 L172.973924,24.5898505 L172.973924,30.7599039 L171.809113,30.7599039 L171.809113,30.080501 L171.790638,30.080501 C171.445897,30.5764063 171.018436,30.8245689 170.507834,30.8245689 C170.05224,30.8245689 169.663829,30.6259549 169.342604,30.2283068 C169.020958,29.8310786 168.860135,29.3456709 168.860135,28.7725034 C168.860135,28.1993359 169.026417,27.710149 169.35898,27.3049427 C169.691123,26.9001563 170.089191,26.6973432 170.553604,26.6973432 C170.818142,26.6973432 171.041111,26.745632 171.222929,26.8430495 C171.404327,26.9396272 171.590344,27.0979306 171.7814,27.3167 L171.7814,24.5898505 Z" id="Fill-48" stroke="none" fill="#000000" fill-rule="evenodd" mask="url(#mask-8)"></path>
                    </g>
                </g>
            </g>
        </g>
    </g>
</svg>