<?xml version="1.0" encoding="UTF-8"?>
<svg width="198px" height="88px" viewBox="0 0 198 88" version="1.1" xmlns="http://www.w3.org/2000/svg" xmlns:xlink="http://www.w3.org/1999/xlink">
    <!-- Generator: Sketch 52.5 (67469) - http://www.bohemiancoding.com/sketch -->
    <title>logo_p18</title>
    <desc>Created with Sketch.</desc>
    <defs>
        <polygon id="path-1" points="0 0 198 0 198 88 0 88"></polygon>
        <path d="M22.6555961,0.22604275 C22.285583,0.229839661 21.9165886,0.32653432 21.5863017,0.515620472 L1.09221334,12.276931 C0.418397414,12.6637097 0,13.3846164 0,14.1576675 L0,37.6795292 C0,38.4530865 0.418397414,39.1737401 1.09272264,39.5607719 L21.6301022,51.3466358 C21.9680288,51.5405314 22.3449175,51.6379854 22.7225702,51.6379854 C23.0518386,51.6379854 23.3813615,51.5640722 23.686183,51.4149802 L29.716148,48.4688306 C29.7388122,48.457693 29.764023,48.4541492 29.7892338,48.4561743 L43.1881373,50.0002513 C43.7476133,50.065305 44.2869716,49.7921806 44.5640358,49.3049104 C44.8405906,48.8189058 44.7978086,48.2177283 44.454025,47.7752616 L40.0793146,42.1386211 L40.0793146,42.138368 C40.0553771,42.1077396 40.0472281,42.0730611 40.0546131,42.0348389 C40.0625074,41.9966167 40.0833891,41.967507 40.1170035,41.9482693 L44.2668539,39.5602656 C44.9399059,39.1732339 45.357794,38.4530865 45.357794,37.6802886 L45.357794,14.1576675 C45.357794,13.3843633 44.9386326,12.6634565 44.264562,12.2766779 L23.771747,0.515873599 C23.4417147,0.32653432 23.0727202,0.229839661 22.7027072,0.22604275 L22.6555961,0.22604275 Z M22.657888,49.5770223 L2.12076304,37.7914115 C2.08052762,37.7681238 2.05582613,37.7258515 2.05582613,37.6795292 L2.05582613,14.1576675 C2.05582613,14.1115983 2.08052762,14.0690729 2.12025373,14.0462914 L22.6138327,2.28548711 C22.6339505,2.27384325 22.6563601,2.26802132 22.6790243,2.26802132 C22.7011793,2.26802132 22.7235889,2.27384325 22.7437066,2.28548711 L43.2370309,14.0462914 C43.276757,14.0690729 43.3017132,14.1118514 43.3017132,14.1576675 L43.3017132,37.6802886 C43.3017132,37.7261046 43.276757,37.7688832 43.2370309,37.7921709 L39.0871805,40.1799215 C38.5419651,40.4935463 38.159474,41.02562 38.0377491,41.6402133 C37.9162789,42.2545535 38.0670344,42.8911688 38.4520721,43.3867922 L41.8705546,47.7917149 L30.0252986,46.4265989 C29.6094477,46.3787579 29.1885037,46.450646 28.8103417,46.6349228 L22.7796129,49.5813255 C22.7615324,49.5901849 22.741924,49.5944881 22.7225702,49.5944881 C22.7004153,49.5944881 22.6780057,49.5886662 22.657888,49.5770223 Z" id="path-3"></path>
        <linearGradient x1="49.9998002%" y1="93.2465958%" x2="49.9998002%" y2="5.55179044%" id="linearGradient-5">
            <stop stop-color="#5D70E9" offset="0%"></stop>
            <stop stop-color="#21BCFB" offset="100%"></stop>
        </linearGradient>
        <path d="M0.148532798,2.12326751 C0.148532798,3.17117981 1.00883888,4.02038517 2.07044939,4.02038517 C2.11318153,4.02038517 2.15333944,4.01098344 2.19529931,4.00818833 L13.5671969,23.3201144 C13.2518543,23.6580686 13.0549261,24.1055404 13.0549261,24.6012913 C13.0549261,25.6489495 13.9152321,26.498409 14.9768426,26.498409 C16.0384531,26.498409 16.8987592,25.6489495 16.8987592,24.6012913 C16.8987592,24.1017289 16.6992568,23.6509538 16.3797954,23.3119831 L28.3808336,4.10093517 C28.5486731,4.14819795 28.7224333,4.18148517 28.9054608,4.18148517 C29.9670713,4.18148517 30.8276348,3.33202571 30.8276348,2.28436751 C30.8276348,1.23645521 29.9670713,0.38674164 28.9054608,0.38674164 C28.0309964,0.38674164 27.301461,0.966854101 27.0684936,1.75583754 L3.89557511,1.5571306 C3.65050886,0.787712934 2.93075547,0.226149842 2.07044939,0.226149842 C1.00883888,0.226149842 0.148532798,1.07560931 0.148532798,2.12326751 Z M3.85618946,2.81493028 C3.88605047,2.7399705 3.90896108,2.66196151 3.92929746,2.58268202 L26.9969301,2.78062666 L16.2660147,8.90191845 C15.9210685,8.57743155 15.4569357,8.37542129 14.9431203,8.37542129 C14.4432057,8.37542129 13.9919441,8.56853801 13.6503444,8.87727066 L3.85618946,2.81493028 Z M3.19152449,3.65879953 C3.20233624,3.6509224 3.21186087,3.64126656 3.22267262,3.63338943 L13.1040938,9.75010741 C13.0551835,9.91730584 13.0209463,10.0900945 13.0209463,10.2727931 C13.0209463,11.1415642 13.6161072,11.866006 14.4231268,12.0908853 L14.4231268,22.7331412 L3.19152449,3.65879953 Z M15.4620841,22.7725268 L15.4620841,12.0911394 C16.2696186,11.8665142 16.8650369,11.1418183 16.8650369,10.2727931 C16.8650369,10.1033077 16.8354333,9.94195363 16.7929586,9.78593565 L27.3822917,3.74544795 L15.490658,22.7814203 C15.4811334,22.7786252 15.4718662,22.7748137 15.4620841,22.7725268 Z" id="path-6"></path>
        <linearGradient x1="49.9996994%" y1="122.7089%" x2="49.9996994%" y2="-51.6461823%" id="linearGradient-8">
            <stop stop-color="#5D70E9" offset="0%"></stop>
            <stop stop-color="#21BCFB" offset="100%"></stop>
        </linearGradient>
        <linearGradient x1="49.9993859%" y1="177.633271%" x2="49.9993859%" y2="-46.9936008%" id="linearGradient-9">
            <stop stop-color="#5D70E9" offset="0%"></stop>
            <stop stop-color="#21BCFB" offset="100%"></stop>
        </linearGradient>
        <polygon id="path-10" points="9.40223325 0.165654995 7.25682409 7.73709148 5.04490026 0.165654995 0.151464094 0.165654995 0.151464094 12.2800023 3.83816988 12.2800023 3.83816988 8.19808707 3.70464233 6.28877256 3.5701183 4.51110116 5.84905502 12.2800023 8.66434403 12.2800023 10.8762679 4.51110116 10.9440281 4.51110116 10.7424912 6.68370189 10.6757274 8.5930164 10.6757274 12.2800023 14.2949221 12.2800023 14.2949221 0.165654995"></polygon>
        <linearGradient x1="50.0000451%" y1="177.633271%" x2="50.0000451%" y2="-46.9936008%" id="linearGradient-12">
            <stop stop-color="#5D70E9" offset="0%"></stop>
            <stop stop-color="#21BCFB" offset="100%"></stop>
        </linearGradient>
        <polygon id="path-13" points="0.137943875 0.165654995 0.137943875 12.2800023 10.8623684 12.2800023 10.8623684 9.44894132 4.38573528 9.44894132 4.38573528 7.5398715 9.6783286 7.5398715 9.6783286 4.70832114 4.38573528 4.70832114 4.38573528 2.99647129 10.652994 2.99647129 10.652994 0.165654995"></polygon>
        <linearGradient x1="49.9997396%" y1="177.633271%" x2="49.9997396%" y2="-46.9936008%" id="linearGradient-15">
            <stop stop-color="#5D70E9" offset="0%"></stop>
            <stop stop-color="#21BCFB" offset="100%"></stop>
        </linearGradient>
        <path d="M0.151952366,6.335753 C0.283840168,10.4622018 2.39012997,12.5905137 6.4725346,12.7226462 C10.5546945,12.5905137 12.6832511,10.4834898 12.8589384,6.40132986 C12.5954075,2.36370347 10.4661168,0.2566796 6.4725346,0.0809923239 C2.43368475,0.301213144 0.326416193,2.38548086 0.151952366,6.335753 M4.1022245,6.40132986 C4.18957876,4.25172997 4.9801715,3.13227413 6.4725346,3.04369642 C7.96416362,3.08822997 8.77677844,4.20719642 8.90866625,6.40132986 C8.8641327,8.72857455 8.05298601,9.89109579 6.4725346,9.89109579 C4.93563796,9.84803039 4.14577928,8.68453039 4.1022245,6.40132986" id="path-16"></path>
        <linearGradient x1="49.998623%" y1="172.829158%" x2="49.998623%" y2="-42.4281159%" id="linearGradient-18">
            <stop stop-color="#5D70E9" offset="0%"></stop>
            <stop stop-color="#21BCFB" offset="100%"></stop>
        </linearGradient>
        <path d="M0.453733074,3.96519821 C0.453733074,5.8534694 2.08962194,7.17014522 5.36218151,7.91571504 C7.04550255,8.31064437 7.88651153,8.72857455 7.88651153,9.16681399 C7.83933997,9.73767529 7.23132201,10.0229836 6.06350012,10.0229836 C5.54878282,10.0229836 5.15186411,9.93538465 4.8711803,9.75945268 C4.49667459,9.58474416 4.26316234,9.25539169 4.16986168,8.77188465 L0.10294346,8.77188465 C0.476406697,11.2738379 2.39271876,12.5905137 5.85292211,12.7226462 C9.78014996,12.6338238 11.7897627,11.2738379 11.8841058,8.63999685 C11.8841058,6.8850816 10.223719,5.63422734 6.90476972,4.88718938 C5.26783839,4.49226004 4.45080612,4.05402061 4.45080612,3.57051356 C4.40363455,3.13227413 4.8711803,2.89052061 5.85292211,2.84647645 C6.2735569,2.89052061 6.62460713,2.97811956 6.90476972,3.10927329 C7.23132201,3.24116109 7.44216064,3.5049367 7.53572191,3.89962135 L11.532795,3.89962135 C11.1124208,1.39766814 9.26491143,0.125036488 5.99339432,0.0809923239 C2.39271876,0.212390747 0.546512497,1.50802324 0.453733074,3.96519821" id="path-19"></path>
        <linearGradient x1="50.0002646%" y1="172.829158%" x2="50.0002646%" y2="-42.4281159%" id="linearGradient-21">
            <stop stop-color="#5D70E9" offset="0%"></stop>
            <stop stop-color="#21BCFB" offset="100%"></stop>
        </linearGradient>
        <path d="M0.0770772871,6.335753 C0.209209779,10.4622018 2.31574427,12.5905137 6.3981489,12.7226462 C10.4798195,12.5905137 12.6086207,10.4834898 12.7840633,6.40132986 C12.5207771,2.36370347 10.3914864,0.2566796 6.3981489,0.0809923239 C2.35880967,0.301213144 0.252030494,2.38548086 0.0770772871,6.335753 M4.02759411,6.40132986 C4.11494837,4.25172997 4.90554111,3.13227413 6.3981489,3.04369642 C7.88953323,3.08822997 8.70214805,4.20719642 8.83428055,6.40132986 C8.78950231,8.72857455 7.97786625,9.89109579 6.3981489,9.89109579 C4.86076288,9.84803039 4.07090421,8.68453039 4.02759411,6.40132986" id="path-22"></path>
        <linearGradient x1="50.0000339%" y1="172.829158%" x2="50.0000339%" y2="-42.4281159%" id="linearGradient-24">
            <stop stop-color="#5D70E9" offset="0%"></stop>
            <stop stop-color="#21BCFB" offset="100%"></stop>
        </linearGradient>
        <polygon id="path-25" points="8.66935962 0.165654995 8.66935962 3.98428402 8.81066798 6.74927876 4.15509498 0.165654995 0.204752929 0.165654995 0.204752929 12.2800023 4.29561683 12.2800023 4.29561683 8.46161798 4.08483405 5.69613386 8.74040705 12.2800023 12.76101 12.2800023 12.76101 0.165654995"></polygon>
        <linearGradient x1="49.9999296%" y1="177.633271%" x2="49.9999296%" y2="-46.9936008%" id="linearGradient-27">
            <stop stop-color="#5D70E9" offset="0%"></stop>
            <stop stop-color="#21BCFB" offset="100%"></stop>
        </linearGradient>
        <polygon id="path-28" points="0.0934291535 0.165654995 0.0934291535 12.2800023 10.8175949 12.2800023 10.8175949 9.44894132 4.34096175 9.44894132 4.34096175 7.5398715 9.63355507 7.5398715 9.63355507 4.70832114 4.34096175 4.70832114 4.34096175 2.99647129 10.608738 2.99647129 10.608738 0.165654995"></polygon>
        <linearGradient x1="50.0003642%" y1="177.633271%" x2="50.0003642%" y2="-46.9936008%" id="linearGradient-30">
            <stop stop-color="#5D70E9" offset="0%"></stop>
            <stop stop-color="#21BCFB" offset="100%"></stop>
        </linearGradient>
        <polygon id="path-31" points="0.0129873817 0.0807829259 0.0129873817 6.43027149 5.39936278 6.43027149 5.39936278 5.60317291 1.12086751 5.60317291 1.12086751 3.58458793 4.98263722 3.58458793 4.98263722 2.75748935 1.12086751 2.75748935 1.12086751 0.907881506 5.22657413 0.907881506 5.22657413 0.0807829259"></polygon>
        <linearGradient x1="50.0009949%" y1="223.27946%" x2="50.0009949%" y2="-6.9189674%" id="linearGradient-33">
            <stop stop-color="#5777E9" offset="0%"></stop>
            <stop stop-color="#468EF0" offset="100%"></stop>
        </linearGradient>
        <path d="M0.974830047,1.15492409 C0.44121806,1.75968435 0.183305599,2.54206822 0.183305599,3.51146333 C0.183305599,4.47196491 0.44121806,5.25459582 0.974830047,5.85910903 C1.52598206,6.48165635 2.29082591,6.80182354 3.26022102,6.80182354 C4.22047555,6.80182354 4.98507236,6.49054988 5.54561199,5.86800256 C6.07897693,5.26324231 6.34578293,4.48085844 6.34578293,3.51146333 C6.34578293,2.53342173 6.07897693,1.74189728 5.54561199,1.14603056 C4.98507236,0.514589708 4.22047555,0.203316049 3.26022102,0.203316049 C2.29082591,0.203316049 1.52598206,0.514589708 0.974830047,1.15492409 M1.6863127,5.27213584 C1.33032433,4.83635272 1.15270071,4.24937953 1.15270071,3.51146333 C1.15270071,2.76440655 1.33032433,2.17743336 1.6863127,1.74189728 C2.05959405,1.27943356 2.58406546,1.05709523 3.26022102,1.05709523 C3.93588249,1.05709523 4.46060095,1.27054002 4.8252358,1.71496964 C5.18073009,2.1509998 5.36749428,2.74661948 5.36749428,3.51146333 C5.36749428,4.2671666 5.18073009,4.86328036 4.8252358,5.28992291 C4.46060095,5.72595308 3.93588249,5.94804436 3.26022102,5.94804436 C2.58406546,5.94804436 2.05959405,5.7168125 1.6863127,5.27213584" id="path-34"></path>
        <linearGradient x1="49.9983808%" y1="216.740123%" x2="49.9983808%" y2="-4.770921%" id="linearGradient-36">
            <stop stop-color="#5777E9" offset="0%"></stop>
            <stop stop-color="#468EF0" offset="100%"></stop>
        </linearGradient>
        <path d="M1.28349211,0.656886238 C0.744798107,0.977053431 0.480815457,1.41283655 0.480815457,1.9728821 C0.480815457,2.52452819 0.754962145,2.95117074 1.31398423,3.24465733 C1.53759306,3.35137973 2.08616877,3.52035686 2.9806041,3.76937579 C3.78356309,3.98282058 4.26099054,4.12487007 4.42361514,4.19626538 C4.88099685,4.4005696 5.11505205,4.67651617 5.11505205,5.03201045 C5.11505205,5.31660351 4.95214511,5.53894184 4.6268959,5.69902543 C4.30192902,5.85910903 3.86487539,5.94804436 3.31601735,5.94804436 C2.70617508,5.94804436 2.25895741,5.8502155 1.96448265,5.65455777 C1.63923344,5.44111297 1.43567035,5.07647812 1.35464038,4.57844026 L0.257206625,4.57844026 C0.318190852,5.37885824 0.643157729,5.96583143 1.24283596,6.33935982 C1.74087382,6.64173994 2.43202839,6.80182354 3.31601735,6.80182354 C4.23078076,6.80182354 4.94198107,6.64173994 5.45018297,6.32157275 C5.95838486,5.99251203 6.21220347,5.54808241 6.21220347,4.97889629 C6.21220347,4.39167606 5.89740063,3.93810588 5.27739432,3.60929219 C4.99280126,3.45810213 4.35246688,3.25355087 3.37700158,2.98674487 C2.69601104,2.80887421 2.27956782,2.67547121 2.11694322,2.59567646 C1.75103785,2.42645229 1.57824921,2.204361 1.57824921,1.9195209 C1.57824921,1.59960075 1.73042744,1.36836889 2.04579495,1.22607236 C2.2998959,1.10156289 2.66551893,1.03930816 3.14322871,1.03930816 C3.69208675,1.03930816 4.09864826,1.12824349 4.38324132,1.31500769 C4.66783438,1.49287835 4.85050473,1.79525848 4.95214511,2.204361 L6.0498612,2.204361 C5.97871293,1.51066542 5.69411987,1.00398107 5.18620032,0.674920347 C4.7082082,0.354753155 4.04754574,0.203316049 3.20421293,0.203316049 C2.43202839,0.203316049 1.79169401,0.354753155 1.28349211,0.656886238" id="path-37"></path>
        <linearGradient x1="49.998846%" y1="216.740123%" x2="49.998846%" y2="-4.770921%" id="linearGradient-39">
            <stop stop-color="#5777E9" offset="0%"></stop>
            <stop stop-color="#468EF0" offset="100%"></stop>
        </linearGradient>
        <path d="M3.9995489,0.203280757 L3.9995489,1.74008328 L2.29808896,1.74008328 C2.40786057,1.37392382 2.50848454,0.980575552 2.59996088,0.560038486 L1.71289448,0.404528707 C1.42017019,1.87704369 0.862164511,3.04768675 0.0391315457,3.91671199 L0.606030757,4.63937508 C1.16378233,4.09051703 1.62116404,3.40444448 1.9873235,2.58141151 L3.9995489,2.58141151 L3.9995489,4.47471767 L1.38357965,4.47471767 L1.38357965,5.3163 L3.9995489,5.3163 L3.9995489,7.40196057 L0.276715931,7.40196057 L0.276715931,8.26132997 L8.38965095,8.26132997 L8.38965095,7.40196057 L4.86832003,7.40196057 L4.86832003,5.3163 L7.62124968,5.3163 L7.62124968,4.47471767 L4.86832003,4.47471767 L4.86832003,2.58141151 L7.80420237,2.58141151 L7.80420237,1.74008328 L4.86832003,1.74008328 L4.86832003,0.203280757 L3.9995489,0.203280757 Z" id="path-40"></path>
        <linearGradient x1="49.9990098%" y1="192.08592%" x2="49.9990098%" y2="5.51427535%" id="linearGradient-42">
            <stop stop-color="#5777E9" offset="0%"></stop>
            <stop stop-color="#468EF0" offset="100%"></stop>
        </linearGradient>
        <path d="M3.82040773,1.01742019 L0.656088644,1.01742019 L0.656088644,1.84960079 L3.50049464,1.84960079 C3.35438659,2.13343155 3.17117981,2.3893112 2.96103833,2.61800205 C2.39363091,3.21259826 1.47912161,3.66972587 0.19870694,3.98989306 L0.537169401,4.79488486 C1.61633612,4.5113082 2.45766435,4.14540284 3.07970347,3.7063164 C3.50964227,4.0539265 3.9212858,4.4289795 4.30548644,4.83147539 L4.90923028,4.22773155 C4.44270095,3.81634211 4.02165568,3.47787965 3.64685678,3.20319653 L3.67429968,3.17575363 C3.99446688,2.791553 4.25974826,2.35272066 4.46099621,1.84960079 L4.49733265,1.84960079 C4.94556672,3.06598202 6.17109558,4.03563123 8.18332098,4.76744196 L8.64070268,4.01759006 C6.90290631,3.48702729 5.81459196,2.7643642 5.37525142,1.84960079 L8.16527981,1.84960079 L8.16527981,1.01742019 L4.71712997,1.01742019 C4.78116341,0.742991167 4.83604921,0.450266877 4.87238565,0.130099685 L4.00361451,0.0388774448 C3.96702397,0.386233438 3.90299054,0.70614653 3.82040773,1.01742019 Z M3.99446688,5.35289054 C4.27778943,5.81001814 4.54307082,6.34998265 4.79005694,6.96262003 L5.5859011,6.6058623 C5.34806262,6.06640599 5.0736336,5.56303202 4.7534664,5.10590442 L3.99446688,5.35289054 Z M6.67446956,5.57243375 C7.09500662,6.23080931 7.48835489,6.9809153 7.83596498,7.8407929 L8.63155505,7.48403517 C8.31138785,6.70648628 7.93633486,5.98382319 7.50665016,5.30715237 L6.67446956,5.57243375 Z M2.42132792,5.42607161 L2.42132792,7.33792713 C2.42132792,8.03289322 2.74124101,8.38024921 3.39987066,8.38024921 L5.74141088,8.38024921 C6.09791451,8.38024921 6.3631959,8.29817461 6.53725505,8.14266483 C6.738503,7.97800741 6.86656987,7.48403517 6.93949685,6.64245284 L6.11620978,6.37717145 C6.07987334,6.94432476 6.01583991,7.27363959 5.92436356,7.37426356 C5.85118249,7.48403517 5.74141088,7.53892098 5.57649937,7.53892098 L3.67429968,7.53892098 C3.41842003,7.53892098 3.29924669,7.4108541 3.29924669,7.16386798 L3.29924669,5.42607161 L2.42132792,5.42607161 Z M0.281035647,7.64869259 L1.03088754,8.11522192 C1.41508817,7.42000174 1.71696009,6.59696877 1.93624921,5.64561483 L1.08577334,5.45351451 C0.921115931,6.23995694 0.656088644,6.97176767 0.281035647,7.64869259 Z" id="path-43"></path>
        <linearGradient x1="49.9993378%" y1="187.532479%" x2="49.9993378%" y2="7.29791635%" id="linearGradient-45">
            <stop stop-color="#5777E9" offset="0%"></stop>
            <stop stop-color="#468EF0" offset="100%"></stop>
        </linearGradient>
        <path d="M2.30139227,1.66690221 L2.81365978,2.34357303 C3.14297461,2.08743927 3.43544479,1.79496909 3.67328328,1.47480189 L4.67012129,1.47480189 C4.55120205,1.89533896 4.34080647,2.24294905 4.04833628,2.50823044 C3.66413565,2.83754527 3.04209653,3.08453139 2.18221893,3.26722997 L2.50264022,4.04477886 C3.5454705,3.78864511 4.28592066,3.45018265 4.71611356,3.02049795 C4.81648344,2.91072634 4.90821388,2.80070063 4.99943612,2.67288785 C5.57573707,3.34981278 6.50854164,3.82548975 7.79835804,4.09051703 L8.1091235,3.33126341 C6.75552776,3.08453139 5.84076435,2.63629732 5.35619385,1.9868153 C5.41107965,1.82215789 5.45681782,1.65775457 5.49340836,1.47480189 L6.82870883,1.47480189 C6.73723249,1.78556735 6.61831325,2.06914401 6.48109874,2.31613013 L7.31353344,2.56311625 C7.47819085,2.12402981 7.61540536,1.67604984 7.71577524,1.23670931 L7.71577524,0.715548265 L4.13066498,0.715548265 C4.20359196,0.550890852 4.26762539,0.386233438 4.3227653,0.203280757 L3.47203533,0.0935091483 C3.27078738,0.715548265 2.87769322,1.24585694 2.30139227,1.66690221 Z M0.243174606,0.907394479 C0.74654858,1.07230599 1.24026672,1.30074274 1.72534543,1.60286877 L2.19136656,0.898246845 C1.73423896,0.642113091 1.22197145,0.431971609 0.673367508,0.258166562 L0.243174606,0.907394479 Z M0.0696236593,3.23089353 L0.645670505,3.89841672 C1.32284953,3.49617492 1.88974874,3.06598202 2.34713044,2.59945268 L1.83486293,2.00511057 C1.35918596,2.444197 0.764589748,2.8466929 0.0696236593,3.23089353 Z M1.11219984,4.18199338 L1.11219984,7.0083582 L1.98122508,7.0083582 L1.98122508,4.98698517 L6.23411262,4.98698517 L6.23411262,6.91688186 L7.11228549,6.91688186 L7.11228549,4.18199338 L1.11219984,4.18199338 Z M3.0329489,7.11812981 C2.57556719,7.49318281 1.63361498,7.71272603 0.197690536,7.7859071 L0.536152997,8.57260363 C2.24650647,8.42624148 3.32567319,8.11522192 3.78305489,7.63039732 C4.20359196,7.25534432 4.48716861,6.47779543 4.61523549,5.30715237 L3.74621025,5.23397129 C3.67328328,6.13043943 3.43544479,6.75222445 3.0329489,7.11812981 Z M4.3499541,7.51147808 C5.44767019,7.7859071 6.50854164,8.16096009 7.55137192,8.6455306 L8.0270489,7.92286751 C7.04825205,7.50233044 5.96883123,7.14557271 4.78904054,6.85284842 L4.3499541,7.51147808 Z" id="path-46"></path>
        <linearGradient x1="49.9999219%" y1="182.274444%" x2="49.9999219%" y2="6.47934098%" id="linearGradient-48">
            <stop stop-color="#5777E9" offset="0%"></stop>
            <stop stop-color="#468EF0" offset="100%"></stop>
        </linearGradient>
        <path d="M0.659137855,0.797876972 C1.28092287,1.27355394 1.77489511,1.73093565 2.12250521,2.16062035 L2.71710142,1.5568765 C2.32375315,1.09949479 1.83918265,0.651514826 1.2626276,0.203280757 L0.659137855,0.797876972 Z M2.96383344,0.505152681 L2.96383344,1.33758738 L4.1072877,1.33758738 L4.1072877,3.64228297 L2.80857776,3.64228297 L2.80857776,4.47471767 L4.1072877,4.47471767 L4.1072877,8.58149716 L4.94887003,8.58149716 L4.94887003,4.47471767 L6.11036546,4.47471767 L6.11036546,3.64228297 L4.94887003,3.64228297 L4.94887003,1.33758738 L6.41223738,1.33758738 L6.41223738,3.40444448 C6.41223738,5.61791782 6.64092823,7.09068691 7.0891623,7.81335 C7.35444369,8.22499353 7.67435678,8.43538912 8.04940978,8.44428265 C8.18662429,8.44428265 8.30554353,8.35306041 8.39701987,8.17010773 C8.52508675,7.92286751 8.60716136,7.3559683 8.64400599,6.45950016 L7.96708107,6.13933297 C7.96708107,6.50523833 7.9487858,6.80736435 7.93049054,7.06349811 C7.91219527,7.31937776 7.88475237,7.44744464 7.85730946,7.44744464 C7.78412839,7.44744464 7.69290615,7.30108249 7.60117571,7.01750584 C7.38163249,6.34998265 7.27186088,5.14249495 7.27186088,3.40444448 L7.27186088,0.505152681 L2.96383344,0.505152681 Z M0.0830910095,2.85558644 L0.0830910095,3.68827524 L1.29032461,3.68827524 L1.29032461,7.01750584 C1.29032461,7.21875379 1.2077418,7.3834112 1.06137965,7.52062571 L1.39069448,8.29817461 C2.0127336,7.87738344 2.60732981,7.39281293 3.15593375,6.85284842 L2.927497,5.93808502 C2.64392035,6.22191577 2.37863896,6.47779543 2.13165284,6.70648628 L2.13165284,2.85558644 L0.0830910095,2.85558644 Z" id="path-49"></path>
        <linearGradient x1="49.9987789%" y1="184.745502%" x2="49.9987789%" y2="5.3035515%" id="linearGradient-51">
            <stop stop-color="#5777E9" offset="0%"></stop>
            <stop stop-color="#468EF0" offset="100%"></stop>
        </linearGradient>
        <path d="M0.929570277,0.386233438 C1.32709709,0.880205678 1.6975198,1.43795726 2.04083842,2.07829164 L2.80878794,1.66690221 C2.49257343,1.08145363 2.12215072,0.532595584 1.7065545,0.0388774448 L0.929570277,0.386233438 Z M3.39604346,0.532595584 L3.39604346,1.33758738 L6.79233789,1.33758738 L6.79233789,7.21875379 C6.79233789,7.53892098 6.66610305,7.70357839 6.43120084,7.70357839 L5.64518191,7.68528312 L5.86176376,8.49942256 L6.60286015,8.49942256 C7.28021171,8.49942256 7.62353032,8.15181246 7.62353032,7.45684637 L7.62353032,0.532595584 L3.39604346,0.532595584 Z M0.198261479,8.58149716 L1.02920294,8.58149716 L1.02920294,1.64860694 L0.198261479,1.64860694 L0.198261479,8.58149716 Z" id="path-52"></path>
        <linearGradient x1="49.9990584%" y1="183.114569%" x2="49.9990584%" y2="7.12599125%" id="linearGradient-54">
            <stop stop-color="#5777E9" offset="0%"></stop>
            <stop stop-color="#468EF0" offset="100%"></stop>
        </linearGradient>
        <path d="M3.55164108,0.203280757 C3.73208412,0.505152681 3.89495969,0.834213407 4.03926393,1.1818235 L1.13962706,1.1818235 L1.13962706,4.17284574 C1.13059236,5.7459847 0.778239047,7.0358011 0.0918527865,8.03289322 L0.724030845,8.6183418 C1.51004977,7.44744464 1.92539502,6.04785662 1.97985419,4.43812713 L7.77912794,4.43812713 L7.77912794,1.1818235 L4.91562986,1.1818235 C4.77107466,0.770179968 4.62651945,0.395381073 4.47318051,0.056918612 L3.55164108,0.203280757 Z M1.98863792,3.58739716 L6.91204767,3.58739716 L6.91204767,2.03255347 L1.98863792,2.03255347 L1.98863792,3.58739716 Z" id="path-55"></path>
        <linearGradient x1="49.9995625%" y1="182.501667%" x2="49.9995625%" y2="6.89961416%" id="linearGradient-57">
            <stop stop-color="#5777E9" offset="0%"></stop>
            <stop stop-color="#468EF0" offset="100%"></stop>
        </linearGradient>
        <linearGradient x1="49.9988008%" y1="369.508421%" x2="49.9988008%" y2="-410.314298%" id="linearGradient-58">
            <stop stop-color="#5D70E9" offset="0%"></stop>
            <stop stop-color="#21BCFB" offset="100%"></stop>
        </linearGradient>
    </defs>
    <g id="Page-1" stroke="none" stroke-width="1" fill="none" fill-rule="evenodd">
        <g id="PC端官网-" transform="translate(-1122.000000, -4733.000000)">
            <g id="logo_p18" transform="translate(1122.000000, 4733.000000)">
                <mask id="mask-2" fill="white">
                    <use xlink:href="#path-1"></use>
                </mask>
                <g id="Rectangle-9-Copy-3"></g>
                <g id="Group-59" mask="url(#mask-2)">
                    <g transform="translate(18.000000, 18.000000)">
                        <g id="Group-3" stroke-width="1" fill="none">
                            <mask id="mask-4" fill="white">
                                <use xlink:href="#path-3"></use>
                            </mask>
                            <g id="Clip-2"></g>
                            <path d="M22.6555961,0.22604275 C22.285583,0.229839661 21.9165886,0.32653432 21.5863017,0.515620472 L1.09221334,12.276931 C0.418397414,12.6637097 0,13.3846164 0,14.1576675 L0,37.6795292 C0,38.4530865 0.418397414,39.1737401 1.09272264,39.5607719 L21.6301022,51.3466358 C21.9680288,51.5405314 22.3449175,51.6379854 22.7225702,51.6379854 C23.0518386,51.6379854 23.3813615,51.5640722 23.686183,51.4149802 L29.716148,48.4688306 C29.7388122,48.457693 29.764023,48.4541492 29.7892338,48.4561743 L43.1881373,50.0002513 C43.7476133,50.065305 44.2869716,49.7921806 44.5640358,49.3049104 C44.8405906,48.8189058 44.7978086,48.2177283 44.454025,47.7752616 L40.0793146,42.1386211 L40.0793146,42.138368 C40.0553771,42.1077396 40.0472281,42.0730611 40.0546131,42.0348389 C40.0625074,41.9966167 40.0833891,41.967507 40.1170035,41.9482693 L44.2668539,39.5602656 C44.9399059,39.1732339 45.357794,38.4530865 45.357794,37.6802886 L45.357794,14.1576675 C45.357794,13.3843633 44.9386326,12.6634565 44.264562,12.2766779 L23.771747,0.515873599 C23.4417147,0.32653432 23.0727202,0.229839661 22.7027072,0.22604275 L22.6555961,0.22604275 Z M22.657888,49.5770223 L2.12076304,37.7914115 C2.08052762,37.7681238 2.05582613,37.7258515 2.05582613,37.6795292 L2.05582613,14.1576675 C2.05582613,14.1115983 2.08052762,14.0690729 2.12025373,14.0462914 L22.6138327,2.28548711 C22.6339505,2.27384325 22.6563601,2.26802132 22.6790243,2.26802132 C22.7011793,2.26802132 22.7235889,2.27384325 22.7437066,2.28548711 L43.2370309,14.0462914 C43.276757,14.0690729 43.3017132,14.1118514 43.3017132,14.1576675 L43.3017132,37.6802886 C43.3017132,37.7261046 43.276757,37.7688832 43.2370309,37.7921709 L39.0871805,40.1799215 C38.5419651,40.4935463 38.159474,41.02562 38.0377491,41.6402133 C37.9162789,42.2545535 38.0670344,42.8911688 38.4520721,43.3867922 L41.8705546,47.7917149 L30.0252986,46.4265989 C29.6094477,46.3787579 29.1885037,46.450646 28.8103417,46.6349228 L22.7796129,49.5813255 C22.7615324,49.5901849 22.741924,49.5944881 22.7225702,49.5944881 C22.7004153,49.5944881 22.6780057,49.5886662 22.657888,49.5770223 Z" id="Fill-1" fill="url(#linearGradient-5)" mask="url(#mask-4)"></path>
                        </g>
                        <g id="Group-6" stroke-width="1" fill="none" transform="translate(8.000000, 16.000000)">
                            <mask id="mask-7" fill="white">
                                <use xlink:href="#path-6"></use>
                            </mask>
                            <g id="Clip-5"></g>
                            <path d="M0.148532798,2.12326751 C0.148532798,3.17117981 1.00883888,4.02038517 2.07044939,4.02038517 C2.11318153,4.02038517 2.15333944,4.01098344 2.19529931,4.00818833 L13.5671969,23.3201144 C13.2518543,23.6580686 13.0549261,24.1055404 13.0549261,24.6012913 C13.0549261,25.6489495 13.9152321,26.498409 14.9768426,26.498409 C16.0384531,26.498409 16.8987592,25.6489495 16.8987592,24.6012913 C16.8987592,24.1017289 16.6992568,23.6509538 16.3797954,23.3119831 L28.3808336,4.10093517 C28.5486731,4.14819795 28.7224333,4.18148517 28.9054608,4.18148517 C29.9670713,4.18148517 30.8276348,3.33202571 30.8276348,2.28436751 C30.8276348,1.23645521 29.9670713,0.38674164 28.9054608,0.38674164 C28.0309964,0.38674164 27.301461,0.966854101 27.0684936,1.75583754 L3.89557511,1.5571306 C3.65050886,0.787712934 2.93075547,0.226149842 2.07044939,0.226149842 C1.00883888,0.226149842 0.148532798,1.07560931 0.148532798,2.12326751 Z M3.85618946,2.81493028 C3.88605047,2.7399705 3.90896108,2.66196151 3.92929746,2.58268202 L26.9969301,2.78062666 L16.2660147,8.90191845 C15.9210685,8.57743155 15.4569357,8.37542129 14.9431203,8.37542129 C14.4432057,8.37542129 13.9919441,8.56853801 13.6503444,8.87727066 L3.85618946,2.81493028 Z M3.19152449,3.65879953 C3.20233624,3.6509224 3.21186087,3.64126656 3.22267262,3.63338943 L13.1040938,9.75010741 C13.0551835,9.91730584 13.0209463,10.0900945 13.0209463,10.2727931 C13.0209463,11.1415642 13.6161072,11.866006 14.4231268,12.0908853 L14.4231268,22.7331412 L3.19152449,3.65879953 Z M15.4620841,22.7725268 L15.4620841,12.0911394 C16.2696186,11.8665142 16.8650369,11.1418183 16.8650369,10.2727931 C16.8650369,10.1033077 16.8354333,9.94195363 16.7929586,9.78593565 L27.3822917,3.74544795 L15.490658,22.7814203 C15.4811334,22.7786252 15.4718662,22.7748137 15.4620841,22.7725268 Z" id="Fill-4" fill="url(#linearGradient-8)" mask="url(#mask-7)"></path>
                        </g>
                        <polygon id="Fill-7" fill="url(#linearGradient-9)" points="53 26 57 26 57 13 53 13"></polygon>
                        <g id="Group-11" stroke-width="1" fill="none" transform="translate(59.000000, 13.000000)">
                            <mask id="mask-11" fill="white">
                                <use xlink:href="#path-10"></use>
                            </mask>
                            <g id="Clip-10"></g>
                            <polygon id="Fill-9" fill="url(#linearGradient-12)" mask="url(#mask-11)" points="9.40223325 0.165654995 7.25682409 7.73709148 5.04490026 0.165654995 0.151464094 0.165654995 0.151464094 12.2800023 3.83816988 12.2800023 3.83816988 8.19808707 3.70464233 6.28877256 3.5701183 4.51110116 5.84905502 12.2800023 8.66434403 12.2800023 10.8762679 4.51110116 10.9440281 4.51110116 10.7424912 6.68370189 10.6757274 8.5930164 10.6757274 12.2800023 14.2949221 12.2800023 14.2949221 0.165654995"></polygon>
                        </g>
                        <g id="Group-14" stroke-width="1" fill="none" transform="translate(76.000000, 13.000000)">
                            <mask id="mask-14" fill="white">
                                <use xlink:href="#path-13"></use>
                            </mask>
                            <g id="Clip-13"></g>
                            <polygon id="Fill-12" fill="url(#linearGradient-15)" mask="url(#mask-14)" points="0.137943875 0.165654995 0.137943875 12.2800023 10.8623684 12.2800023 10.8623684 9.44894132 4.38573528 9.44894132 4.38573528 7.5398715 9.6783286 7.5398715 9.6783286 4.70832114 4.38573528 4.70832114 4.38573528 2.99647129 10.652994 2.99647129 10.652994 0.165654995"></polygon>
                        </g>
                        <g id="Group-17" stroke-width="1" fill="none" transform="translate(88.000000, 13.000000)">
                            <mask id="mask-17" fill="white">
                                <use xlink:href="#path-16"></use>
                            </mask>
                            <g id="Clip-16"></g>
                            <path d="M0.151952366,6.335753 C0.283840168,10.4622018 2.39012997,12.5905137 6.4725346,12.7226462 C10.5546945,12.5905137 12.6832511,10.4834898 12.8589384,6.40132986 C12.5954075,2.36370347 10.4661168,0.2566796 6.4725346,0.0809923239 C2.43368475,0.301213144 0.326416193,2.38548086 0.151952366,6.335753 M4.1022245,6.40132986 C4.18957876,4.25172997 4.9801715,3.13227413 6.4725346,3.04369642 C7.96416362,3.08822997 8.77677844,4.20719642 8.90866625,6.40132986 C8.8641327,8.72857455 8.05298601,9.89109579 6.4725346,9.89109579 C4.93563796,9.84803039 4.14577928,8.68453039 4.1022245,6.40132986" id="Fill-15" fill="url(#linearGradient-18)" mask="url(#mask-17)"></path>
                        </g>
                        <g id="Group-20" stroke-width="1" fill="none" transform="translate(102.000000, 13.000000)">
                            <mask id="mask-20" fill="white">
                                <use xlink:href="#path-19"></use>
                            </mask>
                            <g id="Clip-19"></g>
                            <path d="M0.453733074,3.96519821 C0.453733074,5.8534694 2.08962194,7.17014522 5.36218151,7.91571504 C7.04550255,8.31064437 7.88651153,8.72857455 7.88651153,9.16681399 C7.83933997,9.73767529 7.23132201,10.0229836 6.06350012,10.0229836 C5.54878282,10.0229836 5.15186411,9.93538465 4.8711803,9.75945268 C4.49667459,9.58474416 4.26316234,9.25539169 4.16986168,8.77188465 L0.10294346,8.77188465 C0.476406697,11.2738379 2.39271876,12.5905137 5.85292211,12.7226462 C9.78014996,12.6338238 11.7897627,11.2738379 11.8841058,8.63999685 C11.8841058,6.8850816 10.223719,5.63422734 6.90476972,4.88718938 C5.26783839,4.49226004 4.45080612,4.05402061 4.45080612,3.57051356 C4.40363455,3.13227413 4.8711803,2.89052061 5.85292211,2.84647645 C6.2735569,2.89052061 6.62460713,2.97811956 6.90476972,3.10927329 C7.23132201,3.24116109 7.44216064,3.5049367 7.53572191,3.89962135 L11.532795,3.89962135 C11.1124208,1.39766814 9.26491143,0.125036488 5.99339432,0.0809923239 C2.39271876,0.212390747 0.546512497,1.50802324 0.453733074,3.96519821" id="Fill-18" fill="url(#linearGradient-21)" mask="url(#mask-20)"></path>
                        </g>
                        <g id="Group-23" stroke-width="1" fill="none" transform="translate(121.000000, 13.000000)">
                            <mask id="mask-23" fill="white">
                                <use xlink:href="#path-22"></use>
                            </mask>
                            <g id="Clip-22"></g>
                            <path d="M0.0770772871,6.335753 C0.209209779,10.4622018 2.31574427,12.5905137 6.3981489,12.7226462 C10.4798195,12.5905137 12.6086207,10.4834898 12.7840633,6.40132986 C12.5207771,2.36370347 10.3914864,0.2566796 6.3981489,0.0809923239 C2.35880967,0.301213144 0.252030494,2.38548086 0.0770772871,6.335753 M4.02759411,6.40132986 C4.11494837,4.25172997 4.90554111,3.13227413 6.3981489,3.04369642 C7.88953323,3.08822997 8.70214805,4.20719642 8.83428055,6.40132986 C8.78950231,8.72857455 7.97786625,9.89109579 6.3981489,9.89109579 C4.86076288,9.84803039 4.07090421,8.68453039 4.02759411,6.40132986" id="Fill-21" fill="url(#linearGradient-24)" mask="url(#mask-23)"></path>
                        </g>
                        <g id="Group-26" stroke-width="1" fill="none" transform="translate(136.000000, 13.000000)">
                            <mask id="mask-26" fill="white">
                                <use xlink:href="#path-25"></use>
                            </mask>
                            <g id="Clip-25"></g>
                            <polygon id="Fill-24" fill="url(#linearGradient-27)" mask="url(#mask-26)" points="8.66935962 0.165654995 8.66935962 3.98428402 8.81066798 6.74927876 4.15509498 0.165654995 0.204752929 0.165654995 0.204752929 12.2800023 4.29561683 12.2800023 4.29561683 8.46161798 4.08483405 5.69613386 8.74040705 12.2800023 12.76101 12.2800023 12.76101 0.165654995"></polygon>
                        </g>
                        <g id="Group-29" stroke-width="1" fill="none" transform="translate(150.000000, 13.000000)">
                            <mask id="mask-29" fill="white">
                                <use xlink:href="#path-28"></use>
                            </mask>
                            <g id="Clip-28"></g>
                            <polygon id="Fill-27" fill="url(#linearGradient-30)" mask="url(#mask-29)" points="0.0934291535 0.165654995 0.0934291535 12.2800023 10.8175949 12.2800023 10.8175949 9.44894132 4.34096175 9.44894132 4.34096175 7.5398715 9.63355507 7.5398715 9.63355507 4.70832114 4.34096175 4.70832114 4.34096175 2.99647129 10.608738 2.99647129 10.608738 0.165654995"></polygon>
                        </g>
                        <g id="Group-32" stroke-width="1" fill="none" transform="translate(53.000000, 32.000000)">
                            <mask id="mask-32" fill="white">
                                <use xlink:href="#path-31"></use>
                            </mask>
                            <g id="Clip-31"></g>
                            <polygon id="Fill-30" fill="url(#linearGradient-33)" mask="url(#mask-32)" points="0.0129873817 0.0807829259 0.0129873817 6.43027149 5.39936278 6.43027149 5.39936278 5.60317291 1.12086751 5.60317291 1.12086751 3.58458793 4.98263722 3.58458793 4.98263722 2.75748935 1.12086751 2.75748935 1.12086751 0.907881506 5.22657413 0.907881506 5.22657413 0.0807829259"></polygon>
                        </g>
                        <g id="Group-35" stroke-width="1" fill="none" transform="translate(59.000000, 32.000000)">
                            <mask id="mask-35" fill="white">
                                <use xlink:href="#path-34"></use>
                            </mask>
                            <g id="Clip-34"></g>
                            <path d="M0.974830047,1.15492409 C0.44121806,1.75968435 0.183305599,2.54206822 0.183305599,3.51146333 C0.183305599,4.47196491 0.44121806,5.25459582 0.974830047,5.85910903 C1.52598206,6.48165635 2.29082591,6.80182354 3.26022102,6.80182354 C4.22047555,6.80182354 4.98507236,6.49054988 5.54561199,5.86800256 C6.07897693,5.26324231 6.34578293,4.48085844 6.34578293,3.51146333 C6.34578293,2.53342173 6.07897693,1.74189728 5.54561199,1.14603056 C4.98507236,0.514589708 4.22047555,0.203316049 3.26022102,0.203316049 C2.29082591,0.203316049 1.52598206,0.514589708 0.974830047,1.15492409 M1.6863127,5.27213584 C1.33032433,4.83635272 1.15270071,4.24937953 1.15270071,3.51146333 C1.15270071,2.76440655 1.33032433,2.17743336 1.6863127,1.74189728 C2.05959405,1.27943356 2.58406546,1.05709523 3.26022102,1.05709523 C3.93588249,1.05709523 4.46060095,1.27054002 4.8252358,1.71496964 C5.18073009,2.1509998 5.36749428,2.74661948 5.36749428,3.51146333 C5.36749428,4.2671666 5.18073009,4.86328036 4.8252358,5.28992291 C4.46060095,5.72595308 3.93588249,5.94804436 3.26022102,5.94804436 C2.58406546,5.94804436 2.05959405,5.7168125 1.6863127,5.27213584" id="Fill-33" fill="url(#linearGradient-36)" mask="url(#mask-35)"></path>
                        </g>
                        <g id="Group-38" stroke-width="1" fill="none" transform="translate(67.000000, 32.000000)">
                            <mask id="mask-38" fill="white">
                                <use xlink:href="#path-37"></use>
                            </mask>
                            <g id="Clip-37"></g>
                            <path d="M1.28349211,0.656886238 C0.744798107,0.977053431 0.480815457,1.41283655 0.480815457,1.9728821 C0.480815457,2.52452819 0.754962145,2.95117074 1.31398423,3.24465733 C1.53759306,3.35137973 2.08616877,3.52035686 2.9806041,3.76937579 C3.78356309,3.98282058 4.26099054,4.12487007 4.42361514,4.19626538 C4.88099685,4.4005696 5.11505205,4.67651617 5.11505205,5.03201045 C5.11505205,5.31660351 4.95214511,5.53894184 4.6268959,5.69902543 C4.30192902,5.85910903 3.86487539,5.94804436 3.31601735,5.94804436 C2.70617508,5.94804436 2.25895741,5.8502155 1.96448265,5.65455777 C1.63923344,5.44111297 1.43567035,5.07647812 1.35464038,4.57844026 L0.257206625,4.57844026 C0.318190852,5.37885824 0.643157729,5.96583143 1.24283596,6.33935982 C1.74087382,6.64173994 2.43202839,6.80182354 3.31601735,6.80182354 C4.23078076,6.80182354 4.94198107,6.64173994 5.45018297,6.32157275 C5.95838486,5.99251203 6.21220347,5.54808241 6.21220347,4.97889629 C6.21220347,4.39167606 5.89740063,3.93810588 5.27739432,3.60929219 C4.99280126,3.45810213 4.35246688,3.25355087 3.37700158,2.98674487 C2.69601104,2.80887421 2.27956782,2.67547121 2.11694322,2.59567646 C1.75103785,2.42645229 1.57824921,2.204361 1.57824921,1.9195209 C1.57824921,1.59960075 1.73042744,1.36836889 2.04579495,1.22607236 C2.2998959,1.10156289 2.66551893,1.03930816 3.14322871,1.03930816 C3.69208675,1.03930816 4.09864826,1.12824349 4.38324132,1.31500769 C4.66783438,1.49287835 4.85050473,1.79525848 4.95214511,2.204361 L6.0498612,2.204361 C5.97871293,1.51066542 5.69411987,1.00398107 5.18620032,0.674920347 C4.7082082,0.354753155 4.04754574,0.203316049 3.20421293,0.203316049 C2.43202839,0.203316049 1.79169401,0.354753155 1.28349211,0.656886238" id="Fill-36" fill="url(#linearGradient-39)" mask="url(#mask-38)"></path>
                        </g>
                        <g id="Group-41" stroke-width="1" fill="none" transform="translate(73.000000, 31.000000)">
                            <mask id="mask-41" fill="white">
                                <use xlink:href="#path-40"></use>
                            </mask>
                            <g id="Clip-40"></g>
                            <path d="M3.9995489,0.203280757 L3.9995489,1.74008328 L2.29808896,1.74008328 C2.40786057,1.37392382 2.50848454,0.980575552 2.59996088,0.560038486 L1.71289448,0.404528707 C1.42017019,1.87704369 0.862164511,3.04768675 0.0391315457,3.91671199 L0.606030757,4.63937508 C1.16378233,4.09051703 1.62116404,3.40444448 1.9873235,2.58141151 L3.9995489,2.58141151 L3.9995489,4.47471767 L1.38357965,4.47471767 L1.38357965,5.3163 L3.9995489,5.3163 L3.9995489,7.40196057 L0.276715931,7.40196057 L0.276715931,8.26132997 L8.38965095,8.26132997 L8.38965095,7.40196057 L4.86832003,7.40196057 L4.86832003,5.3163 L7.62124968,5.3163 L7.62124968,4.47471767 L4.86832003,4.47471767 L4.86832003,2.58141151 L7.80420237,2.58141151 L7.80420237,1.74008328 L4.86832003,1.74008328 L4.86832003,0.203280757 L3.9995489,0.203280757 Z" id="Fill-39" fill="url(#linearGradient-42)" mask="url(#mask-41)"></path>
                        </g>
                        <g id="Group-44" stroke-width="1" fill="none" transform="translate(83.000000, 31.000000)">
                            <mask id="mask-44" fill="white">
                                <use xlink:href="#path-43"></use>
                            </mask>
                            <g id="Clip-43"></g>
                            <path d="M3.82040773,1.01742019 L0.656088644,1.01742019 L0.656088644,1.84960079 L3.50049464,1.84960079 C3.35438659,2.13343155 3.17117981,2.3893112 2.96103833,2.61800205 C2.39363091,3.21259826 1.47912161,3.66972587 0.19870694,3.98989306 L0.537169401,4.79488486 C1.61633612,4.5113082 2.45766435,4.14540284 3.07970347,3.7063164 C3.50964227,4.0539265 3.9212858,4.4289795 4.30548644,4.83147539 L4.90923028,4.22773155 C4.44270095,3.81634211 4.02165568,3.47787965 3.64685678,3.20319653 L3.67429968,3.17575363 C3.99446688,2.791553 4.25974826,2.35272066 4.46099621,1.84960079 L4.49733265,1.84960079 C4.94556672,3.06598202 6.17109558,4.03563123 8.18332098,4.76744196 L8.64070268,4.01759006 C6.90290631,3.48702729 5.81459196,2.7643642 5.37525142,1.84960079 L8.16527981,1.84960079 L8.16527981,1.01742019 L4.71712997,1.01742019 C4.78116341,0.742991167 4.83604921,0.450266877 4.87238565,0.130099685 L4.00361451,0.0388774448 C3.96702397,0.386233438 3.90299054,0.70614653 3.82040773,1.01742019 Z M3.99446688,5.35289054 C4.27778943,5.81001814 4.54307082,6.34998265 4.79005694,6.96262003 L5.5859011,6.6058623 C5.34806262,6.06640599 5.0736336,5.56303202 4.7534664,5.10590442 L3.99446688,5.35289054 Z M6.67446956,5.57243375 C7.09500662,6.23080931 7.48835489,6.9809153 7.83596498,7.8407929 L8.63155505,7.48403517 C8.31138785,6.70648628 7.93633486,5.98382319 7.50665016,5.30715237 L6.67446956,5.57243375 Z M2.42132792,5.42607161 L2.42132792,7.33792713 C2.42132792,8.03289322 2.74124101,8.38024921 3.39987066,8.38024921 L5.74141088,8.38024921 C6.09791451,8.38024921 6.3631959,8.29817461 6.53725505,8.14266483 C6.738503,7.97800741 6.86656987,7.48403517 6.93949685,6.64245284 L6.11620978,6.37717145 C6.07987334,6.94432476 6.01583991,7.27363959 5.92436356,7.37426356 C5.85118249,7.48403517 5.74141088,7.53892098 5.57649937,7.53892098 L3.67429968,7.53892098 C3.41842003,7.53892098 3.29924669,7.4108541 3.29924669,7.16386798 L3.29924669,5.42607161 L2.42132792,5.42607161 Z M0.281035647,7.64869259 L1.03088754,8.11522192 C1.41508817,7.42000174 1.71696009,6.59696877 1.93624921,5.64561483 L1.08577334,5.45351451 C0.921115931,6.23995694 0.656088644,6.97176767 0.281035647,7.64869259 Z" id="Fill-42" fill="url(#linearGradient-45)" mask="url(#mask-44)"></path>
                        </g>
                        <g id="Group-47" stroke-width="1" fill="none" transform="translate(93.000000, 31.000000)">
                            <mask id="mask-47" fill="white">
                                <use xlink:href="#path-46"></use>
                            </mask>
                            <g id="Clip-46"></g>
                            <path d="M2.30139227,1.66690221 L2.81365978,2.34357303 C3.14297461,2.08743927 3.43544479,1.79496909 3.67328328,1.47480189 L4.67012129,1.47480189 C4.55120205,1.89533896 4.34080647,2.24294905 4.04833628,2.50823044 C3.66413565,2.83754527 3.04209653,3.08453139 2.18221893,3.26722997 L2.50264022,4.04477886 C3.5454705,3.78864511 4.28592066,3.45018265 4.71611356,3.02049795 C4.81648344,2.91072634 4.90821388,2.80070063 4.99943612,2.67288785 C5.57573707,3.34981278 6.50854164,3.82548975 7.79835804,4.09051703 L8.1091235,3.33126341 C6.75552776,3.08453139 5.84076435,2.63629732 5.35619385,1.9868153 C5.41107965,1.82215789 5.45681782,1.65775457 5.49340836,1.47480189 L6.82870883,1.47480189 C6.73723249,1.78556735 6.61831325,2.06914401 6.48109874,2.31613013 L7.31353344,2.56311625 C7.47819085,2.12402981 7.61540536,1.67604984 7.71577524,1.23670931 L7.71577524,0.715548265 L4.13066498,0.715548265 C4.20359196,0.550890852 4.26762539,0.386233438 4.3227653,0.203280757 L3.47203533,0.0935091483 C3.27078738,0.715548265 2.87769322,1.24585694 2.30139227,1.66690221 Z M0.243174606,0.907394479 C0.74654858,1.07230599 1.24026672,1.30074274 1.72534543,1.60286877 L2.19136656,0.898246845 C1.73423896,0.642113091 1.22197145,0.431971609 0.673367508,0.258166562 L0.243174606,0.907394479 Z M0.0696236593,3.23089353 L0.645670505,3.89841672 C1.32284953,3.49617492 1.88974874,3.06598202 2.34713044,2.59945268 L1.83486293,2.00511057 C1.35918596,2.444197 0.764589748,2.8466929 0.0696236593,3.23089353 Z M1.11219984,4.18199338 L1.11219984,7.0083582 L1.98122508,7.0083582 L1.98122508,4.98698517 L6.23411262,4.98698517 L6.23411262,6.91688186 L7.11228549,6.91688186 L7.11228549,4.18199338 L1.11219984,4.18199338 Z M3.0329489,7.11812981 C2.57556719,7.49318281 1.63361498,7.71272603 0.197690536,7.7859071 L0.536152997,8.57260363 C2.24650647,8.42624148 3.32567319,8.11522192 3.78305489,7.63039732 C4.20359196,7.25534432 4.48716861,6.47779543 4.61523549,5.30715237 L3.74621025,5.23397129 C3.67328328,6.13043943 3.43544479,6.75222445 3.0329489,7.11812981 Z M4.3499541,7.51147808 C5.44767019,7.7859071 6.50854164,8.16096009 7.55137192,8.6455306 L8.0270489,7.92286751 C7.04825205,7.50233044 5.96883123,7.14557271 4.78904054,6.85284842 L4.3499541,7.51147808 Z" id="Fill-45" fill="url(#linearGradient-48)" mask="url(#mask-47)"></path>
                        </g>
                        <g id="Group-50" stroke-width="1" fill="none" transform="translate(102.000000, 31.000000)">
                            <mask id="mask-50" fill="white">
                                <use xlink:href="#path-49"></use>
                            </mask>
                            <g id="Clip-49"></g>
                            <path d="M0.659137855,0.797876972 C1.28092287,1.27355394 1.77489511,1.73093565 2.12250521,2.16062035 L2.71710142,1.5568765 C2.32375315,1.09949479 1.83918265,0.651514826 1.2626276,0.203280757 L0.659137855,0.797876972 Z M2.96383344,0.505152681 L2.96383344,1.33758738 L4.1072877,1.33758738 L4.1072877,3.64228297 L2.80857776,3.64228297 L2.80857776,4.47471767 L4.1072877,4.47471767 L4.1072877,8.58149716 L4.94887003,8.58149716 L4.94887003,4.47471767 L6.11036546,4.47471767 L6.11036546,3.64228297 L4.94887003,3.64228297 L4.94887003,1.33758738 L6.41223738,1.33758738 L6.41223738,3.40444448 C6.41223738,5.61791782 6.64092823,7.09068691 7.0891623,7.81335 C7.35444369,8.22499353 7.67435678,8.43538912 8.04940978,8.44428265 C8.18662429,8.44428265 8.30554353,8.35306041 8.39701987,8.17010773 C8.52508675,7.92286751 8.60716136,7.3559683 8.64400599,6.45950016 L7.96708107,6.13933297 C7.96708107,6.50523833 7.9487858,6.80736435 7.93049054,7.06349811 C7.91219527,7.31937776 7.88475237,7.44744464 7.85730946,7.44744464 C7.78412839,7.44744464 7.69290615,7.30108249 7.60117571,7.01750584 C7.38163249,6.34998265 7.27186088,5.14249495 7.27186088,3.40444448 L7.27186088,0.505152681 L2.96383344,0.505152681 Z M0.0830910095,2.85558644 L0.0830910095,3.68827524 L1.29032461,3.68827524 L1.29032461,7.01750584 C1.29032461,7.21875379 1.2077418,7.3834112 1.06137965,7.52062571 L1.39069448,8.29817461 C2.0127336,7.87738344 2.60732981,7.39281293 3.15593375,6.85284842 L2.927497,5.93808502 C2.64392035,6.22191577 2.37863896,6.47779543 2.13165284,6.70648628 L2.13165284,2.85558644 L0.0830910095,2.85558644 Z" id="Fill-48" fill="url(#linearGradient-51)" mask="url(#mask-50)"></path>
                        </g>
                        <g id="Group-53" stroke-width="1" fill="none" transform="translate(113.000000, 31.000000)">
                            <mask id="mask-53" fill="white">
                                <use xlink:href="#path-52"></use>
                            </mask>
                            <g id="Clip-52"></g>
                            <path d="M0.929570277,0.386233438 C1.32709709,0.880205678 1.6975198,1.43795726 2.04083842,2.07829164 L2.80878794,1.66690221 C2.49257343,1.08145363 2.12215072,0.532595584 1.7065545,0.0388774448 L0.929570277,0.386233438 Z M3.39604346,0.532595584 L3.39604346,1.33758738 L6.79233789,1.33758738 L6.79233789,7.21875379 C6.79233789,7.53892098 6.66610305,7.70357839 6.43120084,7.70357839 L5.64518191,7.68528312 L5.86176376,8.49942256 L6.60286015,8.49942256 C7.28021171,8.49942256 7.62353032,8.15181246 7.62353032,7.45684637 L7.62353032,0.532595584 L3.39604346,0.532595584 Z M0.198261479,8.58149716 L1.02920294,8.58149716 L1.02920294,1.64860694 L0.198261479,1.64860694 L0.198261479,8.58149716 Z" id="Fill-51" fill="url(#linearGradient-54)" mask="url(#mask-53)"></path>
                        </g>
                        <g id="Group-56" stroke-width="1" fill="none" transform="translate(122.000000, 31.000000)">
                            <mask id="mask-56" fill="white">
                                <use xlink:href="#path-55"></use>
                            </mask>
                            <g id="Clip-55"></g>
                            <path d="M3.55164108,0.203280757 C3.73208412,0.505152681 3.89495969,0.834213407 4.03926393,1.1818235 L1.13962706,1.1818235 L1.13962706,4.17284574 C1.13059236,5.7459847 0.778239047,7.0358011 0.0918527865,8.03289322 L0.724030845,8.6183418 C1.51004977,7.44744464 1.92539502,6.04785662 1.97985419,4.43812713 L7.77912794,4.43812713 L7.77912794,1.1818235 L4.91562986,1.1818235 C4.77107466,0.770179968 4.62651945,0.395381073 4.47318051,0.056918612 L3.55164108,0.203280757 Z M1.98863792,3.58739716 L6.91204767,3.58739716 L6.91204767,2.03255347 L1.98863792,2.03255347 L1.98863792,3.58739716 Z" id="Fill-54" fill="url(#linearGradient-57)" mask="url(#mask-56)"></path>
                        </g>
                        <polygon id="Fill-57" fill="url(#linearGradient-58)" points="116 26 120 26 120 22 116 22"></polygon>
                    </g>
                </g>
            </g>
        </g>
    </g>
</svg>