<?xml version="1.0" encoding="UTF-8"?>
<svg width="140px" height="35px" viewBox="0 0 140 35" version="1.1" xmlns="http://www.w3.org/2000/svg" xmlns:xlink="http://www.w3.org/1999/xlink">
    <!-- Generator: Sketch 52.4 (67378) - http://www.bohemiancoding.com/sketch -->
    <title>m_logo_dadex</title>
    <desc>Created with Sketch.</desc>
    <defs>
        <polygon id="path-1" points="0.0298421053 0.389636364 31.0006974 0.389636364 31.0006974 30 0.0298421053 30"></polygon>
        <polygon id="path-3" points="0 0.196545455 31.9669276 0.196545455 31.9669276 34.5451818 0 34.5451818"></polygon>
    </defs>
    <g id="Page-1" stroke="none" stroke-width="1" fill="none" fill-rule="evenodd">
        <g id="PC端官网-" transform="translate(-120.000000, -65.000000)">
            <g id="m_logo_dadex" transform="translate(120.000000, 65.000000)">
                <polygon id="Fill-1" fill="#FFFFFF" points="116.444079 13.2883636 116.444079 9.49609091 100.448158 9.49609091 100.448158 13.2883636 104.879803 13.2883636"></polygon>
                <polygon id="Fill-2" fill="#FFFFFF" points="116.444079 19.5230455 116.444079 15.7307727 100.448158 15.7307727 100.448158 19.5230455 104.879803 19.5230455"></polygon>
                <polygon id="Fill-3" fill="#FFFFFF" points="116.444079 25.7575 116.444079 21.9656818 100.448158 21.9656818 100.448158 25.7575 104.879803 25.7575"></polygon>
                <polygon id="Fill-4" fill="#FFFFFF" points="133.961211 9.49627273 129.084237 14.6180909 124.207724 9.49627273 118.334171 9.49627273 126.096342 17.7576364 118.474171 25.7621818 124.553579 25.7621818 129.084237 20.939 133.615816 25.7621818 139.694303 25.7621818 132.073053 17.7576364 139.834303 9.49627273"></polygon>
                <path d="M65.7830066,20.2454545 L67.6241908,16.515 L69.465375,20.2454545 L65.7830066,20.2454545 Z M72.1857039,25.7572727 L75.3859013,25.7572727 L71.2310329,17.3386364 L69.6389934,14.1122727 L68.8095855,14.1122727 L66.4383355,14.1122727 L65.6093882,14.1122727 L64.0173487,17.3386364 L59.8624803,25.7572727 L63.0626776,25.7572727 L64.442875,22.9609091 L70.8055066,22.9609091 L72.1857039,25.7572727 Z" id="Fill-5" fill="#007AFF"></path>
                <g id="分组" transform="translate(0.000000, 0.258000)">
                    <path d="M51.8552632,21.7077727 L46.4330263,21.7077727 L46.4330263,13.0305 L51.8552632,13.0305 C54.2730263,13.0305 56.2509868,14.9827727 56.2509868,17.3691364 C56.2509868,19.7555 54.2730263,21.7077727 51.8552632,21.7077727 M51.8552632,9.23822727 L46.4330263,9.23822727 L42.5908553,9.23822727 L42.5908553,13.7436818 L42.5908553,25.4995909 L44.5117105,25.4995909 L46.4330263,25.4995909 L51.8552632,25.4995909 C56.3859211,25.4995909 60.0931579,21.8409545 60.0931579,17.3691364 C60.0931579,12.8973182 56.3859211,9.23822727 51.8552632,9.23822727" id="Fill-6" fill="#007AFF"></path>
                    <path d="M89.6184211,21.7077727 L84.1961842,21.7077727 L84.1961842,13.0305 L89.6184211,13.0305 C92.0361842,13.0305 94.0141447,14.9827727 94.0141447,17.3691364 C94.0141447,19.7555 92.0361842,21.7077727 89.6184211,21.7077727 M89.6184211,9.23822727 L84.1961842,9.23822727 L80.3540132,9.23822727 L80.3540132,13.7436818 L80.3540132,25.4995909 L82.2748684,25.4995909 L84.1961842,25.4995909 L89.6184211,25.4995909 C94.1490789,25.4995909 97.8563158,21.8409545 97.8563158,17.3691364 C97.8563158,12.8973182 94.1490789,9.23822727 89.6184211,9.23822727" id="Fill-8" fill="#FFFFFF"></path>
                    <g transform="translate(3.223684, 4.545455)">
                        <mask id="mask-2" fill="white">
                            <use xlink:href="#path-1"></use>
                        </mask>
                        <g id="Clip-11"></g>
                        <path d="M25.5701711,0.389636364 L20.2994474,6.50009091 C21.8979342,8.14827273 22.8848421,10.3778182 22.8848421,12.8255455 C22.8848421,17.866 18.7069474,21.9900909 13.5997105,21.9900909 L6.93865789,21.9900909 L0.0298421053,30.0000909 L0.833921053,30.0000909 L4.89161842,30.0000909 L13.5997105,30.0000909 C23.1703684,30.0000909 31.0006974,22.2714545 31.0006974,12.8255455 C31.0006974,7.94554545 28.9103684,3.52418182 25.5701711,0.389636364" id="Fill-10" fill="#007AFF" mask="url(#mask-2)"></path>
                    </g>
                    <path d="M6.36502632,20.2629091 L10.4471316,15.3956364 L8.11548684,17.0429091 L8.11548684,8.20654545 L16.8235789,8.20654545 C17.3656184,8.20654545 17.8933816,8.26336364 18.4100921,8.35290909 L26.26575,2.97609091 C23.5408158,1.22427273 20.3000921,0.196545455 16.8235789,0.196545455 L8.11548684,0.196545455 L9.21052632e-05,0.196545455 L9.21052632e-05,9.71290909 L9.21052632e-05,24.9351818 L6.36502632,20.2629091 Z" id="Fill-12" fill="#007AFF"></path>
                    <g>
                        <mask id="mask-4" fill="white">
                            <use xlink:href="#path-3"></use>
                        </mask>
                        <g id="Clip-15"></g>
                        <polygon id="Fill-14" fill="#FFFFFF" mask="url(#mask-4)" points="31.9669276 0.196545455 -4.60526316e-05 22.5738182 -4.60526316e-05 34.5451818"></polygon>
                    </g>
                </g>
            </g>
        </g>
    </g>
</svg>