<?xml version="1.0" encoding="UTF-8"?>
<svg width="165px" height="47px" viewBox="0 0 165 47" version="1.1" xmlns="http://www.w3.org/2000/svg" xmlns:xlink="http://www.w3.org/1999/xlink">
    <!-- Generator: Sketch 52.5 (67469) - http://www.bohemiancoding.com/sketch -->
    <title>logo_eosmex01</title>
    <desc>Created with Sketch.</desc>
    <g id="Page-1" stroke="none" stroke-width="1" fill="none" fill-rule="evenodd">
        <g id="PC端官网-" transform="translate(-120.000000, -55.000000)">
            <g id="logo_eosmex01" transform="translate(120.000000, 55.000000)">
                <path d="M159.166588,28.0743523 L164.639205,20.4377589 L161.657633,20.4377589 L158.937193,24.5043179 C158.761807,24.7683072 158.581966,25.0278031 158.396557,25.2805589 C158.210592,25.534438 158.030751,25.7928105 157.855921,26.0573615 L157.790221,26.0573615 C157.637105,25.8377449 157.484547,25.6007161 157.331432,25.3473987 C157.178873,25.0935196 156.981772,24.7801025 156.741799,24.4049007 L153.956772,20.4377589 L150.941793,20.4377589 L156.38156,28.1400688 L150.580998,36.2726251 L153.530276,36.2726251 L156.479554,31.9089377 L157.659377,30.2227761 L157.757927,30.2227761 C157.953915,30.5097943 158.145448,30.7850172 158.330857,31.0495682 C158.516265,31.3141192 158.708355,31.5899038 158.904343,31.8757986 L161.952171,36.2726251 L165,36.2726251 L159.166588,28.0743523 Z M145.273189,26.916731 C145.207488,26.3005687 145.043794,25.7051885 144.781549,25.1322755 C144.518748,24.5588008 144.169089,24.0577828 143.732571,23.628098 C143.295496,23.1978516 142.782143,22.8507337 142.19251,22.5861827 C141.602877,22.3221934 140.946987,22.189637 140.225953,22.189637 C139.483205,22.189637 138.811169,22.3221934 138.210957,22.5861827 C137.609631,22.8507337 137.091267,23.20403 136.654192,23.6443867 C136.217118,24.0853051 135.873026,24.5925016 135.622474,25.1648529 C135.370808,25.7383276 135.212682,26.3219125 135.146982,26.916731 L145.273189,26.916731 Z M147.582723,25.3962648 C147.856104,26.3662852 147.993072,27.2806993 147.993072,28.1400688 C147.993072,28.2950923 147.986948,28.470898 147.976369,28.6691708 C147.965233,28.8674437 147.949086,29.0112336 147.926815,29.0988556 L135.114688,29.0988556 C135.114688,29.8262304 135.26669,30.5154111 135.57292,31.1652742 C135.879151,31.8151373 136.288386,32.3886119 136.80174,32.8840132 C137.315093,33.3799761 137.904726,33.7765218 138.571752,34.0742119 C139.237664,34.371902 139.942551,34.520747 140.685299,34.520747 C141.624035,34.520747 142.405201,34.3550516 143.028241,34.0247841 C143.650724,33.6939549 144.213074,33.2204592 144.715849,32.6031735 L147.697421,32.6031735 C147.435733,33.11037 147.10222,33.6108264 146.697996,34.1067893 C146.293771,34.6027522 145.802132,35.0549042 145.223635,35.4621217 C144.644581,35.8704627 143.983123,36.2012919 143.240932,36.4540476 C142.498184,36.707365 141.668021,36.8348663 140.750999,36.8348663 C139.50492,36.8348663 138.369083,36.6135646 137.342933,36.1732079 C136.315668,35.7328512 135.442076,35.1211823 134.721043,34.3382012 C134.000009,33.5569051 133.437659,32.6363126 133.033434,31.5781085 C132.62921,30.5199045 132.427655,29.3746402 132.427655,28.1400688 C132.427655,27.060521 132.613063,26.019729 132.984437,25.0165695 C133.355812,24.0139718 133.879744,23.1377519 134.557349,22.3884715 C135.234396,21.6391912 136.053424,21.0387559 137.014987,20.5866039 C137.975994,20.1350137 139.046688,19.9092186 140.225953,19.9092186 C141.646306,19.9092186 142.852854,20.1788247 143.847268,20.7185986 C144.841125,21.2589342 145.644006,21.9307028 146.256467,22.7350277 C146.867258,23.540476 147.3099,24.4268062 147.582723,25.3962648 Z M123.186732,19.9092186 C122.509128,19.9092186 121.881077,20.003019 121.302579,20.1900583 C120.723525,20.3776592 120.204604,20.6309766 119.745815,20.9500105 C119.287026,21.2701678 118.893937,21.6229025 118.566549,22.0082146 C118.238604,22.3940883 117.97636,22.7850172 117.779815,23.1815629 C117.45187,22.2564769 116.829387,21.4791125 115.911809,20.851155 C114.994231,20.2226357 113.913516,19.9092186 112.667436,19.9092186 C111.640729,19.9092186 110.734844,20.1518641 109.94811,20.6360317 C109.161376,21.1213228 108.506042,21.7161413 107.981553,22.4216106 L107.91641,22.4216106 L107.91641,20.4377589 L105.32737,20.4377589 L105.32737,36.2726251 L107.91641,36.2726251 L107.91641,27.4789721 C107.91641,25.8259496 108.303374,24.5425121 109.079529,23.628098 C109.855127,22.7136839 110.898538,22.2564769 112.209204,22.2564769 C112.798837,22.2564769 113.323326,22.3716211 113.782115,22.6030331 C114.240904,22.834445 114.628425,23.1596574 114.945234,23.5781085 C115.261487,23.9971214 115.507585,24.4818507 115.682415,25.0328582 C115.857245,25.5838658 115.944659,26.1899179 115.944659,26.8510145 L115.944659,36.2726251 L118.566549,36.2726251 L118.566549,27.4789721 C118.566549,26.5757916 118.686258,25.7928105 118.927344,25.1322755 C119.166761,24.4706171 119.484127,23.9252264 119.877216,23.4961033 C120.270304,23.0658569 120.723525,22.7518781 121.236879,22.5536053 C121.750233,22.3547708 122.28029,22.2564769 122.825937,22.2564769 C123.481827,22.2564769 124.049745,22.3828547 124.530249,22.6361722 C125.010752,22.8900513 125.403841,23.2259355 125.710071,23.6443867 C126.015745,24.0628379 126.239572,24.5486906 126.381551,25.0991364 C126.523531,25.6501439 126.594799,26.2342905 126.594799,26.8510145 L126.594799,36.2726251 L129.183282,36.2726251 L129.183282,27.0492874 C129.183282,24.7138243 128.626499,22.9389174 127.512377,21.7268132 C126.398255,20.5152707 124.956744,19.9092186 123.186732,19.9092186 Z M98.1348509,25.7602331 C97.6209405,25.1435091 96.9383249,24.5863231 96.0864474,24.0903602 C95.2345698,23.5943972 94.1744555,23.1596574 92.9077749,22.7850172 C91.5976652,22.3884715 90.5648332,21.8868918 89.8115062,21.2808397 C89.0576224,20.6747876 88.6806806,19.8429404 88.6806806,18.7847364 C88.6806806,17.7928105 89.0080688,16.9778137 89.6639588,16.3386225 C90.3192921,15.699993 91.2257343,15.3798357 92.3838423,15.3798357 C93.4322642,15.3798357 94.2674383,15.6606754 94.8904781,16.2229165 C95.513518,16.7845959 95.9116176,17.4956821 96.0864474,18.3550516 L99.0028752,18.3550516 C98.8937458,17.6063329 98.6587835,16.9064804 98.2985451,16.2560556 C97.9377499,15.6061925 97.4733931,15.0383346 96.9060315,14.5536053 C96.3375564,14.0688759 95.6716442,13.6891807 94.9071816,13.4128344 C94.1421621,13.1376115 93.3008635,13 92.3838423,13 C91.4222786,13 90.5486865,13.148845 89.7625094,13.4459735 C88.9757754,13.7436636 88.2981708,14.1570596 87.7302525,14.6855999 C87.1623341,15.214702 86.7196919,15.8319876 86.4028825,16.5368953 C86.0860731,17.2429263 85.9279468,17.991645 85.9279468,18.7847364 C85.9279468,20.4596644 86.4301648,21.8149968 87.4357144,22.8507337 C88.4401504,23.8870322 89.9696325,24.7244962 92.0230472,25.3636874 C93.6399441,25.8703223 94.8414812,26.5095134 95.6276584,27.2806993 C96.4143924,28.0524468 96.807481,29.0769501 96.807481,30.3553324 C96.807481,30.862529 96.7200661,31.3691638 96.5452363,31.8757986 C96.3704065,32.3829952 96.1081619,32.8402022 95.7590591,33.2479815 C95.4088428,33.6557607 94.9667573,33.9860282 94.4316892,34.2399073 C93.8960642,34.4932247 93.2791489,34.6196026 92.5803866,34.6196026 C91.3348637,34.6196026 90.3298709,34.2781015 89.5654083,33.5945377 C88.8003888,32.9115355 88.2653207,31.9971214 87.9596469,30.8507337 L84.9775188,30.8507337 C85.4580222,32.9665801 86.3705891,34.520747 87.7141058,35.5121112 C89.0576224,36.5040371 90.6683948,37 92.5475365,37 C93.7050877,37 94.7212162,36.8011655 95.5948082,36.4046198 C96.4689571,36.0080741 97.2005696,35.4845889 97.7907592,34.8341642 C98.3803921,34.1848627 98.8230344,33.4574879 99.1175724,32.6526013 C99.4126673,31.8482763 99.5602147,31.0276627 99.5602147,30.1901987 C99.5602147,29.3302675 99.4505285,28.5315594 99.2322697,27.7929509 C99.0140108,27.0554658 98.6482046,26.3775188 98.1348509,25.7602331 Z M79.8328465,24.9997192 C79.8328465,23.6556203 79.6140309,22.3991434 79.1775133,21.2308502 C78.7404389,20.0631187 78.1229668,19.049849 77.3262108,18.1899179 C76.5283412,17.3305483 75.572902,16.6587798 74.4587798,16.1734887 C73.3441008,15.6887594 72.1208492,15.4461139 70.789025,15.4461139 C69.5212308,15.4461139 68.3358404,15.6831426 67.2328538,16.1566383 C66.1293105,16.6312575 65.1738714,17.2923541 64.3654229,18.1399284 C63.5569744,18.988626 62.9239124,19.9974022 62.4651235,21.1651337 C62.0063345,22.3334269 61.7769401,23.6118093 61.7769401,24.9997192 C61.7769401,26.3662852 62.0063345,27.633434 62.4651235,28.8017272 C62.9239124,29.9700204 63.5569744,30.9782349 64.3654229,31.8263708 C65.1738714,32.6745068 66.1293105,33.3417819 67.2328538,33.8259496 C68.3358404,34.3112406 69.5212308,34.5533244 70.789025,34.5533244 C72.0551489,34.5533244 73.2405393,34.3112406 74.3440826,33.8259496 C75.4470691,33.3417819 76.4080761,32.6745068 77.2276602,31.8263708 C78.0472444,30.9782349 78.6858741,29.9700204 79.1446631,28.8017272 C79.6040088,27.633434 79.8328465,26.3662852 79.8328465,24.9997192 Z M81.8316965,20.4546093 C82.3779003,21.8981254 82.6507238,23.4129748 82.6507238,24.9997192 C82.6507238,26.6527417 82.3506179,28.206347 81.7498494,29.660535 C81.1490809,31.1152847 80.3189178,32.3886119 79.2593603,33.4788317 C78.1992461,34.5696131 76.9492689,35.4295443 75.5072017,36.0575019 C74.0651344,36.6854595 72.503359,37 70.8213184,37 C68.7896183,37 67.0251739,36.6360317 65.5290987,35.9086569 C64.0324668,35.181282 62.7980796,34.2449624 61.8259369,33.0985747 C60.8537943,31.9533104 60.1327607,30.6636944 59.6633929,29.2314119 C59.1929115,27.7991294 58.958506,26.3881907 58.958506,24.9997192 C58.958506,23.3910693 59.2536008,21.8593695 59.8432337,20.4051815 C60.4334234,18.9504318 61.2530075,17.6771045 62.3008726,16.5868848 C63.3498512,15.4955417 64.5998284,14.6255002 66.0535881,13.9745138 C67.5056774,13.3252124 69.095292,13 70.8213184,13 C72.6564742,13 74.3056646,13.3302675 75.7694463,13.9919259 C77.2332281,14.6524609 78.4726264,15.5342975 79.4887548,16.6363126 C80.5048833,17.7388893 81.2854926,19.0110932 81.8316965,20.4546093 Z M45.7198835,33.7602331 L55.6166962,33.7602331 L55.6166962,36.2726251 L43,36.2726251 L43,13.7268132 L55.255901,13.7268132 L55.255901,16.2397669 L45.7198835,16.2397669 L45.7198835,23.3466966 L54.8956626,23.3466966 L54.8956626,25.8596504 L45.7198835,25.8596504 L45.7198835,33.7602331 Z" id="Fill-1" fill="#FFFFFF"></path>
                <path d="M5.22243367,15 L15.3393033,47 L0,37.6751951 L5.22243367,15 Z M25.7781213,15 L31,37.6751951 L15.6606967,47 L25.7781213,15 Z" id="Combined-Shape" fill="#007AFF"></path>
                <path d="M5,14.5733723 L15.3355464,0 L15.3355464,11.2114085 L7.97779854,24 L5,14.5733723 Z M26,14.5733723 L23.0222015,24 L15.6638866,11.2114085 L15.6638866,0 L26,14.5733723 Z" id="Combined-Shape" fill="#0056C5"></path>
            </g>
        </g>
    </g>
</svg>