<?xml version="1.0" encoding="UTF-8"?>
<svg width="198px" height="88px" viewBox="0 0 198 88" version="1.1" xmlns="http://www.w3.org/2000/svg" xmlns:xlink="http://www.w3.org/1999/xlink">
    <!-- Generator: Sketch 52.5 (67469) - http://www.bohemiancoding.com/sketch -->
    <title>logo_p14b</title>
    <desc>Created with Sketch.</desc>
    <defs>
        <polygon id="path-1" points="0 0 197.399258 0 197.399258 87.721519 0 87.721519"></polygon>
        <polygon id="path-3" points="0 60 148 60 148 0 0 0"></polygon>
    </defs>
    <g id="Page-1" stroke="none" stroke-width="1" fill="none" fill-rule="evenodd">
        <g id="PC端官网-" transform="translate(-120.000000, -4863.000000)">
            <g id="logo_p14b" transform="translate(120.000000, 4863.000000)">
                <mask id="mask-2" fill="white">
                    <use xlink:href="#path-1"></use>
                </mask>
                <g id="Rectangle-9-Copy-4"></g>
                <g id="分组" mask="url(#mask-2)">
                    <g transform="translate(25.000000, 14.000000)">
                        <path d="M66.1603027,47.399786 L68,47.399786 C68,48.516656 67.7906989,49.3956731 67.3717739,50.0373619 C66.9530642,50.6793654 66.2329394,51 65.2116147,51 C64.0063848,51 63.1688577,50.6959428 62.6987105,50.0876184 C62.2329752,49.4750973 62,48.4645109 62,47.0564888 L62,45.0250338 C62,43.5124068 62.2437362,42.4647837 62.7308858,41.8812204 C63.2222322,41.29388 64.0001435,41 65.0640816,41 C66.063992,41 66.7863766,41.2605156 67.2309127,41.7814418 C67.6752336,42.3022631 67.8974479,43.1085709 67.8974479,44.2001553 L66.0899259,44.2001553 C66.0899259,43.6084083 66.0277275,43.1686899 65.9039762,42.8812099 C65.7799021,42.5936251 65.5449899,42.4498851 65.1985939,42.4498851 C64.3310436,42.4498851 63.8974837,43.1166497 63.8974837,44.450074 L63.8974837,47.5624115 C63.8974837,48.2794326 64.0086447,48.7895521 64.2308589,49.0938192 C64.4572699,49.3978764 64.7840809,49.5501149 65.2116147,49.5501149 C65.5361659,49.5501149 65.7757053,49.3897976 65.9294797,49.0685335 C66.0833617,48.744017 66.1603027,48.1877328 66.1603027,47.399786" id="Fill-1" stroke="none" fill="#FBB03B" fill-rule="evenodd"></path>
                        <path d="M70.9704054,45.5674594 L70.9704054,48.3663901 C70.9704054,48.898475 71.0467545,49.2461807 71.1999503,49.4088422 C71.3528973,49.571947 71.6296941,49.6534994 72.0295946,49.6534994 C72.4444168,49.6534994 72.7133798,49.5633042 72.8369809,49.3828031 C72.9653071,49.2020804 73.0295946,48.8632391 73.0295946,48.3663901 L73.0295946,45.5610327 C73.0295946,44.75116 72.7036807,44.3465006 72.0518528,44.3465006 C71.6713504,44.3465006 71.3948023,44.4412388 71.2222084,44.6303827 C71.054091,44.8196374 70.9704054,45.1317747 70.9704054,45.5674594 M69,47.5014474 L69,46.6233189 C69,45.1141567 69.2491917,44.1330905 69.7479483,43.6798986 C70.2467048,43.2265959 71.0047252,43 72.0222581,43 C73.0839343,43 73.8443173,43.2374548 74.3035315,43.7128077 C74.7677195,44.1880497 75,45.0943226 75,46.4324021 L75,47.3427748 C75,48.8042909 74.7873663,49.7787088 74.3629694,50.2670259 C73.9380751,50.7553429 73.1579209,51 72.0222581,51 C70.8468043,51 70.0492415,50.75357 69.6296941,50.26071 C69.2097737,49.7634178 69,48.843405 69,47.5014474" id="Fill-3" stroke="none" fill="#FBB03B" fill-rule="evenodd"></path>
                        <path d="M75,43.2028121 L76.8109024,43.2028121 L76.8109024,44.0828007 C77.1649461,43.3608578 77.7708659,43 78.6285475,43 C79.109672,43 79.4909146,43.1080528 79.7722753,43.3247266 C80.0584359,43.5367419 80.2215154,43.7894333 80.2624281,44.0828007 C80.3535103,43.8213606 80.5487029,43.575032 80.8478915,43.3450646 C81.1522228,43.1150973 81.5605501,43 82.0735591,43 C82.6632509,43 83.1306617,43.1511149 83.4757914,43.4531175 C83.8252638,43.7556881 84,44.1663116 84,44.6852152 L84,51 L82.1892118,51 L82.1892118,45.7475643 C82.1892118,45.2649056 82.1320712,44.9175685 82.018704,44.7055532 C81.9053369,44.4887658 81.6967735,44.380713 81.3924422,44.380713 C81.0295989,44.380713 80.7731515,44.5004687 80.6234429,44.7391848 C80.478077,44.9739242 80.4055084,45.3462576 80.4055084,45.8562988 L80.4055084,51 L78.5946059,51 L78.5946059,45.6459878 C78.5946059,45.1817355 78.5309512,44.8542821 78.4038703,44.6648771 C78.2767895,44.4754722 78.0430841,44.380713 77.7027542,44.380713 C77.4029942,44.380713 77.1784313,44.4708138 77.028837,44.65147 C76.8833568,44.8316716 76.8109024,45.2062775 76.8109024,45.7749467 L76.8109024,51 L75,51 L75,43.2028121 Z" id="Fill-5" stroke="none" fill="#FBB03B" fill-rule="evenodd"></path>
                        <path d="M85,43.2028121 L86.811131,43.2028121 L86.811131,44.0828007 C87.1651747,43.3608578 87.7710944,43 88.628776,43 C89.109672,43 89.4911432,43.1080528 89.7722753,43.3247266 C90.0584359,43.5367419 90.2215154,43.7894333 90.2624281,44.0828007 C90.3535103,43.8213606 90.5487029,43.575032 90.8478915,43.3450646 C91.1522228,43.1150973 91.5605501,43 92.0735591,43 C92.6632509,43 93.1306617,43.1511149 93.4757914,43.4531175 C93.8252638,43.7556881 94,44.1663116 94,44.6852152 L94,51 L92.1892118,51 L92.1892118,45.7475643 C92.1892118,45.2649056 92.1320712,44.9175685 92.018704,44.7055532 C91.9053369,44.4887658 91.6967735,44.380713 91.3924422,44.380713 C91.0295989,44.380713 90.7731515,44.5004687 90.6234429,44.7391848 C90.478077,44.9739242 90.4055084,45.3462576 90.4055084,45.8562988 L90.4055084,51 L88.5948345,51 L88.5948345,45.6459878 C88.5948345,45.1817355 88.5311798,44.8542821 88.4038703,44.6648771 C88.277018,44.4754722 88.0433126,44.380713 87.7027542,44.380713 C87.4029942,44.380713 87.1785456,44.4708138 87.0290656,44.65147 C86.8835854,44.8316716 86.811131,45.2062775 86.811131,45.7749467 L86.811131,51 L85,51 L85,43.2028121 Z" id="Fill-7" stroke="none" fill="#FBB03B" fill-rule="evenodd"></path>
                        <path d="M97,44 L98.7454285,44 L98.7454285,49.5361718 C98.7454285,50.2580737 98.9791804,50.6193655 99.4476757,50.6193655 C99.9855695,50.6193655 100.254682,50.1545715 100.254682,49.2247564 L100.254682,44 L102,44 L102,51.796745 L100.333554,51.796745 L100.333554,50.5919845 C100.04913,51.5306615 99.4977969,52 98.679555,52 C98.0717118,52 97.6386869,51.8373051 97.38026,51.5125969 C97.1266799,51.1833442 97,50.6686738 97,49.9693811 L97,44 Z" id="Fill-9" stroke="none" fill="#FBB03B" fill-rule="evenodd"></path>
                        <path d="M102,51 L102,43.2028121 L103.709354,43.2028121 L103.709354,44.0828007 C104.039163,43.3608578 104.566404,43 105.290107,43 C105.800302,43 106.211242,43.1667945 106.524544,43.5007243 C106.841191,43.8301094 107,44.3198125 107,44.9692657 L107,51 L105.290107,51 L105.290107,45.6459878 C105.290107,45.1904843 105.236595,44.8658713 105.12968,44.671808 C105.026972,44.4778583 104.83612,44.380713 104.557665,44.380713 C103.992232,44.380713 103.709354,44.8455333 103.709354,45.7749467 L103.709354,51 L102,51 Z" id="Fill-11" stroke="none" fill="#FBB03B" fill-rule="evenodd"></path>
                        <mask id="mask-4" fill="white">
                            <use xlink:href="#path-3"></use>
                        </mask>
                        <g id="Clip-14" stroke="none" fill="none"></g>
                        <path d="M109,51 L111,51 L111,43.5144802 L109,43.5144802 L109,51 Z M109,42.5788038 L111,42.5788038 L111,41 L109,41 L109,42.5788038 Z" id="Fill-13" stroke="none" fill="#FBB03B" fill-rule="evenodd" mask="url(#mask-4)"></path>
                        <path d="M112,45.4561002 L112,44.1475005 L112.666897,44.1475005 L112.666897,42 L114.308649,42 L114.308649,44.1475005 L115,44.1475005 L115,45.4561002 L114.308649,45.4561002 L114.308649,50.0940524 C114.308649,50.1965772 114.329269,50.3020313 114.370199,50.4091754 C114.41144,50.5167701 114.543348,50.5703985 114.765301,50.5703985 C114.835245,50.5703985 114.913581,50.563526 115,50.5502315 L115,51.9394991 C114.728205,51.979833 114.442111,52 114.141821,52 C113.660196,52 113.294211,51.8945459 113.043037,51.6844264 C112.79207,51.4741942 112.666897,51.1187373 112.666897,50.6171543 L112.666897,45.4561002 L112,45.4561002 Z" id="Fill-15" stroke="none" fill="#FBB03B" fill-rule="evenodd" mask="url(#mask-4)"></path>
                        <path d="M116.000117,53.9418743 L116.000117,52.6045503 C116.110982,52.6177804 116.233737,52.6240701 116.368268,52.6240701 C116.650385,52.6240701 116.845185,52.5962001 116.951271,52.5402433 C117.057939,52.4798404 117.110982,52.3807231 117.110982,52.2431084 C117.110982,52.0534409 117.071695,51.8189863 116.993122,51.5389854 L115,44 L116.937631,44 L118.041968,49.3489709 L119.124971,44 L121,44 L118.888902,52.3206455 C118.731639,52.9233739 118.506878,53.3541111 118.215435,53.6125317 C117.923875,53.8708439 117.469806,54 116.854162,54 C116.664491,54 116.379692,53.9805886 116.000117,53.9418743" id="Fill-16" stroke="none" fill="#FBB03B" fill-rule="evenodd" mask="url(#mask-4)"></path>
                        <path d="M65.4961638,34.3631846 L67.2623305,34.3631846 C68.0337237,34.3631846 68.5820715,34.148399 68.9070391,33.7187204 C69.2316717,33.2891492 69.3942113,32.5625295 69.3942113,31.5390761 C69.3942113,30.5235697 69.1992977,29.8358262 68.809359,29.4764899 C68.4276813,29.1171536 67.7861188,28.9377002 66.8847832,28.9377002 L65.4961638,28.9377002 L65.4961638,34.3631846 Z M65.4961638,26.3008848 L66.6655334,26.3008848 C67.6076155,26.3008848 68.2327677,26.1288415 68.5414366,25.7851846 C68.8582549,25.441635 69.016664,24.757865 69.016664,23.7344116 C69.016664,23.0314184 68.8987781,22.5078785 68.6632297,22.1637919 C68.4276813,21.8122953 67.9524539,21.6368154 67.2381059,21.6368154 L65.4961638,21.6368154 L65.4961638,26.3008848 Z M62,37 L62,19 L68.041873,19 C71.0222863,19 72.5126045,20.5391536 72.5126045,23.6173535 C72.5126045,25.5547196 71.7491374,26.808638 70.222538,27.3788937 C72.0741049,27.6993539 73,29.1013669 73,31.5858993 C73,35.1953714 71.4080945,37 68.2248417,37 L62,37 Z" id="Fill-17" stroke="none" fill="#F7931E" fill-rule="evenodd" mask="url(#mask-4)"></path>
                        <path d="M78.0150618,27.6437283 L80.9851459,27.6437283 L80.9851459,26.2944962 C80.9851459,25.6346245 80.8639244,25.1766387 80.6223122,24.9207655 C80.3879713,24.656953 79.990859,24.5247064 79.4320141,24.5247064 C78.8652747,24.5247064 78.4872754,24.6980106 78.2985354,25.0443922 C78.1094837,25.391114 78.0150618,25.9688703 78.0150618,26.7772073 L78.0150618,27.6437283 Z M78.0150618,30.1683213 L78.0150618,32.2226793 C78.0150618,32.9983516 78.1358679,33.5677149 78.3775839,33.9307691 C78.6270905,34.2941635 79.0237873,34.4752936 79.5679859,34.4752936 C80.5125169,34.4752936 80.9851459,33.8237015 80.9851459,32.5196101 L80.9851459,31.8515724 L84,31.8515724 C84,35.2840843 82.6059001,37 79.8173886,37 C78.1470863,37 76.9269762,36.5504072 76.1561234,35.6512215 C75.3853745,34.7520359 75,33.2667009 75,31.1957838 L75,27.3218453 C75,23.7738728 76.4771995,22 79.4320141,22 C80.9355978,22 82.0729199,22.3670238 82.8436688,23.1016385 C83.6144178,23.8356861 84,25.4612069 84,27.9775204 L84,30.1683213 L78.0150618,30.1683213 Z" id="Fill-18" stroke="none" fill="#F7931E" fill-rule="evenodd" mask="url(#mask-4)"></path>
                        <path d="M90.0152696,27.6437283 L92.9851459,27.6437283 L92.9851459,26.2944962 C92.9851459,25.6346245 92.8639244,25.1766387 92.6223122,24.9207655 C92.3879713,24.656953 91.9909629,24.5247064 91.4322219,24.5247064 C90.8654825,24.5247064 90.4874831,24.6980106 90.2987431,25.0443922 C90.1094837,25.391114 90.0152696,25.9688703 90.0152696,26.7772073 L90.0152696,27.6437283 Z M90.0152696,30.1683213 L90.0152696,32.2226793 C90.0152696,32.9983516 90.1360756,33.5677149 90.3775839,33.9307691 C90.6272982,34.2941635 91.0237873,34.4752936 91.5681936,34.4752936 C92.5125169,34.4752936 92.9851459,33.8237015 92.9851459,32.5196101 L92.9851459,31.8515724 L96,31.8515724 C96,35.2840843 94.6059001,37 91.8173886,37 C90.1470863,37 88.9269762,36.5504072 88.1563312,35.6512215 C87.3855822,34.7520359 87,33.2667009 87,31.1957838 L87,27.3218453 C87,23.7738728 88.4771995,22 91.4322219,22 C92.9355978,22 94.0729199,22.3670238 94.8436688,23.1016385 C95.6144178,23.8356861 96,25.4612069 96,27.9775204 L96,30.1683213 L90.0152696,30.1683213 Z" id="Fill-19" stroke="none" fill="#F7931E" fill-rule="evenodd" mask="url(#mask-4)"></path>
                        <path d="M102.238037,34.3631846 L103.738258,34.3631846 C104.949394,34.3631846 105.739207,33.941453 106.107904,33.0978826 C106.476084,32.2459355 106.660639,30.5156227 106.660639,27.9062998 C106.660639,25.4298218 106.495004,23.7657703 106.164253,22.9139306 C105.832984,22.0625205 105.197742,21.6368154 104.25739,21.6368154 L102.238037,21.6368154 L102.238037,34.3631846 Z M99,37 L99,19 L105.65639,19 C106.679146,19 107.600577,19.4139992 108.420684,20.2422125 C109.007125,20.8124683 109.416971,21.6328419 109.650224,22.7031186 C109.883477,23.7657703 110,25.4612879 110,27.7889194 C110,30.0938911 109.857009,31.8516965 109.571233,33.0625503 C109.285353,34.2737264 108.788864,35.2381137 108.082281,35.9568937 C107.382833,36.6523695 106.359664,37 105.013291,37 L99,37 Z" id="Fill-20" stroke="none" fill="#F7931E" fill-rule="evenodd" mask="url(#mask-4)"></path>
                        <path d="M116.460809,29.7694575 L119.564618,29.7694575 L118.095035,22.375141 L116.460809,29.7694575 Z M111,37 L115.662564,19 L120.540393,19 L125,37 L121.085058,37 L120.122055,32.4061655 L115.890601,32.4061655 L114.914826,37 L111,37 Z" id="Fill-21" stroke="none" fill="#F7931E" fill-rule="evenodd" mask="url(#mask-4)"></path>
                        <path d="M129.07693,27.976908 L129.07693,32.2184665 C129.07693,33.7970295 129.574769,34.586311 130.569598,34.586311 C131.471665,34.586311 131.922964,33.7931321 131.922964,32.2068796 L131.922964,27.3563746 C131.922964,26.6436722 131.803169,26.1302653 131.564321,25.8162592 C131.332894,25.501937 131.012627,25.3447759 130.604052,25.3447759 C129.586006,25.3447759 129.07693,26.2223289 129.07693,27.976908 Z M129.07693,24.8389532 C129.609223,23.6132653 130.488498,23 131.714754,23 C132.763437,23 133.573379,23.337496 134.144049,24.0115401 C134.714718,24.6784214 135,25.8659777 135,27.5747358 L135,32.4368278 C135,35.4330006 133.943577,36.9310869 131.830308,36.9310869 C131.14366,36.9310869 130.584652,36.8085814 130.153177,36.5631488 C129.720855,36.3104481 129.362212,35.8814152 129.07693,35.2758395 L129.07693,41 L126,41 L126,23.3447642 L129.07693,23.3447642 L129.07693,24.8389532 Z" id="Fill-22" stroke="none" fill="#F7931E" fill-rule="evenodd" mask="url(#mask-4)"></path>
                        <path d="M142.07693,27.976908 L142.07693,32.2184665 C142.07693,33.7970295 142.574769,34.586311 143.569598,34.586311 C144.471665,34.586311 144.922964,33.7931321 144.922964,32.2068796 L144.922964,27.3563746 C144.922964,26.6436722 144.803169,26.1302653 144.564321,25.8162592 C144.332894,25.501937 144.012627,25.3447759 143.604052,25.3447759 C142.586006,25.3447759 142.07693,26.2223289 142.07693,27.976908 Z M142.07693,24.8389532 C142.609223,23.6132653 143.488498,23 144.714754,23 C145.763437,23 146.573379,23.337496 147.144049,24.0115401 C147.714718,24.6784214 148,25.8659777 148,27.5747358 L148,32.4368278 C148,35.4330006 146.943577,36.9310869 144.830308,36.9310869 C144.14366,36.9310869 143.584652,36.8085814 143.153177,36.5631488 C142.720855,36.3104481 142.362212,35.8814152 142.07693,35.2758395 L142.07693,41 L139,41 L139,23.3447642 L142.07693,23.3447642 L142.07693,24.8389532 Z" id="Fill-23" stroke="none" fill="#F7931E" fill-rule="evenodd" mask="url(#mask-4)"></path>
                        <polygon id="Fill-24" stroke="none" fill="#FBB03B" fill-rule="evenodd" mask="url(#mask-4)" points="25.75 52 21.25 52 19 55.9999426 21.25 60 25.75 60 28 55.9999426"></polygon>
                        <polygon id="Fill-25" stroke="none" fill="#FBB03B" fill-rule="evenodd" mask="url(#mask-4)" points="11.749972 43 7.24991614 43 5 46.9999426 7.24991614 51 11.749972 51 14 46.9999426"></polygon>
                        <polygon id="Fill-26" stroke="none" fill="#FBB03B" fill-rule="evenodd" mask="url(#mask-4)" points="19.75 47 15.25 47 13 50.9999426 15.25 55 19.75 55 22 50.9999426"></polygon>
                        <polygon id="Fill-27" stroke="none" fill="#FBB03B" fill-rule="evenodd" mask="url(#mask-4)" points="25.75 43 21.25 43 19 46.9999426 21.25 51 25.75 51 28 46.9999426"></polygon>
                        <polygon id="Fill-28" stroke="none" fill="#FBB03B" fill-rule="evenodd" mask="url(#mask-4)" points="35.75 47 31.25 47 29 50.9999426 31.25 55 35.75 55 38 50.9999426"></polygon>
                        <polygon id="Fill-29" stroke="none" fill="#F7931E" fill-rule="evenodd" mask="url(#mask-4)" points="41.75 43 37.25 43 35 46.9999426 37.25 51 41.75 51 44 46.9999426"></polygon>
                        <polygon id="Fill-30" stroke="none" fill="#FBB03B" fill-rule="evenodd" mask="url(#mask-4)" points="11.749972 35 7.24991614 35 5 38.9999426 7.24991614 43 11.749972 43 14 38.9999426"></polygon>
                        <polygon id="Fill-31" stroke="none" fill="#FBB03B" fill-rule="evenodd" mask="url(#mask-4)" points="19.75 39 15.25 39 13 42.9999426 15.25 47 19.75 47 22 42.9999426"></polygon>
                        <polygon id="Fill-32" stroke="none" fill="#F7931E" fill-rule="evenodd" mask="url(#mask-4)" points="25.75 35 21.25 35 19 38.9999426 21.25 43 25.75 43 28 38.9999426"></polygon>
                        <polygon id="Fill-33" stroke="none" fill="#FBB03B" fill-rule="evenodd" mask="url(#mask-4)" points="35.75 39 31.25 39 29 42.9999426 31.25 47 35.75 47 38 42.9999426"></polygon>
                        <polygon id="Fill-34" stroke="none" fill="#FBB03B" fill-rule="evenodd" mask="url(#mask-4)" points="41.75 35 37.25 35 35 38.9999426 37.25 43 41.75 43 44 38.9999426"></polygon>
                        <polygon id="Fill-35" stroke="none" fill="#FBB03B" fill-rule="evenodd" mask="url(#mask-4)" points="49.75 39 45.25 39 43 42.9999426 45.25 47 49.75 47 52 42.9999426"></polygon>
                        <polygon id="Fill-36" stroke="none" fill="#FBB03B" fill-rule="evenodd" mask="url(#mask-4)" points="11.749972 25 7.24991614 25 5 28.9999426 7.24991614 33 11.749972 33 14 28.9999426"></polygon>
                        <polygon id="Fill-37" stroke="none" fill="#F7931E" fill-rule="evenodd" mask="url(#mask-4)" points="19.75 30 15.25 30 13 34.0000574 15.25 38 19.75 38 22 34.0000574"></polygon>
                        <polygon id="Fill-38" stroke="none" fill="#FBB03B" fill-rule="evenodd" mask="url(#mask-4)" points="25.75 25 21.25 25 19 28.9999426 21.25 33 25.75 33 28 28.9999426"></polygon>
                        <polygon id="Fill-39" stroke="none" fill="#F7931E" fill-rule="evenodd" mask="url(#mask-4)" points="35.75 30 31.25 30 29 34.0000574 31.25 38 35.75 38 38 34.0000574"></polygon>
                        <polygon id="Fill-40" stroke="none" fill="#FBB03B" fill-rule="evenodd" mask="url(#mask-4)" points="41.75 25 37.25 25 35 28.9999426 37.25 33 41.75 33 44 28.9999426"></polygon>
                        <polygon id="Fill-41" stroke="none" fill="#FBB03B" fill-rule="evenodd" mask="url(#mask-4)" points="49.75 30 45.25 30 43 34.0000574 45.25 38 49.75 38 52 34.0000574"></polygon>
                        <polygon id="Fill-42" stroke="none" fill="#FBB03B" fill-rule="evenodd" mask="url(#mask-4)" points="11.749972 16 7.24991614 16 5 19.9999426 7.24991614 24 11.749972 24 14 19.9999426"></polygon>
                        <polygon id="Fill-43" stroke="none" fill="#FBB03B" fill-rule="evenodd" mask="url(#mask-4)" points="19.75 21 15.25 21 13 24.9999426 15.25 29 19.75 29 22 24.9999426"></polygon>
                        <polygon id="Fill-44" stroke="none" fill="#FBB03B" fill-rule="evenodd" mask="url(#mask-4)" points="25.75 15 21.25 15 19 18.9999426 21.25 23 25.75 23 28 18.9999426"></polygon>
                        <polygon id="Fill-45" stroke="none" fill="#FBB03B" fill-rule="evenodd" mask="url(#mask-4)" points="35.75 21 31.25 21 29 24.9999426 31.25 29 35.75 29 38 24.9999426"></polygon>
                        <polygon id="Fill-46" stroke="none" fill="#F7931E" fill-rule="evenodd" mask="url(#mask-4)" points="41.75 14 37.25 14 35 17.9999426 37.25 22 41.75 22 44 17.9999426"></polygon>
                        <polygon id="Fill-47" stroke="none" fill="#FBB03B" fill-rule="evenodd" mask="url(#mask-4)" points="49.75 20 45.25 20 43 23.9999426 45.25 28 49.75 28 52 23.9999426"></polygon>
                        <polygon id="Fill-48" stroke="none" fill="#FBB03B" fill-rule="evenodd" mask="url(#mask-4)" points="19.75 9 15.25 9 13 12.9999426 15.25 17 19.75 17 22 12.9999426"></polygon>
                        <polygon id="Fill-49" stroke="none" fill="#FBB03B" fill-rule="evenodd" mask="url(#mask-4)" points="32.75 6 28.25 6 26 9.99994262 28.25 14 32.75 14 35 9.99994262"></polygon>
                        <path d="M41.9079906,53 L37.3026635,53 L35,56.6922669 L37.0628314,60 C39.5671095,59.0837924 41.8978069,57.85 44,56.3545551 L41.9079906,53 Z" id="Fill-50" stroke="none" fill="#FBB03B" fill-rule="evenodd" mask="url(#mask-4)"></path>
                        <path d="M51,48.8390119 L50.5270986,48 L46.1757356,48 L44,51.861072 L45.7687852,55 C47.7921847,53.2232755 49.5581589,51.1479008 51,48.8390119" id="Fill-51" stroke="none" fill="#FBB03B" fill-rule="evenodd" mask="url(#mask-4)"></path>
                        <path d="M52.821836,35 L51,38.9999426 L52.821836,43 L52.9693102,43 C53.5956002,40.4659953 53.9529241,37.7814262 54,35 L52.821836,35 Z" id="Fill-52" stroke="none" fill="#FBB03B" fill-rule="evenodd" mask="url(#mask-4)"></path>
                        <path d="M52.9580768,25 L52.8221659,25 L51,28.9999426 L52.8221659,33 L54,33 C53.9495654,30.218 53.5881021,27.5336604 52.9580768,25" id="Fill-53" stroke="none" fill="#FBB03B" fill-rule="evenodd" mask="url(#mask-4)"></path>
                        <path d="M52,16.1285472 C50.565208,13.8325005 48.8070705,11.7677634 46.7913343,10 L45,13.1662896 L47.1690019,17 L51.5070058,17 L52,16.1285472 Z" id="Fill-54" stroke="none" fill="#FBB03B" fill-rule="evenodd" mask="url(#mask-4)"></path>
                        <path d="M41.0459757,0 L39,3.28988504 L41.307269,7 L45.9218069,7 L48,3.65817164 C45.8923412,2.1570312 43.5560651,0.918907001 41.0459757,0" id="Fill-55" stroke="none" fill="#F7931E" fill-rule="evenodd" mask="url(#mask-4)"></path>
                        <path d="M3.67642712,29 L6,24.9603628 L3.72215038,21 C2.44871144,23.4804566 1.52073711,26.1684872 1,29 L3.67642712,29 Z" id="Fill-56" stroke="none" fill="#FBB03B" fill-rule="evenodd" mask="url(#mask-4)"></path>
                        <path d="M0.311374976,38 L3.45796754,38 L6,34.0000574 L3.45796754,30 L0.299501042,30 C0.103581128,31.2951758 0,32.6173201 0,33.9614982 C0,35.3323005 0.107749637,36.6801509 0.311374976,38" id="Fill-57" stroke="none" fill="#FBB03B" fill-rule="evenodd" mask="url(#mask-4)"></path>
                        <path d="M1,39 C1.52785177,41.8315431 2.46045165,44.5192851 3.73665316,47 L6,43.058452 L3.66948466,39 L1,39 Z" id="Fill-58" stroke="none" fill="#FBB03B" fill-rule="evenodd" mask="url(#mask-4)"></path>
                        <path d="M7,52 C8.61551198,53.908604 10.4632621,55.5916415 12.4963391,57 L13,56.0757501 L10.7787262,52 L7,52 Z" id="Fill-59" stroke="none" fill="#FBB03B" fill-rule="evenodd" mask="url(#mask-4)"></path>
                    </g>
                </g>
            </g>
        </g>
    </g>
</svg>