<?xml version="1.0" encoding="UTF-8"?>
<svg width="198px" height="88px" viewBox="0 0 198 88" version="1.1" xmlns="http://www.w3.org/2000/svg" xmlns:xlink="http://www.w3.org/1999/xlink">
    <!-- Generator: Sketch 52.5 (67469) - http://www.bohemiancoding.com/sketch -->
    <title>logo_p05f</title>
    <desc>Created with Sketch.</desc>
    <defs>
        <polygon id="path-1" points="0 0 198 0 198 88 0 88"></polygon>
        <polygon id="path-3" points="0 60 151 60 151 0 0 0"></polygon>
    </defs>
    <g id="Page-1" stroke="none" stroke-width="1" fill="none" fill-rule="evenodd">
        <g id="PC端官网-" transform="translate(-371.000000, -4343.000000)">
            <g id="logo_p05f" transform="translate(371.000000, 4343.000000)">
                <mask id="mask-2" fill="white">
                    <use xlink:href="#path-1"></use>
                </mask>
                <g id="Rectangle-9-Copy-2"></g>
                <g id="分组" mask="url(#mask-2)">
                    <g transform="translate(23.000000, 14.000000)">
                        <path d="M73.8975223,38 L72,38 L72,23.4008918 C72,22.6273026 72.6398579,22 73.4289302,22 L84,22 L84,23.6527496 L74.2275581,23.6527496 C74.0452666,23.6527496 73.8975223,23.7975949 73.8975223,23.9763095 L73.8975223,29.5074539 L82.9841659,29.5074539 L82.9841659,31.1602036 L73.8975223,31.1602036 L73.8975223,38 Z" id="Fill-1" stroke="none" fill="#231F20" fill-rule="evenodd"></path>
                        <mask id="mask-4" fill="white">
                            <use xlink:href="#path-3"></use>
                        </mask>
                        <g id="Clip-4" stroke="none" fill="none"></g>
                        <polygon id="Fill-3" stroke="none" fill="#231F20" fill-rule="evenodd" mask="url(#mask-4)" points="91 38 93 38 93 22 91 22"></polygon>
                        <path d="M110.783541,35.6633262 C110.076833,36.1638104 109.024181,36.4131517 107.626365,36.4131517 L104.013651,36.4131517 L104.013651,30.4264385 L107.460608,30.4264385 C108.937598,30.4264385 110.037051,30.660286 110.76014,31.1272604 C111.482449,31.5938746 111.843994,32.3235221 111.843994,33.3158428 C111.843994,34.3813084 111.49025,35.163923 110.783541,35.6633262 Z M104.013651,23.6084675 L106.974649,23.6084675 C108.49142,23.6084675 109.596724,23.8077244 110.292122,24.2047968 C110.986739,24.6025898 111.334633,25.2500844 111.334633,26.147641 C111.334633,27.1251886 111.022231,27.8202455 110.398596,28.2324513 C109.774961,28.6446571 108.75195,28.85076 107.330343,28.85076 L104.013651,28.85076 L104.013651,23.6084675 Z M110.054992,29.6167999 C110.054992,29.6167999 110.01053,29.6049094 110.01053,29.5620313 C110.01053,29.5231168 110.054992,29.5072627 110.054992,29.5072627 C111.152886,29.3249409 111.98752,28.9257066 112.560452,28.3091994 C113.132995,27.6923319 113.419267,26.9100777 113.419267,25.9613557 C113.419267,24.5899786 112.905616,23.5861277 111.879485,22.9516045 C110.852574,22.3170814 109.190328,22 106.891576,22 L102,22 L102,38 L108.041342,38 C109.920437,38 111.383775,37.5989641 112.430577,36.7965319 C113.476599,35.9933791 114,34.8774688 114,33.4473595 C114,31.3095823 112.684867,30.0326089 110.054992,29.6167999 Z" id="Fill-5" stroke="none" fill="#231F20" fill-rule="evenodd" mask="url(#mask-4)"></path>
                        <path d="M122.007368,29.9947497 C122.007368,32.099405 122.477357,33.6961848 123.41807,34.7840392 C124.358416,35.8722436 125.725056,36.4158208 127.516523,36.4158208 C129.323044,36.4158208 130.687849,35.8739937 131.609836,34.7892895 C132.531822,33.7049352 132.992632,32.1071054 132.992632,29.9947497 C132.992632,27.9037452 132.533291,26.3181659 131.615343,25.2373119 C130.697028,24.1564578 129.338466,23.6156808 127.538554,23.6156808 C125.7324,23.6156808 124.358416,24.159958 123.41807,25.2474624 C122.477357,26.3356668 122.007368,27.9177459 122.007368,29.9947497 M135,29.9947497 C135,32.4819741 134.340179,34.4382219 133.020538,35.8631432 C131.700162,37.2877144 129.866102,38 127.516523,38 C125.115172,38 123.261652,37.299965 121.957065,35.900245 C120.65211,34.500525 120,32.5250263 120,29.9733987 C120,27.4431222 120.653946,25.4819741 121.962572,24.0892545 C123.271198,22.6965348 125.129859,22 127.538554,22 C129.880789,22 131.710075,22.7087854 133.026045,24.1263563 C134.342015,25.5439272 135,27.499825 135,29.9947497" id="Fill-6" stroke="none" fill="#231F20" fill-rule="evenodd" mask="url(#mask-4)"></path>
                        <path d="M151,33.6460177 C151,35.0156839 150.492199,36.0839394 149.478027,36.8504337 C148.463498,37.6169281 147.086816,38 145.347624,38 C143.463141,38 142.014529,37.7620258 141,37.2867782 L141,35.5406992 C141.65166,35.8109174 142.36201,36.0233068 143.130332,36.1796197 C143.897939,36.3359327 144.659104,36.4133882 145.413112,36.4133882 C146.644861,36.4133882 147.572073,36.1848769 148.195462,35.7271532 C148.818494,35.2694296 149.130189,34.6326119 149.130189,33.8163498 C149.130189,33.2769649 149.019969,32.8353632 148.798454,32.4908438 C148.577655,32.1466748 148.207987,31.8291422 147.690166,31.5378954 C147.171987,31.2473495 146.383982,30.9175502 145.326152,30.5484973 C143.847839,30.0301411 142.791798,29.4168054 142.157315,28.7067379 C141.523189,27.9973714 141.206484,27.0707088 141.206484,25.9281521 C141.206484,24.7291685 141.665975,23.7744677 142.586745,23.0651012 C143.506799,22.3550337 144.724234,22 146.238692,22 C147.818995,22 149.271543,22.2838868 150.597767,22.8520109 L150.021615,24.4270569 C148.709705,23.8880224 147.434655,23.6185052 146.195749,23.6185052 C145.217005,23.6185052 144.452977,23.8242355 143.902233,24.2356961 C143.351131,24.6475072 143.07558,25.2187856 143.07558,25.9498817 C143.07558,26.4892666 143.177212,26.9305178 143.380475,27.2750372 C143.583023,27.6195566 143.925494,27.9349864 144.407529,28.221677 C144.889207,28.5097696 145.626754,28.8273022 146.619453,29.1749759 C148.286001,29.7571191 149.432579,30.38167 150.059548,31.0482783 C150.686158,31.715938 151,32.581267 151,33.6460177" id="Fill-7" stroke="none" fill="#231F20" fill-rule="evenodd" mask="url(#mask-4)"></path>
                        <polygon id="Fill-8" stroke="none" fill="#58AFE2" fill-rule="evenodd" mask="url(#mask-4)" points="35 39.4412218 40.9901896 45 41.4876226 44.535388 41.5488233 44.4779857 42 43.0598789 36.5424694 38"></polygon>
                        <polygon id="Fill-9" stroke="none" fill="#58AFE2" fill-rule="evenodd" mask="url(#mask-4)" points="10.0047762 45 16 39.4427304 14.4581576 38 9 43.0539915 9.45455007 44.4851523"></polygon>
                        <polygon id="Fill-10" stroke="none" fill="#58AFE2" fill-rule="evenodd" mask="url(#mask-4)" points="25.0001822 32.2362584 29.419969 36 31 34.6540595 26.0325225 30.4234471 26.0325225 3.87906962 25.0001822 3 23.9678419 3.87906962 23.9678419 30.4234471 19 34.6540595 20.5803954 36"></polygon>
                        <path d="M48.2979412,22.1784444 L25.5001813,41.6669262 L2.70205881,22.1784444 L25.5001813,2.68960312 L48.2979412,22.1784444 Z M41.1304128,43.9489919 L41.0680297,44.0025396 L26.5276891,56.4324305 L26.5276891,43.478563 L47.5333855,25.5214011 L41.1304128,43.9489919 Z M24.4726736,56.4324305 L9.86958717,43.9489919 L3.46697721,25.5214011 L24.4726736,43.478563 L24.4726736,56.4324305 Z M8.10690182,45.1317129 L25.5001813,60 L42.8930982,45.1317129 L51,21.7989386 L25.5001813,0 L0,21.7989386 L8.10690182,45.1317129 Z" id="Fill-11" stroke="none" fill="#118ACA" fill-rule="evenodd" mask="url(#mask-4)"></path>
                    </g>
                </g>
            </g>
        </g>
    </g>
</svg>