<?xml version="1.0" encoding="UTF-8"?>
<svg width="198px" height="88px" viewBox="0 0 198 88" version="1.1" xmlns="http://www.w3.org/2000/svg" xmlns:xlink="http://www.w3.org/1999/xlink">
    <!-- Generator: Sketch 52.5 (67469) - http://www.bohemiancoding.com/sketch -->
    <title>logo_p02</title>
    <desc>Created with Sketch.</desc>
    <defs>
        <polygon id="path-1" points="0 0 198 0 198 88 0 88"></polygon>
        <polygon id="path-3" points="0.6874 0.2492 114.125 0.2492 114.125 17.0952 0.6874 17.0952"></polygon>
    </defs>
    <g id="Page-1" stroke="none" stroke-width="1" fill="none" fill-rule="evenodd">
        <g id="PC端官网-" transform="translate(-622.000000, -4213.000000)">
            <g id="logo_p02" transform="translate(622.000000, 4213.000000)">
                <mask id="mask-2" fill="white">
                    <use xlink:href="#path-1"></use>
                </mask>
                <g id="Rectangle-9-Copy-2"></g>
                <g id="Group-8" mask="url(#mask-2)">
                    <g transform="translate(18.000000, 18.000000)">
                        <path d="M17.7831,0.0003 L5.0861,17.4173 L0.0001,41.5753 L17.7881,52.2923 L35.5741,41.5763 L30.4891,17.3153 L17.7831,0.0003 Z M3.3751,40.1063 L7.8891,18.6643 L17.7921,5.0813 L27.6861,18.5663 L32.2011,40.1063 L17.7881,48.7903 L3.3751,40.1063 Z" id="Fill-1" fill="#000000"></path>
                        <g id="Group-7" stroke-width="1" fill="none" transform="translate(10.000000, 19.292100)">
                            <path d="M1.841,4.7673 C2.157,2.1933 4.13,0.7483 7.535,0.7483 C9.468,0.7483 11.402,1.1723 12.879,2.0773 L13.506,2.4603 L11.194,4.1983 L10.929,4.0863 C10.081,3.7283 9.259,3.5883 8.213,3.5563 C6.294,3.5183 5.36,3.9413 5.201,5.0113 C5.024,6.2083 5.838,6.9103 8.282,8.0413 C8.483,8.1343 8.483,8.1343 8.684,8.2283 C8.824,8.2923 8.939,8.3463 9.047,8.3983 C12.903,10.2133 14.188,11.4613 14.188,14.1263 C14.188,17.4573 11.771,19.5713 7.496,19.5713 C5.182,19.5713 3.089,18.9563 1.428,17.9493 L0.8,17.5683 L3.114,15.8083 L3.388,15.9373 C4.552,16.4833 5.864,16.7633 7.191,16.7633 C9.774,16.7633 10.971,15.7063 10.971,14.1263 C10.971,13.3223 10.642,12.8323 9.729,12.2573 C9.173,11.9083 9.498,12.0693 6.744,10.7393 C2.953,8.8823 1.513,7.4773 1.841,4.7673" id="Fill-2" fill="#000000"></path>
                            <g id="Group-6" transform="translate(37.000000, 3.000000)">
                                <mask id="mask-4" fill="white">
                                    <use xlink:href="#path-3"></use>
                                </mask>
                                <g id="Clip-5"></g>
                                <path d="M105.5304,8.3992 L111.6114,8.3992 C111.6114,5.8352 110.6554,4.5522 108.7424,4.5522 C106.8214,4.5522 105.7514,5.8352 105.5304,8.3992 Z M114.0614,16.3342 C112.3854,16.8412 110.9514,17.0952 109.7584,17.0952 C107.7264,17.0952 106.0704,16.4202 104.7884,15.0712 C103.5064,13.7202 102.8644,11.9702 102.8644,9.8212 C102.8644,7.7302 103.4294,6.0162 104.5594,4.6792 C105.6894,3.3422 107.1344,2.6732 108.8944,2.6732 C110.5624,2.6732 111.8504,3.2662 112.7604,4.4512 C113.6704,5.6352 114.1254,7.3202 114.1254,9.5032 L114.1124,10.2782 L105.4164,10.2782 C105.7804,13.5532 107.3844,15.1912 110.2274,15.1912 C111.2684,15.1912 112.5474,14.9122 114.0614,14.3532 L114.0614,16.3342 Z M93.3184,16.7782 L93.3184,2.9912 L95.8194,2.9912 L95.8194,5.5812 C96.8094,3.6512 98.2494,2.6862 100.1354,2.6862 C100.3894,2.6862 100.6564,2.7082 100.9354,2.7502 L100.9354,5.0862 C100.5044,4.9422 100.1234,4.8702 99.7934,4.8702 C98.2114,4.8702 96.8854,5.8092 95.8194,7.6882 L95.8194,16.7782 L93.3184,16.7782 Z M82.7824,15.2162 C85.4314,15.2162 87.4274,13.4302 87.4274,9.8592 C87.4274,6.3302 85.4484,4.5652 82.8334,4.5652 C80.2264,4.5652 78.2814,6.3382 78.2814,9.8842 C78.2814,13.4392 80.2094,15.2162 82.7824,15.2162 Z M82.7444,17.0952 C80.7724,17.0952 79.1984,16.4422 78.0214,15.1332 C76.8444,13.8262 76.2574,12.0772 76.2574,9.8842 C76.2574,7.6672 76.8474,5.9132 78.0284,4.6222 C79.2094,3.3322 80.8104,2.6862 82.8334,2.6862 C84.8564,2.6862 86.4584,3.3322 87.6384,4.6222 C88.8194,5.9132 89.4094,7.6592 89.4094,9.8592 C89.4094,12.1102 88.8164,13.8792 87.6324,15.1662 C86.4474,16.4522 84.8184,17.0952 82.7444,17.0952 Z M71.7634,17.0952 C70.4944,17.0952 69.5044,16.7312 68.7934,16.0032 C68.0824,15.2762 67.7264,14.2642 67.7264,12.9692 L67.7264,4.8702 L66.0004,4.8702 L66.0004,2.9912 L67.7264,2.9912 L67.7264,0.4902 L70.2274,0.2492 L70.2274,2.9912 L73.8334,2.9912 L73.8334,4.8702 L70.2274,4.8702 L70.2274,12.5122 C70.2274,14.3152 71.0064,15.2162 72.5634,15.2162 C72.8934,15.2162 73.2964,15.1622 73.7694,15.0512 L73.7694,16.7782 C72.9994,16.9902 72.3314,17.0952 71.7634,17.0952 Z M58.0284,17.0952 C56.8854,17.0952 54.1884,16.3342 52.5614,15.4872 L53.8644,13.9982 C55.4984,14.8102 56.9204,15.2162 58.1304,15.2162 C58.8494,15.2162 59.4464,15.0222 59.9204,14.6322 C60.3934,14.2432 60.6314,13.7562 60.6314,13.1722 C60.6314,12.3182 59.9674,11.6112 58.6374,11.0522 L57.1774,10.4302 C55.0194,9.5332 53.9404,8.2432 53.9404,6.5582 C53.9404,5.3562 54.3664,4.4112 55.2174,3.7212 C56.0674,3.0312 57.2324,2.6862 58.7144,2.6862 C59.4844,2.6862 60.4364,2.7922 61.5704,3.0032 L63.1324,3.5582 L62.0914,5.1872 C60.6944,4.7722 59.5864,4.5652 58.7644,4.5652 C57.1564,4.5652 56.3524,5.1492 56.3524,6.3172 C56.3524,7.0702 56.9624,7.7052 58.1804,8.2212 L59.3864,8.7292 C60.7494,9.3042 61.7144,9.9122 62.2814,10.5512 C62.8484,11.1902 63.1324,11.9882 63.1324,12.9442 C63.1324,14.1542 62.6534,15.1492 61.6974,15.9272 C60.7414,16.7062 59.5174,17.0952 58.0284,17.0952 Z M35.8894,17.0952 C34.7474,17.0952 32.2324,16.2952 30.6984,15.4872 L31.7254,13.9982 C33.3594,14.8102 34.7804,15.2162 35.9914,15.2162 C36.7104,15.2162 37.3074,15.0222 37.7814,14.6322 C38.2554,14.2432 38.4924,13.7562 38.4924,13.1722 C38.4924,12.3182 37.8274,11.6112 36.4994,11.0522 L35.0394,10.4302 C32.8814,9.5332 31.8014,8.2432 31.8014,6.5582 C31.8014,5.3562 32.2274,4.4112 33.0774,3.7212 C33.9284,3.0312 35.0944,2.6862 36.5754,2.6862 C37.3454,2.6862 38.2974,2.7922 39.4314,3.0032 L40.9934,3.5582 L39.9524,5.1872 C38.5554,4.7722 37.4474,4.5652 36.6264,4.5652 C35.0184,4.5652 34.2144,5.1492 34.2144,6.3172 C34.2144,7.0702 34.8234,7.7052 36.0424,8.2212 L37.2484,8.7292 C38.6114,9.3042 39.5754,9.9122 40.1424,10.5512 C40.7094,11.1902 40.9934,11.9882 40.9934,12.9442 C40.9934,14.1542 40.5154,15.1492 39.5584,15.9272 C38.6024,16.7062 37.3794,17.0952 35.8894,17.0952 Z M21.6974,15.2162 C24.3464,15.2162 26.3764,13.3922 26.3764,9.8212 C26.3764,6.2922 24.3634,4.5652 21.7484,4.5652 C19.1414,4.5652 17.2114,6.3132 17.2114,9.8592 C17.2114,13.4142 19.1244,15.2162 21.6974,15.2162 Z M21.6594,17.0952 C19.6874,17.0952 18.1134,16.4422 16.9364,15.1332 C15.7594,13.8262 15.1724,12.0772 15.1724,9.8842 C15.1724,7.6672 15.7624,5.9132 16.9434,4.6222 C18.1234,3.3322 19.7254,2.6862 21.7484,2.6862 C23.7714,2.6862 25.3724,3.3322 26.5534,4.6222 C27.7344,5.9132 28.3244,7.6592 28.3244,9.8592 C28.3244,12.1102 27.7314,13.8792 26.5474,15.1662 C25.3624,16.4522 23.7334,17.0952 21.6594,17.0952 Z M3.3534,8.3992 L9.4344,8.3992 C9.4344,5.8352 8.4784,4.5522 6.5654,4.5522 C4.6444,4.5522 3.5734,5.8352 3.3534,8.3992 Z M11.8844,16.3342 C10.2094,16.8412 8.7744,17.0952 7.5814,17.0952 C5.5504,17.0952 3.8934,16.4202 2.6114,15.0712 C1.3284,13.7202 0.6874,11.9702 0.6874,9.8212 C0.6874,7.7302 1.2524,6.0162 2.3824,4.6792 C3.5124,3.3422 4.9574,2.6732 6.7174,2.6732 C8.3844,2.6732 9.6734,3.2662 10.5834,4.4512 C11.4934,5.6352 11.9484,7.3202 11.9484,9.5032 L11.9354,10.2782 L3.2394,10.2782 C3.6034,13.5532 5.2074,15.1912 8.0514,15.1912 C9.0924,15.1912 10.3694,14.9122 11.8844,14.3532 L11.8844,16.3342 Z" id="Fill-4" fill="#000000" mask="url(#mask-4)"></path>
                            </g>
                        </g>
                    </g>
                </g>
            </g>
        </g>
    </g>
</svg>