<?xml version="1.0" encoding="UTF-8"?>
<svg width="198px" height="88px" viewBox="0 0 198 88" version="1.1" xmlns="http://www.w3.org/2000/svg" xmlns:xlink="http://www.w3.org/1999/xlink">
    <!-- Generator: Sketch 52.5 (67469) - http://www.bohemiancoding.com/sketch -->
    <title>logo_p16</title>
    <desc>Created with Sketch.</desc>
    <defs>
        <polygon id="path-1" points="0 0 198 0 198 88 0 88"></polygon>
        <polygon id="path-3" points="0.0504578985 0.253176664 18.9281809 0.253176664 18.9281809 14.6386681 0.0504578985 14.6386681"></polygon>
        <polygon id="path-5" points="0 45.4675569 137.587415 45.4675569 137.587415 0.316424623 0 0.316424623"></polygon>
    </defs>
    <g id="Page-1" stroke="none" stroke-width="1" fill="none" fill-rule="evenodd">
        <g id="PC端官网-" transform="translate(-622.000000, -4733.000000)">
            <g id="logo_p16" transform="translate(622.000000, 4733.000000)">
                <mask id="mask-2" fill="white">
                    <use xlink:href="#path-1"></use>
                </mask>
                <g id="Rectangle-9-Copy"></g>
                <g id="Group-31" mask="url(#mask-2)">
                    <g transform="translate(30.000000, 23.000000)">
                        <polygon id="Fill-1" fill="#231916" points="119 16 119 17.7644071 126.205036 17.7644071 126.205036 29.2359556 119 29.2359556 119 31 137.939729 31 137.939729 29.2359556 130.94713 29.2359556 130.94713 17.7644071 138 17.7644071 138 16"></polygon>
                        <g id="Group-30" stroke-width="1" fill="none">
                            <path d="M107.027228,31.7027161 C111.354778,29.5047479 113.798937,27.9337144 116.984623,25.6680993 L116.984623,20.3831427 C113.718722,22.832846 110.876445,24.6441551 107.027228,26.8587578 L107.027228,31.7027161 Z" id="Fill-2" fill="#231916"></path>
                            <g id="Group-6" transform="translate(118.659234, 0.369655)">
                                <mask id="mask-4" fill="white">
                                    <use xlink:href="#path-3"></use>
                                </mask>
                                <g id="Clip-5"></g>
                                <path d="M13.2622949,8.28540872 C13.5472988,8.03330406 13.8060573,7.78896215 14.034504,7.55644919 C16.9185518,4.62138902 17.941387,1.78761429 17.941387,0.253176664 L15.9093939,0.253176664 L0.674805082,0.253176664 L0.674805082,2.05080861 L15.4369749,2.05080861 C14.9471821,3.19378166 14.0441151,4.64689521 12.5850871,6.13216873 C10.5933863,8.15935639 6.0743547,11.1690869 0.0504578985,12.5560322 L0.0504578985,14.6386681 C3.43132192,13.9085996 6.36453382,12.709439 8.73291298,11.4082536 C10.3165147,12.2943165 14.1272874,13.9233858 18.9283657,14.3762131 L18.9283657,9.57476513 C16.1518875,9.29013083 14.5106196,8.8154939 13.2622949,8.28540872" id="Fill-4" fill="#231916" mask="url(#mask-4)"></path>
                            </g>
                            <path d="M117.328476,0.62371877 L112.052391,0.62371877 C110.764883,2.57143062 108.722539,4.20419646 107.039131,5.63623967 L107.039131,11.9658411 L107.095688,12.0305307 L110.831421,12.0305307 C109.835201,12.9705632 108.556934,14.1383032 107.039131,15.446512 L107.039131,21.4027619 C107.039131,21.4027619 107.838325,20.8194464 109.040073,19.8372733 L117.024989,19.8372733 L117.024989,18.0392717 L111.148954,18.0392717 C111.690129,17.5583506 112.256441,17.0382461 112.831254,16.4870906 C115.830634,13.6089573 117.305557,11.9170467 117.305557,11.9170467 L117.305557,5.77153338 C117.305557,5.77153338 114.159055,9.13982914 112.759911,10.2328988 L109.096261,10.2328988 C111.949627,7.59541082 115.724913,4.23044196 117.328476,0.62371877" id="Fill-7" fill="#231916"></path>
                            <mask id="mask-6" fill="white">
                                <use xlink:href="#path-5"></use>
                            </mask>
                            <g id="Clip-10"></g>
                            <path d="M44.6217864,28.2194576 L59.5909629,28.2194576 L59.5909629,11.2049804 L44.6217864,11.2049804 L44.6217864,28.2194576 Z M36.2280318,2.85928091 L43.426692,2.85928091 C42.7853407,5.39030825 40.6461476,12.2788279 35.2392048,18.1652131 L35.2392048,21.0658954 C36.9577306,19.4257364 38.4001242,17.6772686 39.6051993,15.9546766 L39.6051993,31.4982969 L44.6217864,31.4982969 L44.6217864,30.0170896 L59.5909629,30.0170896 L59.5909629,31.4982969 L64.6071804,31.4982969 L64.6071804,30.0170896 L64.6071804,28.2194576 L64.6071804,11.2049804 L64.6071804,10.7628731 L64.6071804,9.40734841 L43.2880714,9.40734841 C43.4015554,9.1515472 43.509125,8.90203012 43.6100408,8.6610151 C44.7234415,6.00171751 45.2864259,3.87139612 45.5196782,2.85928091 L66.0477256,2.85928091 L66.0477256,1.06127932 L36.2280318,1.06127932 L36.2280318,2.85928091 Z" id="Fill-9" fill="#231916" mask="url(#mask-6)"></path>
                            <path d="M5.22137594,24.825286 L7.16723951,24.825286 L7.16723951,2.42050051 L5.22137594,2.42050051 L5.22137594,24.825286 Z M7.16723951,0.622498909 L5.22137594,0.622498909 L0,0.622498909 L0,2.42050051 L0,24.825286 L0,26.6232876 L0,31.4982969 L5.22137594,31.4982969 L5.22137594,26.6232876 L7.16723951,26.6232876 L7.16723951,28.0313033 L11.5757443,28.0313033 L11.5757443,0.622498909 L9.35042155,0.622498909 L7.16723951,0.622498909 Z" id="Fill-11" fill="#231916" mask="url(#mask-6)"></path>
                            <path d="M18.9599712,9.48497595 L24.1998299,9.48497595 L24.1998299,2.42050051 L18.9599712,2.42050051 L18.9599712,9.48497595 Z M24.1994602,11.2829775 L26.8905482,11.2829775 L29.2178956,11.2829775 L29.2178956,0.622498909 L26.8905482,0.622498909 L24.1994602,0.622498909 L18.9599712,0.622498909 L13.9415358,0.622498909 L13.9415358,2.42050051 L13.9415358,9.4853456 L13.9415358,11.2829775 L18.9599712,11.2829775 L24.1994602,11.2829775 Z" id="Fill-12" fill="#231916" mask="url(#mask-6)"></path>
                            <path d="M22.5715369,19.6086047 L22.5715369,14.2622854 L25.1650359,14.2622854 L25.1650359,24.2108087 L30.1831016,24.2108087 L30.1831016,12.4642838 L27.8561238,12.4642838 L25.1650359,12.4642838 L12.9760341,12.4642838 L12.9760341,13.3891605 L12.9760341,14.2622854 L12.9760341,24.2108087 L17.9944695,24.2108087 L17.9944695,14.2622854 L20.5391741,14.2622854 L20.5391741,19.6086047 C20.5391741,26.4479603 17.0414991,27.8493222 12.0896016,29.3338564 L12.0896016,31.4545667 C14.7932578,30.6498279 17.6122463,29.7179279 19.4863968,28.0751813 C19.9377455,27.6800202 20.3366032,27.245306 20.6859271,26.7684511 C23.0184497,28.9405435 26.7183259,30.6546335 30.4326187,31.5307157 L30.4326187,26.8730635 C27.3644828,25.9762806 24.5905921,24.9371806 22.315366,22.751411 C22.4868859,21.8032461 22.5715369,20.7597102 22.5715369,19.6086047" id="Fill-13" fill="#231916" mask="url(#mask-6)"></path>
                            <path d="M99.9658947,0.316350692 L95.2542729,0.316350692 L95.2542729,3.61552098 L86.9788079,3.61552098 L86.9788079,5.41315292 L95.1049323,5.41315292 C94.9744441,6.47258396 93.8680669,14.0331363 87.5820847,23.6519274 L87.5820847,27.2996822 C91.9384681,21.1549083 94.0432833,16.1889639 95.2542729,12.804773 L95.2542729,29.700591 L89.485438,29.700591 L89.485438,31.4985926 L99.9658947,31.4985926 L99.9658947,31.4638451 L99.9658947,29.700591 L99.9658947,5.41315292 L101.894384,5.41315292 L101.894384,3.61552098 L99.9658947,3.61552098 L99.9658947,0.316350692 Z" id="Fill-14" fill="#231916" mask="url(#mask-6)"></path>
                            <path d="M79.6359453,18.6509027 L79.6359453,2.8670067 L81.1378533,2.8670067 L81.1378533,23.4800748 L85.8498447,23.4800748 L85.8498447,1.06937476 L84.4714015,1.06937476 L71.6820801,1.06937476 L71.5035367,1.06937476 L71.5035367,23.4800748 L76.2151585,23.4800748 L76.2151585,2.8670067 L77.6035825,2.8670067 L77.6035825,18.6509027 C77.6035825,23.6763615 75.5316666,27.0927124 70.9165247,29.2951165 L70.9165247,31.463882 L70.938704,31.5156337 C73.7251629,30.3268235 75.811865,28.7742727 77.2424296,26.8250823 C79.5782791,28.9701899 83.2400809,30.6621005 86.6823076,31.5307896 L86.6823076,26.8077085 C84.2059892,26.1530496 81.3359883,24.9720021 79.0973581,22.9488806 C79.4581413,21.6388236 79.6359453,20.208259 79.6359453,18.6509027" id="Fill-15" fill="#231916" mask="url(#mask-6)"></path>
                            <polygon id="Fill-16" fill="#656464" mask="url(#mask-6)" points="0 43.057037 12.0692336 43.057037 12.0692336 42.3206844 0 42.3206844"></polygon>
                            <polygon id="Fill-17" fill="#656464" mask="url(#mask-6)" points="125.518181 43.057037 137.587784 43.057037 137.587784 42.3206844 125.518181 42.3206844"></polygon>
                            <path d="M21.5979397,45.3653473 L21.5979397,42.4783422 L19.6343327,38.5507586 L20.5880424,38.5507586 L21.4382488,40.3809201 C21.6703921,40.8847598 21.8722237,41.3349995 22.0644442,41.8270102 L22.0844056,41.8270102 C22.2574041,41.3560699 22.4743916,40.8873474 22.7124493,40.3679822 L23.5737453,38.5507586 L24.5152565,38.5507586 L22.4499943,42.4591202 L22.4499943,45.3653473 L21.5979397,45.3653473 Z" id="Fill-18" fill="#656464" mask="url(#mask-6)"></path>
                            <path d="M32.4697501,44.0287859 C32.4697501,44.5496297 32.4897114,44.9854529 32.5100425,45.3654582 L31.7563161,45.3654582 L31.707152,44.6523938 L31.6838637,44.6523938 C31.4812928,44.9994998 31.0077648,45.4674829 30.236295,45.4674829 C29.4444941,45.4674829 28.7000091,44.9677095 28.7000091,43.4033298 L28.7000091,40.4756627 L29.5520637,40.4756627 L29.5520637,43.2599037 C29.5520637,44.1419003 29.7923394,44.7577455 30.5142755,44.7577455 C31.0694972,44.7577455 31.421039,44.3374478 31.5489396,43.9899722 C31.5899713,43.8613322 31.6176955,43.7057075 31.6176955,43.5401021 L31.6176955,40.4756627 L32.4697501,40.4756627 L32.4697501,44.0287859 Z" id="Fill-19" fill="#656464" mask="url(#mask-6)"></path>
                            <path d="M37.8755838,41.7788812 C37.8755838,41.2491657 37.8559921,40.8772928 37.8352914,40.4758475 L38.5893875,40.4758475 L38.6352247,41.2147877 L38.658513,41.2147877 C38.8895473,40.775268 39.4066946,40.3734531 40.1264127,40.3734531 C40.799924,40.3734531 41.6878352,40.806319 41.6878352,42.3374298 L41.6878352,45.3652733 L40.8361502,45.3652733 L40.8361502,42.446478 C40.8361502,41.7178881 40.5940262,41.0809727 39.8406695,41.0809727 C39.3338725,41.0809727 38.9228163,41.4528455 38.7819777,41.9585335 C38.7483391,42.0705389 38.7276385,42.225794 38.7276385,42.3784615 L38.7276385,45.3652733 L37.8755838,45.3652733 L37.8755838,41.7788812 Z" id="Fill-20" fill="#656464" mask="url(#mask-6)"></path>
                            <path d="M46.94784,44.4884888 C47.1873764,44.6400473 47.6058258,44.8089796 48.010598,44.8089796 C48.5972404,44.8089796 48.8925947,44.504384 48.8925947,44.0855649 C48.8925947,43.6759873 48.670432,43.4412564 48.0686338,43.1721476 C47.2583502,42.8250416 46.8602318,42.361864 46.8620801,41.7837237 C46.8620801,40.9934014 47.4879059,40.3734901 48.451966,40.3734901 C48.9151436,40.3734901 49.3010634,40.5058265 49.5516894,40.659603 L49.334702,41.288386 C49.1476566,41.1671392 48.8345588,41.0207559 48.4371798,41.0207559 C47.9447994,41.0207559 47.6804961,41.3246122 47.6804961,41.6776327 C47.6804961,42.0591166 47.9192932,42.2413565 48.512959,42.5145315 C49.2725999,42.8435243 49.712859,43.2749117 49.7143376,43.9909333 C49.7143376,44.892152 49.0423049,45.4580937 47.9921152,45.4580937 C47.5100852,45.4580937 47.04432,45.3276055 46.740094,45.1346456 L46.94784,44.4884888 Z" id="Fill-21" fill="#656464" mask="url(#mask-6)"></path>
                            <path d="M54.8037097,38.2413574 L55.6557644,38.2413574 L55.6557644,41.1671762 L55.6757257,41.1671762 C55.8113891,40.9405777 56.0102634,40.7380068 56.2475819,40.5990166 C56.4823128,40.458178 56.7610326,40.373527 57.0796752,40.373527 C57.7276803,40.373527 58.6159611,40.8019571 58.6159611,42.3537685 L58.6159611,45.3653473 L57.7639064,45.3653473 L57.7639064,42.4487698 C57.7639064,41.7157441 57.5151287,41.0847431 56.7743402,41.0847431 C56.2590412,41.0847431 55.8620318,41.4477443 55.7071464,41.939755 C55.6687023,42.0584142 55.6557644,42.1959259 55.6557644,42.3463754 L55.6557644,45.3653473 L54.8037097,45.3653473 L54.8037097,38.2413574 Z" id="Fill-22" fill="#656464" mask="url(#mask-6)"></path>
                            <path d="M64.0042732,45.3655321 L64.8563278,45.3655321 L64.8563278,40.4757366 L64.0042732,40.4757366 L64.0042732,45.3655321 Z M64.9528077,39.1276051 C64.9542864,39.4310918 64.7502368,39.6661923 64.4138508,39.6661923 C64.1129517,39.6661923 63.9033574,39.4310918 63.904836,39.1276051 C63.9033574,38.8219005 64.1233021,38.5879089 64.4293763,38.5879089 C64.7461706,38.5879089 64.9516988,38.8182039 64.9528077,39.1276051 Z" id="Fill-23" fill="#656464" mask="url(#mask-6)"></path>
                            <path d="M69.994938,45.3653473 L69.994938,44.8356318 L70.6484879,44.1343963 C72.0587215,42.6879366 72.8701141,41.7209193 72.873441,40.6577917 C72.873441,39.9717121 72.556277,39.4046615 71.6868486,39.4046615 C71.1238642,39.4046615 70.6865624,39.6959496 70.4226288,39.9029563 L70.1675669,39.2922864 C70.550899,38.9688383 71.1441952,38.6912274 71.853563,38.6912274 C73.1710132,38.6912274 73.7284528,39.6127772 73.7284528,40.5646386 C73.7284528,41.7896751 72.8697444,42.8361682 71.6580155,44.0985398 L71.1626779,44.6227105 L71.1626779,44.6430415 L73.8800114,44.6430415 L73.8800114,45.3653473 L69.994938,45.3653473 Z" id="Fill-24" fill="#656464" mask="url(#mask-6)"></path>
                            <path d="M81.3795337,42.8932799 L81.3795337,40.7965971 C81.3795337,40.4213974 81.3950592,40.0583962 81.4201957,39.6872627 L81.3850785,39.6835661 C81.1751145,40.1156927 81.0217077,40.4058719 80.8365106,40.7404096 L79.4421722,42.8729489 L79.4403239,42.8932799 L81.3795337,42.8932799 Z M81.3795337,45.3651624 L81.3795337,43.5660519 L78.58753,43.5660519 L78.58753,43.0015888 L81.2789875,38.793437 L82.1805759,38.793437 L82.1805759,42.8932799 L83.0389147,42.8932799 L83.0389147,43.5660519 L82.1805759,43.5660519 L82.1805759,45.3651624 L81.3795337,45.3651624 Z" id="Fill-25" fill="#656464" mask="url(#mask-6)"></path>
                            <path d="M87.7921966,44.8485697 C87.7921966,44.4833506 88.0350599,44.2212653 88.3688583,44.2212653 C88.7100498,44.2212653 88.9388662,44.4763272 88.9399752,44.8485697 C88.9399752,45.2038081 88.7159643,45.467372 88.3636831,45.467372 C88.0287757,45.467372 87.7881304,45.2038081 87.7921966,44.8485697" id="Fill-26" fill="#656464" mask="url(#mask-6)"></path>
                            <path d="M97.2050159,45.2052497 C96.9902464,45.3154069 96.5440729,45.4580937 95.9803491,45.4580937 C94.6281513,45.4580937 93.7346954,44.4966212 93.7346954,42.9647712 C93.7346954,41.488739 94.6680741,40.3764473 96.1544566,40.3764473 C96.6002604,40.3764473 97.0153829,40.4910404 97.2264559,40.606003 L97.0419981,41.2739695 C96.8582796,41.1774896 96.5666218,41.0691807 96.1466938,41.0691807 C95.1316214,41.0691807 94.5985789,41.9338036 94.6000576,42.9329808 C94.6000576,44.0685608 95.2414089,44.7624031 96.1370828,44.7624031 C96.549248,44.7624031 96.8405361,44.6603783 97.0686132,44.5579839 L97.2050159,45.2052497 Z" id="Fill-27" fill="#656464" mask="url(#mask-6)"></path>
                            <path d="M102.67114,42.9264749 C102.67114,43.9201074 103.144668,44.8146723 103.961975,44.8146723 C104.759691,44.8146723 105.246896,43.9141929 105.246896,42.9079922 C105.246896,42.1039927 104.914206,41.0264486 103.967151,41.0264486 C103.028966,41.0264486 102.67114,42.0529803 102.67114,42.9264749 M106.115215,42.8858129 C106.115215,44.7211496 104.972612,45.4674829 103.92538,45.4674829 C102.733982,45.4674829 101.802451,44.5511084 101.802451,42.9486542 C101.802451,41.2678332 102.795344,40.3736379 103.995244,40.3736379 C105.240242,40.3736379 106.115215,41.3328925 106.115215,42.8858129" id="Fill-28" fill="#656464" mask="url(#mask-6)"></path>
                            <path d="M111.20858,41.7788812 C111.20858,41.2491657 111.188618,40.8772928 111.167918,40.4758475 L111.913881,40.4758475 L111.95824,41.2073946 L111.981528,41.2073946 C112.234742,40.7626998 112.66539,40.3734531 113.392132,40.3734531 C113.992451,40.3734531 114.463022,40.7212984 114.664484,41.2835436 L114.684445,41.2835436 C114.832677,41.016283 115.018983,40.8092763 115.2149,40.6699164 C115.480682,40.4769565 115.77234,40.3734531 116.170828,40.3734531 C116.826595,40.3734531 117.653883,40.8122335 117.653883,42.3773525 L117.653883,45.3652733 L116.814397,45.3652733 L116.814397,42.5104283 C116.814397,41.6557861 116.541961,41.0780154 115.866971,41.0780154 C115.411926,41.0780154 115.0541,41.4199462 114.911783,41.858357 C114.873708,41.9866272 114.85079,42.1444699 114.85079,42.3026822 L114.85079,45.3652733 L114.011304,45.3652733 L114.011304,42.3488891 C114.011304,41.6421088 113.741825,41.0780154 113.098256,41.0780154 C112.614378,41.0780154 112.235112,41.470589 112.104623,41.9382025 C112.066919,42.0675817 112.048066,42.2184009 112.048066,42.3699594 L112.048066,45.3652733 L111.20858,45.3652733 L111.20858,41.7788812 Z" id="Fill-29" fill="#656464" mask="url(#mask-6)"></path>
                        </g>
                    </g>
                </g>
            </g>
        </g>
    </g>
</svg>