<?xml version="1.0" encoding="UTF-8"?>
<svg width="149px" height="42px" viewBox="0 0 149 42" version="1.1" xmlns="http://www.w3.org/2000/svg" xmlns:xlink="http://www.w3.org/1999/xlink">
    <!-- Generator: Sketch 52.5 (67469) - http://www.bohemiancoding.com/sketch -->
    <title>logo_eosmex01</title>
    <desc>Created with Sketch.</desc>
    <g id="Page-1" stroke="none" stroke-width="1" fill="none" fill-rule="evenodd">
        <g id="PC端官网-" transform="translate(-191.000000, -5072.000000)">
            <g id="logo_eosmex01" transform="translate(191.000000, 5072.000000)">
                <path d="M143.732252,25.0877191 L148.674191,18.2635292 L145.981742,18.2635292 L143.525102,21.8974756 C143.366722,22.1333809 143.204321,22.3652709 143.036891,22.5911377 C142.868959,22.8180084 142.706557,23.0488945 142.54868,23.2853018 L142.489351,23.2853018 C142.351083,23.0890486 142.213318,22.8772357 142.07505,22.6508669 C141.937286,22.4239963 141.759297,22.1439214 141.542594,21.8086346 L139.02763,18.2635292 L136.305013,18.2635292 L141.217288,25.1464445 L135.979204,32.4138352 L138.642492,32.4138352 L141.305779,28.5143699 L142.371195,27.0075872 L142.460189,27.0075872 C142.637172,27.2640715 142.810132,27.5100154 142.977562,27.7464227 C143.144991,27.9828299 143.318454,28.2292757 143.495437,28.4847562 L146.247718,32.4138352 L149,32.4138352 L143.732252,25.0877191 Z M131.186092,24.053249 C131.126762,23.5026359 130.978941,22.970594 130.742127,22.4586292 C130.504809,21.9461624 130.189056,21.4984442 129.794867,21.1144706 C129.400176,20.729995 128.936602,20.4198046 128.404145,20.1833973 C127.871689,19.9474919 127.2794,19.8290373 126.628285,19.8290373 C125.957561,19.8290373 125.350692,19.9474919 124.808682,20.1833973 C124.265667,20.4198046 123.797568,20.7355162 123.402877,21.1290264 C123.008185,21.5230386 122.69746,21.976278 122.471204,22.4877409 C122.243942,23.0002076 122.101149,23.5217091 122.04182,24.053249 L131.186092,24.053249 Z M133.271671,22.6945345 C133.518542,23.5613612 133.642229,24.3784972 133.642229,25.1464445 C133.642229,25.2849761 133.636698,25.4420791 133.627145,25.619259 C133.617089,25.796439 133.602508,25.9249321 133.582397,26.0032326 L122.012658,26.0032326 C122.012658,26.6532272 122.14992,27.2690908 122.426455,27.8498195 C122.702991,28.4305482 123.072543,28.9430149 123.536116,29.3857139 C123.99969,29.8289148 124.532147,30.1832748 125.134491,30.4492957 C125.73583,30.7153167 126.372364,30.8483271 127.043088,30.8483271 C127.890795,30.8483271 128.596212,30.7002589 129.158836,30.4051262 C129.720957,30.1094916 130.228776,29.6863678 130.682797,29.1347508 L133.375246,29.1347508 C133.138934,29.5879902 132.837762,30.0352065 132.472735,30.4784075 C132.107709,30.9216084 131.663744,31.325659 131.141343,31.6895556 C130.61844,32.054456 130.021123,32.3500906 129.350902,32.5759574 C128.680178,32.8023262 127.930516,32.9162635 127.102418,32.9162635 C125.97717,32.9162635 124.951475,32.7185045 124.02483,32.3249943 C123.097179,31.9314841 122.308299,31.3848863 121.657184,30.6852011 C121.006069,29.9870216 120.498249,29.1643644 120.133223,28.2187353 C119.768196,27.2731062 119.586185,26.2496785 119.586185,25.1464445 C119.586185,24.1817421 119.753615,23.2516727 120.088977,22.3552324 C120.424339,21.4592939 120.897466,20.6762889 121.509363,20.0067192 C122.120758,19.3371496 122.860364,18.8005904 123.728686,18.3965397 C124.596504,17.992991 125.563372,17.7912166 126.628285,17.7912166 C127.910907,17.7912166 129.000456,18.0321412 129.898442,18.5144924 C130.795925,18.9973455 131.520951,19.5976493 132.074022,20.3164078 C132.625584,21.0361701 133.025303,21.8282098 133.271671,22.6945345 Z M111.241352,17.7912166 C110.629455,17.7912166 110.062306,17.8750383 109.539905,18.0421797 C109.017002,18.2098231 108.5484,18.4361919 108.1341,18.721286 C107.719799,19.007384 107.364828,19.3225937 107.069187,19.6669151 C106.773043,20.0117385 106.536228,20.3610792 106.358742,20.7154392 C106.062598,19.8887666 105.500477,19.1941006 104.671876,18.632947 C103.843276,18.0712915 102.867357,17.7912166 101.742109,17.7912166 C100.814961,17.7912166 99.9969194,18.0080487 99.2864748,18.4407092 C98.5760302,18.8743735 97.9842444,19.4059135 97.5106147,20.0363329 L97.451788,20.0363329 L97.451788,18.2635292 L95.1138068,18.2635292 L95.1138068,32.4138352 L97.451788,32.4138352 L97.451788,24.5556772 C97.451788,23.0785081 97.8012282,21.9316066 98.5021198,21.1144706 C99.2025086,20.2973346 100.14474,19.8887666 101.328312,19.8887666 C101.860768,19.8887666 102.334398,19.9916615 102.748698,20.1984551 C103.162998,20.4052487 103.512941,20.695864 103.79903,21.0697991 C104.084616,21.4442361 104.30685,21.8773985 104.464726,22.3697882 C104.622603,22.8621779 104.701541,23.4037564 104.701541,23.9945236 L104.701541,32.4138352 L107.069187,32.4138352 L107.069187,24.5556772 C107.069187,23.7485797 107.177287,23.0488945 107.394996,22.4586292 C107.611196,21.86736 107.897788,21.3799896 108.252758,20.9965179 C108.607729,20.6120423 109.017002,20.3314656 109.480576,20.1542856 C109.94415,19.9766037 110.422807,19.8887666 110.915543,19.8887666 C111.507832,19.8887666 112.020679,20.0017 112.454588,20.2280687 C112.888498,20.4549394 113.243468,20.7550913 113.520004,21.1290264 C113.796036,21.5029615 113.998159,21.9371278 114.126371,22.4290155 C114.254582,22.9214052 114.31894,23.4434086 114.31894,23.9945236 L114.31894,32.4138352 L116.656418,32.4138352 L116.656418,24.1717036 C116.656418,22.0846941 116.153627,20.498607 115.14754,19.4154501 C114.141454,18.3327951 112.839727,17.7912166 111.241352,17.7912166 Z M88.6187442,23.0197828 C88.1546675,22.4686677 87.5382449,21.9707568 86.7689737,21.5275559 C85.9997024,21.084355 85.0423871,20.695864 83.8985361,20.3610792 C82.7154673,20.0067192 81.7827888,19.5584991 81.1025117,19.0169206 C80.4217318,18.4753421 80.0813418,17.7319893 80.0813418,16.7863602 C80.0813418,15.8999583 80.3769833,15.1716633 80.9692719,14.6004712 C81.5610577,14.029781 82.3796025,13.743683 83.4254092,13.743683 C84.3721658,13.743683 85.1263533,13.9946461 85.6889772,14.4970743 C86.2516011,14.9990006 86.6110971,15.6344393 86.7689737,16.4023865 L89.4025964,16.4023865 C89.3040492,15.7333188 89.0918711,15.1079186 88.7665649,14.526688 C88.4407559,13.9459593 88.0214277,13.4385118 87.509083,13.0053494 C86.9957327,12.572187 86.3943939,12.2328848 85.7040609,11.9859371 C85.0132252,11.7399932 84.253507,11.6170213 83.4254092,11.6170213 C82.557088,11.6170213 81.7682078,11.7500317 81.058266,12.0155508 C80.3478214,12.2815717 79.735924,12.6509894 79.2230765,13.1233021 C78.710229,13.5961166 78.3105096,14.1477336 78.0244212,14.7776511 C77.7383327,15.4085725 77.5955399,16.0776402 77.5955399,16.7863602 C77.5955399,18.2831044 78.049058,19.4942525 78.9570997,20.4198046 C79.8641358,21.3458586 81.2453045,22.0942307 83.0996002,22.6654228 C84.5597071,23.1181603 85.6447315,23.6893524 86.3546734,24.3784972 C87.065118,25.068144 87.4200889,25.9836575 87.4200889,27.1260418 C87.4200889,27.5792812 87.3411506,28.0320187 87.183274,28.4847562 C87.0253974,28.9379957 86.7885826,29.3465637 86.4733322,29.7109622 C86.1570762,30.0753606 85.7578597,30.3704933 85.2746769,30.597364 C84.7909913,30.8237327 84.2338981,30.9366662 83.6028946,30.9366662 C82.4781497,30.9366662 81.5706107,30.631495 80.8802778,30.0206507 C80.189442,29.4103083 79.7062593,28.5931723 79.4302266,27.5687407 L76.7372745,27.5687407 C77.1711837,29.4594971 77.9952592,30.8483271 79.2084955,31.734227 C80.4217318,32.6206289 81.8763081,33.0638298 83.5732299,33.0638298 C84.6185338,33.0638298 85.5361285,32.8861479 86.3250086,32.5317879 C87.1143915,32.177428 87.7750598,31.7096327 88.3080189,31.128402 C88.8404753,30.5481752 89.2401947,29.8981807 89.5061715,29.1789203 C89.772651,28.4601618 89.9058908,27.7268475 89.9058908,26.9784754 C89.9058908,26.2100263 89.8068409,25.4962871 89.6097465,24.836254 C89.4126522,24.1772248 89.0823181,23.5713998 88.6187442,23.0197828 Z M72.0914796,22.3401746 C72.0914796,21.139065 71.8938825,20.0162558 71.4996938,18.9722492 C71.1050024,17.9287444 70.5474064,17.0232694 69.8279115,16.2548202 C69.1074111,15.486873 68.2446206,14.8865691 67.2385345,14.4529048 C66.2319456,14.0197424 65.1273123,13.8029103 63.9246347,13.8029103 C62.7797781,13.8029103 61.7093346,14.0147232 60.7133044,14.437847 C59.7167713,14.8619748 58.8539808,15.452742 58.1239273,16.2101488 C57.3938738,16.9685594 56.8221997,17.870019 56.4078994,18.9135238 C55.9935991,19.9575305 55.7864489,21.0999147 55.7864489,22.3401746 C55.7864489,23.5613612 55.9935991,24.6937069 56.4078994,25.7377136 C56.8221997,26.7817203 57.3938738,27.682678 58.1239273,28.4405867 C58.8539808,29.1984954 59.7167713,29.7947839 60.7133044,30.2274443 C61.7093346,30.6611086 62.7797781,30.8774389 63.9246347,30.8774389 C65.0679829,30.8774389 66.1384264,30.6611086 67.1349594,30.2274443 C68.1309897,29.7947839 68.9988081,29.1984954 69.7389174,28.4405867 C70.4790267,27.682678 71.0557288,26.7817203 71.4700291,25.7377136 C71.8848322,24.6937069 72.0914796,23.5613612 72.0914796,22.3401746 Z M73.8965016,18.278587 C74.3897403,19.5685376 74.6361082,20.9222328 74.6361082,22.3401746 C74.6361082,23.8173436 74.3651035,25.2056718 73.8225913,26.5051589 C73.2800791,27.805148 72.5304167,28.9430149 71.5736042,29.9172539 C70.6162889,30.8919947 69.4875216,31.6604439 68.1852912,32.2215975 C66.8830608,32.7827511 65.4727302,33.0638298 63.9537966,33.0638298 C62.1191098,33.0638298 60.5257631,32.7385816 59.1747619,32.088587 C57.8232579,31.4385925 56.7085688,30.6018813 55.8306946,29.5774498 C54.9528203,28.5540221 54.3017051,27.4015993 53.8778518,26.1216872 C53.4529928,24.8417752 53.2413175,23.5809364 53.2413175,22.3401746 C53.2413175,20.9026577 53.5077971,19.5339047 54.0402535,18.2344175 C54.5732126,16.9344284 55.313322,15.7965615 56.2595759,14.8223226 C57.2068353,13.8470798 58.3356026,13.069596 59.6483916,12.4878634 C60.9596723,11.9076366 62.3951425,11.6170213 63.9537966,11.6170213 C65.6109979,11.6170213 67.1002668,11.9121539 68.4221061,12.5034231 C69.7439453,13.0936884 70.8631596,13.8817127 71.7807543,14.8664921 C72.6983491,15.8517734 73.403263,16.9886364 73.8965016,18.278587 Z M41.2864403,30.1687189 L50.223562,30.1687189 L50.223562,32.4138352 L38.830303,32.4138352 L38.830303,12.2665139 L49.897753,12.2665139 L49.897753,14.5121321 L41.2864403,14.5121321 L41.2864403,20.8630055 L49.5724468,20.8630055 L49.5724468,23.1086237 L41.2864403,23.1086237 L41.2864403,30.1687189 Z" id="Fill-1" fill="#FFFFFF"></path>
                <path d="M4.71601586,13.4042553 L13.8518557,42 L0,33.6671956 L4.71601586,13.4042553 Z M23.2784247,13.4042553 L27.9939394,33.6671956 L14.1420837,42 L23.2784247,13.4042553 Z" id="Combined-Shape" fill="#007AFF"></path>
                <path d="M4.51515152,13.0230135 L13.8484631,0 L13.8484631,10.0187055 L7.20419383,21.4468085 L4.51515152,13.0230135 Z M23.4787879,13.0230135 L20.7897456,21.4468085 L14.1449643,10.0187055 L14.1449643,0 L23.4787879,13.0230135 Z" id="Combined-Shape" fill="#0056C5"></path>
            </g>
        </g>
    </g>
</svg>