<?xml version="1.0" encoding="UTF-8"?>
<svg width="198px" height="88px" viewBox="0 0 198 88" version="1.1" xmlns="http://www.w3.org/2000/svg" xmlns:xlink="http://www.w3.org/1999/xlink">
    <!-- Generator: Sketch 52.5 (67469) - http://www.bohemiancoding.com/sketch -->
    <title>logo_p02h</title>
    <desc>Created with Sketch.</desc>
    <defs>
        <polygon id="path-1" points="0 0 198 0 198 88 0 88"></polygon>
        <polygon id="path-3" points="0 0 156 0 156 46 0 46"></polygon>
    </defs>
    <g id="Page-1" stroke="none" stroke-width="1" fill="none" fill-rule="evenodd">
        <g id="PC端官网-" transform="translate(-371.000000, -4213.000000)">
            <g id="logo_p02h" transform="translate(371.000000, 4213.000000)">
                <mask id="mask-2" fill="white">
                    <use xlink:href="#path-1"></use>
                </mask>
                <g id="Rectangle-9-Copy-2"></g>
                <g id="分组" mask="url(#mask-2)">
                    <g transform="translate(21.000000, 21.000000)">
                        <mask id="mask-4" fill="white">
                            <use xlink:href="#path-3"></use>
                        </mask>
                        <g id="Clip-2" stroke="none" fill="none"></g>
                        <path d="M141.640672,31.8237931 L143.89227,31.6287604 C143.998977,32.5234771 144.247166,33.2573003 144.636666,33.830737 C145.026166,34.4041737 145.631637,34.8677566 146.451717,35.2214858 C147.271797,35.5752149 148.194665,35.752164 149.220148,35.752164 C150.130742,35.752164 150.934629,35.6179734 151.631808,35.3495922 C152.329157,35.081211 152.848206,34.7132853 153.188784,34.2454773 C153.52868,33.7780072 153.69931,33.2677787 153.69931,32.7144537 C153.69931,32.1533544 153.534987,31.6634066 153.206852,31.2442722 C152.878718,30.8256448 152.337169,30.4739437 151.582715,30.1891689 C151.09844,30.0022485 150.028296,29.7113895 148.371431,29.31693 C146.714225,28.9224704 145.553396,28.5504886 144.889116,28.2006466 C144.027614,27.7532883 143.386005,27.1982732 142.963607,26.5352634 C142.540697,25.8724227 142.329668,25.1304872 142.329668,24.308781 C142.329668,23.4061209 142.588426,22.562444 143.105088,21.777412 C143.621751,20.992549 144.376204,20.3969726 145.36913,19.9900066 C146.361203,19.5835477 147.464758,19.3802337 148.67911,19.3802337 C150.016023,19.3802337 151.195261,19.593688 152.216654,20.0205967 C153.237706,20.4476743 154.023182,21.0758689 154.572744,21.9053494 C155.122305,22.7351679 155.41754,23.6743332 155.458621,24.7235212 L153.170204,24.8943861 C153.047302,23.7640752 152.6307,22.9100889 151.921077,22.3324271 C151.211284,21.7551032 150.163641,21.4664413 148.777124,21.4664413 C147.333674,21.4664413 146.281769,21.7287383 145.621239,22.2531633 C144.96105,22.7779264 144.630529,23.4103461 144.630529,24.1502535 C144.630529,24.7928136 144.8644,25.3212947 145.33197,25.736204 C145.791699,26.1511132 146.991392,26.5761628 148.931049,27.0110148 C150.871218,27.4463737 152.201994,27.8266368 152.92389,28.1516349 C153.97409,28.6316114 154.748828,29.2396943 155.249467,29.9755456 C155.749936,30.7119039 156,31.559806 156,32.519252 C156,33.4707546 155.725219,34.3674994 155.175658,35.2093174 C154.626097,36.0511353 153.836529,36.7058638 152.807296,37.1733338 C151.777721,37.6409729 150.618938,37.8750459 149.331117,37.8750459 C147.698457,37.8750459 146.330862,37.6389448 145.227649,37.1674186 C144.124265,36.6957234 143.258843,35.986068 142.631211,35.0384525 C142.00358,34.091006 141.6734,33.0193401 141.640672,31.8237931 Z M123.523396,28.8959365 C123.523396,31.0514365 124.107901,32.7490999 125.276911,33.9892645 C126.445581,35.2295981 127.912043,35.8496804 129.675616,35.8496804 C131.472087,35.8496804 132.950822,35.2235139 134.11148,33.9710118 C135.272138,32.7186788 135.852553,30.9414138 135.852553,28.6397237 C135.852553,27.1840767 135.604534,25.9129841 135.108327,24.8274598 C134.611608,23.7415975 133.885792,22.8997796 132.930197,22.302006 C131.974431,21.7042325 130.902071,21.4054302 129.712776,21.4054302 C128.022501,21.4054302 126.568482,21.980895 125.350891,23.1316555 C124.132447,24.2825851 123.523396,26.2040121 123.523396,28.8959365 Z M121.062644,28.8592623 C121.062644,25.8908443 121.866019,23.5668455 123.473962,21.8870968 C125.081565,20.2078551 127.157249,19.3678962 129.700332,19.3678962 C131.36538,19.3678962 132.866445,19.7625248 134.203869,20.5514439 C135.540782,21.340363 136.559789,22.4404218 137.261399,23.8512822 C137.96301,25.2626497 138.313304,26.8627967 138.313304,28.6518921 C138.313304,30.4656624 137.94426,32.0881182 137.206,33.5195973 C136.467911,34.9512455 135.422143,36.0349107 134.068525,36.770762 C132.715077,37.5069513 131.254922,37.8750459 129.688059,37.8750459 C127.989772,37.8750459 126.472513,37.468249 125.135089,36.654993 C123.798176,35.8415681 122.785306,34.731538 122.096139,33.3245646 C121.406972,31.9175913 121.062644,30.4291572 121.062644,28.8592623 Z M103.825109,37.5699904 L103.825109,19.6851201 L116.867809,19.6851201 L116.867809,21.7956646 L106.212051,21.7956646 L106.212051,27.2733118 L116.190915,27.2733118 L116.190915,29.3716879 L106.212051,29.3716879 L106.212051,35.459446 L117.286287,35.459446 L117.286287,37.5699904 L103.825109,37.5699904 Z M93.7968124,36.945345 C96.9467314,36.945345 99.467144,34.4467632 99.467144,31.298523 C99.467144,28.1752958 96.9467314,25.6768829 93.7968124,25.6768829 C90.6216654,25.6768829 88.1017643,28.1752958 88.1017643,31.298523 C88.1017643,34.4467632 90.6216654,36.945345 93.7968124,36.945345 Z M93.7968124,24.8773165 C97.3752663,24.8773165 100.273246,27.7505842 100.273246,31.298523 C100.273246,34.8964876 97.3752663,37.7699243 93.7968124,37.7699243 C90.1682434,37.7699243 87.269752,34.8964876 87.269752,31.298523 C87.269752,27.7505842 90.1682434,24.8773165 93.7968124,24.8773165 Z M82.9117873,37.5699904 L83.7180602,37.5699904 L83.7180602,20.0800867 L82.9117873,20.0800867 L82.9117873,37.5699904 Z M78.5536521,37.5699904 L79.359925,37.5699904 L79.359925,20.0800867 L78.5536521,20.0800867 L78.5536521,37.5699904 Z M63.510952,30.948681 L74.1956874,30.948681 C73.9942044,28.0253876 72.1544362,25.6768829 69.1055996,25.6768829 C66.0056252,25.6768829 63.712435,28.0253876 63.510952,30.948681 Z M73.7674934,35.1214343 L74.1956874,35.8209494 C72.8855365,37.0452274 71.2724793,37.7699243 69.2061706,37.7699243 C65.5774312,37.7699243 62.6791102,34.8964876 62.6791102,31.298523 C62.6791102,27.7505842 65.4765192,24.8773165 69.1055996,24.8773165 C72.6583142,24.8773165 75.0019603,27.7505842 75.0019603,31.298523 L74.9772437,31.7484165 L63.510952,31.7484165 C63.712435,34.6717099 66.2071082,36.945345 69.2061706,36.945345 C70.9448564,36.945345 72.6083696,36.3205305 73.7674934,35.1214343 Z M48.1148896,37.5699904 L48.1148896,18.8307958 L48.921333,18.8307958 L48.921333,27.8004409 L58.320975,27.8004409 L58.320975,18.8307958 L59.1272479,18.8307958 L59.1272479,37.5699904 L58.320975,37.5699904 L58.320975,28.6001764 L48.921333,28.6001764 L48.921333,37.5699904 L48.1148896,37.5699904 Z M18.5698457,1.78723639 L18.5698457,14.1101257 L11.6454445,26.0015431 L8.05744481,19.8400985 L18.5698457,1.78723639 Z M26.1232421,26.0015431 L19.1988409,14.1102947 L19.1988409,1.78740539 L29.7112418,19.8400985 L26.1232421,26.0015431 Z M26.4863206,26.6251745 L29.9967613,20.5967375 L36.5101849,43.8387538 L26.4863206,26.6251745 Z M19.2049774,39.129407 L26.1232421,27.2489749 L36.3905225,44.8805055 L19.2049774,39.129407 Z M18.8843433,39.6800279 L35.9050541,45.3761996 L1.86346203,45.3761996 L18.8843433,39.6801969 L18.8843433,39.6800279 Z M18.8843433,14.817584 L25.7601636,26.6251745 L18.8843433,38.4327651 L12.008523,26.6251745 L18.8843433,14.817584 Z M1.25867212,43.8385848 L7.77175488,20.5969065 L11.2821955,26.6251745 L1.25867212,43.8385848 Z M11.6454445,27.2489749 L18.5635387,39.129407 L1.37799369,44.8806746 L11.6454445,27.2489749 Z M37.5649876,45.2736131 L30.4375692,19.8400985 L18.8843433,0 L7.33111736,19.8400985 L0,46 L0.652859456,46 L37.1158272,46 L37.7686866,46 L37.5649876,45.2736131 Z" id="Fill-1" stroke="none" fill="#010101" fill-rule="evenodd" mask="url(#mask-4)"></path>
                    </g>
                </g>
            </g>
        </g>
    </g>
</svg>