<?xml version="1.0" encoding="UTF-8"?>
<svg width="198px" height="88px" viewBox="0 0 198 88" version="1.1" xmlns="http://www.w3.org/2000/svg" xmlns:xlink="http://www.w3.org/1999/xlink">
    <!-- Generator: Sketch 52.5 (67469) - http://www.bohemiancoding.com/sketch -->
    <title>logo_p08</title>
    <desc>Created with Sketch.</desc>
    <defs>
        <polygon id="path-1" points="0 0 198 0 198 88 0 88"></polygon>
        <path d="M8.86567164,0.691942792 C6.38919403,1.27340732 4.75678465,2.38095881 3.51812367,3.59954233 C2.30817058,4.81784897 1.18208955,6.47889931 0.591326226,8.83272311 C0,11.1859931 0,16.668373 0,16.668373 L0,36.050524 C0,36.050524 0,36.0508009 0,36.0508009 L0,36.2991693 C0.00309594883,37.3768169 0.0484093817,41.6851922 0.563181237,43.8310732 C1.12608102,46.2953753 2.25159915,47.9013249 3.49026013,49.1196316 C4.72863966,50.3379382 6.41733902,51.4178009 8.80966311,52.0269542 C11.2022687,52.6084188 16.7465501,52.6084188 16.7465501,52.6084188 L36.3917527,52.6084188 C36.3917527,52.6084188 41.7953092,52.6363844 44.3004947,52.054643 C46.7769723,51.4734554 48.4096631,50.365627 49.6480426,49.1473204 C50.8579957,47.9292906 51.9840768,46.2953753 52.5751215,43.9141396 C53.1661663,41.5605927 53.1661663,36.0782128 53.1661663,36.0782128 L53.1661663,16.6960618 C53.1661663,16.6960618 53.1661663,11.3800915 52.6032665,8.91551259 C52.0400853,6.45121053 50.9145672,4.84553776 49.6761876,3.62695423 C48.4378081,2.40892449 46.7491087,1.3287849 44.3567846,0.719631579 C41.9644606,0.138443936 36.4198977,0.138443936 36.4198977,0.138443936 L16.7746951,0.138443936 C16.7746951,0.138443936 16.7338849,0.138167048 16.6576119,0.138167048 C15.8571684,0.138167048 11.1530149,0.161148741 8.86567164,0.691942792" id="path-3"></path>
        <linearGradient x1="97.1846517%" y1="3.11651266%" x2="-0.0397986776%" y2="99.7205408%" id="linearGradient-5">
            <stop stop-color="#11C3D1" offset="0%"></stop>
            <stop stop-color="#0062AC" offset="100%"></stop>
        </linearGradient>
    </defs>
    <g id="Page-1" stroke="none" stroke-width="1" fill="none" fill-rule="evenodd">
        <g id="PC端官网-" transform="translate(-622.000000, -4473.000000)">
            <g id="logo_p08" transform="translate(622.000000, 4473.000000)">
                <mask id="mask-2" fill="white">
                    <use xlink:href="#path-1"></use>
                </mask>
                <g id="Rectangle-9-Copy-3"></g>
                <g id="Group-23" mask="url(#mask-2)">
                    <g transform="translate(18.716418, 18.173913)">
                        <g id="Group-17" stroke-width="1" fill="none" transform="translate(66.985075, 17.217391)">
                            <path d="M0.661426866,5.12650824 L3.18502388,5.12650824 C3.24202388,5.12650824 3.27009851,5.15363348 3.27009851,5.20788397 L3.27009851,17.6312454 C3.27009851,17.6854959 3.24202388,17.7126212 3.18502388,17.7126212 L0.661426866,17.7126212 C0.604710448,17.7126212 0.576068657,17.6854959 0.576068657,17.6312454 L0.576068657,5.20788397 C0.576068657,5.15363348 0.604710448,5.12650824 0.661426866,5.12650824" id="Fill-1" fill="#11293B"></path>
                            <path d="M39.2000627,0.677995457 L39.2000627,2.63101298 C39.2000627,2.68526347 39.1717045,2.71238871 39.1149881,2.71238871 L33.9824358,2.71238871 C33.9254358,2.71238871 33.8970776,2.73951395 33.8970776,2.79376444 L33.8970776,17.6312726 C33.8970776,17.685523 33.8687194,17.7126483 33.812003,17.7126483 L31.1746896,17.7126483 C31.1179731,17.7126483 31.0896149,17.685523 31.0896149,17.6312726 L31.0896149,2.79376444 C31.0896149,2.73951395 31.0612567,2.71238871 31.0048239,2.71238871 L25.4179731,2.71238871 C25.3612567,2.71238871 25.3331821,2.68526347 25.3331821,2.63101298 L25.3331821,0.677995457 C25.3331821,0.623744971 25.3612567,0.596619727 25.4179731,0.596619727 L39.1149881,0.596619727 C39.1433463,0.596619727 39.1717045,0.596619727 39.1717045,0.623744971 C39.2000627,0.623744971 39.2000627,0.650870214 39.2000627,0.677995457" id="Fill-3" fill="#11293B"></path>
                            <path d="M26.0985134,9.68349487 L26.1271552,17.6311912 C26.1271552,17.6854417 26.0985134,17.7125669 26.0420806,17.7125669 L23.5749164,17.7125669 C23.5179164,17.7125669 23.4898418,17.6854417 23.4898418,17.6311912 L23.4898418,11.5280114 L23.4898418,10.7413794 L23.4898418,10.361626 C23.4898418,9.98187255 23.4612,9.62924439 23.4044836,9.24949098 C23.2062597,7.92035406 22.6671701,6.97097054 20.7104537,6.99809578 C20.1432896,7.02522103 19.5761254,7.16084724 19.0943194,7.43209968 C18.5271552,7.7576026 17.8746328,8.21873173 17.5059761,8.86973757 C17.5626925,9.30374147 17.5910507,9.71062012 17.5910507,10.144624 L17.5910507,10.361626 L17.5910507,17.7939426 C17.5910507,17.8481931 17.5626925,17.8753184 17.5059761,17.8753184 L15.0955284,17.8753184 C15.0388119,17.8753184 15.0104537,17.8481931 15.0104537,17.7939426 L15.0104537,11.5280114 C15.0104537,10.144624 15.0955284,8.70698611 14.3865731,7.81185308 C13.9612,7.26934822 13.3659612,7.02522103 12.202991,7.02522103 C11.7211851,7.02522103 11.0973045,7.18797249 10.6149313,7.40497443 C10.2746328,7.54060065 9.99105075,7.73047735 9.70746866,7.97460454 C9.31073731,8.32723271 9.02715522,8.7612366 9.02715522,9.24949098 L9.02715522,17.6311912 C9.02715522,17.6854417 8.99851343,17.7125669 8.94179701,17.7125669 L6.47491642,17.7125669 C6.4182,17.7125669 6.38955821,17.6854417 6.38955821,17.6311912 L6.38955821,5.28920545 C6.38955821,5.23495496 6.4182,5.20782972 6.47491642,5.20782972 L7.49552836,5.20782972 C7.92090149,5.20782972 8.28955821,5.47908215 8.40327463,5.83171032 C8.48806567,6.10296275 8.5731403,6.3199647 8.5731403,6.3199647 C8.5731403,6.34708994 8.60178209,6.37421518 8.62985672,6.40134043 C8.65821493,6.40134043 8.68685672,6.40134043 8.71493134,6.37421518 C9.82118507,5.37058118 11.3808866,4.8823268 12.9119463,4.8823268 C14.5002896,4.8823268 15.5209015,5.34345594 16.1731403,6.07583751 L16.1167075,5.99446178 C16.3149313,6.21146372 16.4853642,6.45559091 16.6552299,6.72684335 C16.6552299,6.75396859 16.6838716,6.78109384 16.7119463,6.78109384 C16.7403045,6.78109384 16.7689463,6.78109384 16.7970209,6.75396859 C17.7895582,5.58758313 19.7746328,4.90945204 21.3629761,4.90945204 C24.9641851,4.90945204 26.0985134,7.3235987 26.0985134,9.68349487" id="Fill-5" fill="#11293B"></path>
                            <path d="M66.4807164,17.7397464 L63.7866866,17.7397464 C63.7583284,17.7397464 63.7299701,17.7397464 63.7299701,17.7126212 C62.7090746,16.3834842 61.9717612,15.1085978 61.6314627,14.7288444 L61.5747463,14.6474687 C61.0359403,13.9693376 59.9016119,12.5588249 58.3419104,12.2875725 C58.3135522,12.2875725 58.285194,12.2875725 58.2568358,12.3146977 L57.1225075,13.4810832 C57.0941493,13.5082084 57.0941493,13.5082084 57.0941493,13.5353337 L57.0941493,17.6312454 C57.0941493,17.6854959 57.065791,17.7126212 57.0090746,17.7126212 L54.5135522,17.7126212 C54.4568358,17.7126212 54.4284776,17.6854959 54.4284776,17.6312454 L54.4284776,0.379590655 C54.4284776,0.325340169 54.4568358,0.298214925 54.5135522,0.298214925 L57.0090746,0.298214925 C57.065791,0.298214925 57.0941493,0.325340169 57.0941493,0.379590655 L57.0941493,10.3074297 C57.0941493,10.334555 57.1225075,10.3616802 57.1508657,10.3888055 C57.1792239,10.3888055 57.2075821,10.3888055 57.2359403,10.3616802 L62.7374328,4.93663154 C62.765791,4.90950629 62.765791,4.90950629 62.7941493,4.90950629 L65.743403,4.90950629 C65.7717612,4.90950629 65.8001194,4.93663154 65.8284776,4.96375678 C65.8284776,4.99088202 65.8284776,5.01800727 65.8001194,5.04513251 L60.185194,10.5786822 C60.1568358,10.6058074 60.1568358,10.6329326 60.1568358,10.6600579 C60.1568358,10.6871831 60.185194,10.7143084 60.2135522,10.7143084 C61.8299701,11.4466899 62.9642985,12.8029521 63.4747463,13.4539579 L63.5314627,13.5353337 C63.985194,14.0778385 65.4598209,16.1936075 66.565791,17.6312454 C66.5941493,17.6583707 66.5941493,17.6854959 66.565791,17.7126212 C66.5374328,17.7126212 66.5090746,17.7397464 66.4807164,17.7397464" id="Fill-7" fill="#11293B"></path>
                            <path d="M1.90901791,0.0268811162 C2.81733134,0.0268811162 3.55379403,0.719117326 3.55379403,1.57301999 C3.55379403,2.42692265 2.81733134,3.11915886 1.90901791,3.11915886 C1.00070448,3.11915886 0.264241791,2.42692265 0.264241791,1.57301999 C0.264241791,0.719117326 1.00070448,0.0268811162 1.90901791,0.0268811162" id="Fill-9" fill="#11293B"></path>
                            <path d="M45.2970776,15.7325055 C42.6597642,15.7325055 41.3836448,14.0236152 41.3836448,11.0669637 C41.3836448,8.11031213 42.6597642,6.64554899 45.2970776,6.64554899 C47.934391,6.64554899 49.1821522,8.24593835 49.1821522,11.1754646 C49.2105104,14.1321162 47.934391,15.7325055 45.2970776,15.7325055 M45.2970776,4.5840305 C41.3836448,4.5840305 38.831406,7.0253024 38.831406,11.2025899 C38.831406,15.3798774 41.412003,17.8211493 45.2970776,17.8211493 C49.1821522,17.8211493 51.7627493,15.3798774 51.7627493,11.2025899 C51.7627493,7.0253024 49.1821522,4.5840305 45.2970776,4.5840305" id="Fill-11" fill="#11293B"></path>
                            <path d="M70.5644119,8.00181116 C71.2447254,7.18805386 72.2372627,6.67267424 73.3435164,6.59129851 C74.449203,6.50992278 75.3566657,6.64554899 76.1506955,7.37793056 C76.4342776,7.649183 76.6614269,7.94756067 76.8596507,8.2730636 C77.1432328,8.76131798 76.8315761,9.4665743 76.2074119,9.54795003 L69.7136657,10.4159578 C69.6850239,10.4159578 69.6569493,10.4159578 69.6283075,10.3888326 C69.6002328,10.3617073 69.6002328,10.3345821 69.6002328,10.3345821 C69.7136657,9.38519857 69.9972478,8.67994225 70.5644119,8.00181116 M74.2509791,15.895257 C72.8330687,16.0851337 71.4435164,15.5155036 70.6208448,14.4033686 C70.1954716,13.8608637 69.968606,13.2098579 69.7987403,12.3961006 C69.7987403,12.3689753 69.7987403,12.3418501 69.8268149,12.3418501 C69.8268149,12.3147249 69.8554567,12.3147249 69.8838149,12.3147249 L77.0014418,11.3653413 C78.9584418,11.0940889 79.7808299,9.43944906 79.0432328,7.8390597 C78.3912776,6.50992278 77.228591,5.47916353 75.7820388,4.93665866 C73.8539642,4.20427709 71.2447254,4.63828099 69.8554567,5.72329072 C68.0121731,7.16092862 67.3596507,8.92406944 67.2745761,10.768586 C67.2745761,10.9855879 67.2465015,11.1754646 67.2465015,11.3924666 C67.2465015,11.8264705 67.2745761,12.2604744 67.3596507,12.667353 C67.8417403,15.4341278 69.9118896,18.011026 73.4002328,18.011026 C77.3417403,18.011026 79.1850239,15.786756 79.525606,14.0778657 C79.525606,14.0507404 79.525606,14.0236152 79.4972478,13.9964899 C79.468606,13.9693647 79.4405313,13.9693647 79.4118896,13.9693647 L76.945009,14.3219929 C76.9163672,14.3219929 76.8882925,14.3491181 76.8882925,14.3762433 C76.2360537,15.2985016 75.4417403,15.7053803 74.2509791,15.895257" id="Fill-13" fill="#11293B"></path>
                            <path d="M93.3074687,9.9005782 L93.3074687,17.6312726 C93.3074687,17.685523 93.2791104,17.7126483 93.222394,17.7126483 L90.7838716,17.7126483 C90.7268716,17.7126483 90.698797,17.685523 90.698797,17.6312726 L90.698797,11.2297151 C90.698797,11.2297151 90.7268716,10.1447054 90.6420806,9.14107138 C90.5850806,8.43581506 90.3298567,7.73055873 89.7626925,7.29655483 C88.9405881,6.64554899 87.7776179,6.80830045 87.7776179,6.80830045 C86.3313493,6.94392667 85.1122299,7.81193446 84.3182,8.652817 C84.2895582,8.67994225 84.2895582,8.67994225 84.2614836,8.70706749 L84.3182,8.67994225 L84.3182,17.6312726 C84.3182,17.685523 84.2895582,17.7126483 84.2328418,17.7126483 L81.7659612,17.7126483 C81.7092448,17.7126483 81.680603,17.685523 81.680603,17.6312726 L81.680603,5.04515964 C81.680603,4.99090915 81.7092448,4.96378391 81.7659612,4.96378391 L83.7791104,4.96378391 C83.8361104,4.96378391 83.8641851,4.99090915 83.8641851,5.04515964 L83.8641851,6.29292083 C83.8641851,6.32004607 83.8928269,6.34717132 83.9209015,6.37429656 C83.9492597,6.37429656 83.9779015,6.37429656 84.0059761,6.34717132 C85.0552299,5.28928683 86.6149313,4.63828099 88.2597075,4.63828099 C89.6209015,4.63828099 93.3074687,4.69253147 93.3074687,9.9005782" id="Fill-15" fill="#11293B"></path>
                        </g>
                        <g id="Group-20" stroke-width="1" fill="none">
                            <mask id="mask-4" fill="white">
                                <use xlink:href="#path-3"></use>
                            </mask>
                            <g id="Clip-19"></g>
                            <path d="M8.86567164,0.691942792 C6.38919403,1.27340732 4.75678465,2.38095881 3.51812367,3.59954233 C2.30817058,4.81784897 1.18208955,6.47889931 0.591326226,8.83272311 C0,11.1859931 0,16.668373 0,16.668373 L0,36.050524 C0,36.050524 0,36.0508009 0,36.0508009 L0,36.2991693 C0.00309594883,37.3768169 0.0484093817,41.6851922 0.563181237,43.8310732 C1.12608102,46.2953753 2.25159915,47.9013249 3.49026013,49.1196316 C4.72863966,50.3379382 6.41733902,51.4178009 8.80966311,52.0269542 C11.2022687,52.6084188 16.7465501,52.6084188 16.7465501,52.6084188 L36.3917527,52.6084188 C36.3917527,52.6084188 41.7953092,52.6363844 44.3004947,52.054643 C46.7769723,51.4734554 48.4096631,50.365627 49.6480426,49.1473204 C50.8579957,47.9292906 51.9840768,46.2953753 52.5751215,43.9141396 C53.1661663,41.5605927 53.1661663,36.0782128 53.1661663,36.0782128 L53.1661663,16.6960618 C53.1661663,16.6960618 53.1661663,11.3800915 52.6032665,8.91551259 C52.0400853,6.45121053 50.9145672,4.84553776 49.6761876,3.62695423 C48.4378081,2.40892449 46.7491087,1.3287849 44.3567846,0.719631579 C41.9644606,0.138443936 36.4198977,0.138443936 36.4198977,0.138443936 L16.7746951,0.138443936 C16.7746951,0.138443936 16.7338849,0.138167048 16.6576119,0.138167048 C15.8571684,0.138167048 11.1530149,0.161148741 8.86567164,0.691942792" id="Fill-18" fill="url(#linearGradient-5)" mask="url(#mask-4)"></path>
                        </g>
                        <path d="M45.2302179,16.0268522 C46.3392074,31.1681192 36.1569262,38.3595187 27.0267487,39.146078 C18.5504739,39.8764546 10.5864561,34.9323674 9.90411041,27.263414 C9.335252,20.942848 13.4307482,18.2179817 16.6450826,17.9651591 C19.9444614,17.684245 22.7034247,19.8472832 22.9591266,22.4878752 C23.1869544,25.0161016 21.5369806,26.1959406 20.3711052,26.2802148 C19.4606473,26.364489 18.3229305,25.8307523 18.2094433,24.7070962 C18.1238301,23.723897 18.5223154,23.6115314 18.4082593,22.5721494 C18.2378862,20.7181167 16.5594694,20.5214769 15.6495804,20.6057511 C14.5403065,20.6900253 12.5208591,21.9541385 12.776561,25.044193 C13.0609902,28.1623389 16.1897115,30.6343825 20.2857765,30.2691942 C24.7225877,29.8759146 27.8231505,26.5892202 28.0506938,21.9541385 C28.0506938,21.7013159 28.1075797,21.4765846 28.2210669,21.2518534 C28.2779528,21.1675792 28.3066801,21.083305 28.3920089,20.9990308 C28.5054961,20.8304823 28.6195522,20.6900253 28.7617668,20.5495683 C28.8755385,20.4372027 29.0177531,20.2967457 29.1599677,20.1562886 C31.0940863,18.4146216 38.0907604,14.2570937 44.6613595,15.5492983 C44.7179609,15.5492983 44.7748468,15.5773897 44.8035741,15.6054811 C45.059276,15.5773897 45.2014906,15.7740295 45.2302179,16.0268522" id="Fill-21" fill="#FFFFFF"></path>
                    </g>
                </g>
            </g>
        </g>
    </g>
</svg>