<?xml version="1.0" encoding="UTF-8"?>
<svg width="198px" height="88px" viewBox="0 0 198 88" version="1.1" xmlns="http://www.w3.org/2000/svg" xmlns:xlink="http://www.w3.org/1999/xlink">
    <!-- Generator: Sketch 52.5 (67469) - http://www.bohemiancoding.com/sketch -->
    <title>logo_p14</title>
    <desc>Created with Sketch.</desc>
    <defs>
        <polygon id="path-1" points="0 0 197.399258 0 197.399258 87.721519 0 87.721519"></polygon>
        <polygon id="path-3" points="0.000417889447 0.23268 30.7687821 0.23268 30.7687821 31.08 0.000417889447 31.08"></polygon>
        <polygon id="path-5" points="0 0.590772 8.7628074 0.590772 8.7628074 9.375492 0 9.375492"></polygon>
        <polygon id="path-7" points="0.0837450452 0.23268 8.84688675 0.23268 8.84688675 9.017064 0.0837450452 9.017064"></polygon>
        <polygon id="path-9" points="0.207362427 0.618408 18.7323124 0.618408 18.7323124 14.7334945 0.207362427 14.7334945"></polygon>
    </defs>
    <g id="Page-1" stroke="none" stroke-width="1" fill="none" fill-rule="evenodd">
        <g id="PC端官网-" transform="translate(-120.000000, -4733.000000)">
            <g id="logo_p14" transform="translate(120.000000, 4733.000000)">
                <mask id="mask-2" fill="white">
                    <use xlink:href="#path-1"></use>
                </mask>
                <g id="Rectangle-9-Copy-4"></g>
                <g id="Group-37" mask="url(#mask-2)">
                    <g transform="translate(14.924623, 27.000000)">
                        <g id="Group-3" stroke-width="1" fill="none" transform="translate(0.000000, 0.607572)">
                            <mask id="mask-4" fill="white">
                                <use xlink:href="#path-3"></use>
                            </mask>
                            <g id="Clip-2"></g>
                            <path d="M30.1519773,0.232344 L23.6939138,0.232344 C23.3545875,0.232344 23.0762732,0.511224 23.0762732,0.851424 L23.0762732,22.749384 C23.0762732,23.089584 22.7987946,23.367624 22.4603041,23.367624 L0.617222714,23.367624 C0.277060704,23.367624 0.000417889447,23.647344 0.000417889447,23.987544 L0.000417889447,30.461424 C0.000417889447,30.801624 0.277060704,31.080504 0.617222714,31.080504 L30.1519773,31.080504 L30.7687821,31.080504 L30.7687821,30.461424 L30.7687821,0.851424 C30.7687821,0.511224 30.4913035,0.232344 30.1519773,0.232344" id="Fill-1" fill="#F29700" mask="url(#mask-4)"></path>
                        </g>
                        <g id="Group-6" stroke-width="1" fill="none" transform="translate(0.000000, 11.527572)">
                            <mask id="mask-6" fill="white">
                                <use xlink:href="#path-5"></use>
                            </mask>
                            <g id="Clip-5"></g>
                            <path d="M0.702555739,9.375492 L8.05908157,9.375492 C8.4460472,9.375492 8.7628074,9.058812 8.7628074,8.670732 L8.7628074,1.295532 C8.7628074,0.907452 8.4460472,0.590772 8.05908157,0.590772 L0.702555739,0.590772 C0.316425889,0.590772 -0.000334311558,0.907452 -0.000334311558,1.295532 L-0.000334311558,8.670732 C-0.000334311558,9.058812 0.316425889,9.375492 0.702555739,9.375492" id="Fill-4" fill="#F29700" mask="url(#mask-6)"></path>
                        </g>
                        <g id="Group-9" stroke-width="1" fill="none" transform="translate(10.865126, 0.607572)">
                            <mask id="mask-8" fill="white">
                                <use xlink:href="#path-7"></use>
                            </mask>
                            <g id="Clip-8"></g>
                            <path d="M0.786635095,9.017064 L8.14316092,9.017064 C8.53012655,9.017064 8.84688675,8.700384 8.84688675,8.313144 L8.84688675,0.937104 C8.84688675,0.549024 8.53012655,0.232344 8.14316092,0.232344 L7.74867329,0.232344 L1.29060977,0.232344 L0.786635095,0.232344 C0.400505246,0.232344 0.0837450452,0.549024 0.0837450452,0.937104 L0.0837450452,8.313144 C0.0837450452,8.700384 0.400505246,9.017064 0.786635095,9.017064" id="Fill-7" fill="#F29700" mask="url(#mask-8)"></path>
                        </g>
                        <path d="M126.130235,9.509724 C125.879501,9.509724 125.602022,9.702084 125.51343,9.937284 L119.07041,27.021204 C118.981818,27.256404 118.792096,27.279924 118.647506,27.074124 L114.505386,21.152124 C114.361632,20.947164 114.243787,20.573364 114.243787,20.322204 L114.243787,9.261924 C114.243787,9.010764 114.039021,8.804964 113.788288,8.804964 L111.593532,8.804964 C111.343634,8.804964 111.138869,9.010764 111.138869,9.261924 L111.138869,20.399484 C111.138869,20.650644 111.020188,21.024444 110.875598,21.229404 L105.593476,28.736484 C105.448886,28.941444 105.502376,29.222004 105.712992,29.358924 L107.338582,30.423204 C107.548362,30.560964 107.839214,30.506364 107.985475,30.301404 L112.446027,24.050964 C112.592288,23.846844 112.830485,23.846844 112.975911,24.051804 L117.070391,29.806644 C117.216653,30.010764 117.458193,30.177924 117.606961,30.177924 L118.335761,30.177924 L120.362524,30.177924 L121.00691,30.177924 C121.111382,30.177924 121.267673,29.984724 121.354594,29.749524 L128.655123,9.938124 C128.742044,9.702084 128.608319,9.509724 128.357585,9.509724 L126.130235,9.509724 Z" id="Fill-10" fill="#545555"></path>
                        <path d="M52.9089829,2.735208 C52.6582492,2.735208 52.3063863,2.878848 52.1266939,3.054408 L42.5846062,12.382608 C42.4057495,12.557328 42.4065853,12.844608 42.585442,13.020168 L44.1633926,14.555688 C44.343085,14.731248 44.638115,14.731248 44.8178074,14.556528 L53.5859638,6.079248 C53.7664921,5.904528 54.1191908,5.762568 54.3699244,5.762568 L59.5074573,5.762568 C59.758191,5.762568 60.1108896,5.904528 60.2905821,6.079248 L69.0595743,14.556528 C69.2401025,14.731248 69.5342967,14.731248 69.7139891,14.555688 L71.2919397,13.020168 C71.4707964,12.844608 71.4716322,12.557328 71.2927755,12.382608 L61.7506878,3.054408 C61.5709954,2.878848 61.2191325,2.735208 60.9692346,2.735208 L52.9089829,2.735208 Z" id="Fill-12" fill="#545555"></path>
                        <path d="M58.5284259,21.751296 C58.5284259,21.500976 58.7340275,21.294336 58.9839254,21.294336 L68.8043274,21.294336 C69.0550611,21.294336 69.2606627,21.089376 69.2606627,20.838216 L69.2606627,18.768456 C69.2606627,18.516456 69.0550611,18.310656 68.8043274,18.310656 L58.9839254,18.310656 C58.7340275,18.310656 58.5284259,18.105696 58.5284259,17.854536 L58.5284259,14.729736 C58.5284259,14.478576 58.7340275,14.273616 58.9839254,14.273616 L64.8928822,14.273616 C65.1436158,14.273616 65.3483817,14.067816 65.3483817,13.815816 L65.3483817,11.715816 C65.3483817,11.464656 65.1436158,11.259696 64.8928822,11.259696 L48.9855025,11.259696 C48.7347688,11.259696 48.5291672,11.464656 48.5291672,11.715816 L48.5291672,13.815816 C48.5291672,14.067816 48.7347688,14.273616 48.9855025,14.273616 L54.9262189,14.273616 C55.1769525,14.273616 55.3817184,14.478576 55.3817184,14.729736 L55.3817184,17.854536 C55.3817184,18.105696 55.1769525,18.310656 54.9262189,18.310656 L45.0732215,18.310656 C44.8233236,18.310656 44.6185577,18.516456 44.6185577,18.768456 L44.6185577,20.838216 C44.6185577,21.089376 44.8233236,21.294336 45.0732215,21.294336 L54.9262189,21.294336 C55.1769525,21.294336 55.3817184,21.500976 55.3817184,21.751296 L55.3817184,26.769456 C55.3817184,27.020616 55.1769525,27.226416 54.9262189,27.226416 L44.4982056,27.226416 C44.2474719,27.226416 44.0418703,27.431376 44.0418703,27.683376 L44.0418703,29.783376 C44.0418703,30.034536 44.2474719,30.240336 44.4982056,30.240336 L69.3826864,30.240336 C69.6334201,30.240336 69.8390217,30.034536 69.8390217,29.783376 L69.8390217,27.683376 C69.8390217,27.431376 69.6334201,27.226416 69.3826864,27.226416 L58.9839254,27.226416 C58.7340275,27.226416 58.5284259,27.020616 58.5284259,26.769456 L58.5284259,21.751296 Z" id="Fill-14" fill="#545555"></path>
                        <path d="M109.077169,6.112848 C109.077169,5.861688 109.281935,5.655888 109.532669,5.655888 L115.847814,5.655888 C116.097712,5.655888 116.303314,5.861688 116.303314,6.112848 L116.303314,21.951048 C116.303314,22.201368 116.508915,22.407168 116.758813,22.407168 L118.953568,22.407168 C119.204302,22.407168 119.409068,22.201368 119.409068,21.951048 L119.409068,3.192168 C119.409068,2.941008 119.204302,2.735208 118.953568,2.735208 L106.428586,2.735208 C106.177852,2.735208 105.972251,2.941008 105.972251,3.192168 L105.972251,21.951048 C105.972251,22.201368 106.177852,22.407168 106.428586,22.407168 L108.62167,22.407168 C108.872403,22.407168 109.077169,22.201368 109.077169,21.951048 L109.077169,6.112848 Z" id="Fill-16" fill="#545555"></path>
                        <path d="M132.255742,3.192084 C132.255742,2.940924 132.05014,2.735124 131.800242,2.735124 L129.605487,2.735124 C129.354753,2.735124 129.149152,2.940924 129.149152,3.192084 L129.149152,4.329444 C129.149152,4.580604 128.944386,4.785564 128.693652,4.785564 L121.885397,4.785564 C121.634664,4.785564 121.429898,4.991364 121.429898,5.242524 L121.429898,7.302204 C121.429898,7.553364 121.634664,7.759164 121.885397,7.759164 L128.693652,7.759164 C128.944386,7.759164 129.149152,7.964964 129.149152,8.216124 L129.149152,26.839764 C129.149152,27.090924 128.944386,27.296724 128.693652,27.296724 L126.471316,27.296724 C126.221418,27.296724 126.015816,27.501684 126.015816,27.752844 L126.015816,29.783124 C126.015816,30.035124 126.221418,30.240084 126.471316,30.240084 L131.800242,30.240084 C132.05014,30.240084 132.255742,30.035124 132.255742,29.783124 L132.255742,8.216124 C132.255742,7.964964 132.460508,7.759164 132.711241,7.759164 L134.0301,7.759164 C134.279998,7.759164 134.4856,7.553364 134.4856,7.302204 L134.4856,5.242524 C134.4856,4.991364 134.279998,4.785564 134.0301,4.785564 L132.711241,4.785564 C132.460508,4.785564 132.255742,4.580604 132.255742,4.329444 L132.255742,3.192084 Z" id="Fill-18" fill="#545555"></path>
                        <path d="M148.901532,20.385036 C148.901532,20.636196 149.107134,20.841996 149.357032,20.841996 L155.565197,20.841996 C155.815931,20.841996 156.020697,21.047796 156.020697,21.298956 L156.020697,26.758116 C156.020697,27.010116 155.815931,27.215076 155.565197,27.215076 L149.357032,27.215076 C149.107134,27.215076 148.901532,27.420036 148.901532,27.672036 L148.901532,29.702316 C148.901532,29.953476 149.107134,30.159276 149.357032,30.159276 L165.850292,30.159276 C166.101026,30.159276 166.306628,29.953476 166.306628,29.702316 L166.306628,27.672036 C166.306628,27.420036 166.101026,27.215076 165.850292,27.215076 L159.580279,27.215076 C159.329545,27.215076 159.124779,27.010116 159.124779,26.758116 L159.124779,21.298956 C159.124779,21.047796 159.329545,20.841996 159.580279,20.841996 L165.850292,20.841996 C166.101026,20.841996 166.306628,20.636196 166.306628,20.385036 L166.306628,18.325356 C166.306628,18.074196 166.101026,17.868396 165.850292,17.868396 L149.357032,17.868396 C149.107134,17.868396 148.901532,18.074196 148.901532,18.325356 L148.901532,20.385036 Z" id="Fill-20" fill="#545555"></path>
                        <g id="Group-24" stroke-width="1" fill="none" transform="translate(147.932864, 2.287572)">
                            <mask id="mask-10" fill="white">
                                <use xlink:href="#path-9"></use>
                            </mask>
                            <g id="Clip-23"></g>
                            <path d="M12.3149513,7.611408 C12.1152001,7.460208 12.1152001,7.213248 12.3149513,7.062048 L16.625063,3.817968 C16.8248142,3.667608 16.9886269,3.338328 16.9886269,3.086328 L16.9886269,1.074528 C16.9886269,0.823368 16.783861,0.618408 16.5331274,0.618408 L1.3687551,0.618408 C1.11802143,0.618408 0.912419819,0.823368 0.912419819,1.074528 L0.912419819,3.088008 C0.912419819,3.340008 1.11802143,3.544968 1.3687551,3.544968 L11.461621,3.544968 C11.7123547,3.544968 11.8820178,3.592848 11.8393931,3.652488 C11.7976041,3.710448 11.5986888,3.881808 11.3981018,4.032168 L0.385879116,12.287688 C0.185292181,12.438888 0.147682131,12.722808 0.303972784,12.919368 L1.60026585,14.556528 C1.75572072,14.753088 2.04740756,14.790888 2.24799449,14.639688 L9.08968052,9.489648 C9.29026746,9.339288 9.61872856,9.339288 9.81847972,9.490488 L16.6284062,14.638848 C16.8289931,14.790048 17.124023,14.756448 17.2853284,14.564088 L18.6300966,12.957168 C18.7905662,12.764808 18.7596423,12.483408 18.5590554,12.332208 L12.3149513,7.611408 Z" id="Fill-22" fill="#545555" mask="url(#mask-10)"></path>
                        </g>
                        <path d="M101.256034,27.71538 C101.256034,27.46422 101.050432,27.25842 100.799699,27.25842 L79.7531145,27.25842 C79.5023808,27.25842 79.297615,27.05262 79.297615,26.80146 L79.297615,22.86438 C79.297615,22.61322 79.5023808,22.40742 79.7531145,22.40742 L100.323305,22.40742 C100.574038,22.40742 100.778804,22.20162 100.778804,21.9513 L100.778804,10.5105 C100.778804,10.25934 100.574038,10.05354 100.323305,10.05354 L97.5075655,10.05354 C97.2568319,10.05354 97.0988697,9.85362 97.1573742,9.60918 L98.3625674,4.5381 C98.4202361,4.2945 98.2622739,4.09374 98.012376,4.09374 L95.0094224,4.09374 L94.0984234,4.09374 L80.6942015,4.09374 C80.4434679,4.09374 80.2687901,3.8913 80.3064001,3.64182 L80.3857991,3.10842 C80.4234092,2.85978 80.2487314,2.6565 79.9979977,2.6565 L77.8174506,2.6565 C77.5667169,2.6565 77.3251768,2.8581 77.2800447,3.1059 L76.6523748,6.57426 C76.6072427,6.82122 76.7760701,7.02366 77.0268037,7.02366 L79.2073509,7.02366 L80.1183499,7.02366 L94.0984234,7.02366 C94.3483213,7.02366 94.5112982,7.22442 94.4586441,7.47054 L94.005652,9.60666 C93.9529979,9.85278 93.7056074,10.05354 93.4548737,10.05354 L76.6314803,10.05354 C76.3807467,10.05354 76.1759808,10.25934 76.1759808,10.5105 L76.1759808,29.78346 C76.1759808,30.03462 76.3807467,30.24042 76.6314803,30.24042 L100.799699,30.24042 C101.050432,30.24042 101.256034,30.03462 101.256034,29.78346 L101.256034,27.71538 Z M89.6955402,13.46394 C89.6955402,13.21194 89.9011418,13.00698 90.1518755,13.00698 L97.2309227,13.00698 C97.4816564,13.00698 97.6864222,13.21194 97.6864222,13.46394 L97.6864222,18.96762 C97.6864222,19.21962 97.4816564,19.42458 97.2309227,19.42458 L90.1518755,19.42458 C89.9011418,19.42458 89.6955402,19.21962 89.6955402,18.96762 L89.6955402,13.46394 Z M79.297615,13.46394 C79.297615,13.21194 79.5023808,13.00698 79.7531145,13.00698 L86.1484946,13.00698 C86.400064,13.00698 86.6048299,13.21194 86.6048299,13.46394 L86.6048299,18.96762 C86.6048299,19.21962 86.400064,19.42458 86.1484946,19.42458 L79.7531145,19.42458 C79.5023808,19.42458 79.297615,19.21962 79.297615,18.96762 L79.297615,13.46394 Z" id="Fill-25" fill="#545555"></path>
                        <path d="M138.269004,26.99592 C138.01827,26.99592 137.812668,27.20172 137.812668,27.45288 L137.812668,29.48316 C137.812668,29.73432 138.01827,29.94012 138.269004,29.94012 L145.971542,29.94012 C146.22144,29.94012 146.427041,29.73432 146.427041,29.48316 L146.427041,27.45288 C146.427041,27.20172 146.22144,26.99592 145.971542,26.99592 L138.269004,26.99592 Z" id="Fill-27" fill="#545555"></path>
                        <path d="M50.7265135,25.38858 C50.7265135,25.63974 50.5209119,25.84554 50.2701782,25.84554 L48.1355989,25.84554 C47.8848652,25.84554 47.6800994,25.63974 47.6800994,25.38858 L47.6800994,23.24826 C47.6800994,22.99626 47.8848652,22.7913 48.1355989,22.7913 L50.2701782,22.7913 C50.5209119,22.7913 50.7265135,22.99626 50.7265135,23.24826 L50.7265135,25.38858 Z" id="Fill-29" fill="#545555"></path>
                        <path d="M66.1785608,25.38858 C66.1785608,25.63974 65.9729592,25.84554 65.7222256,25.84554 L63.5876463,25.84554 C63.3369126,25.84554 63.131311,25.63974 63.131311,25.38858 L63.131311,23.24826 C63.131311,22.99626 63.3369126,22.7913 63.5876463,22.7913 L65.7222256,22.7913 C65.9729592,22.7913 66.1785608,22.99626 66.1785608,23.24826 L66.1785608,25.38858 Z" id="Fill-31" fill="#545555"></path>
                        <path d="M143.121703,21.070392 C142.870969,21.070392 142.733902,20.877192 142.81748,20.639472 L145.357412,13.412952 C145.44099,13.176912 145.303086,12.982872 145.053188,12.983712 L142.575104,12.989592 C142.325206,12.989592 142.051906,13.184472 141.969164,13.422192 L138.420447,23.582832 C138.337705,23.819712 138.474772,24.013752 138.725506,24.013752 L145.970873,24.013752 C146.220771,24.013752 146.427209,23.807952 146.427209,23.556792 L146.427209,21.526512 C146.427209,21.275352 146.220771,21.070392 145.970873,21.070392 L143.121703,21.070392 Z" id="Fill-33" fill="#545555"></path>
                        <path d="M141.805519,11.092536 C141.89244,10.856496 142.037865,10.472616 142.130637,10.238256 L144.912944,3.160416 C145.00488,2.926056 144.874499,2.735376 144.624601,2.735376 L142.056252,2.735376 C141.806354,2.735376 141.528876,2.927736 141.441955,3.163776 L137.970965,12.554136 C137.884044,12.790176 138.017769,12.982536 138.268502,12.982536 L140.654651,12.982536 C140.905385,12.982536 141.182027,12.789336 141.268113,12.553296 L141.805519,11.092536 Z" id="Fill-35" fill="#F29700"></path>
                    </g>
                </g>
            </g>
        </g>
    </g>
</svg>