<?xml version="1.0" encoding="UTF-8"?>
<svg width="375px" height="170px" viewBox="0 0 375 170" version="1.1" xmlns="http://www.w3.org/2000/svg" xmlns:xlink="http://www.w3.org/1999/xlink">
    <!-- Generator: Sketch 52.5 (67469) - http://www.bohemiancoding.com/sketch -->
    <title>bg_banner</title>
    <desc>Created with Sketch.</desc>
    <defs>
        <rect id="path-1" x="0" y="0" width="375" height="170"></rect>
        <linearGradient x1="26.2936564%" y1="97.4649235%" x2="96.5213022%" y2="0%" id="linearGradient-3">
            <stop stop-color="#66688F" offset="0%"></stop>
            <stop stop-color="#323348" stop-opacity="0" offset="100%"></stop>
        </linearGradient>
        <linearGradient x1="84.854148%" y1="10.500191%" x2="26.2936564%" y2="97.4649235%" id="linearGradient-4">
            <stop stop-color="#66688F" offset="0%"></stop>
            <stop stop-color="#323348" stop-opacity="0" offset="100%"></stop>
        </linearGradient>
    </defs>
    <g id="Page-1" stroke="none" stroke-width="1" fill="none" fill-rule="evenodd">
        <g id="首页-24小时成交榜" transform="translate(0.000000, -64.000000)">
            <g id="bg_banner" transform="translate(0.000000, 64.000000)">
                <mask id="mask-2" fill="white">
                    <use xlink:href="#path-1"></use>
                </mask>
                <use id="矩形-copy-4" fill="#191A2A" xlink:href="#path-1"></use>
                <g id="circle-illustration" mask="url(#mask-2)">
                    <g transform="translate(-8.000000, -18.000000)">
                        <circle id="Oval-Copy-3" stroke="none" fill="url(#linearGradient-3)" fill-rule="evenodd" opacity="0.400000006" transform="translate(196.000000, 196.000000) scale(-1, 1) translate(-196.000000, -196.000000) " cx="196" cy="196" r="153.743119"></circle>
                        <circle id="Oval" stroke="none" fill="url(#linearGradient-4)" fill-rule="evenodd" opacity="0.189999998" transform="translate(196.449541, 196.449541) scale(-1, 1) translate(-196.449541, -196.449541) " cx="196.449541" cy="196.449541" r="64.2844037"></circle>
                        <path d="M196,392 C304.247811,392 392,304.247811 392,196 C392,87.752189 304.247811,0 196,0 C87.752189,0 0,87.752189 0,196 C0,304.247811 87.752189,392 196,392 Z" id="Oval-Copy-6" stroke="#FFFFFF" stroke-width="1.8" fill="none" opacity="0.300000012" stroke-linecap="round" stroke-linejoin="round" stroke-dasharray="4.5,22.5,72" transform="translate(196.000000, 196.000000) scale(-1, 1) translate(-196.000000, -196.000000) "></path>
                    </g>
                </g>
            </g>
        </g>
    </g>
</svg>