<?xml version="1.0" encoding="UTF-8"?>
<svg width="16px" height="16px" viewBox="0 0 16 16" version="1.1" xmlns="http://www.w3.org/2000/svg" xmlns:xlink="http://www.w3.org/1999/xlink">
    <!-- Generator: Sketch 52.5 (67469) - http://www.bohemiancoding.com/sketch -->
    <title>ic_account</title>
    <desc>Created with Sketch.</desc>
    <g id="Page-1" stroke="none" stroke-width="1" fill="none" fill-rule="evenodd">
        <g id="更多" transform="translate(-20.000000, -253.000000)" fill="#007AFF">
            <path d="M27.3020131,261.904521 C25.3441244,261.752552 23.8260557,260.152564 23.8000059,258.213563 C23.8000059,256.15574 25.5399987,254.502814 27.6660274,254.502814 C29.7919583,254.502814 31.5320489,256.157717 31.5320489,258.213563 C31.5320489,260.142945 30.0000641,261.712896 28.0320435,261.904521 C27.7891477,261.883259 27.544909,261.883259 27.3020131,261.904521 M27.8795287,263.397258 C27.9237426,263.394727 27.9679077,263.391665 28.012024,263.387591 C28.0161256,263.387687 28.0202271,263.387977 28.0243531,263.388121 C29.2735005,263.29531 30.1967197,262.84801 30.7389568,262.501331 C30.7386395,262.501187 30.7382977,262.501042 30.7380047,262.500897 C32.2007511,261.544993 33.079854,259.927769 33.0780229,258.195772 C33.0780229,255.332254 30.6519694,253 27.6660274,253 C24.6800609,253 22.2560094,255.330277 22.2560094,258.193796 C22.2665074,259.922224 23.1533252,261.530601 24.6179759,262.477152 C22.1699985,263.494263 20.4300056,265.242001 20.0439699,267.84278 C20.0186036,267.926889 20.0038087,268.013794 20.0000001,268.10147 L20.0000001,268.164678 C19.9999024,268.365414 20.0821047,268.557714 20.2280278,268.697533 C20.3738288,268.837472 20.5707773,268.913095 20.7740003,268.907261 C20.9772233,268.913095 21.1741718,268.837472 21.3199728,268.697533 C21.4658959,268.557714 21.5480981,268.365414 21.5480005,268.164678 C21.931961,265.318926 24.315949,263.559424 27.3240347,263.387591 C27.4786003,263.401935 27.6339228,263.40637 27.7890012,263.401332 C27.8193723,263.400223 27.8494993,263.398777 27.8795287,263.397258 M32.6219919,264.151823 C32.6219919,264.503347 32.914009,264.744318 33.3520223,264.744318 L35.2699696,264.744318 C35.707983,264.744318 36,264.511254 36,264.151823 C36,263.792391 35.707983,263.559424 35.2699696,263.559424 L33.3520223,263.559424 C32.914009,263.575141 32.6219919,263.808205 32.6219919,264.151823 M35.2700672,267.81513 L32.1159853,267.81513 C31.6780452,267.81513 31.3860281,268.050171 31.3860281,268.407601 C31.3860281,268.765056 31.6780452,269 32.1159853,269 L35.2700672,269 C35.707983,269 36,268.765056 36,268.407601 C36,268.050171 35.707983,267.81513 35.2700672,267.81513 M35.2700672,265.696172 L30.8880049,265.696172 C30.4499916,265.696172 30.1579745,265.931117 30.1579745,266.288571 C30.1579745,266.646026 30.4499916,266.881066 30.8880049,266.881066 L35.2700672,266.881066 C35.707983,266.881066 36,266.646026 36,266.288571 C36,265.931117 35.707983,265.696172 35.2700672,265.696172" id="ic_account"></path>
        </g>
    </g>
</svg>