<?xml version="1.0" encoding="UTF-8"?>
<svg width="34px" height="34px" viewBox="0 0 34 34" version="1.1" xmlns="http://www.w3.org/2000/svg" xmlns:xlink="http://www.w3.org/1999/xlink">
    <!-- Generator: Sketch 52.5 (67469) - http://www.bohemiancoding.com/sketch -->
    <title>ic_avatar</title>
    <desc>Created with Sketch.</desc>
    <defs>
        <rect id="path-1" x="0" y="0" width="34" height="34" rx="17"></rect>
    </defs>
    <g id="Page-1" stroke="none" stroke-width="1" fill="none" fill-rule="evenodd">
        <g id="首页-24小时成交榜" transform="translate(-20.000000, -295.000000)">
            <g id="ic_avatar" transform="translate(20.000000, 295.000000)">
                <mask id="mask-2" fill="white">
                    <use xlink:href="#path-1"></use>
                </mask>
                <use id="Rectangle-21" fill="#ADADAD" xlink:href="#path-1"></use>
                <path d="M26.333639,22.4354738 C26.333639,22.4315161 26.3296751,22.4282181 26.3296751,22.4282181 C24.3358138,17.2753537 18.5352497,14.7134329 13.3748618,16.7041324 C9.77296252,18.0945879 7.28757277,21.4335279 7.00150851,25.2869628 C6.97706421,25.654365 7.25255798,25.9722964 7.61988299,26 L17.6519519,26 C18.019277,26 18.3198757,25.699878 18.3198757,25.3331355 C18.3198757,24.9657333 18.019277,24.6662709 17.6519519,24.6662709 L8.41531342,24.6662709 C9.14732082,19.9329178 13.5796653,16.6902807 18.3165724,17.4204677 C21.4058022,17.8967053 24.0008609,19.9896441 25.1101032,22.9084133 C25.2415738,23.2368985 25.6088988,23.4057584 25.9445123,23.2929653 C26.2906963,23.1630223 26.464449,22.7778108 26.333639,22.4354738 Z M20.3243075,24.6662709 C19.9569825,24.6662709 19.6557231,24.9657333 19.6557231,25.3331355 C19.6557231,25.699878 19.9569825,26 20.3243075,26 L23.6645867,26 C24.0319118,26 24.3331711,25.699878 24.3331711,25.3331355 C24.3292072,24.9624353 24.0292691,24.6662709 23.6612835,24.6662709 L20.3243075,24.6662709 Z M26.8073297,24.8601959 C26.743246,24.8001715 26.6692525,24.7546585 26.5879918,24.7190396 C26.3409062,24.6128426 26.050878,24.6695689 25.8599483,24.8601959 C25.7998286,24.924178 25.7535826,24.9980542 25.7185678,25.079186 C25.6795891,25.1563603 25.6617513,25.2447479 25.6657153,25.3331355 C25.6657153,25.421523 25.6795891,25.505953 25.7113006,25.5877445 C25.7463154,25.6688764 25.7958646,25.7427525 25.8599483,25.806075 C26.050878,25.996702 26.3409062,26.0494707 26.5879918,25.9465717 C26.6692525,25.912272 26.743246,25.8654398 26.8073297,25.806075 C26.9982594,25.615448 27.051112,25.3258798 26.9487102,25.079186 C26.9169987,24.9980542 26.8707527,24.924178 26.8073297,24.8601959 Z M20.3243075,10.6654134 C20.3243075,12.5077009 18.8285812,14.0010554 16.9840282,14.0010554 C15.1388146,14.0010554 13.6430883,12.5044029 13.6430883,10.6654134 C13.6430883,8.82312589 15.1388146,7.33043105 16.9840282,7.33043105 C18.8285812,7.33043105 20.3243075,8.82312589 20.3243075,10.6654134 Z M21.6568516,10.6654134 C21.6568516,8.08898123 19.5645525,6 16.9840282,6 C14.4035039,6 12.3105441,8.08898123 12.3105441,10.6654134 C12.3105441,13.2418456 14.4035039,15.3314864 16.9840282,15.3314864 C19.5645525,15.3314864 21.6568516,13.2418456 21.6568516,10.6654134 Z" id="Fill-1" fill="#FFFFFF" mask="url(#mask-2)"></path>
            </g>
        </g>
    </g>
</svg>