<?xml version="1.0" encoding="UTF-8"?>
<svg width="16px" height="16px" viewBox="0 0 16 16" version="1.1" xmlns="http://www.w3.org/2000/svg" xmlns:xlink="http://www.w3.org/1999/xlink">
    <!-- Generator: Sketch 52.5 (67469) - http://www.bohemiancoding.com/sketch -->
    <title>ic_cancel</title>
    <desc>Created with Sketch.</desc>
    <defs>
        <polygon id="path-1" points="0 2.87710787e-05 15.7653517 2.87710787e-05 15.7653517 15.9969185 0 15.9969185"></polygon>
    </defs>
    <g id="Page-1" stroke="none" stroke-width="1" fill="none" fill-rule="evenodd">
        <g id="订单-有数据(中文）" transform="translate(-18.000000, -83.000000)">
            <g id="ic_cancel" transform="translate(18.000000, 83.000000)">
                <mask id="mask-2" fill="white">
                    <use xlink:href="#path-1"></use>
                </mask>
                <g id="Clip-2"></g>
                <path d="M1.28093793,10.7164444 L3.06135172,8.66548148 L7.91486897,13.4518519 L7.24011034,14.2299259 C6.96204138,14.5487407 6.62107586,14.7294815 6.27073103,14.7863704 L5.74769655,14.781037 C5.42824828,14.7235556 5.12369655,14.5653333 4.87707586,14.3182222 L1.28093793,10.7164444 Z M9.39569655,1.36948148 L14.2139034,6.19614815 L8.65252414,12.6026667 L3.7990069,7.8157037 L9.39569655,1.36948148 Z M15.1899034,14.8752593 L8.21776552,14.8059259 L15.2070069,6.75555556 C15.5413517,6.37037037 15.4558345,5.85066667 15.1672828,5.56266667 L9.84590345,0.231703704 C9.69473103,0.0758518519 9.4905931,-0.0077037037 9.28093793,0.000592592593 C9.07238621,0.0082962963 8.87431724,0.107259259 8.73362759,0.273777778 L0.215558621,10.0841481 C0.0710068966,10.2465185 -0.0067862069,10.4651852 0.000386206897,10.6903704 C0.00755862069,10.9155556 0.0996965517,11.1271111 0.255282759,11.2782222 L4.13942069,15.1685926 C4.6425931,15.6722963 5.28038621,16.0219259 5.9750069,15.9952593 C6.05004138,15.9928889 6.12397241,15.986963 6.19845517,15.9768889 L15.1579034,15.997037 C15.4354207,15.9863704 15.6368,15.7552593 15.7653517,15.4506667 C15.7570759,15.1525926 15.4685241,14.8645926 15.1899034,14.8752593 Z" id="Fill-1" fill="#231916" mask="url(#mask-2)"></path>
            </g>
        </g>
    </g>
</svg>