<?xml version="1.0" encoding="UTF-8"?>
<svg width="16px" height="16px" viewBox="0 0 16 16" version="1.1" xmlns="http://www.w3.org/2000/svg" xmlns:xlink="http://www.w3.org/1999/xlink">
    <!-- Generator: Sketch 52.5 (67469) - http://www.bohemiancoding.com/sketch -->
    <title>ic_delete</title>
    <desc>Created with Sketch.</desc>
    <g id="Page-1" stroke="none" stroke-width="1" fill="none" fill-rule="evenodd">
        <g id="行情-自选-已添加-编辑" transform="translate(-334.000000, -207.000000)" fill="#007AFF">
            <path d="M343.864559,214.230911 C343.864559,213.889012 344.174542,213.61671 344.550487,213.61671 C344.929154,213.61671 345.236501,213.889012 345.236501,214.230911 L345.236501,219.098716 C345.236501,219.440534 344.926431,219.712856 344.550487,219.712856 C344.163585,219.712856 343.864559,219.438559 343.864559,219.098716 L343.864559,214.230911 Z M341.252294,214.230911 C341.252294,213.889012 341.562364,213.61671 341.938221,213.61671 C342.316888,213.61671 342.624236,213.889012 342.624236,214.230911 L342.624236,219.098716 C342.624236,219.440534 342.314165,219.712856 341.938221,219.712856 C341.562364,219.712856 341.252294,219.438559 341.252294,219.098716 L341.252294,214.230911 Z M338.769032,214.230911 C338.769032,213.889012 339.079015,213.61671 339.454959,213.61671 C339.833627,213.61671 340.140974,213.889012 340.140974,214.230911 L340.140974,219.098716 C340.140974,219.440534 339.830904,219.712856 339.454959,219.712856 C339.070846,219.712856 338.769032,219.438559 338.769032,219.098716 L338.769032,214.230911 Z M346.808766,220.071793 C346.808766,220.951314 346.243499,221.569199 345.730382,221.569199 L338.349194,221.569199 L338.349194,221.561504 C337.836077,221.561504 337.270789,220.946143 337.270789,220.064078 L337.270789,211.464065 L346.808766,211.464065 L346.808766,220.071793 Z M343.806876,209.920492 L340.440086,209.920492 C340.500406,209.08718 341.227613,208.441061 342.127588,208.441061 C343.027584,208.441061 343.754791,209.089724 343.806876,209.920492 Z M345.346291,209.925581 C345.294119,208.294884 343.872728,207 342.124865,207 C340.376935,207 338.958268,208.294803 338.897949,209.920492 L334.823187,209.920492 C334.370411,209.920492 334,210.264081 334,210.689724 C334,211.112782 334.367688,211.458976 334.823187,211.458976 L335.731374,211.458976 L335.731374,220.064078 C335.731374,221.679488 336.903122,223 338.351917,223 L345.733105,223 C347.179264,223 348.353627,221.687202 348.353627,220.064078 L348.353627,211.464065 L349.176813,211.464065 C349.629589,211.464065 350,211.120477 350,210.694813 C350,210.271816 349.632312,209.925581 349.176813,209.925581 L345.346291,209.925581 Z" id="ic_delete"></path>
        </g>
    </g>
</svg>