<?xml version="1.0" encoding="UTF-8"?>
<svg width="16px" height="16px" viewBox="0 0 16 16" version="1.1" xmlns="http://www.w3.org/2000/svg" xmlns:xlink="http://www.w3.org/1999/xlink">
    <!-- Generator: Sketch 52.5 (67469) - http://www.bohemiancoding.com/sketch -->
    <title>ic_edit</title>
    <desc>Created with Sketch.</desc>
    <defs>
        <polygon id="path-1" points="0 8.57831642e-06 15.9859299 8.57831642e-06 15.9859299 15.9888674 0 15.9888674"></polygon>
    </defs>
    <g id="Page-1" stroke="none" stroke-width="1" fill="none" fill-rule="evenodd">
        <g id="行情-自选-已添加" transform="translate(-18.000000, -83.000000)">
            <g id="ic_edit" transform="translate(18.000000, 83.000000)">
                <mask id="mask-2" fill="white">
                    <use xlink:href="#path-1"></use>
                </mask>
                <g id="Clip-2"></g>
                <path d="M14.0367484,12.8485753 C14.0367484,13.6984854 13.3423978,14.3939011 12.4936797,14.3939011 L3.14680729,14.3939011 C2.29811164,14.3939011 1.59458289,13.6984854 1.59458289,12.8485753 L1.59458289,3.48684494 C1.59458289,2.62587865 2.28891108,1.93235056 3.14680729,1.93235056 L9.29543001,1.93235056 L10.8384539,0.326395506 L2.57731501,0.326395506 C1.14813128,0.324552809 -8.97615708e-06,1.6416764 -8.97615708e-06,3.0729573 L-8.97615708e-06,13.4078562 C-8.97615708e-06,14.8391146 1.15919439,15.9888674 2.57731501,15.9888674 L13.0116488,15.9888674 C14.4409223,15.9888674 15.6514693,14.8280584 15.6514693,13.4078562 L15.6514693,5.13509213 L14.0477666,6.68960899 L14.0367484,12.8485753 Z M15.8076769,1.71340674 L14.2553403,0.179159551 C14.0073515,-0.0691325843 13.571963,-0.059941573 13.292782,0.210507865 L12.5468858,0.946305618 L15.0305885,3.4040809 L15.7763725,2.66821573 C16.044625,2.39774382 16.0556656,1.9636764 15.8076769,1.71340674 Z M14.6577189,3.77747416 L12.1739938,1.31981124 L6.72905694,6.74288989 L9.21273717,9.19884494 L14.6577189,3.77747416 Z M6.38737952,7.08322697 L8.86185919,9.54100225 L5.39349453,10.5252045 L6.38737952,7.08322697 Z" id="Fill-1" fill="#231916" mask="url(#mask-2)"></path>
            </g>
        </g>
    </g>
</svg>