<?xml version="1.0" encoding="UTF-8"?>
<svg width="14px" height="16px" viewBox="0 0 14 16" version="1.1" xmlns="http://www.w3.org/2000/svg" xmlns:xlink="http://www.w3.org/1999/xlink">
    <!-- Generator: Sketch 52.5 (67469) - http://www.bohemiancoding.com/sketch -->
    <title>ic_filter</title>
    <desc>Created with Sketch.</desc>
    <defs>
        <rect id="path-1" x="0" y="0" width="16" height="16"></rect>
    </defs>
    <g id="Page-1" stroke="none" stroke-width="1" fill="none" fill-rule="evenodd">
        <g id="订单-有数据(中文）" transform="translate(-342.000000, -83.000000)">
            <g id="ic_filter" transform="translate(341.000000, 83.000000)">
                <mask id="mask-2" fill="white">
                    <use xlink:href="#path-1"></use>
                </mask>
                <g id="矩形"></g>
                <path d="M9.16412332,15.3845433 L9.16412332,6.15341344 C9.16412332,6.00083537 9.21764493,5.85376232 9.31419283,5.7411858 L13.1088431,1.23144233 L2.87921893,1.23144233 L6.68150215,5.74419073 C6.7762781,5.8568634 6.82861842,6.00271044 6.82861842,6.15408655 L6.82861842,11.7075487 L7.75266127,12.4989738 C8.00273167,12.7130687 8.04114638,13.1001511 7.83873656,13.3641999 C7.63641761,13.6281766 7.27053517,13.6688272 7.02107813,13.4552852 L5.88124505,12.4792615 C5.74457867,12.3629108 5.66543212,12.1862693 5.66543212,12.0010938 L5.66543212,6.38789376 L1.14737689,1.02523236 C0.994922083,0.844383945 0.957211612,0.585191128 1.05082899,0.363692091 C1.14444637,0.142721921 1.35262635,0 1.58175154,0 L14.4185323,0 C14.6488161,0 14.856996,0.143370985 14.9500909,0.365567165 C15.0430722,0.587739305 15.004135,0.84738887 14.8499764,1.02778053 L10.3272415,6.38976883 L10.3272415,15.3845433 C10.3272415,15.7249412 10.0673345,16 9.74572784,16 C9.42405297,16 9.16412332,15.7249412 9.16412332,15.3845433 Z" id="Fill-1" fill="#191A2A" mask="url(#mask-2)"></path>
            </g>
        </g>
    </g>
</svg>