<?xml version="1.0" encoding="UTF-8"?>
<svg width="16px" height="16px" viewBox="0 0 16 16" version="1.1" xmlns="http://www.w3.org/2000/svg" xmlns:xlink="http://www.w3.org/1999/xlink">
    <!-- Generator: Sketch 52.5 (67469) - http://www.bohemiancoding.com/sketch -->
    <title>ic_fullscreen</title>
    <desc>Created with Sketch.</desc>
    <g id="Page-1" stroke="none" stroke-width="1" fill="none" fill-rule="evenodd">
        <g id="行情页面-深度" transform="translate(-339.000000, -247.000000)" fill="#000000">
            <path d="M354.999768,262.704876 C355.005869,262.860868 354.888286,262.993173 354.736316,262.998951 L349.284801,262.998951 C349.234884,263.006461 349.188849,262.972952 349.17942,262.920954 C349.173319,262.886867 349.187185,262.851047 349.213807,262.830825 L351.035231,260.956026 L348.597052,258.438769 C348.487789,258.330729 348.483907,258.150471 348.589288,258.036655 L348.597052,258.028566 L350.236001,256.331714 C350.339718,256.217319 350.51221,256.213853 350.621473,256.323625 L350.629793,256.331714 L353.067417,258.848971 L354.836151,257.02617 C354.86721,256.986305 354.924892,256.978216 354.965381,257.011726 C354.988121,257.030214 354.999768,257.059679 354.999768,257.089722 L354.999768,262.704876 Z M339.000189,257.089722 C338.998525,257.059679 339.011837,257.032525 339.035131,257.011726 C339.073401,256.97995 339.131083,256.986305 339.163807,257.02617 L340.933095,258.848971 L343.370719,256.331714 L343.37793,256.323625 C343.487747,256.216164 343.660794,256.21963 343.764511,256.331714 L345.402905,258.028566 L345.41067,258.036655 C345.514387,258.150471 345.510504,258.330729 345.402905,258.438769 L342.965281,260.956026 L344.78615,262.830825 C344.813327,262.85278 344.826638,262.886867 344.820537,262.920954 C344.813327,262.972952 344.765074,263.006461 344.715156,262.998951 L339.263641,262.998951 C339.11389,262.993173 338.994643,262.860868 339.000189,262.704876 L339.000189,257.089722 Z M354.999768,252.910277 C355.001987,252.94032 354.988121,252.968052 354.965381,252.988274 C354.926556,253.02005 354.869429,253.014272 354.836151,252.974408 L353.067417,251.151028 L350.629793,253.668286 L350.621473,253.676374 C350.51221,253.784413 350.339718,253.780369 350.236001,253.668286 L348.597052,251.971433 L348.589288,251.963923 C348.486125,251.849528 348.490008,251.66927 348.597052,251.561231 L351.035231,249.043973 L349.213807,247.169174 C349.187185,247.14722 349.173319,247.113132 349.17942,247.079623 C349.187185,247.027048 349.234884,246.993538 349.284801,247.001049 L354.736316,247.001049 C354.886622,247.007404 355.005869,247.139131 354.999768,247.295701 L354.999768,252.910277 Z M339.000189,247.295701 C338.994643,247.139131 339.111671,247.007404 339.263641,247.001049 L344.715156,247.001049 C344.765074,246.993538 344.811108,247.027048 344.820537,247.079623 C344.826638,247.113132 344.813327,247.149531 344.78615,247.169174 L342.965281,249.043973 L345.402905,251.561231 C345.512168,251.66927 345.516051,251.849528 345.41067,251.963923 L345.402905,251.971433 L343.764511,253.668286 C343.660794,253.78268 343.487747,253.786724 343.37793,253.676374 L343.370719,253.668286 L340.933095,251.151028 L339.163807,252.974408 C339.133302,253.014272 339.07562,253.022361 339.035131,252.988274 C339.011837,252.969786 339.000189,252.94032 339.000189,252.910277 L339.000189,247.295701 Z" id="ic_fullscreen"></path>
        </g>
    </g>
</svg>