<?xml version="1.0" encoding="UTF-8"?>
<svg width="16px" height="16px" viewBox="0 0 16 16" version="1.1" xmlns="http://www.w3.org/2000/svg" xmlns:xlink="http://www.w3.org/1999/xlink">
    <!-- Generator: Sketch 52.5 (67469) - http://www.bohemiancoding.com/sketch -->
    <title>ic_help</title>
    <desc>Created with Sketch.</desc>
    <g id="Page-1" stroke="none" stroke-width="1" fill="none" fill-rule="evenodd">
        <g id="更多" transform="translate(-20.000000, -363.000000)" fill="#007AFF">
            <path d="M34.6440816,373.420195 C34.6440816,373.613804 34.5654866,373.799537 34.4255965,373.936407 C34.2857859,374.073354 34.0960813,374.150296 33.8983126,374.150296 C33.4864086,374.150296 33.1525436,373.823357 33.1525436,373.420195 L33.1525436,370.632655 C33.1525436,370.229396 33.4864086,369.902573 33.8983126,369.902573 C34.2749809,369.902573 34.5862824,370.176002 34.6367524,370.531194 C34.6414598,370.631099 34.6440816,370.731277 34.6440816,370.831728 L34.6440816,373.420195 Z M28.4067894,377.672623 L26.7796317,377.672623 C26.5858951,377.672623 26.4068167,377.571376 26.3099285,377.40707 C26.2130999,377.242881 26.2130999,377.040464 26.3099285,376.876158 C26.4068167,376.711852 26.5858951,376.610683 26.7796317,376.610683 L28.4067894,376.610683 C28.6005261,376.610683 28.7795846,376.711852 28.8764926,376.876158 C28.9734007,377.040464 28.9734007,377.242881 28.8764926,377.40707 C28.7795846,377.571376 28.6005261,377.672623 28.4067894,377.672623 Z M22.1016676,369.902573 C22.5135914,369.902573 22.8474366,370.229396 22.8474366,370.632655 L22.8474366,373.420195 C22.8474366,373.613804 22.7688415,373.799537 22.629031,373.936407 C22.4891409,374.073354 22.2994561,374.150296 22.1016676,374.150296 C21.6898431,374.150296 21.3559184,373.823357 21.3559184,373.420195 L21.3559184,370.831728 C21.3559184,370.731005 21.3585998,370.630924 21.3632277,370.53131 C21.4136382,370.176079 21.7249794,369.902573 22.1016676,369.902573 Z M35.9893538,370.424755 C35.7730536,366.288566 32.2788217,363 27.9999901,363 C23.7211584,363 20.2269464,366.288566 20.0106263,370.424755 C20.0036149,370.493122 20,370.562461 20,370.632655 L20,373.420195 C20,374.556491 20.9409755,375.477673 22.1016676,375.477673 C23.2624589,375.477673 24.203355,374.556491 24.203355,373.420195 L24.203355,370.632655 C24.2032755,369.496378 23.2623795,368.575333 22.1016676,368.575333 C21.9840034,368.575333 21.8686632,368.584958 21.7562625,368.603158 C22.6855789,366.108568 25.1302879,364.327416 27.9999901,364.327416 C29.7620722,364.327416 31.4520742,365.012658 32.698035,366.232507 C33.3895601,366.909428 33.9125538,367.72034 34.2413937,368.602788 C34.129728,368.584841 34.0151624,368.575333 33.8983126,368.575333 C32.7376205,368.575333 31.7967245,369.496378 31.796645,370.632655 L31.796645,373.420195 C31.796645,374.139971 32.1742468,374.773297 32.7460421,375.140992 C32.6475054,375.276636 32.5331781,375.410628 32.4020473,375.539409 C31.8654877,376.06404 31.1462149,376.413555 30.1930638,376.511477 C29.9293921,375.795318 29.2291673,375.283228 28.4067894,375.283228 L26.7796317,375.283228 C26.101454,375.283228 25.4747792,375.637468 25.1356308,376.212479 C24.7965817,376.787452 24.7965817,377.495873 25.1356308,378.070865 C25.4747792,378.645819 26.101454,379 26.7796317,379 L28.4067894,379 C29.2002676,379 29.8799747,378.523299 30.1636279,377.846515 C31.5123363,377.743226 32.5740546,377.247898 33.3606407,376.477838 C33.718261,376.12774 33.9721407,375.775076 34.1416056,375.463867 C35.1876923,375.345781 36,374.475913 36,373.420195 L36,370.632655 C36,370.562461 35.9963652,370.493122 35.9893538,370.424755 Z" id="ic_help"></path>
        </g>
    </g>
</svg>