<?xml version="1.0" encoding="UTF-8"?>
<svg width="16px" height="16px" viewBox="0 0 16 16" version="1.1" xmlns="http://www.w3.org/2000/svg" xmlns:xlink="http://www.w3.org/1999/xlink">
    <!-- Generator: Sketch 52.5 (67469) - http://www.bohemiancoding.com/sketch -->
    <title>ic_Language</title>
    <desc>Created with Sketch.</desc>
    <g id="Page-1" stroke="none" stroke-width="1" fill="none" fill-rule="evenodd">
        <g id="更多" transform="translate(-20.000000, -308.000000)" fill="#007AFF">
            <path d="M30.7202678,315.049082 C30.5842789,315.022393 30.3701869,314.948909 30.2167029,314.895487 C29.5256234,314.658031 28.0902204,314.164128 27.377696,315.746589 C26.621523,317.625172 28.6127085,318.681886 29.6824324,319.249964 C30.6155872,319.74458 30.6611771,320.572251 30.6611771,321.99277 C30.6611771,322.030326 30.6643905,322.067213 30.6704156,322.103119 C29.8409149,322.465919 28.9344491,322.659079 27.9958047,322.659079 C26.603113,322.659079 25.3090098,322.229155 24.2385718,321.495543 C25.2451213,320.700831 25.3305439,320.101556 25.3305439,319.327487 C25.3305439,318.751554 25.0546611,318.109992 24.6115704,317.570611 C26.1237824,316.775453 26.4087922,315.368636 26.4621702,314.888413 C26.5720948,313.887554 26.231788,313.019515 25.615576,312.728725 C24.6799219,312.284943 24.1853278,312.623955 23.6146165,313.016993 C23.4474086,313.132139 23.2463487,313.270739 22.9880502,313.426254 C22.3796262,313.791844 21.9262259,313.592926 21.8070851,313.527007 C22.538265,311.700842 24.055431,310.271264 25.9378522,309.658377 C25.7118215,311.484563 26.3858075,312.830103 27.7850377,313.296112 C28.0342538,313.379347 28.2919275,313.42101 28.5548229,313.42101 C29.0650153,313.42101 29.5946667,313.265517 30.1190739,312.958416 C31.0021757,312.440815 31.792,311.533389 32.246516,310.868642 C32.9069791,311.417194 33.4600614,312.090734 33.8695007,312.852508 C32.8589568,313.159074 31.1944658,313.855286 30.7202678,315.049082 M21.3326192,315.995805 C21.3326192,315.594131 21.3683459,315.20058 21.4368982,314.818165 C22.0252608,315.038527 22.849205,315.064324 23.675113,314.568167 C23.9614616,314.395738 24.1846137,314.242232 24.3701199,314.114633 C24.8009149,313.817997 24.8009149,313.817283 25.0045411,313.906455 C25.0949847,313.99817 25.2452999,314.489439 25.0644128,315.103018 C24.8991464,315.665964 24.4384491,316.396006 23.1851381,316.678427 C22.919364,316.738232 22.7167866,316.953975 22.6737183,317.223029 C22.6307615,317.492418 22.755749,317.760536 22.989947,317.900452 C23.5840223,318.255755 23.9979024,318.937662 23.9979024,319.327397 C23.9979024,319.82304 23.9972106,320.05195 23.1965635,320.613021 C22.0430683,319.414494 21.3326192,317.7866 21.3326192,315.995805 M31.1381646,310.121685 C30.6032915,310.87971 29.3130042,312.400536 28.2066611,312.032424 C27.0822873,311.657596 27.1623096,310.285902 27.3106611,309.501835 C27.3186946,309.458767 27.322622,309.413088 27.3227782,309.366449 C27.5463766,309.343955 27.7710907,309.332642 27.9958047,309.332642 C29.1314477,309.332642 30.2014393,309.618544 31.1381646,310.121685 M27.9958047,308 C23.5866555,308 20,311.586633 20,315.995805 C20,320.404976 23.5866555,323.991721 27.9958047,323.991721 C30.4957992,323.991721 32.8058689,322.854248 34.3336792,320.871565 C34.5582148,320.580017 34.5041674,320.161607 34.2125969,319.937116 C33.9204909,319.711375 33.5020809,319.76665 33.2782371,320.05822 C32.900887,320.547771 32.4659861,320.974884 31.9871018,321.334471 C31.9517992,320.134762 31.7276876,318.82593 30.3071688,318.072837 C28.6328368,317.183978 28.418834,316.729863 28.6035593,316.269166 C28.7649874,315.912569 28.8450098,315.833149 29.7819805,316.155247 C30.2798103,316.327052 30.8439609,316.521618 31.3547782,316.270483 C31.5506388,316.174148 31.8154533,315.969138 31.9592748,315.54236 C32.1704881,314.913696 33.5859414,314.310137 34.3774393,314.078795 C34.5603124,314.686192 34.6589902,315.329674 34.6589902,315.995805 C34.6589902,316.364184 34.957099,316.662137 35.3252999,316.662137 C35.69359,316.662137 35.9917211,316.364095 35.9917211,315.995805 C35.9917211,311.586633 32.4049763,308 27.9958047,308" id="ic_Language"></path>
        </g>
    </g>
</svg>