<?xml version="1.0" encoding="UTF-8"?>
<svg width="18px" height="18px" viewBox="0 0 18 18" version="1.1" xmlns="http://www.w3.org/2000/svg" xmlns:xlink="http://www.w3.org/1999/xlink">
    <!-- Generator: Sketch 52.5 (67469) - http://www.bohemiancoding.com/sketch -->
    <title>ic_nav_order_normal</title>
    <desc>Created with Sketch.</desc>
    <defs>
        <rect id="path-1" x="0" y="0" width="24" height="24"></rect>
    </defs>
    <g id="Page-1" stroke="none" stroke-width="1" fill="none" fill-rule="evenodd">
        <g id="ic_切图" transform="translate(-179.000000, -34.000000)">
            <g id="ic_nav_order_normal" transform="translate(176.000000, 31.000000)">
                <mask id="mask-2" fill="white">
                    <use xlink:href="#path-1"></use>
                </mask>
                <g id="Color/A"></g>
                <path d="M11.9996912,3 C7.02973216,3 3,7.02977548 3,12.0001029 C3,16.9701834 7.02973216,21 11.9996912,21 C16.9703708,21 21,16.9701833 21,12.0001029 C21,7.02977548 16.9703708,3 11.9996912,3 Z M11.9996912,19.4922845 C7.86209995,19.4922845 4.50788703,16.1378194 4.50788703,12.0001029 C4.50788703,7.86203655 7.86209995,4.50777721 11.9996912,4.50777721 C16.1379,4.50777721 19.4921541,7.86203655 19.4921541,12.0001029 C19.4921541,16.1378194 16.1379412,19.4922845 11.9996912,19.4922845 Z M12.7799203,11.0504735 C11.6129628,10.5945032 11.1380121,10.2711332 11.1380121,9.80026027 C11.1380121,9.38893603 11.423283,8.96254451 12.3050313,8.96254451 C13.2816504,8.96254451 13.9195219,9.30083775 14.25864,9.47734305 L14.6659111,7.81553794 C14.1909605,7.58065725 13.5803626,7.36004106 12.6847201,7.33062695 L12.6847201,6.03689973 L11.3548213,6.03689973 L11.3548213,7.43375133 C9.902881,7.72750144 9.06230027,8.74188717 9.06230027,10.0504347 C9.06230027,11.4769062 10.0524635,12.2118064 11.5043832,12.7410547 C12.5219434,13.1086591 12.9562617,13.4617109 12.9562617,14.0201263 C12.9562617,14.5938148 12.4270521,14.9314905 11.639804,14.9314905 C10.7581586,14.9314905 9.95763394,14.6227143 9.38748319,14.2847299 L8.98052083,16.0049515 C9.49608332,16.3135631 10.3781404,16.5929869 11.2873064,16.6369537 L11.2873064,18.0337024 L12.6308318,18.0337024 L12.6308318,16.5192355 C14.1909605,16.240141 15.0322411,15.1229602 15.0322411,13.8144127 C15.0322205,12.4764923 14.3943696,11.6678819 12.7799203,11.0504735 Z" id="Shape" fill="#B3BFD0" fill-rule="nonzero" mask="url(#mask-2)"></path>
            </g>
        </g>
    </g>
</svg>