<?xml version="1.0" encoding="UTF-8"?>
<svg width="21px" height="17px" viewBox="0 0 21 17" version="1.1" xmlns="http://www.w3.org/2000/svg" xmlns:xlink="http://www.w3.org/1999/xlink">
    <!-- Generator: Sketch 52.5 (67469) - http://www.bohemiancoding.com/sketch -->
    <title>ic_nav_home_normal</title>
    <desc>Created with Sketch.</desc>
    <defs>
        <rect id="path-1" x="0" y="0" width="24" height="24"></rect>
    </defs>
    <g id="Page-1" stroke="none" stroke-width="1" fill="none" fill-rule="evenodd">
        <g id="ic_切图" transform="translate(-28.000000, -35.000000)">
            <g id="ic_nav_home_normal" transform="translate(26.000000, 31.000000)">
                <g id="Ico/o/dollar">
                    <mask id="mask-2" fill="white">
                        <use xlink:href="#path-1"></use>
                    </mask>
                    <g id="Color/A"></g>
                    <path d="M21.8699139,12.3873858 C21.2297497,11.7551226 14.3041044,5.17001803 13.6860262,4.58075993 C12.8559312,3.78945353 11.531738,3.76908699 10.5078028,4.7534354 C10.0849976,5.15980406 2.84834818,11.819661 2.33752683,12.2985099 C1.91640011,12.6941324 1.84224136,13.4826346 2.38702058,13.9654545 C2.87153942,14.3945027 3.64587712,14.3253997 4.05570502,14.0068016 C4.46606512,13.689227 10.1149845,8.44331932 10.9283769,7.71710395 C11.7358127,6.99655847 12.561077,6.95185443 13.4186002,7.71710395 C13.9625402,8.20276905 19.8596858,13.7520869 20.2760228,14.105257 C20.6920527,14.4584475 21.4754582,14.5065698 21.9766591,14.0662433 C22.4384575,13.6597927 22.4299425,12.9397999 21.8699139,12.3873858 Z M10.9159113,9.50800808 C10.4704471,9.92061974 4.56030384,15.2491603 4.56030384,15.2491603 C4.56030384,15.2491603 4.56116353,18.8824887 4.56370167,19.2113417 C4.56908498,19.864565 5.0567151,20.2177351 5.82966091,20.2143372 L9.5512716,20.2143372 C9.5512716,20.2143372 9.5619973,17.4136419 9.56283652,17.1306596 C9.56396231,16.7774487 9.70546367,16.4615934 10.1679171,16.4587892 C10.7152549,16.4553709 13.7021761,16.4694944 14.0349796,16.4666901 C14.4849879,16.4627601 14.653938,16.7072609 14.653938,17.1312328 L14.653938,20.2143372 L18.4825396,20.2143372 C19.2316596,20.2064158 19.7195558,19.6647478 19.7209682,19.086809 L19.7209682,15.2842644 C19.7209682,15.2842644 13.7443215,9.81084514 13.4169013,9.50571556 C12.6567281,8.79763562 11.5934517,8.88086208 10.9159113,9.50800808 Z" id="Shape" fill="#B3BFD0" fill-rule="nonzero" mask="url(#mask-2)"></path>
                </g>
            </g>
        </g>
    </g>
</svg>