<?xml version="1.0" encoding="UTF-8"?>
<svg width="17px" height="17px" viewBox="0 0 17 17" version="1.1" xmlns="http://www.w3.org/2000/svg" xmlns:xlink="http://www.w3.org/1999/xlink">
    <!-- Generator: Sketch 52.5 (67469) - http://www.bohemiancoding.com/sketch -->
    <title>ic_nav_more_normal</title>
    <desc>Created with Sketch.</desc>
    <defs>
        <rect id="path-1" x="0" y="0" width="24" height="24"></rect>
    </defs>
    <g id="Page-1" stroke="none" stroke-width="1" fill="none" fill-rule="evenodd">
        <g id="ic_切图" transform="translate(-329.000000, -35.000000)">
            <g id="ic_nav_more_normal" transform="translate(325.000000, 31.000000)">
                <mask id="mask-2" fill="white">
                    <use xlink:href="#path-1"></use>
                </mask>
                <g id="Color/A"></g>
                <path d="M21,20.4159967 L21,13.6845931 C21,13.3619982 20.738968,13.1005898 20.4169188,13.1005898 L13.6958291,13.1005898 C13.3737296,13.1005898 13.1126976,13.3619982 13.1126976,13.6845931 L13.1126976,20.4159967 C13.1126976,20.738491 13.3737296,21 13.6958291,21 L20.4169188,21 C20.738968,21 21,20.7385665 21,20.4159967 M11.9112519,20.4159967 L11.9112519,13.6845931 C11.9112519,13.3619982 11.6501194,13.1005898 11.3280451,13.1005898 L4.6070558,13.1005898 C4.28498148,13.1005898 4.02384898,13.3619982 4.02384898,13.6845931 L4.02384898,20.4159967 C4.02384898,20.7385665 4.28498148,21 4.6070558,21 L11.3280451,21 C11.6501194,21 11.9112519,20.7385665 11.9112519,20.4159967 M21,8.045361 L21,7.90192116 C21,5.7601647 19.2664883,4.02388567 17.1279209,4.02388567 L16.9848019,4.02388567 C14.8462345,4.02388567 13.1126976,5.7601647 13.1126976,7.90192116 L13.1126976,8.045361 C13.1126976,10.1871175 14.8462345,11.9234217 16.9848019,11.9234217 L17.1279209,11.9234217 C19.2664883,11.9234217 21,10.1871175 21,8.045361 M11.351894,11.9473073 L4.58320682,11.9473073 C4.26113251,11.9473073 4,11.6857731 4,11.3632034 L4,4.58410396 C4,4.2615342 4.26113251,4 4.58320682,4 L11.351894,4 C11.6739684,4 11.9351009,4.2615342 11.9351009,4.58410396 L11.9351009,11.3632034 C11.9351009,11.6857731 11.6739684,11.9473073 11.351894,11.9473073" id="Fill-1" fill="#B3BFD0" mask="url(#mask-2)"></path>
            </g>
        </g>
    </g>
</svg>