<?xml version="1.0" encoding="UTF-8"?>
<svg width="20px" height="16px" viewBox="0 0 20 16" version="1.1" xmlns="http://www.w3.org/2000/svg" xmlns:xlink="http://www.w3.org/1999/xlink">
    <!-- Generator: Sketch 52.5 (67469) - http://www.bohemiancoding.com/sketch -->
    <title>ic_nav_assets_normal</title>
    <desc>Created with Sketch.</desc>
    <defs>
        <rect id="path-1" x="0" y="0" width="24" height="24"></rect>
    </defs>
    <g id="Page-1" stroke="none" stroke-width="1" fill="none" fill-rule="evenodd">
        <g id="ic_切图" transform="translate(-252.000000, -35.000000)">
            <g id="ic_nav_assets_normal" transform="translate(250.000000, 31.000000)">
                <g id="分组-2">
                    <mask id="mask-2" fill="white">
                        <use xlink:href="#path-1"></use>
                    </mask>
                    <g id="Color/A"></g>
                    <path d="M21.2227599,10.1371931 L2.76923077,10.1371931 L2.76923077,17.8678891 C2.76923077,18.6209981 3.37430149,19.1731687 4.08025149,19.1731687 L19.8612995,19.1731687 C20.6176892,19.1731687 21.2227599,18.6193578 21.2227599,17.9164834 L21.2227599,10.1371931 Z M8.60177621,16.6631812 L5.05685326,16.6631812 L5.05685326,15.1573732 L8.60167369,15.1573732 L8.60167369,16.6631812 L8.60177621,16.6631812 Z M2.76923077,8.58104802 L21.2227599,8.58104802 L21.2227599,5.9204592 C21.2227599,5.16745269 20.6176892,4.61538462 19.9117392,4.61538462 L4.13069114,4.61538462 C3.37430149,4.61538462 2.76923077,5.2176873 2.76923077,5.9204592 L2.76923077,8.58104802 Z" id="Shape" fill="#B3BFD0" fill-rule="nonzero" mask="url(#mask-2)"></path>
                </g>
            </g>
        </g>
    </g>
</svg>