<?xml version="1.0" encoding="UTF-8"?>
<svg width="12px" height="12px" viewBox="0 0 12 12" version="1.1" xmlns="http://www.w3.org/2000/svg" xmlns:xlink="http://www.w3.org/1999/xlink">
    <!-- Generator: Sketch 52.5 (67469) - http://www.bohemiancoding.com/sketch -->
    <title>ic_prompt</title>
    <desc>Created with Sketch.</desc>
    <g id="Page-1" stroke="none" stroke-width="1" fill="none" fill-rule="evenodd">
        <g id="买入-当前委托-无数据" transform="translate(-315.000000, -521.000000)" fill="#F5971D">
            <path d="M320.400049,530.000017 L321.599951,530.000017 L321.599951,526.39943 L320.400049,526.39943 L320.400049,530.000017 Z M321.000654,521 C317.687942,521 315,523.687634 315,526.999966 C315,530.312366 317.687942,533 321.000654,533 C324.313432,533 327,530.312366 327,526.999966 C327,523.687634 324.312058,521 321.000654,521 Z M321.000654,531.798928 C318.354271,531.798928 316.20121,529.644806 316.20121,526.999966 C316.20121,524.355194 318.355579,522.201072 321.000654,522.201072 C323.645796,522.201072 325.800164,524.355194 325.800164,526.999966 C325.800164,529.644806 323.647103,531.798928 321.000654,531.798928 Z M320.400049,525.199749 L321.599951,525.199749 L321.599951,523.999983 L320.400049,523.999983 L320.400049,525.199749 Z" id="ic_prompt" transform="translate(321.000000, 527.000000) rotate(-180.000000) translate(-321.000000, -527.000000) "></path>
        </g>
    </g>
</svg>