<?xml version="1.0" encoding="UTF-8"?>
<svg width="15px" height="16px" viewBox="0 0 15 16" version="1.1" xmlns="http://www.w3.org/2000/svg" xmlns:xlink="http://www.w3.org/1999/xlink">
    <!-- Generator: Sketch 52.5 (67469) - http://www.bohemiancoding.com/sketch -->
    <title>ic_submit</title>
    <desc>Created with Sketch.</desc>
    <defs>
        <rect id="path-1" x="0" y="0" width="16" height="16"></rect>
    </defs>
    <g id="Page-1" stroke="none" stroke-width="1" fill="none" fill-rule="evenodd">
        <g id="更多" transform="translate(-21.000000, -418.000000)">
            <g id="ic_submit" transform="translate(20.000000, 418.000000)">
                <mask id="mask-2" fill="white">
                    <use xlink:href="#path-1"></use>
                </mask>
                <g id="矩形-copy-7"></g>
                <path d="M15.1998651,0.774453782 L15.1998651,13.5803429 L13.5840299,13.5803429 L13.5840299,1.54893445 L6.56114147,1.54893445 L6.56114147,-1.42996726e-13 L14.3919475,-1.42996726e-13 C14.8381382,-1.42996726e-13 15.1998651,0.346729412 15.1998651,0.774453782 Z M9.96777045,14.4506353 L2.61583531,14.4506353 L2.61583531,8.56809412 L5.50690172,8.56809412 C5.95309238,8.56809412 6.31481932,8.22131092 6.31481932,7.79358655 L6.31481932,4.88642689 L9.96777045,4.88642689 L9.96777045,14.4506353 Z M4.69920853,5.0158521 L4.69920853,7.01910588 L2.7143249,7.01910588 L4.69920853,5.0158521 Z M10.775688,3.33749244 L4.48037706,3.33749244 C4.25893678,3.3376 4.04711824,3.42477983 3.89460104,3.57867563 L1.22211364,6.27603361 C1.07944259,6.41984538 0.999887912,6.61079664 1.00000012,6.80933109 L1.00000012,15.2250891 C1.00000012,15.6528403 1.36172705,15.9994622 1.80791772,15.9994622 L10.775688,15.9994622 C11.2217946,15.9994622 11.5834934,15.6528403 11.5834934,15.2250891 L11.5834934,4.11197311 C11.5834934,3.68422185 11.2217946,3.33749244 10.775688,3.33749244 Z" id="Fill-1" fill="#007AFF" mask="url(#mask-2)"></path>
            </g>
        </g>
    </g>
</svg>