<?xml version="1.0" encoding="UTF-8"?>
<svg width="119px" height="34px" viewBox="0 0 119 34" version="1.1" xmlns="http://www.w3.org/2000/svg" xmlns:xlink="http://www.w3.org/1999/xlink">
    <!-- Generator: Sketch 52.5 (67469) - http://www.bohemiancoding.com/sketch -->
    <title>logo_eosmex</title>
    <desc>Created with Sketch.</desc>
    <defs>
        <polygon id="path-1" points="0.163245638 0.281093023 7.44301074 0.281093023 7.44301074 17.191586 0.163245638 17.191586"></polygon>
        <polygon id="path-3" points="0.0870137584 0.281093023 7.36677886 0.281093023 7.36677886 17.191586 0.0870137584 17.191586"></polygon>
        <polygon id="path-5" points="0.389425503 0.355537209 10.7307651 0.355537209 10.7307651 11.5012116 0.389425503 11.5012116"></polygon>
    </defs>
    <g id="Page-1" stroke="none" stroke-width="1" fill="none" fill-rule="evenodd">
        <g id="首页-24小时成交榜" transform="translate(-128.000000, -115.000000)">
            <g id="logo_eosmex" transform="translate(128.000000, 115.000000)">
                <polygon id="Fill-1" fill="#007AFF" points="0 27.0007837 11.0370503 33.7189465 3.75728523 10.6637837"></polygon>
                <g id="分组" transform="translate(3.593960, 0.114256)">
                    <mask id="mask-2" fill="white">
                        <use xlink:href="#path-1"></use>
                    </mask>
                    <g id="Clip-3"></g>
                    <polygon id="Fill-2" fill="#0056C5" mask="url(#mask-2)" points="0.163245638 10.5497256 2.26092013 17.191586 7.44301074 8.18079535 7.44301074 0.280934884"></polygon>
                </g>
                <polygon id="Fill-4" fill="#007AFF" points="11.2681419 33.718907 22.3051923 27.0007442 18.547907 10.6637442"></polygon>
                <g id="分组" transform="translate(11.181208, 0.114256)">
                    <mask id="mask-4" fill="white">
                        <use xlink:href="#path-3"></use>
                    </mask>
                    <g id="Clip-6"></g>
                    <polygon id="Fill-5" fill="#0056C5" mask="url(#mask-4)" points="7.36677886 10.5497256 5.26910436 17.191586 0.0870137584 8.18079535 0.0870137584 0.280934884"></polygon>
                </g>
                <polygon id="Fill-7" fill="#FFFFFF" points="39.8406809 12.1426651 33.0013755 12.1426651 33.0013755 17.145014 39.5823151 17.145014 39.5823151 18.9138047 33.0013755 18.9138047 33.0013755 24.4747814 40.0990466 24.4747814 40.0990466 26.2431767 31.050654 26.2431767 31.050654 10.3738744 39.8406809 10.3738744"></polygon>
                <g id="分组" transform="translate(42.328859, 9.602628)">
                    <path d="M2.18876141,8.70617442 C2.18876141,9.66805814 2.3532849,10.5595698 2.68233188,11.3822907 C3.01137886,12.2046163 3.46541577,12.9142674 4.04524128,13.5108488 C4.62506678,14.1082209 5.3103151,14.5778953 6.1017849,14.918686 C6.89285537,15.2598721 7.74302651,15.4306628 8.65229832,15.4306628 C9.56037215,15.4306628 10.4105433,15.2598721 11.2020131,14.918686 C11.9930836,14.5778953 12.6823252,14.1082209 13.2701372,13.5108488 C13.8579493,12.9142674 14.3159795,12.2046163 14.6450265,11.3822907 C14.9744728,10.5595698 15.138597,9.66805814 15.138597,8.70617442 C15.138597,7.7597093 14.9816607,6.8757093 14.6685869,6.05338372 C14.3551138,5.23145349 13.9122581,4.51784884 13.3408185,3.91296512 C12.7685802,3.3080814 12.0833319,2.83484884 11.2842748,2.49326744 C10.4848185,2.15247674 9.60749295,1.9812907 8.65229832,1.9812907 C7.74302651,1.9812907 6.89285537,2.14852326 6.1017849,2.48180233 C5.3103151,2.81587209 4.62506678,3.28080233 4.04524128,3.87777907 C3.46541577,4.47515116 3.01137886,5.18519767 2.68233188,6.00712791 C2.3532849,6.82945349 2.18876141,7.72887209 2.18876141,8.70617442 M0.167358725,8.70617442 C0.167358725,7.57389535 0.37900302,6.49538372 0.801892282,5.47182558 C1.22518087,4.44787209 1.81299295,3.55201163 2.56452987,2.78424419 C3.31686544,2.01647674 4.21335872,1.40368605 5.25600638,0.945872093 C6.29745604,0.488848837 7.43753993,0.25994186 8.6754594,0.25994186 C9.99164732,0.25994186 11.1744594,0.492406977 12.224295,0.957732558 C13.2741305,1.42305814 14.1630366,2.04336047 14.8922111,2.81903488 C15.6205869,3.59510465 16.180446,4.49096512 16.5725869,5.50661628 C16.9639292,6.52305814 17.1596003,7.58931395 17.1596003,8.70617442 C17.1596003,9.8692907 16.9443621,10.9632209 16.5134862,11.9867791 C16.0826104,13.0107326 15.4872111,13.906593 14.7272883,14.6743605 C13.9669661,15.4421279 13.0704728,16.0470116 12.0362111,16.489407 C11.0019493,16.931407 9.88183188,17.152407 8.6754594,17.152407 C7.21830839,17.152407 5.95283523,16.8966163 4.87983859,16.3846395 C3.80644262,15.8726628 2.92113054,15.2136163 2.22390235,14.4067093 C1.52667416,13.600593 1.00954329,12.6928721 0.67290906,11.6843372 C0.335476174,10.6761977 0.167358725,9.68347674 0.167358725,8.70617442" id="Fill-8" fill="#FFFFFF"></path>
                    <path d="M26.7954456,4.02915814 C26.6700564,3.42427442 26.3845362,2.92376279 25.9376872,2.52841395 C25.4912376,2.13266977 24.8922443,1.93499535 24.1399087,1.93499535 C23.3093047,1.93499535 22.6595966,2.15994884 22.1891872,2.60985581 C21.7187779,3.05976279 21.4839725,3.63341395 21.4839725,4.3316 C21.4839725,5.07604186 21.7547174,5.66194884 22.2950094,6.08853023 C22.8357007,6.51511163 23.575657,6.86815814 24.5156772,7.14727442 C25.4241503,7.41097209 26.1848718,7.71697209 26.7954456,8.06606512 C27.4068181,8.41515814 27.895996,8.80734419 28.2649758,9.24143721 C28.633157,9.67553023 28.8951168,10.1527163 29.0516537,10.6722047 C29.2085899,11.1920884 29.2872577,11.7542744 29.2872577,12.3591581 C29.2872577,12.9490186 29.1814356,13.5262279 28.9697913,14.0927628 C28.7585463,14.6592977 28.4410799,15.1712744 28.0177913,15.6282977 C27.594902,16.0861116 27.0697846,16.4545767 26.4428383,16.733693 C25.8166906,17.0128093 25.0875161,17.1523674 24.2577107,17.1523674 C22.9099758,17.1523674 21.7547174,16.8036698 20.7907376,16.1054837 C19.8275564,15.4072977 19.1730564,14.3137628 18.8284356,12.8244837 L20.9668416,12.8244837 C21.1860732,13.6313907 21.5698282,14.2750186 22.1189054,14.7557628 C22.6671839,15.2369023 23.3879725,15.4772744 24.2808718,15.4772744 C24.7824289,15.4772744 25.2244859,15.3879256 25.6090396,15.2096233 C25.9927946,15.0313209 26.3094624,14.7984605 26.5606403,14.5118326 C26.8110195,14.2248093 26.9991034,13.9029953 27.1244926,13.5456 C27.2502812,13.1893907 27.3125765,12.832786 27.3125765,12.4753907 C27.3125765,11.5759721 27.0310497,10.8548558 26.4663987,10.3116465 C25.9025463,9.76883256 25.0403953,9.31892558 23.881543,8.96232093 C22.4084188,8.51241395 21.3118617,7.92294884 20.5910732,7.19353023 C19.8702846,6.46450698 19.5100899,5.51053023 19.5100899,4.3316 C19.5100899,3.77336744 19.6231,3.24636744 19.8507174,2.74941395 C20.0779356,2.25325116 20.395402,1.81876279 20.8023181,1.44634419 C21.2096336,1.07392558 21.6956168,0.783344186 22.2602678,0.573809302 C22.8241201,0.364274419 23.4502678,0.259902326 24.1399087,0.259902326 C24.7980027,0.259902326 25.4009893,0.356762791 25.9500664,0.550483721 C26.498345,0.7446 26.975543,1.01225116 27.383657,1.35304186 C27.7905732,1.69462326 28.1236134,2.09392558 28.3819792,2.55173953 C28.6407443,3.00955349 28.8092611,3.50215814 28.8871302,4.02915814 L26.7954456,4.02915814 Z" id="Fill-10" fill="#FFFFFF"></path>
                    <path d="M33.4233463,5.49511163 L35.2802255,5.49511163 L35.2802255,6.89108837 L35.3273463,6.89108837 C35.7031148,6.39453023 36.1735242,5.97625116 36.7373765,5.63466977 C37.3016282,5.29348372 37.9513362,5.12308837 38.688098,5.12308837 C39.5813966,5.12308837 40.356494,5.34369302 41.0149872,5.78569302 C41.6726819,6.22808837 42.1191315,6.77485581 42.3543362,7.4263907 C42.4956987,7.14727442 42.6833832,6.87171628 42.9185879,6.60050698 C43.1533933,6.32890233 43.4353195,6.08062326 43.7643664,5.85566977 C44.0938128,5.63111163 44.4655879,5.4528093 44.8808899,5.32076279 C45.2957926,5.18911163 45.7462356,5.12308837 46.2322188,5.12308837 C47.5016852,5.12308837 48.535947,5.54966977 49.335004,6.40243721 C50.1340611,7.2556 50.5333899,8.50450698 50.5333899,10.1487628 L50.5333899,16.6403907 L48.6765107,16.6403907 L48.6765107,10.0092047 C48.6765107,9.57471628 48.6253966,9.16355349 48.5235678,8.77611163 C48.4221383,8.38827442 48.2612087,8.04669302 48.0419772,7.75215814 C47.8227456,7.45762326 47.5408195,7.2208093 47.1957993,7.04250698 C46.8511785,6.86420465 46.4438631,6.77485581 45.973853,6.77485581 C45.5821114,6.77485581 45.2019503,6.84443721 44.8337691,6.9843907 C44.4655879,7.12394884 44.1405342,7.34494884 43.8586081,7.6473907 C43.5766819,7.94983256 43.3490644,8.33371628 43.177353,8.79904186 C43.0044436,9.26436744 42.9185879,9.81548372 42.9185879,10.4512047 L42.9185879,16.6403907 L41.0381483,16.6403907 L41.0381483,10.0092047 C41.0381483,9.54348372 40.9754537,9.11729767 40.8504638,8.72946047 C40.7246752,8.34162326 40.5485711,8.00043721 40.321353,7.70550698 C40.0941349,7.41097209 39.816202,7.18206512 39.4875544,7.01878605 C39.1581081,6.85590233 38.7819403,6.77485581 38.359051,6.77485581 C37.4190309,6.77485581 36.6706886,7.09706512 36.1144235,7.74069302 C35.5581584,8.38432093 35.2802255,9.28769302 35.2802255,10.4512047 L35.2802255,16.6403907 L33.4233463,16.6403907 L33.4233463,5.49511163 Z" id="Fill-12" fill="#FFFFFF"></path>
                    <path d="M58.4531594,6.72828372 C57.9204547,6.72828372 57.4384648,6.8211907 57.0079883,7.0074 C56.5767131,7.1936093 56.2045386,7.44228372 55.8914648,7.75223721 C55.5779916,8.06258605 55.3312064,8.4191907 55.1511091,8.82244651 C54.9706124,9.22570233 54.857203,9.63646977 54.8104815,10.0555395 L62.0726762,10.0555395 C62.0255554,9.62144651 61.9081527,9.20277209 61.7204681,8.79912093 C61.5319849,8.39586512 61.2812064,8.0428186 60.9681326,7.74077209 C60.6546594,7.43793488 60.2864782,7.1936093 59.8631896,7.0074 C59.4406997,6.8211907 58.9702903,6.72828372 58.4531594,6.72828372 M58.4531594,5.12277209 C59.4718473,5.12277209 60.337193,5.31293488 61.0503943,5.69286512 C61.7631963,6.0731907 62.3386292,6.54602791 62.7778909,7.11216744 C63.216354,7.67870233 63.5338205,8.30256279 63.7294916,8.98533023 C63.9251628,9.66809767 64.0233977,10.3113302 64.0233977,10.9166093 C64.0233977,11.0253302 64.019005,11.1494698 64.0118171,11.2886326 C64.0034312,11.428586 63.9918507,11.5297953 63.9762768,11.5914698 L54.7869211,11.5914698 C54.7869211,12.1034465 54.8963372,12.5881442 55.1159681,13.0455628 C55.3351997,13.5033767 55.6291057,13.9066326 55.9972869,14.2557256 C56.3650688,14.6048186 56.7883574,14.8839349 57.266354,15.0930744 C57.7443507,15.3026093 58.2495017,15.4073767 58.7822064,15.4073767 C59.4558742,15.4073767 60.0161326,15.2907488 60.4625822,15.0582837 C60.9090319,14.8254233 61.312354,14.4925395 61.672948,14.0576558 L63.8117534,14.0576558 C63.6236695,14.4146558 63.3848708,14.767307 63.0949581,15.1164 C62.804646,15.465493 62.4524379,15.7833535 62.0375352,16.0703767 C61.6222332,16.3574 61.1478305,16.5902605 60.6155252,16.7685628 C60.0828205,16.9468651 59.4874211,17.036214 58.8293272,17.036214 C57.9360285,17.036214 57.1213977,16.8808419 56.3850352,16.5708884 C55.6486728,16.2605395 55.0217265,15.8300047 54.5045956,15.2792837 C53.9874648,14.7289581 53.5845419,14.0813767 53.2946292,13.3365395 C53.0043171,12.5917023 52.8597601,11.785586 52.8597601,10.9166093 C52.8597601,10.1567488 52.9927366,9.42377209 53.2590889,8.71767907 C53.5254413,8.0119814 53.9016091,7.39523721 54.387193,6.86823721 C54.8727768,6.34084186 55.4605889,5.9178186 56.1498305,5.59995814 C56.8394715,5.28209767 57.6073809,5.12277209 58.4531594,5.12277209" id="Fill-14" fill="#FFFFFF"></path>
                    <g transform="translate(65.489933, 5.139535)">
                        <mask id="mask-6" fill="white">
                            <use xlink:href="#path-5"></use>
                        </mask>
                        <g id="Clip-17"></g>
                        <path d="M4.54963356,5.77695581 L0.647791275,0.355537209 L2.81055638,0.355537209 L4.8076,3.14788605 C4.98011007,3.41197907 5.12147248,3.63258372 5.23088859,3.81088605 C5.3403047,3.98958372 5.45012013,4.15602558 5.55993557,4.31100233 L5.60705638,4.31100233 C5.73244564,4.12479302 5.86142886,3.94253721 5.9948047,3.76423488 C6.12778121,3.58632791 6.25676443,3.40367674 6.38255302,3.21746744 L8.33367383,0.355537209 L10.4720799,0.355537209 L6.54707651,5.7307 L10.730845,11.5012116 L8.54491879,11.5012116 L6.35899262,8.40602558 C6.21842886,8.20518837 6.0806604,8.01067674 5.94768389,7.82486279 C5.81470738,7.63865349 5.67733826,7.44493256 5.5367745,7.2429093 L5.46609329,7.2429093 L4.61991544,8.42974651 L2.50467047,11.5012116 L0.389425503,11.5012116 L4.54963356,5.77695581 Z" id="Fill-16" fill="#FFFFFF" mask="url(#mask-6)"></path>
                    </g>
                </g>
            </g>
        </g>
    </g>
</svg>