<?xml version="1.0" encoding="UTF-8"?>
<svg width="71px" height="21px" viewBox="0 0 71 21" version="1.1" xmlns="http://www.w3.org/2000/svg" xmlns:xlink="http://www.w3.org/1999/xlink">
    <!-- Generator: Sketch 52.5 (67469) - http://www.bohemiancoding.com/sketch -->
    <title>logo_eosmex_b</title>
    <desc>Created with Sketch.</desc>
    <defs>
        <polygon id="path-1" points="0.181229293 0.161675294 52.5619933 0.161675294 52.5619933 10.7182518 0.181229293 10.7182518"></polygon>
        <polygon id="path-3" points="0 0.169062353 6.60725522 0.169062353 6.60725522 14.5764706 0 14.5764706"></polygon>
        <polygon id="path-5" points="0.0520905724 0.169062353 6.6593936 0.169062353 6.6593936 14.5764706 0.0520905724 14.5764706"></polygon>
    </defs>
    <g id="Page-1" stroke="none" stroke-width="1" fill="none" fill-rule="evenodd" opacity="0.534714472">
        <g id="行情页面-深度" transform="translate(-2.000000, -508.000000)">
            <g id="logo_eosmex_b" transform="translate(2.000000, 508.000000)">
                <g id="分组" transform="translate(18.407407, 5.753753)">
                    <mask id="mask-2" fill="white">
                        <use xlink:href="#path-1"></use>
                    </mask>
                    <g id="Clip-2"></g>
                    <path d="M50.0574145,6.79224 L52.4073471,3.43347529 L51.1271956,3.43347529 L49.9589229,5.22193412 C49.8836199,5.33829882 49.8066434,5.45219294 49.7267983,5.56361647 C49.6469532,5.67528706 49.5699768,5.78893412 49.4946737,5.90529882 L49.466704,5.90529882 C49.4009633,5.80845176 49.3352226,5.70419294 49.2697209,5.59276941 C49.2039801,5.48134588 49.1193539,5.34324 49.0163202,5.17820471 L47.8205559,3.43347529 L46.5263,3.43347529 L48.8616502,6.82139294 L46.3711519,10.3983106 L47.637438,10.3983106 L48.9037242,8.47891059 L49.4102865,7.73748706 L49.4528387,7.73748706 C49.5367478,7.86348706 49.6189835,7.98454588 49.6988286,8.10091059 C49.7781956,8.21727529 49.8609094,8.33858118 49.9448185,8.46458118 L51.2536569,10.3983106 L52.5620172,10.3983106 L50.0574145,6.79224 Z M44.0926973,6.28329882 C44.0642495,6.01202824 43.9942057,5.75039294 43.8816098,5.49814588 C43.7685357,5.24614588 43.6186468,5.02552235 43.4309869,4.83652235 C43.2433269,4.64752235 43.0229162,4.49484 42.7699936,4.37847529 C42.516832,4.26211059 42.2352226,4.20405176 41.9256434,4.20405176 C41.6067411,4.20405176 41.318199,4.26211059 41.0604953,4.37847529 C40.8023135,4.49484 40.5797512,4.64999294 40.3918522,4.84393412 C40.2041923,5.03787529 40.0566939,5.26072235 39.9488791,5.51272235 C39.8410643,5.76496941 39.772933,6.02166353 39.7447242,6.28329882 L44.0926973,6.28329882 Z M45.0843067,5.61451059 C45.2016838,6.04118118 45.2604919,6.44314588 45.2604919,6.82139294 C45.2604919,6.88933412 45.2576232,6.96691059 45.2533202,7.05412235 C45.2483,7.14133412 45.2413673,7.20433412 45.2318051,7.24312235 L39.7308589,7.24312235 C39.7308589,7.56306353 39.7961215,7.86595765 39.9278421,8.15180471 C40.0590845,8.43789882 40.2350306,8.68989882 40.4554414,8.90780471 C40.6758522,9.12595765 40.9287747,9.30062824 41.2151653,9.43132235 C41.5013168,9.56226353 41.8039633,9.62773412 42.1228657,9.62773412 C42.5256771,9.62773412 42.8613135,9.55509882 43.1285795,9.40958118 C43.3960845,9.26406353 43.6375323,9.05579294 43.853162,8.78427529 L45.1333135,8.78427529 C45.0209566,9.00736941 44.8780003,9.22774588 44.7042057,9.44589882 C44.5306502,9.66405176 44.3195626,9.86293412 44.0711822,10.0420518 C43.8228017,10.2216635 43.5388017,10.3669341 43.2198993,10.4783576 C42.900997,10.5897812 42.5448017,10.6456165 42.1508354,10.6456165 C41.6160643,10.6456165 41.1281485,10.5485224 40.687566,10.3545812 C40.2467444,10.1608871 39.8714246,9.89184 39.5618455,9.54768706 C39.2522663,9.20378118 39.0108185,8.79885176 38.837502,8.33364 C38.6639465,7.86818118 38.5771687,7.36442824 38.5771687,6.82139294 C38.5771687,6.34654588 38.6570138,5.88849882 38.8162259,5.44725176 C38.9759162,5.00625176 39.200869,4.62084 39.4918017,4.29126353 C39.7822562,3.96168706 40.1341485,3.69758118 40.5470003,3.49869882 C40.9596131,3.30031059 41.4190811,3.20074588 41.9256434,3.20074588 C42.5354785,3.20074588 43.0532764,3.31958118 43.4804717,3.55700471 C43.9071889,3.79467529 44.2519094,4.09015765 44.5146333,4.44394588 C44.7771182,4.79798118 44.9671687,5.18808706 45.0843067,5.61451059 Z M34.6097747,3.20074588 C34.3188421,3.20074588 34.0489465,3.24200471 33.800566,3.32427529 C33.5521855,3.40679294 33.3293842,3.51846353 33.132401,3.65879294 C32.9354178,3.79936941 32.7664044,3.95452235 32.6258387,4.12400471 C32.4852731,4.29373412 32.3726771,4.46568706 32.2882899,4.64035765 C32.1472461,4.23320471 31.8802192,3.89127529 31.4860138,3.61506353 C31.0920475,3.33885176 30.6280374,3.20074588 30.0932663,3.20074588 C29.6522057,3.20074588 29.2632596,3.30747529 28.9257108,3.52068706 C28.5879229,3.73389882 28.3065525,3.99578118 28.0813606,4.30584 L28.0533909,4.30584 L28.0533909,3.43347529 L26.9417747,3.43347529 L26.9417747,10.3983106 L28.0533909,10.3983106 L28.0533909,6.53060471 C28.0533909,5.80351059 28.2195357,5.23898118 28.5525424,4.83652235 C28.8855492,4.43455765 29.3337815,4.23320471 29.8962832,4.23320471 C30.1494448,4.23320471 30.3748758,4.28409882 30.5718589,4.38588706 C30.768603,4.48742824 30.9352259,4.63072235 31.0710104,4.81478118 C31.2067949,4.99908706 31.3124582,5.21229882 31.3875222,5.45441647 C31.4628253,5.69702824 31.5001182,5.96360471 31.5001182,6.25414588 L31.5001182,10.3983106 L32.6258387,10.3983106 L32.6258387,6.53060471 C32.6258387,6.13333412 32.677236,5.78893412 32.7807478,5.49814588 C32.8835424,5.20735765 33.0198051,4.96746353 33.1885795,4.77846353 C33.3575929,4.58921647 33.5521855,4.45111059 33.7725963,4.36389882 C33.9930071,4.27668706 34.2203505,4.23320471 34.4546266,4.23320471 C34.736236,4.23320471 34.9800744,4.28904 35.1863808,4.40021647 C35.3926872,4.51188706 35.5617007,4.65987529 35.6929431,4.84393412 C35.8241855,5.02799294 35.9202865,5.24145176 35.9814852,5.48356941 C36.0422057,5.72618118 36.0730441,5.98312235 36.0730441,6.25414588 L36.0730441,10.3983106 L37.1841822,10.3983106 L37.1841822,6.34160471 C37.1841822,5.31408706 36.9451249,4.53362824 36.4670104,4.00047529 C35.9884178,3.46732235 35.3694987,3.20074588 34.6097747,3.20074588 Z M23.8536333,5.77435765 C23.6327444,5.50308706 23.3398993,5.25825176 22.9739027,5.04009882 C22.6083842,4.82194588 22.1529801,4.63072235 21.6091249,4.46568706 C21.0466232,4.29126353 20.6034111,4.07088706 20.2799667,3.80406353 C19.9562832,3.53773412 19.7942024,3.17159294 19.7942024,2.70638118 C19.7942024,2.27007529 19.934768,1.91159294 20.2163774,1.63019294 C20.4979869,1.34928706 20.886933,1.20871059 21.3841721,1.20871059 C21.8345559,1.20871059 22.1931418,1.33224 22.4604077,1.57929882 C22.7279128,1.82660471 22.8988387,2.13938118 22.9739027,2.51738118 L24.2260845,2.51738118 C24.1794684,2.18780471 24.0785862,1.87996941 23.9236771,1.59387529 C23.7690071,1.30827529 23.5696333,1.05849882 23.326034,0.84504 C23.0817175,0.632075294 22.7960441,0.464816471 22.4678185,0.343510588 C22.1391148,0.222451765 21.7781384,0.161675294 21.3841721,0.161675294 C20.9713202,0.161675294 20.5964785,0.227145882 20.2589296,0.358087059 C19.9209027,0.488781176 19.62997,0.670616471 19.3861316,0.903345882 C19.1425323,1.13582824 18.9524818,1.40759294 18.8164582,1.71740471 C18.6801956,2.02795765 18.6125424,2.35728706 18.6125424,2.70638118 C18.6125424,3.44311059 18.8281721,4.03926353 19.2596704,4.49484 C19.6911687,4.95066353 20.3476199,5.31902824 21.229502,5.59993412 C21.9234852,5.82302824 22.4393707,6.10418118 22.7769195,6.44314588 C23.1149465,6.78260471 23.2834818,7.23348706 23.2834818,7.79554588 C23.2834818,8.01864 23.2461889,8.24148706 23.1708859,8.46458118 C23.0958219,8.68742824 22.9832259,8.88853412 22.833337,9.06789882 C22.68297,9.24751059 22.4933976,9.39278118 22.2636636,9.50420471 C22.0334515,9.61562824 21.7688152,9.67121647 21.4685593,9.67121647 C20.9340273,9.67121647 20.502529,9.52100471 20.1743034,9.22058118 C19.8455997,8.92015765 19.6158657,8.51769882 19.4846232,8.01369882 L18.2044717,8.01369882 C18.4107781,8.94412235 18.8025929,9.62773412 19.379199,10.06404 C19.9562832,10.5000988 20.6478758,10.7182518 21.4546939,10.7182518 C21.9514549,10.7182518 22.3879734,10.63104 22.7628152,10.4566165 C23.1383741,10.2819459 23.4524953,10.0519341 23.7056569,9.76584 C23.9590576,9.47999294 24.1491081,9.16005176 24.2755694,8.80601647 C24.4022697,8.45247529 24.4656199,8.09127529 24.4656199,7.72291059 C24.4656199,7.34491059 24.4185256,6.99359294 24.3245761,6.66871059 C24.2308657,6.34407529 24.0740441,6.04587529 23.8536333,5.77435765 Z M15.9955828,5.43984 C15.9955828,4.84887529 15.9016333,4.29620471 15.7139734,3.78232235 C15.5263135,3.26868706 15.261438,2.82274588 14.9191081,2.44449882 C14.5765391,2.06649882 14.1663168,1.77101647 13.6879633,1.55780471 C13.2093707,1.34459294 12.684162,1.23786353 12.112098,1.23786353 C11.5680037,1.23786353 11.0590508,1.34187529 10.5854785,1.55039294 C10.1119061,1.75891059 9.70168384,2.04969882 9.35457273,2.42275765 C9.00722256,2.79606353 8.73541448,3.23953412 8.53843131,3.75316941 C8.34144815,4.26729882 8.24295657,4.82935765 8.24295657,5.43984 C8.24295657,6.04118118 8.34144815,6.59854588 8.53843131,7.11218118 C8.73541448,7.62606353 9.00722256,8.06953412 9.35457273,8.44259294 C9.70168384,8.81589882 10.1119061,9.10915765 10.5854785,9.32236941 C11.0590508,9.53558118 11.5680037,9.64231059 12.112098,9.64231059 C12.6561923,9.64231059 13.1651451,9.53558118 13.6387175,9.32236941 C14.1122899,9.10915765 14.5251418,8.81589882 14.8767949,8.44259294 C15.2286872,8.06953412 15.5028859,7.62606353 15.699869,7.11218118 C15.8970912,6.59854588 15.9955828,6.04118118 15.9955828,5.43984 Z M16.8535593,3.44064 C17.0880744,4.07558118 17.2056906,4.74214588 17.2056906,5.43984 C17.2056906,6.16693412 17.0763606,6.85029882 16.8186569,7.49018118 C16.5604751,8.13006353 16.2042798,8.68989882 15.7491148,9.16968706 C15.2941889,9.64947529 14.7572663,10.0274753 14.1381081,10.3039341 C13.5189498,10.5801459 12.8486333,10.7182518 12.1262024,10.7182518 C11.2541215,10.7182518 10.4963101,10.5584047 9.8539633,10.2384635 C9.21137744,9.91852235 8.68138754,9.50667529 8.2639936,9.00242824 C7.84659966,8.49842824 7.53702054,7.93142824 7.33549529,7.30118118 C7.13349192,6.67118118 7.03284882,6.05081647 7.03284882,5.43984 C7.03284882,4.73251059 7.15978822,4.05878118 7.41271077,3.41889882 C7.66611145,2.77901647 8.0180037,2.21918118 8.46790943,1.73939294 C8.91829327,1.25960471 9.45497677,0.876663529 10.0791552,0.590569412 C10.7026165,0.304969412 11.3851249,0.161675294 12.1262024,0.161675294 C12.914135,0.161675294 13.6222226,0.307192941 14.250704,0.597981176 C14.8791855,0.888769412 15.4113269,1.27665176 15.8476064,1.76113412 C16.2841249,2.24611059 16.6192832,2.80594588 16.8535593,3.44064 Z M1.34902391,9.29321647 L5.59778822,9.29321647 L5.59778822,10.3983106 L0.181229293,10.3983106 L0.181229293,0.481616471 L5.44335724,0.481616471 L5.44335724,1.58671059 L1.34902391,1.58671059 L1.34902391,4.71299294 L5.28844815,4.71299294 L5.28844815,5.81808706 L1.34902391,5.81808706 L1.34902391,9.29321647 Z" id="Fill-1" fill="#21110D" mask="url(#mask-2)"></path>
                </g>
                <g id="分组" transform="translate(0.000000, 6.247871)">
                    <mask id="mask-4" fill="white">
                        <use xlink:href="#path-3"></use>
                    </mask>
                    <g id="Clip-4"></g>
                    <polygon id="Fill-3" fill="#21110D" mask="url(#mask-4)" points="2.24924175 0.169062353 6.60725522 14.5765447 -4.78114478e-05 10.3780271"></polygon>
                </g>
                <polygon id="Fill-5" fill="#21110D" points="2.24924175 6.41693294 3.50500943 10.5675212 6.60725522 4.93655647 6.60725522 7.41176471e-05"></polygon>
                <g id="分组" transform="translate(6.693603, 6.247871)">
                    <mask id="mask-6" fill="white">
                        <use xlink:href="#path-5"></use>
                    </mask>
                    <g id="Clip-8"></g>
                    <polygon id="Fill-7" fill="#21110D" mask="url(#mask-6)" points="4.41010404 0.169062353 0.0520905724 14.5765447 6.6593936 10.3780271"></polygon>
                </g>
                <polygon id="Fill-9" fill="#21110D" points="11.1037067 6.41693294 9.84793906 10.5675212 6.74569327 4.93655647 6.74569327 7.41176471e-05"></polygon>
            </g>
        </g>
    </g>
</svg>