<?xml version="1.0" encoding="UTF-8"?>
<svg width="110px" height="28px" viewBox="0 0 110 28" version="1.1" xmlns="http://www.w3.org/2000/svg" xmlns:xlink="http://www.w3.org/1999/xlink">
    <!-- Generator: Sketch 52.5 (67469) - http://www.bohemiancoding.com/sketch -->
    <title>logo_dadex</title>
    <desc>Created with Sketch.</desc>
    <defs>
        <polygon id="path-1" points="0.0234473684 0.311709091 24.3576908 0.311709091 24.3576908 24 0.0234473684 24"></polygon>
        <polygon id="path-3" points="0 0.157236364 25.1168717 0.157236364 25.1168717 27.6361455 0 27.6361455"></polygon>
    </defs>
    <g id="Page-1" stroke="none" stroke-width="1" fill="none" fill-rule="evenodd">
        <g id="首页-涨幅榜" transform="translate(-133.000000, -118.000000)">
            <g id="logo_dadex" transform="translate(133.000000, 118.000000)">
                <polygon id="Fill-1" fill="#FFFFFF" points="91.4917763 10.6306909 91.4917763 7.59687273 78.9235526 7.59687273 78.9235526 10.6306909 82.4055592 10.6306909"></polygon>
                <polygon id="Fill-2" fill="#FFFFFF" points="91.4917763 15.6184364 91.4917763 12.5846182 78.9235526 12.5846182 78.9235526 15.6184364 82.4055592 15.6184364"></polygon>
                <polygon id="Fill-3" fill="#FFFFFF" points="91.4917763 20.606 91.4917763 17.5725455 78.9235526 17.5725455 78.9235526 20.606 82.4055592 20.606"></polygon>
                <polygon id="Fill-4" fill="#FFFFFF" points="105.255237 7.59701818 101.423329 11.6944727 97.5917829 7.59701818 92.9768487 7.59701818 99.0756974 14.2061091 93.0868487 20.6097455 97.8635263 20.6097455 101.423329 16.7512 104.983855 20.6097455 109.759809 20.6097455 103.771684 14.2061091 109.869809 7.59701818"></polygon>
                <path d="M51.686648,16.1963636 L53.1332928,13.212 L54.5799375,16.1963636 L51.686648,16.1963636 Z M56.7173388,20.6058182 L59.2317796,20.6058182 L55.9672401,13.8709091 L54.716352,11.2898182 L54.0646743,11.2898182 L52.2015493,11.2898182 L51.5502336,11.2898182 L50.2993454,13.8709091 L47.0348059,20.6058182 L49.5492467,20.6058182 L50.6336875,18.3687273 L55.632898,18.3687273 L56.7173388,20.6058182 Z" id="Fill-5" fill="#007AFF"></path>
                <g id="分组" transform="translate(0.000000, 0.206400)">
                    <path d="M40.7434211,17.3662182 L36.4830921,17.3662182 L36.4830921,10.4244 L40.7434211,10.4244 C42.6430921,10.4244 44.1972039,11.9862182 44.1972039,13.8953091 C44.1972039,15.8044 42.6430921,17.3662182 40.7434211,17.3662182 M40.7434211,7.39058182 L36.4830921,7.39058182 L33.4642434,7.39058182 L33.4642434,10.9949455 L33.4642434,20.3996727 L34.9734868,20.3996727 L36.4830921,20.3996727 L40.7434211,20.3996727 C44.3032237,20.3996727 47.2160526,17.4727636 47.2160526,13.8953091 C47.2160526,10.3178545 44.3032237,7.39058182 40.7434211,7.39058182" id="Fill-6" fill="#007AFF"></path>
                    <path d="M70.4144737,17.3662182 L66.1541447,17.3662182 L66.1541447,10.4244 L70.4144737,10.4244 C72.3141447,10.4244 73.8682566,11.9862182 73.8682566,13.8953091 C73.8682566,15.8044 72.3141447,17.3662182 70.4144737,17.3662182 M70.4144737,7.39058182 L66.1541447,7.39058182 L63.1352961,7.39058182 L63.1352961,10.9949455 L63.1352961,20.3996727 L64.6445395,20.3996727 L66.1541447,20.3996727 L70.4144737,20.3996727 C73.9742763,20.3996727 76.8871053,17.4727636 76.8871053,13.8953091 C76.8871053,10.3178545 73.9742763,7.39058182 70.4144737,7.39058182" id="Fill-8" fill="#FFFFFF"></path>
                    <g transform="translate(2.532895, 3.636364)">
                        <mask id="mask-2" fill="white">
                            <use xlink:href="#path-1"></use>
                        </mask>
                        <g id="Clip-11"></g>
                        <path d="M20.0908487,0.311709091 L15.9495658,5.20007273 C17.2055197,6.51861818 17.9809474,8.30225455 17.9809474,10.2604364 C17.9809474,14.2928 14.6983158,17.5920727 10.6854868,17.5920727 L5.45180263,17.5920727 L0.0234473684,24.0000727 L0.655223684,24.0000727 L3.84341447,24.0000727 L10.6854868,24.0000727 C18.2052895,24.0000727 24.3576908,17.8171636 24.3576908,10.2604364 C24.3576908,6.35643636 22.7152895,2.81934545 20.0908487,0.311709091" id="Fill-10" fill="#007AFF" mask="url(#mask-2)"></path>
                    </g>
                    <path d="M5.00109211,16.2103273 L8.20846053,12.3165091 L6.37645395,13.6343273 L6.37645395,6.56523636 L13.2185263,6.56523636 C13.6444145,6.56523636 14.0590855,6.61069091 14.4650724,6.68232727 L20.637375,2.38087273 C18.4963553,0.979418182 15.9500724,0.157236364 13.2185263,0.157236364 L6.37645395,0.157236364 L7.23684211e-05,0.157236364 L7.23684211e-05,7.77032727 L7.23684211e-05,19.9481455 L5.00109211,16.2103273 Z" id="Fill-12" fill="#007AFF"></path>
                    <g>
                        <mask id="mask-4" fill="white">
                            <use xlink:href="#path-3"></use>
                        </mask>
                        <g id="Clip-15"></g>
                        <polygon id="Fill-14" fill="#FFFFFF" mask="url(#mask-4)" points="25.1168717 0.157236364 -3.61842105e-05 18.0590545 -3.61842105e-05 27.6361455"></polygon>
                    </g>
                </g>
            </g>
        </g>
    </g>
</svg>