<?xml version="1.0" encoding="UTF-8"?>
<svg width="16px" height="16px" viewBox="0 0 16 16" version="1.1" xmlns="http://www.w3.org/2000/svg" xmlns:xlink="http://www.w3.org/1999/xlink">
    <!-- Generator: Sketch 52.5 (67469) - http://www.bohemiancoding.com/sketch -->
    <title>ic_aboutus</title>
    <desc>Created with Sketch.</desc>
    <g id="Page-1" stroke="none" stroke-width="1" fill="none" fill-rule="evenodd">
        <g id="更多" transform="translate(-20.000000, -473.000000)" fill="#007AFF">
            <path d="M27.2000648,485.000022 L28.7999352,485.000022 L28.7999352,480.19924 L27.2000648,480.19924 L27.2000648,485.000022 Z M28.0008714,473 C23.5839224,473 20,476.583512 20,480.999955 C20,485.416488 23.5839224,489 28.0008714,489 C32.4179098,489 36,485.416488 36,480.999955 C36,476.583512 32.4160776,473 28.0008714,473 Z M28.0008714,487.39857 C24.4723619,487.39857 21.6016132,484.526408 21.6016132,480.999955 C21.6016132,477.473592 24.4741048,474.60143 28.0008714,474.60143 C31.5277274,474.60143 34.400219,477.473592 34.400219,480.999955 C34.400219,484.526408 31.5294703,487.39857 28.0008714,487.39857 Z M27.2000648,478.599665 L28.7999352,478.599665 L28.7999352,476.999978 L27.2000648,476.999978 L27.2000648,478.599665 Z" id="ic_aboutus"></path>
        </g>
    </g>
</svg>