<?xml version="1.0" encoding="UTF-8"?>
<svg width="15px" height="15px" viewBox="0 0 15 15" version="1.1" xmlns="http://www.w3.org/2000/svg" xmlns:xlink="http://www.w3.org/1999/xlink">
    <!-- Generator: Sketch 52.5 (67469) - http://www.bohemiancoding.com/sketch -->
    <title>ic_announcement</title>
    <desc>Created with Sketch.</desc>
    <g id="Page-1" stroke="none" stroke-width="1" fill="none" fill-rule="evenodd">
        <g id="首页-24小时成交榜" transform="translate(-20.000000, -246.000000)">
            <g id="ic_announcement" transform="translate(20.000000, 246.000000)">
                <circle id="椭圆形" fill="#007AFF" cx="7.5" cy="7.5" r="7.5"></circle>
                <path d="M7.5,12 C8.08235542,12 8.55883284,11.5500362 8.55883284,11.000025 L6.44116716,11.000025 C6.44116716,11.5499863 6.91764458,12 7.5,12 Z M10.1764223,9.17650122 L10.1764223,6.74997794 C10.1764223,5.39558717 9.29936866,4.26171342 8.11764223,3.96172051 L8.11764223,3.66177161 C8.11784967,3.48619096 8.05284345,3.31773773 7.93696807,3.19358337 C7.82109268,3.069429 7.66387241,2.99977827 7.5,3.00000053 L7.49913749,3.00000053 C7.1584855,3.00000053 6.88231671,3.29594483 6.8823167,3.66093548 L6.8823167,3.96176452 C5.70054919,4.26171343 4.82353666,5.39563119 4.82353666,6.75002195 L4.82353666,9.17654522 L4,10.0589213 L4,10.5000874 L11,10.5000874 L11,10.0589213 L10.1764223,9.17650122 Z" id="Shape" fill="#FFFFFF" fill-rule="nonzero"></path>
            </g>
        </g>
    </g>
</svg>