<?xml version="1.0" encoding="UTF-8"?>
<svg width="20px" height="20px" viewBox="0 0 20 20" version="1.1" xmlns="http://www.w3.org/2000/svg" xmlns:xlink="http://www.w3.org/1999/xlink">
    <!-- Generator: Sketch 52.5 (67469) - http://www.bohemiancoding.com/sketch -->
    <title>ic_correct</title>
    <desc>Created with Sketch.</desc>
    <g id="Page-1" stroke="none" stroke-width="1" fill="none" fill-rule="evenodd">
        <g id="已提交弹窗" transform="translate(-178.000000, -312.000000)">
            <g id="ic_correct" transform="translate(178.000000, 312.000000)">
                <circle id="椭圆形" fill="#007AFF" cx="10" cy="10" r="10"></circle>
                <path d="M16.0279669,7.71732909 L9.84072348,14.7167906 C9.68494709,14.8924713 9.46686014,14.9949517 9.23708997,15 L9.21907832,15 C8.99514976,15 8.77998363,14.908121 8.62226003,14.7430418 L5.2472672,11.2440682 C5.03404827,11.0224481 4.95080526,10.7008717 5.02869345,10.3984788 C5.10706845,10.0965907 5.33440462,9.86083531 5.62551175,9.77955775 C5.91661887,9.69878503 6.22768485,9.78561571 6.44041698,10.0062262 L9.19230426,12.8595228 L14.783703,6.53350382 C14.9876727,6.30330156 15.2948443,6.20284048 15.589359,6.27099246 C15.883387,6.33863962 16.1204592,6.56429843 16.2110042,6.86265268 C16.3015492,7.16100694 16.2319366,7.48662199 16.0279669,7.71732909" id="Fill-1" fill="#FFFFFF"></path>
            </g>
        </g>
    </g>
</svg>