<?xml version="1.0" encoding="UTF-8"?>
<svg width="9px" height="12px" viewBox="0 0 9 12" version="1.1" xmlns="http://www.w3.org/2000/svg" xmlns:xlink="http://www.w3.org/1999/xlink">
    <!-- Generator: Sketch 52.5 (67469) - http://www.bohemiancoding.com/sketch -->
    <title>ic_eos</title>
    <desc>Created with Sketch.</desc>
    <g id="Page-1" stroke="none" stroke-width="1" fill="none" fill-rule="evenodd">
        <g id="Exchange" transform="translate(-1125.000000, -155.000000)" fill="#2B78E0">
            <g id="market_right" transform="translate(1035.000000, 140.000000)">
                <g id="header">
                    <g id="EOS" transform="translate(85.000000, 12.000000)">
                        <g transform="translate(3.000000, 3.000000)" id="ic_eos">
                            <g transform="translate(2.000000, 0.000000)">
                                <path d="M4.4978387,11.9973616 C4.43363436,11.9986563 4.37030886,11.9821247 4.31551139,11.9497405 L0.170563834,9.54783 C0.0394860759,9.46975105 -0.0254831826,9.31907211 0.00927992767,9.17363526 L1.41897613,3.61461947 C1.42652767,3.56442474 1.44840108,3.51729316 1.48209005,3.47849842 L4.21729259,0.130893158 C4.33738481,-0.0175752632 4.55873924,-0.04347 4.71177179,0.0730405263 C4.86472297,0.189535263 4.89143002,0.404303684 4.77133779,0.552693158 L2.07822206,3.86633526 L0.752715732,9.09197211 L4.67316781,11.3645353 C4.83974105,11.4617511 4.89580796,11.6702826 4.79942821,11.8340353 C4.73349873,11.9341405 4.62022568,11.9954353 4.4978387,11.9973616" id="Fill-1"></path>
                                <path d="M4.4978387,11.9973616 C4.34939566,12.0012458 4.21455841,11.9140247 4.16122568,11.7796247 L1.42595805,3.81871421 C1.36543183,3.64218789 1.46233237,3.45124579 1.64339024,3.39006158 C1.73360181,3.36033 1.83239024,3.36741947 1.91700325,3.40979842 C2.00168137,3.45209842 2.06494177,3.52605632 2.09228354,3.61461947 L4.8274698,11.5550668 C4.85868499,11.6408037 4.85328174,11.7350353 4.81246438,11.8168247 C4.77164702,11.8986774 4.69873562,11.9612037 4.61005389,11.9905721 L4.4978387,11.9973616 Z" id="Fill-3"></path>
                                <path d="M4.4978387,11.9973616 C4.3750774,11.99673 4.26121844,11.9350563 4.19624919,11.8340353 C4.14742459,11.7565721 4.13254937,11.6633668 4.15492731,11.5751668 C4.17737034,11.4869668 4.23516239,11.4111774 4.31551139,11.3645353 L8.23596347,9.09197211 L6.91039204,3.86633526 L4.21729259,0.552693158 C4.09956022,0.404177368 4.12778083,0.191272105 4.28042278,0.0764194737 C4.35239024,0.0190089474 4.44527089,-0.00764368421 4.53776094,0.00265105263 C4.63033237,0.0128984211 4.71461989,0.0591615789 4.77133779,0.130893158 L7.51358734,3.53295632 C7.54161266,3.57490895 7.56291646,3.62079316 7.57671754,3.66903 L8.97933418,9.20761421 C9.01652224,9.35324053 8.95098336,9.50527737 8.81805027,9.58188789 L4.67316781,11.9497405 C4.6207953,11.9819353 4.55982966,11.99853 4.4978387,11.9973616" id="Fill-5"></path>
                                <path d="M4.4978387,11.9973616 L4.38563978,11.9973616 C4.2034264,11.9331458 4.10483327,11.7418247 4.16122568,11.5619037 L6.90341013,3.61461947 C6.9303613,3.52278789 6.99583508,3.44611421 7.0838821,3.40343526 C7.17188029,3.36069316 7.27441193,3.35589316 7.36628354,3.39006158 C7.54753671,3.45135632 7.64658553,3.64059316 7.59069765,3.81871421 L4.8274698,11.7796247 C4.77667595,11.9129195 4.64431248,12.0003774 4.4978387,11.9973616" id="Fill-8"></path>
                            </g>
                        </g>
                    </g>
                </g>
            </g>
        </g>
    </g>
</svg>