<?xml version="1.0" encoding="UTF-8"?>
<svg width="20px" height="15px" viewBox="0 0 20 15" version="1.1" xmlns="http://www.w3.org/2000/svg" xmlns:xlink="http://www.w3.org/1999/xlink">
    <!-- Generator: Sketch 52.5 (67469) - http://www.bohemiancoding.com/sketch -->
    <title>ic_nav_quotes_normal</title>
    <desc>Created with Sketch.</desc>
    <defs>
        <rect id="path-1" x="0" y="0" width="24" height="24"></rect>
        <path d="M7.47919529,15 L4.25,11.7366653 L5.30205861,10.4590707 L7.41779067,12.5451875 L11.5528184,8.41099863 L13.9808397,10.809303 L18.5476978,6.17970771 L17.5509034,5 L22.25,5.02255683 L13.9808397,13.2281173 L11.5528184,10.8371772 L8.30116358,14.1337247 L8.30588862,14.1384091 L7.47919529,15 Z M13.0644411,15.5490901 L10.6609672,13.029812 L6.62852855,16.9818434 L3.25,14.0000293 L3.25,19.0609529 C3.25,19.5795446 3.69386598,20 4.24139412,20 L20.2586265,20 C20.8061546,20 21.25,19.5795446 21.25,19.0609529 L21.25,8 L13.0644411,15.5490901 Z" id="path-3"></path>
    </defs>
    <g id="Page-1" stroke="none" stroke-width="1" fill="none" fill-rule="evenodd">
        <g id="ic_切图" transform="translate(-104.000000, -36.000000)">
            <g id="ic_nav_quotes_normal" transform="translate(101.000000, 31.000000)">
                <g id="Ico/o/dollar">
                    <mask id="mask-2" fill="white">
                        <use xlink:href="#path-1"></use>
                    </mask>
                    <g id="Color/A"></g>
                    <mask id="mask-4" fill="white">
                        <use xlink:href="#path-3"></use>
                    </mask>
                    <use id="Shape" fill="#B3BFD0" fill-rule="nonzero" xlink:href="#path-3"></use>
                </g>
            </g>
        </g>
    </g>
</svg>