<?xml version="1.0" encoding="UTF-8"?>
<svg width="35px" height="35px" viewBox="0 0 35 35" version="1.1" xmlns="http://www.w3.org/2000/svg" xmlns:xlink="http://www.w3.org/1999/xlink">
    <!-- Generator: Sketch 52.5 (67469) - http://www.bohemiancoding.com/sketch -->
    <title>ic_weibo</title>
    <desc>Created with Sketch.</desc>
    <g id="Page-1" stroke="none" stroke-width="1" fill="none" fill-rule="evenodd">
        <g id="PC端官网-" transform="translate(-773.000000, -5108.000000)">
            <g id="ic_weibo" transform="translate(773.000000, 5108.000000)">
                <circle id="Oval-5-Copy" fill="#FEFEFE" cx="17.5" cy="17.5" r="17.5"></circle>
                <path d="M22.546623,17.0339029 C21.7307207,16.8686507 22.1272746,16.4100787 22.1272746,16.4100787 C22.1272746,16.4100787 22.9256461,15.0358165 21.9692795,14.0368301 C20.78412,12.7994489 17.9041013,14.1942683 17.9041013,14.1942683 C16.8042906,14.5507133 17.0956811,14.0316056 17.251262,13.1480572 C17.251262,12.1071615 16.9098237,10.3454255 13.979692,11.3859805 C11.0523662,12.4321916 8.5390381,16.0977918 8.5390381,16.0977918 C6.79126013,18.5335069 7.02266302,20.4160871 7.02266302,20.4160871 C7.45921601,24.5719696 11.6876529,25.7127435 14.9764927,25.9827804 C18.4365955,26.2662191 23.106414,24.7372445 24.5225848,21.5961127 C25.9385164,18.4497564 23.3653094,17.2044022 22.546623,17.0339029 Z M15.2326694,24.8107732 C11.7977101,24.9783423 9.02094076,23.1797398 9.02094076,20.7857977 C9.02094076,18.3894706 11.7977101,16.4675705 15.2326694,16.3022502 C18.6699124,16.136998 21.4520759,17.6159086 21.4520759,20.0074428 C21.4520759,22.4009987 18.6698907,24.6478379 15.2326694,24.8107732 Z M14.5473784,17.8807664 C11.0925392,18.3030624 11.4917685,21.6825208 11.4917685,21.6825208 C11.4917685,21.6825208 11.4564023,22.7525373 12.4180325,23.2975856 C14.4395397,24.4410626 16.5209476,23.7487297 17.5727552,22.3306274 C18.624802,20.9120027 18.0072202,17.4613779 14.5473784,17.8807664 Z M13.6760342,22.6239472 C13.0308728,22.7027913 12.5112549,22.3145906 12.5112549,21.7508251 C12.5112549,21.1897854 12.9729514,20.6022372 13.6183085,20.5317977 C14.3592806,20.4582463 14.841379,20.9040297 14.841379,21.4677043 C14.841379,22.0288349 14.3185856,22.5476927 13.6760342,22.6239472 Z M15.712397,20.8121245 C15.4940226,20.9826238 15.225035,20.959091 15.1097794,20.7545645 C14.9893907,20.5550807 15.0345229,20.2353887 15.2555073,20.0673879 C15.5115969,19.8684493 15.7777353,19.9256004 15.8930343,20.1253568 C16.0087466,20.3295426 15.926008,20.6363325 15.712397,20.8121245 Z M24.2289104,15.5707111 C24.5073595,15.5707111 24.744026,15.3557129 24.783764,15.0752044 C24.7887884,15.0541703 24.7912462,15.0360209 24.7912462,15.0122837 C25.2132046,11.0506378 21.6827392,11.7324309 21.6827392,11.7324309 C21.3692937,11.7324309 21.1180327,11.9971751 21.1180327,12.3274751 C21.1180327,12.6526187 21.3692937,12.9173629 21.6827392,12.9173629 C24.2185355,12.3328585 23.6591143,14.9810504 23.6591143,14.9810504 C23.6590055,15.308511 23.9145949,15.5707111 24.2289104,15.5707111 Z M23.8173705,8.5288326 C22.59691,8.2302202 21.3414532,8.55097981 20.9897921,8.62135111 C20.9625606,8.62407692 20.9371561,8.68256824 20.9120778,8.68786087 C20.8998323,8.69045039 20.8923284,8.71943483 20.8923284,8.71943483 C20.5456917,8.82190254 20.2919947,9.16501379 20.2919947,9.56111933 C20.2919947,10.0330932 20.658446,10.4252917 21.1154009,10.4252917 C21.1154009,10.4252917 21.5598928,10.3650059 21.8611363,10.2419356 C22.159835,10.1163213 24.6881492,10.1494171 25.9439106,12.3516439 C26.629071,13.9588719 26.2451541,15.0351123 26.1972161,15.2079968 C26.1972161,15.2079968 26.0343489,15.6259088 26.0343489,16.0369381 C26.0343489,16.5115697 26.4009307,16.6830458 26.854884,16.6830458 C27.2344291,16.6830458 27.553247,16.5074356 27.6463389,15.8319573 L27.6513632,15.8319573 C28.9993247,11.103882 26.0015709,9.06102416 23.8173705,8.5288326 Z" id="Shape" fill="#001936" fill-rule="nonzero"></path>
            </g>
        </g>
    </g>
</svg>