<?xml version="1.0" encoding="UTF-8"?>
<svg width="14px" height="16px" viewBox="0 0 14 16" version="1.1" xmlns="http://www.w3.org/2000/svg" xmlns:xlink="http://www.w3.org/1999/xlink">
    <!-- Generator: Sketch 52.5 (67469) - http://www.bohemiancoding.com/sketch -->
    <title>ic_order</title>
    <desc>Created with Sketch.</desc>
    <g id="Page-1" stroke="none" stroke-width="1" fill="none" fill-rule="evenodd">
        <g id="Exchange" transform="translate(-1143.000000, -17.000000)" fill="#92A7C5">
            <g id="Header">
                <g id="Order" transform="translate(1143.000000, 15.000000)">
                    <g id="ic_order" transform="translate(0.000000, 2.000000)">
                        <path d="M11.9622696,14.8373528 L1.70893977,14.8373528 C1.42406884,14.8373528 1.1392605,14.6095145 1.1392605,14.267757 L1.1392605,1.73589778 C1.1392605,1.39407771 1.36709883,1.16626023 1.70893977,1.16626023 L8.54450691,1.16626023 L8.54450691,4.01442712 C8.54450691,4.6409721 9.05711186,5.15370222 9.68374029,5.15370222 L12.5318654,5.15370222 L12.5318654,14.267757 C12.5318654,14.6095145 12.3040271,14.8373528 11.9622696,14.8373528 Z M12.3609763,3.90042451 C12.4179463,3.95737366 12.4179463,3.95737366 12.4179463,4.01442712 L9.68374029,4.01442712 L9.68374029,1.22318853 C9.7407103,1.22318853 9.79765945,1.2801794 9.79765945,1.2801794 L12.3609763,3.90042451 Z M13.1584939,3.10299035 L10.5950936,0.539631812 C10.3103061,0.197853455 9.85462947,0.0269642764 9.39889022,0.0269642764 L1.70893977,0.0269642764 C0.740553846,0.0269642764 6.25814869e-06,0.767511864 6.25814869e-06,1.73589778 L6.25814869e-06,14.267757 C6.25814869e-06,15.2361429 0.740553846,15.976607 1.70893977,15.976607 L11.9622696,15.976607 C12.9306555,15.976607 13.6711197,15.2361429 13.6711197,14.267757 L13.6711197,4.2992146 C13.6711197,3.8434545 13.5002514,3.3877987 13.1584939,3.10299035 Z" id="Fill-1"></path>
                        <path d="M10.2533591,8.57146284 L9.68374237,8.57146284 C9.34192229,8.57146284 9.11408396,8.34354107 9.11408396,8.00178357 C9.11408396,7.66004694 9.34192229,7.43222947 9.68374237,7.43222947 L10.2533591,7.43222947 C10.5950957,7.43222947 10.8230175,7.66004694 10.8230175,8.00178357 C10.8230175,8.34354107 10.5950957,8.57146284 10.2533591,8.57146284 M10.2533591,11.9892673 L9.68374237,11.9892673 C9.34192229,11.9892673 9.11408396,11.7613246 9.11408396,11.4195671 C9.11408396,11.0778096 9.34192229,10.8499922 9.68374237,10.8499922 L10.2533591,10.8499922 C10.5950957,10.8499922 10.8230175,11.0778096 10.8230175,11.4195671 C10.8230175,11.7613246 10.5950957,11.9892673 10.2533591,11.9892673 M6.83557549,11.9892673 L3.41779192,11.9892673 C3.07603442,11.9892673 2.84819609,11.7613246 2.84819609,11.4195671 C2.84819609,11.0778096 3.07603442,10.8499922 3.41779192,10.8499922 L6.83557549,10.8499922 C7.17731213,10.8499922 7.4052339,11.0778096 7.4052339,11.4195671 C7.4052339,11.7613246 7.17731213,11.9892673 6.83557549,11.9892673 M6.83557549,8.57146284 L3.41779192,8.57146284 C3.07603442,8.57146284 2.84819609,8.34354107 2.84819609,8.00178357 C2.84819609,7.66004694 3.07603442,7.43222947 3.41779192,7.43222947 L6.83557549,7.43222947 C7.17731213,7.43222947 7.4052339,7.66004694 7.4052339,8.00178357 C7.4052339,8.34354107 7.17731213,8.57146284 6.83557549,8.57146284 M6.83557549,5.15370013 L3.41779192,5.15370013 C3.07603442,5.15370013 2.84819609,4.9257575 2.84819609,4.58402086 C2.84819609,4.24226336 3.07603442,4.01442503 3.41779192,4.01442503 L6.83557549,4.01442503 C7.17731213,4.01442503 7.4052339,4.24226336 7.4052339,4.58402086 C7.4052339,4.9257575 7.17731213,5.15370013 6.83557549,5.15370013" id="Fill-4"></path>
                    </g>
                </g>
            </g>
        </g>
    </g>
</svg>