<?xml version="1.0" encoding="UTF-8"?>
<svg width="10px" height="13px" viewBox="0 0 10 13" version="1.1" xmlns="http://www.w3.org/2000/svg" xmlns:xlink="http://www.w3.org/1999/xlink">
    <!-- Generator: Sketch 52.5 (67469) - http://www.bohemiancoding.com/sketch -->
    <title>ic_price_up</title>
    <desc>Created with Sketch.</desc>
    <g id="Page-1" stroke="none" stroke-width="1" fill="none" fill-rule="evenodd">
        <g id="Exchange" transform="translate(-296.000000, -601.000000)" fill="#1CC466">
            <g id="Order-Book_left" transform="translate(120.000000, 140.000000)">
                <path d="M185.378043,468.186725 L182.645971,471.442324 C182.576054,471.52889 182.576054,471.669209 182.645971,471.755775 L183.19477,472.435076 C183.264778,472.521641 183.37814,472.521641 183.448094,472.435076 L186.887322,468.336771 C186.889984,468.334063 186.899981,468.322163 186.917313,468.301071 L187.447716,467.669024 C187.485182,467.62265 187.50241,467.560862 187.499712,467.500203 C187.502483,467.439386 187.485255,467.377418 187.447789,467.330953 L186.899008,466.676273 C186.896626,466.673384 185.746321,465.302957 183.448094,462.564992 C183.37814,462.478336 183.264778,462.478336 183.19477,462.564992 L182.645971,463.24427 C182.576054,463.330836 182.576054,463.471178 182.645971,463.557834 L185.352482,466.782742 L174.679104,466.782742 C174.580181,466.782742 174.5,466.882013 174.5,467.004437 L174.5,467.965121 C174.5,468.087568 174.580181,468.186816 174.679104,468.186816 L185.378043,468.186725 Z" id="ic_price_up" transform="translate(181.000000, 467.500000) rotate(-90.000000) translate(-181.000000, -467.500000) "></path>
            </g>
        </g>
    </g>
</svg>