<?xml version="1.0" encoding="UTF-8"?>
<svg width="12px" height="12px" viewBox="0 0 12 12" version="1.1" xmlns="http://www.w3.org/2000/svg" xmlns:xlink="http://www.w3.org/1999/xlink">
    <!-- Generator: Sketch 52.5 (67469) - http://www.bohemiancoding.com/sketch -->
    <title>ic_search</title>
    <desc>Created with Sketch.</desc>
    <g id="Page-1" stroke="none" stroke-width="1" fill="none" fill-rule="evenodd">
        <g id="Exchange" transform="translate(-1207.000000, -155.000000)" fill="#6E84A3" fill-rule="nonzero">
            <g id="market_right" transform="translate(1035.000000, 140.000000)">
                <g id="header">
                    <path d="M179.87115,23.9101951 C178.02307,25.2769466 175.408497,25.2036418 173.6339,23.6061061 C171.607178,21.7816011 171.443543,18.6598923 173.268412,16.6335743 C175.093281,14.6072563 178.215613,14.4436544 180.242335,16.2681594 C182.148626,17.9842488 182.406666,20.8479578 180.912097,22.8683668 L184.001811,25.958081 L182.960423,26.9994686 L179.87115,23.9101951 Z M179.873882,22.5799795 C181.333777,20.958925 181.202869,18.461558 179.581492,17.001954 C177.960114,15.5423501 175.462249,15.6732315 174.002353,17.294286 C172.542458,18.9153404 172.673366,21.4127074 174.294744,22.8723114 C175.916121,24.3319153 178.413987,24.2010339 179.873882,22.5799795 Z" id="ic_search"></path>
                </g>
            </g>
        </g>
    </g>
</svg>