<?xml version="1.0" encoding="UTF-8"?>
<svg width="125px" height="36px" viewBox="0 0 125 36" version="1.1" xmlns="http://www.w3.org/2000/svg" xmlns:xlink="http://www.w3.org/1999/xlink">
    <!-- Generator: Sketch 52.5 (67469) - http://www.bohemiancoding.com/sketch -->
    <title>logo_eosmex</title>
    <desc>Created with Sketch.</desc>
    <g id="Page-1" stroke="none" stroke-width="1" fill="none" fill-rule="evenodd">
        <g id="Exchange" transform="translate(-120.000000, -7.000000)">
            <g id="Header">
                <g id="logo_eosmex" transform="translate(120.000000, 7.000000)">
                    <path d="M46.6663395,19.264814 C46.6663395,20.2832791 46.8388047,21.2272326 47.1837349,22.0983488 C47.5286651,22.9690465 48.0050372,23.7204419 48.6128512,24.3521163 C49.2202465,24.9846279 49.9389907,25.4819302 50.7682465,25.8427674 C51.5975023,26.2040233 52.4887116,26.3848605 53.4418744,26.3848605 C54.3937814,26.3848605 55.2849907,26.2040233 56.1146651,25.8427674 C56.9439209,25.4819302 57.6668512,24.9846279 58.2826186,24.3521163 C58.8988047,23.7204419 59.3793628,22.9690465 59.7238744,22.0983488 C60.0692233,21.2272326 60.2412698,20.2832791 60.2412698,19.264814 C60.2412698,18.2626744 60.0771767,17.3266744 59.7485721,16.4559767 C59.4199674,15.5856977 58.9561535,14.8301163 58.3567116,14.1896512 C57.7568512,13.549186 57.0385256,13.0481163 56.2008977,12.6864419 C55.3632698,12.3256047 54.4431767,12.1443488 53.4418744,12.1443488 C52.4887116,12.1443488 51.5975023,12.3214186 50.7682465,12.6743023 C49.9389907,13.0280233 49.2202465,13.5203023 48.6128512,14.1523953 C48.0050372,14.784907 47.5286651,15.5367209 47.1837349,16.407 C46.8388047,17.2776977 46.6663395,18.2300233 46.6663395,19.264814 M44.5473628,19.264814 C44.5473628,18.0659302 44.7692233,16.9239767 45.2129442,15.8402093 C45.6562465,14.7560233 46.2724326,13.8074651 47.0606651,12.9945349 C47.8488977,12.1816047 48.7890837,11.5327674 49.8816419,11.0480233 C50.9737814,10.5641163 52.1684791,10.3217442 53.4661535,10.3217442 C54.8458744,10.3217442 56.0857814,10.5678837 57.186293,11.0605814 C58.2868047,11.5532791 59.2190372,12.2100698 59.9829907,13.0313721 C60.7465256,13.853093 61.3334093,14.8016512 61.7444791,15.8770465 C62.1547116,16.9532791 62.3602465,18.0822558 62.3602465,19.264814 C62.3602465,20.4963488 62.1342,21.6546279 61.6829442,22.7383953 C61.2308512,23.8225814 60.6067116,24.7711395 59.810107,25.5840698 C59.0135023,26.397 58.0733163,27.0374651 56.9895488,27.5058837 C55.9053628,27.9738837 54.7307581,28.2078837 53.4661535,28.2078837 C51.9386651,28.2078837 50.612107,27.9370465 49.4873163,27.3949535 C48.362107,26.8528605 47.4340605,26.1550465 46.7031767,25.3006744 C45.972293,24.4471395 45.4302,23.4860233 45.0773163,22.4181628 C44.724014,21.3507209 44.5473628,20.2996047 44.5473628,19.264814" id="Fill-2" fill="#FFFFFF"></path>
                    <polygon id="Fill-1" fill="#FFFFFF" points="41.7638512 12.7359628 34.5944093 12.7359628 34.5944093 18.0325674 41.493014 18.0325674 41.493014 19.9054047 34.5944093 19.9054047 34.5944093 25.7934977 42.0346884 25.7934977 42.0346884 27.6659163 32.5495256 27.6659163 32.5495256 10.8631256 41.7638512 10.8631256"></polygon>
                    <path d="M72.4610093,14.3126791 C72.3295674,13.672214 72.0302651,13.1422605 71.5618465,12.7236558 C71.0938465,12.3046326 70.4659395,12.0953302 69.6772884,12.0953302 C68.8065907,12.0953302 68.1255209,12.3335163 67.6324047,12.8098884 C67.1392884,13.2862605 66.8931488,13.8936558 66.8931488,14.6329116 C66.8931488,15.4211442 67.1769628,16.0415163 67.7433349,16.4931907 C68.3101256,16.9448651 69.0858,17.3186791 70.0711953,17.614214 C71.0235209,17.8934233 71.8209628,18.2174233 72.4610093,18.5870512 C73.101893,18.9566791 73.6146837,19.3719349 74.0014744,19.8315628 C74.3874279,20.2911907 74.6620326,20.7964465 74.8261256,21.346493 C74.9906372,21.8969581 75.0731023,22.492214 75.0731023,23.1326791 C75.0731023,23.7572372 74.9621721,24.3684 74.7403116,24.9682605 C74.5188698,25.5681209 74.1860791,26.110214 73.7423581,26.5941209 C73.2990558,27.0788651 72.7485907,27.4690047 72.0913814,27.7645395 C71.4350093,28.0600744 70.6706372,28.2078419 69.8007767,28.2078419 C68.387986,28.2078419 67.1769628,27.8386326 66.1664512,27.0993767 C65.1567767,26.3601209 64.4706837,25.2022605 64.1094279,23.6253767 L66.3510558,23.6253767 C66.5808698,24.4797488 66.9831488,25.1612372 67.5587302,25.6702605 C68.1334744,26.1797023 68.8890558,26.434214 69.8250558,26.434214 C70.3508233,26.434214 70.8142186,26.3396093 71.2173349,26.1508186 C71.619614,25.9620279 71.9515674,25.7154698 72.2148698,25.4119814 C72.4773349,25.1080744 72.6744977,24.7673302 72.8059395,24.3889116 C72.9378,24.0117488 73.0031023,23.6341674 73.0031023,23.2557488 C73.0031023,22.3034233 72.707986,21.5398884 72.1160791,20.9647256 C71.5250093,20.3899814 70.6212419,19.9136093 69.4064512,19.5360279 C67.8622186,19.0596558 66.7127302,18.4355163 65.9571488,17.6631907 C65.2015674,16.8912837 64.823986,15.8811907 64.823986,14.6329116 C64.823986,14.0418419 64.9424512,13.4838419 65.1810558,12.9576558 C65.4192419,12.432307 65.7520326,11.9722605 66.1785907,11.5779349 C66.6055674,11.1836093 67.1150093,10.8759349 67.7069163,10.6540744 C68.297986,10.432214 68.9543581,10.3217023 69.6772884,10.3217023 C70.3671488,10.3217023 70.9992419,10.4242605 71.5748233,10.6293767 C72.1495674,10.8349116 72.6498,11.118307 73.077614,11.4791442 C73.5041721,11.8408186 73.8532884,12.2636093 74.1241256,12.7483535 C74.3953814,13.2330977 74.5720326,13.7546791 74.6536605,14.3126791 L72.4610093,14.3126791 Z" id="Fill-4" fill="#FFFFFF"></path>
                    <path d="M79.4088419,15.8648651 L81.3553535,15.8648651 L81.3553535,17.3429581 L81.4047488,17.3429581 C81.7986558,16.8171907 82.2917721,16.374307 82.8828419,16.0126326 C83.4743302,15.6513767 84.1554,15.4709581 84.9277256,15.4709581 C85.8641442,15.4709581 86.6766558,15.7045395 87.3669349,16.1725395 C88.0563767,16.6409581 88.5243767,17.2198884 88.7709349,17.9097488 C88.9191209,17.614214 89.1158651,17.3224465 89.3624233,17.0352837 C89.6085628,16.7477023 89.9040977,16.4848186 90.2490279,16.2466326 C90.5943767,16.0088651 90.9840977,15.8200744 91.4194465,15.6802605 C91.8543767,15.5408651 92.3265628,15.4709581 92.8360047,15.4709581 C94.1667488,15.4709581 95.2509349,15.9226326 96.0885628,16.8255628 C96.9261907,17.7289116 97.3447953,19.0512837 97.3447953,20.7922605 L97.3447953,27.6657488 L95.3982837,27.6657488 L95.3982837,20.644493 C95.3982837,20.1844465 95.3447023,19.7490977 95.2379581,19.3388651 C95.1316326,18.928214 94.9629349,18.5665395 94.7331209,18.2546791 C94.503307,17.9428186 94.2077721,17.6920744 93.8460977,17.5032837 C93.4848419,17.314493 93.0578651,17.2198884 92.5651674,17.2198884 C92.1545163,17.2198884 91.7560047,17.2935628 91.3700512,17.4417488 C90.9840977,17.5895163 90.6433535,17.8235163 90.3478186,18.1437488 C90.0522837,18.4639814 89.8136791,18.8704465 89.6336791,19.3631442 C89.4524233,19.8558419 89.3624233,20.4393767 89.3624233,21.112493 L89.3624233,27.6657488 L87.391214,27.6657488 L87.391214,20.644493 C87.391214,20.1513767 87.325493,19.7001209 87.1944698,19.2894698 C87.0626093,18.8788186 86.8780047,18.5175628 86.6398186,18.2052837 C86.4016326,17.8934233 86.1102837,17.6510512 85.7657721,17.4781674 C85.4204233,17.3057023 85.0260977,17.2198884 84.5827953,17.2198884 C83.5974,17.2198884 82.8129349,17.5610512 82.2298186,18.2425395 C81.6467023,18.9240279 81.3553535,19.8805395 81.3553535,21.112493 L81.3553535,27.6657488 L79.4088419,27.6657488 L79.4088419,15.8648651 Z" id="Fill-6" fill="#FFFFFF"></path>
                    <path d="M105.646856,17.1705767 C105.088437,17.1705767 104.583181,17.2689488 104.131926,17.4661116 C103.679833,17.6632744 103.289693,17.9265767 102.961507,18.2547628 C102.632902,18.5833674 102.374205,18.9609488 102.185414,19.3879256 C101.996205,19.8149023 101.877321,20.2498326 101.828344,20.6935535 L109.441088,20.6935535 C109.391693,20.2339256 109.268623,19.7906233 109.071879,19.3632279 C108.874298,18.9362512 108.611414,18.5624372 108.283228,18.2426233 C107.954623,17.9219721 107.56867,17.6632744 107.124949,17.4661116 C106.682065,17.2689488 106.188949,17.1705767 105.646856,17.1705767 M105.646856,15.4706233 C106.714716,15.4706233 107.621833,15.6719721 108.36946,16.0742512 C109.11667,16.4769488 109.719879,16.9776 110.180344,17.5770419 C110.639972,18.1769023 110.972763,18.8374605 111.177879,19.5603907 C111.382995,20.2833209 111.485972,20.9643907 111.485972,21.6052744 C111.485972,21.7203907 111.481367,21.8518326 111.473833,21.9991814 C111.465042,22.1473674 111.452902,22.2545302 111.436577,22.3198326 L101.803647,22.3198326 C101.803647,22.8619256 101.918344,23.3751349 102.148577,23.8594605 C102.378391,24.3442047 102.686484,24.7711814 103.072437,25.1408093 C103.457972,25.5104372 103.901693,25.8059721 104.402763,26.027414 C104.903833,26.2492744 105.433367,26.3602047 105.991786,26.3602047 C106.697972,26.3602047 107.285274,26.2367163 107.753274,25.9905767 C108.221274,25.7440186 108.644065,25.3915535 109.022065,24.9310884 L111.264112,24.9310884 C111.066949,25.3090884 110.816623,25.6824837 110.512716,26.0521116 C110.208391,26.4217395 109.839181,26.7582977 109.404251,27.0622047 C108.968902,27.3661116 108.4716,27.6126698 107.9136,27.8014605 C107.355181,27.9902512 106.731042,28.0848558 106.041181,28.0848558 C105.104763,28.0848558 104.250809,27.9203442 103.478902,27.5921581 C102.706995,27.2635535 102.049786,26.807693 101.507693,26.2245767 C100.9656,25.6418791 100.543228,24.9562047 100.239321,24.1675535 C99.9349953,23.3789023 99.7834605,22.5253674 99.7834605,21.6052744 C99.7834605,20.8007163 99.9228558,20.0246233 100.202065,19.2769953 C100.481274,18.529786 100.8756,17.8767628 101.384623,17.3187628 C101.893647,16.7603442 102.509833,16.3124372 103.232344,15.9758791 C103.955274,15.6393209 104.760251,15.4706233 105.646856,15.4706233" id="Fill-8" fill="#FFFFFF"></path>
                    <path d="M117.792544,21.6051488 L113.702358,15.8648233 L115.969521,15.8648233 L118.062963,18.8214279 C118.2438,19.1010558 118.391986,19.3346372 118.506684,19.5234279 C118.621381,19.7126372 118.736498,19.8888698 118.851614,20.0529628 L118.901009,20.0529628 C119.032451,19.8558 119.16766,19.6628233 119.307474,19.4740326 C119.44687,19.2856605 119.582079,19.0922651 119.71394,18.8951023 L121.759242,15.8648233 L124.00087,15.8648233 L119.886405,21.5561721 L124.272126,27.6661256 L121.980684,27.6661256 L119.689242,24.3888698 C119.541893,24.1762186 119.397474,23.9702651 119.258079,23.7735209 C119.118684,23.5763581 118.974684,23.3712419 118.827335,23.1573349 L118.753242,23.1573349 L117.866219,24.413986 L115.64887,27.6661256 L113.431521,27.6661256 L117.792544,21.6051488 Z" id="Fill-10" fill="#FFFFFF"></path>
                    <path d="M3.9388186,11.1702977 L11.5699814,35.5812279 L0.00016744186,28.4678791 L3.9388186,11.1702977 Z M19.4431395,11.1702977 L23.3817907,28.4678791 L11.8119767,35.5812279 L19.4431395,11.1702977 Z" id="Combined-Shape" fill="#007AFF"></path>
                    <path d="M3.9388186,11.1702977 L11.5699814,0.297460465 L11.5699814,8.6620186 L6.13733023,18.2028558 L3.9388186,11.1702977 Z M19.4431395,11.1702977 L17.2446279,18.2028558 L11.8119767,8.6620186 L11.8119767,0.297460465 L19.4431395,11.1702977 Z" id="Combined-Shape" fill="#0056C5"></path>
                </g>
            </g>
        </g>
    </g>
</svg>