<?xml version="1.0" encoding="UTF-8"?>
<svg width="16px" height="16px" viewBox="0 0 16 16" version="1.1" xmlns="http://www.w3.org/2000/svg" xmlns:xlink="http://www.w3.org/1999/xlink">
    <!-- Generator: Sketch 52.5 (67469) - http://www.bohemiancoding.com/sketch -->
    <title>ic_flag_cn</title>
    <desc>Created with Sketch.</desc>
    <g id="PC-币币交易所" stroke="none" stroke-width="1" fill="none" fill-rule="evenodd">
        <g id="弹窗和提示窗口" transform="translate(-1228.000000, -105.000000)">
            <g id="language" transform="translate(1219.000000, 42.000000)">
                <g id="ic_flag_cn" transform="translate(9.000000, 63.000000)">
                    <g id="Group-2">
                        <path d="M-5.95079541e-13,8.01724742 C-5.95079541e-13,12.4331358 3.57897908,16.0121149 7.99493445,16.0121149 C12.4108229,16.0121149 15.989802,12.4331358 15.989802,8.01724742 C15.989802,3.60129205 12.4108229,0.0223129707 7.99493445,0.0223129707 C3.57897908,0.0223129707 -5.95079541e-13,3.60129205 -5.95079541e-13,8.01724742" id="Fill-1" fill="#DE2910"></path>
                        <path d="M10.1600424,11.3391732 L10.894101,11.6076474 L11.3967955,10.9763727 L11.3625417,11.7875749 L12.0823855,12.0561384 L11.3425696,12.2874801 L11.27973,13.0644285 L10.8598248,12.4188497 L10.0800201,12.6244842 L10.5855933,11.9932764 L10.1600424,11.3391732 Z M10.1600424,3.3385484 L10.894101,3.60418856 L11.3967955,2.97289149 L11.3625417,3.78409372 L12.0823855,4.05263487 L11.3425696,4.28399888 L11.27973,5.0580463 L10.8598248,4.41534616 L10.0800201,4.62385941 L10.5855933,3.99267392 L10.1600424,3.3385484 Z M12.7935933,5.26368089 L13.3448457,5.81214393 L14.0674789,5.4551007 L13.6933423,6.17206583 L14.236048,6.72043961 L13.4676686,6.61479944 L13.0820173,7.28887476 L12.9763771,6.52910907 L12.1794789,6.38624714 L12.9049908,6.02920391 L12.7935933,5.26368089 Z M13.336299,8.6256 L13.5848234,9.35974784 L14.3931247,9.35974784 L13.7361428,9.83961395 L13.9817886,10.5707715 L13.336299,10.1394633 L12.6935989,10.5707715 L12.936366,9.83961395 L12.2879978,9.35974784 L13.0935319,9.35974784 L13.336299,8.6256 Z M5.3356742,4.08976736 L6.10686527,6.36339637 L8.6004106,6.36339637 L6.58097406,7.8401272 L7.32940363,10.0966628 L5.34134226,8.75705886 L3.35051381,10.0966628 L4.09885411,7.8401272 L2.0936993,6.36339637 L4.58724463,6.36339637 C4.58157657,6.36339637 5.3356742,4.08976736 5.3356742,4.08976736 Z" id="Fill-4" fill="#FFDC00"></path>
                    </g>
                </g>
            </g>
        </g>
    </g>
</svg>