<?xml version="1.0" encoding="UTF-8"?>
<svg width="16px" height="16px" viewBox="0 0 16 16" version="1.1" xmlns="http://www.w3.org/2000/svg" xmlns:xlink="http://www.w3.org/1999/xlink">
    <!-- Generator: Sketch 52.5 (67469) - http://www.bohemiancoding.com/sketch -->
    <title>ic_flag_en</title>
    <desc>Created with Sketch.</desc>
    <defs>
        <polygon id="path-1" points="0.00269662921 0.00448179272 15.9991011 0.00448179272 15.9991011 15.9560672 0.00269662921 15.9560672"></polygon>
    </defs>
    <g id="PC-币币交易所" stroke="none" stroke-width="1" fill="none" fill-rule="evenodd">
        <g id="弹窗和提示窗口" transform="translate(-1228.000000, -71.000000)">
            <g id="language" transform="translate(1219.000000, 42.000000)">
                <g id="ic_flag_en" transform="translate(9.000000, 29.000000)">
                    <path d="M15.8490135,6.44389916 C15.7716876,6.05313165 15.6656427,5.67121569 15.532564,5.3037535 L14.9357551,5.3037535 L15.4139798,4.99361345 C15.2233955,4.52573669 14.9878899,4.07930532 14.7163843,3.65983193 L12.1869685,5.3037535 L10.3245191,5.3037535 L14.1087663,2.84419048 C13.9972831,2.71323249 13.8840472,2.58778711 13.7635978,2.46411204 L10.1968787,4.78202801 L10.1968787,0.323607843 C9.88588989,0.235742297 9.56766517,0.165781513 9.24227191,0.115630252 L9.24227191,6.44389916 L15.8490135,6.44389916 Z M6.75773258,0.113792717 C6.43231685,0.164033613 6.11411461,0.233971989 5.80310337,0.321770308 L5.80310337,4.83229132 L2.20584494,2.49456583 C1.86788989,2.84952381 1.56224944,3.23493557 1.29258652,3.6454902 L3.84182247,5.3020056 L1.98112584,5.3020056 L0.792833708,4.52932213 C0.713755056,4.69422969 0.640002247,4.8609972 0.571710112,5.0312605 L0.988766292,5.3020056 L0.467440449,5.3020056 C0.334361798,5.66946779 0.228316854,6.05129412 0.150991011,6.44212885 L6.75773258,6.44212885 L6.75773258,0.113792717 Z M9.24227191,15.8790364 C9.56766517,15.8287731 9.88588989,15.7588347 10.1968787,15.6710364 L10.1968787,11.3021625 L13.7096202,13.5842913 C14.0691708,13.218577 14.3945865,12.8188011 14.6804742,12.3885714 L12.0629461,10.6890756 L13.9236427,10.6890756 L15.1838,11.5083249 C15.2539573,11.36493 15.3204742,11.2197199 15.3815753,11.0727395 L14.7918674,10.6890756 L15.5308112,10.6890756 C15.6638,10.3197759 15.7699124,9.93969748 15.8471708,9.54709244 L9.24227191,9.54709244 L9.24227191,15.8790364 Z M0.150991011,9.54892997 C0.228316854,9.93969748 0.334361798,10.321591 0.467440449,10.6908235 L1.12719326,10.6908235 L0.598676404,11.0332549 C0.792833708,11.5011317 1.0283618,11.9457255 1.30337303,12.3652885 L3.88317079,10.6890756 L5.74386742,10.6890756 L1.91642921,13.1773445 C2.02782247,13.306465 2.14290112,13.431888 2.26159775,13.5538375 L5.80310337,11.2520112 L5.80310337,15.6691989 C6.11411461,15.7570868 6.43231685,15.8270252 6.75773258,15.8771989 L6.75773258,9.54892997 L0.150991011,9.54892997 Z" id="Fill-1" fill="#FFFFFF"></path>
                    <g id="Group-8" transform="translate(0.000000, 0.017927)">
                        <path d="M15.3833573,11.0548123 C15.4354697,10.9292997 15.4858742,10.8002689 15.5325708,10.6711485 L14.7937169,10.6711485 L15.3833573,11.0548123 Z M10.1968854,15.6512717 C11.5469528,15.2676975 12.7514921,14.5398543 13.709627,13.5663641 L10.1968854,11.2842353 L10.1968854,15.6512717 Z M15.5325708,5.28582633 C15.4948404,5.18182633 15.4553124,5.07782633 15.413964,4.97568627 L14.9357618,5.28582633 L15.5325708,5.28582633 Z M2.26160449,13.5359104 C3.22337978,14.5237423 4.4386382,15.264112 5.80311011,15.6512717 L5.80311011,11.234084 L2.26160449,13.5359104 Z M5.80311011,0.305680672 C4.41169438,0.700033613 3.17659326,1.46193838 2.20585169,2.47663866 L5.80311011,4.81436415 L5.80311011,0.305680672 Z M13.7636045,2.44618487 C12.7982112,1.44582633 11.5721438,0.696448179 10.1968854,0.305680672 L10.1968854,4.76410084 L13.7636045,2.44618487 Z M0.569851685,5.01333333 C0.533986517,5.10296919 0.499739326,5.19260504 0.467447191,5.28407843 L0.986997753,5.28407843 L0.569851685,5.01333333 Z M0.467447191,10.6728964 C0.508795506,10.7894902 0.553739326,10.902409 0.600435955,11.0153277 L1.12895281,10.6728964 L0.467447191,10.6728964 Z" id="Fill-3" fill="#002377"></path>
                        <g id="Group-7">
                            <mask id="mask-2" fill="white">
                                <use xlink:href="#path-1"></use>
                            </mask>
                            <g id="Clip-6"></g>
                            <path d="M9.24227191,15.8611204 L9.24227191,9.5327619 L15.8490135,9.5327619 C15.9478449,9.03082353 16.0000022,8.51098039 16.0000022,7.98031373 C16.0000022,7.44960224 15.9478449,6.92973669 15.8490135,6.42782073 L9.24227191,6.42782073 L9.24227191,0.0994621849 C8.85393483,0.0385322129 8.45663146,0.00624089636 8.05388989,0.00447058824 L7.94611461,0.00447058824 C7.54162022,0.00624089636 7.14431685,0.0403921569 6.75773258,0.0994621849 L6.75773258,6.42782073 L0.150991011,6.42782073 C0.0521370787,6.92973669 2.24719101e-06,7.44960224 2.24719101e-06,7.98031373 C2.24719101e-06,8.51098039 0.0521370787,9.03082353 0.150991011,9.5327619 L6.75773258,9.5327619 L6.75773258,15.8611204 C7.14606966,15.922028 7.54162022,15.9543193 7.94611461,15.9560672 L8.05213708,15.9560672 C8.45663146,15.9524818 8.85393483,15.9201905 9.24227191,15.8611204" id="Fill-5" fill="#C2121F" mask="url(#mask-2)"></path>
                        </g>
                    </g>
                    <path d="M3.88317079,10.6890734 L1.30512584,12.3634487 C1.49209213,12.646698 1.6970809,12.9192359 1.91642921,13.1755944 L5.74386742,10.6873255 L3.88317079,10.6873255 L3.88317079,10.6890734 Z M3.84182247,5.30375126 L1.29258652,3.64732549 C1.10744045,3.93048515 0.940226966,4.22637311 0.790991011,4.53106779 L1.97928315,5.30375126 L3.84182247,5.30375126 Z M12.1851258,5.30375126 L14.7146315,3.65982969 C14.529418,3.37483249 14.3262944,3.10231709 14.106991,2.84418824 L10.3245191,5.30375126 L12.1851258,5.30375126 Z M12.0629461,10.6890734 L14.6786315,12.3885692 C14.8656202,12.107135 15.0345865,11.813107 15.1856427,11.5083227 L13.925373,10.6890734 L12.0629461,10.6890734 Z" id="Fill-9" fill="#C2121F"></path>
                </g>
            </g>
        </g>
    </g>
</svg>