<?xml version="1.0" encoding="UTF-8"?>
<svg width="10px" height="12px" viewBox="0 0 10 12" version="1.1" xmlns="http://www.w3.org/2000/svg" xmlns:xlink="http://www.w3.org/1999/xlink">
    <!-- Generator: Sketch 52.5 (67469) - http://www.bohemiancoding.com/sketch -->
    <title>ic_introduction</title>
    <desc>Created with Sketch.</desc>
    <g id="Page-1" stroke="none" stroke-width="1" fill="none" fill-rule="evenodd">
        <g id="Exchange" transform="translate(-230.000000, -103.000000)" fill="#2D7BE5">
            <g id="coin-details" transform="translate(120.000000, 60.000000)">
                <g id="introduction" transform="translate(110.000000, 40.000000)">
                    <g id="ic_introduction" transform="translate(0.000000, 3.000000)">
                        <path d="M8.75002861,11.1428616 L1.25003242,11.1428616 C1.04165808,11.1428616 0.833329519,10.9714434 0.833329519,10.714316 L0.833329519,1.2857468 C0.833329519,1.02857233 0.999986267,0.857169762 1.25003242,0.857169762 L6.25004005,0.857169762 L6.25004005,3.00003924 C6.25004005,3.4714316 6.62499485,3.8571933 7.08335431,3.8571933 L9.16667048,3.8571933 L9.16667048,10.714316 C9.16667048,10.9714434 9.00001373,11.1428616 8.75002861,11.1428616 Z M9.04167029,2.91426733 C9.08334211,2.95711405 9.08334211,2.95711405 9.08334211,3.00003924 L7.08335431,3.00003924 L7.08335431,0.900000785 C7.12502613,0.900000785 7.16668269,0.942878891 7.16668269,0.942878891 L9.04167029,2.91426733 Z M9.62502995,2.31430343 L7.74998131,0.385714622 C7.541668,0.128571541 7.2083545,0 6.87499523,0 L1.25003242,0 C0.541687838,0 0,0.557164269 0,1.2857468 L0,10.714316 C0,11.4428985 0.541687838,12 1.25003242,12 L8.75002861,12 C9.4583732,12 10,11.4428985 10,10.714316 L10,3.21430421 C10,2.87140492 9.87501507,2.5285841 9.62502995,2.31430343 Z" id="Fill-1"></path>
                        <path d="M7.57140727,6.42856022 L7.14284593,6.42856022 C6.88567146,6.42856022 6.7142532,6.25707963 6.7142532,5.99995292 C6.7142532,5.7428419 6.88567146,5.57143978 7.14284593,5.57143978 L7.57140727,5.57143978 C7.82851896,5.57143978 8,5.7428419 8,5.99995292 C8,6.25707963 7.82851896,6.42856022 7.57140727,6.42856022 M7.57140727,9 L7.14284593,9 C6.88567146,9 6.7142532,8.82850372 6.7142532,8.571377 C6.7142532,8.31425029 6.88567146,8.14284817 7.14284593,8.14284817 L7.57140727,8.14284817 C7.82851896,8.14284817 8,8.31425029 8,8.571377 C8,8.82850372 7.82851896,9 7.57140727,9 M4.99997646,9 L2.42854564,9 C2.17141826,9 2,8.82850372 2,8.571377 C2,8.31425029 2.17141826,8.14284817 2.42854564,8.14284817 L4.99997646,8.14284817 C5.25708815,8.14284817 5.42856919,8.31425029 5.42856919,8.571377 C5.42856919,8.82850372 5.25708815,9 4.99997646,9 M4.99997646,6.42856022 L2.42854564,6.42856022 C2.17141826,6.42856022 2,6.25707963 2,5.99995292 C2,5.7428419 2.17141826,5.57143978 2.42854564,5.57143978 L4.99997646,5.57143978 C5.25708815,5.57143978 5.42856919,5.7428419 5.42856919,5.99995292 C5.42856919,6.25707963 5.25708815,6.42856022 4.99997646,6.42856022 M4.99997646,3.85715183 L2.42854564,3.85715183 C2.17141826,3.85715183 2,3.68565554 2,3.42854452 C2,3.17141781 2.17141826,3 2.42854564,3 L4.99997646,3 C5.25708815,3 5.42856919,3.17141781 5.42856919,3.42854452 C5.42856919,3.68565554 5.25708815,3.85715183 4.99997646,3.85715183" id="Fill-4"></path>
                    </g>
                </g>
            </g>
        </g>
    </g>
</svg>