<?xml version="1.0" encoding="UTF-8"?>
<svg width="10px" height="12px" viewBox="0 0 10 12" version="1.1" xmlns="http://www.w3.org/2000/svg" xmlns:xlink="http://www.w3.org/1999/xlink">
    <!-- Generator: Sketch 52.5 (67469) - http://www.bohemiancoding.com/sketch -->
    <title>ic_refresh</title>
    <desc>Created with Sketch.</desc>
    <g id="Page-1" stroke="none" stroke-width="1" fill="none" fill-rule="evenodd">
        <g id="Exchange" transform="translate(-1287.000000, -1023.000000)" fill="#DDDDDD">
            <g id="Open-Orders" transform="translate(120.000000, 1009.000000)">
                <g id="header">
                    <g id="Icons/Misc/Refresh" transform="translate(1167.000000, 14.000000)">
                        <path d="M5.00443006,1.59375739 L5.00443006,0 L8.62475442,2.40264158 L5.00443006,4.80568341 L5.00443006,2.79447816 C2.87843798,2.79642408 1.15566855,4.58795268 1.15566855,6.79687813 C1.15566855,9.00740444 2.88031126,10.7996798 5.00789707,10.7996798 C6.9975731,10.7996798 8.63515544,9.20672403 8.83893833,7.19591755 C9.24265187,7.19551731 9.71031242,7.20112067 10,7.20112067 C9.79544667,9.87992796 7.63858392,12 5.00789707,12 C2.241997,12 0,9.67060236 0,6.79687813 C0,3.92475478 2.2401237,1.59570341 5.00443006,1.59375747 Z" id="Refresh"></path>
                    </g>
                </g>
            </g>
        </g>
    </g>
</svg>