<?xml version="1.0" encoding="UTF-8"?>
<svg width="36px" height="36px" viewBox="0 0 36 36" version="1.1" xmlns="http://www.w3.org/2000/svg" xmlns:xlink="http://www.w3.org/1999/xlink">
    <!-- Generator: Sketch 52.5 (67469) - http://www.bohemiancoding.com/sketch -->
    <title>ic_warning_big</title>
    <desc>Created with Sketch.</desc>
    <g id="PC-币币交易所" stroke="none" stroke-width="1" fill="none" fill-rule="evenodd">
        <g id="Exchange-revoke_popupwindow" transform="translate(-702.000000, -301.000000)" fill="#F6C244">
            <g id="titlewindow" transform="translate(470.000000, 200.000000)">
                <path d="M249.999912,101 C259.941072,101 268,109.058972 268,119.000132 C268,128.941028 259.941072,137.000044 249.999912,137.000044 C240.058972,137.000044 232,128.941028 232,119.000132 C232,109.058972 240.058972,101 249.999912,101 Z M252.329324,120.528262 L253.600053,108.137659 C253.600053,106.426963 252.651988,105.040074 251.482289,105.040074 L248.517535,105.040074 C247.348012,105.040074 246.399991,106.426963 246.399991,108.137659 L247.670676,120.528262 C247.670676,122.239178 248.618741,123.626067 249.788263,123.626067 L250.211737,123.626067 C251.381259,123.626067 252.329324,122.239178 252.329324,120.528262 Z M249.999912,131.679981 C251.65686,131.679981 252.999897,130.29318 252.999897,128.582264 C252.999897,126.871568 251.656684,125.484547 249.999912,125.484547 C248.34314,125.484547 246.999927,126.871568 246.999927,128.582264 C246.999927,130.29318 248.34314,131.679981 249.999912,131.679981 Z" id="ic_warning_big"></path>
            </g>
        </g>
    </g>
</svg>