<?xml version="1.0" encoding="UTF-8"?>
<svg width="15px" height="11px" viewBox="0 0 15 11" version="1.1" xmlns="http://www.w3.org/2000/svg" xmlns:xlink="http://www.w3.org/1999/xlink">
    <!-- Generator: Sketch 52.5 (67469) - http://www.bohemiancoding.com/sketch -->
    <title>ic_wifi</title>
    <desc>Created with Sketch.</desc>
    <g id="Page-1" stroke="none" stroke-width="1" fill="none" fill-rule="evenodd">
        <g id="Exchange" transform="translate(-1234.000000, -1439.000000)" fill="#1CC466">
            <g id="Footer" transform="translate(0.000000, 1363.000000)">
                <path d="M1241.49469,77.8588493 C1243.91941,77.8588493 1246.1292,78.7322192 1247.82357,80.1643288 L1249,78.8943562 C1246.99325,77.1910137 1244.37236,76 1241.49469,76 C1238.62139,76 1236.00425,77.1873973 1234,78.8853151 L1235.17393,80.1570959 C1236.86705,78.7292055 1239.0731,77.8588493 1241.49469,77.8588493 L1241.49469,77.8588493 Z M1241.49469,81.5247123 C1242.94789,81.5247123 1244.27552,82.0406575 1245.29951,82.8905205 L1246.54405,81.546411 C1245.18955,80.4096438 1243.42771,79.6670685 1241.49469,79.6670685 C1239.56541,79.6670685 1237.80482,80.4078356 1236.45158,81.5409863 L1237.69424,82.8869041 C1238.71761,82.0388493 1240.04336,81.5247123 1241.49469,81.5247123 L1241.49469,81.5247123 Z M1244.05435,84.2346301 C1243.36149,83.672274 1242.46932,83.2829041 1241.49406,83.2829041 C1240.52068,83.2829041 1239.62976,83.6716712 1238.9369,84.2316164 L1241.49406,87 L1244.05435,84.2346301 L1244.05435,84.2346301 Z" id="ic_wifi"></path>
            </g>
        </g>
    </g>
</svg>