<?xml version="1.0" encoding="UTF-8"?>
<svg width="125px" height="32px" viewBox="0 0 125 32" version="1.1" xmlns="http://www.w3.org/2000/svg" xmlns:xlink="http://www.w3.org/1999/xlink">
    <!-- Generator: Sketch 52.5 (67469) - http://www.bohemiancoding.com/sketch -->
    <title>logo_dadex</title>
    <desc>Created with Sketch.</desc>
    <defs>
        <polygon id="path-1" points="0.0266447368 0.356238961 27.6791941 0.356238961 27.6791941 27.4285714 0.0266447368 27.4285714"></polygon>
        <polygon id="path-3" points="0 0.179698701 28.5418997 0.179698701 28.5418997 31.5841662 0 31.5841662"></polygon>
    </defs>
    <g id="PC-币币交易所" stroke="none" stroke-width="1" fill="none" fill-rule="evenodd">
        <g id="Exchange_homepage" transform="translate(-120.000000, -9.000000)">
            <g id="Header">
                <g id="logo_dadex" transform="translate(120.000000, 9.000000)">
                    <polygon id="Fill-1" fill="#FFFFFF" points="103.967928 12.149361 103.967928 8.68214026 89.6858553 8.68214026 89.6858553 12.149361 93.6426809 12.149361"></polygon>
                    <polygon id="Fill-2" fill="#FFFFFF" points="103.967928 17.8496416 103.967928 14.3824208 89.6858553 14.3824208 89.6858553 17.8496416 93.6426809 17.8496416"></polygon>
                    <polygon id="Fill-3" fill="#FFFFFF" points="103.967928 23.5497143 103.967928 20.0829091 89.6858553 20.0829091 89.6858553 23.5497143 93.6426809 23.5497143"></polygon>
                    <polygon id="Fill-4" fill="#FFFFFF" points="119.608224 8.68230649 115.253783 13.3651117 110.899753 8.68230649 105.65551 8.68230649 112.58602 16.2355532 105.78051 23.5539948 111.208553 23.5539948 115.253783 19.1442286 119.299836 23.5539948 124.727056 23.5539948 117.922368 16.2355532 124.852056 8.68230649"></polygon>
                    <path d="M58.7348273,18.5101299 L60.3787418,15.0994286 L62.0226563,18.5101299 L58.7348273,18.5101299 Z M64.4515214,23.5495065 L67.3088405,23.5495065 L63.5991365,15.8524675 L62.1776727,12.9026494 L61.4371299,12.9026494 L59.3199424,12.9026494 L58.5798109,12.9026494 L57.158347,15.8524675 L53.4486431,23.5495065 L56.3059622,23.5495065 L57.5382813,20.9928312 L63.2192023,20.9928312 L64.4515214,23.5495065 Z" id="Fill-5" fill="#007AFF"></path>
                    <g id="Group-18" transform="translate(0.000000, 0.235886)">
                        <path d="M46.2993421,19.8471065 L41.4580592,19.8471065 L41.4580592,11.9136 L46.2993421,11.9136 C48.4580592,11.9136 50.2240954,13.6985351 50.2240954,15.8803532 C50.2240954,18.0621714 48.4580592,19.8471065 46.2993421,19.8471065 M46.2993421,8.44637922 L41.4580592,8.44637922 L38.0275493,8.44637922 L38.0275493,12.5656519 L38.0275493,23.3139117 L39.7425987,23.3139117 L41.4580592,23.3139117 L46.2993421,23.3139117 C50.3445724,23.3139117 53.6546053,19.9688727 53.6546053,15.8803532 C53.6546053,11.7918338 50.3445724,8.44637922 46.2993421,8.44637922" id="Fill-6" fill="#007AFF"></path>
                        <path d="M80.0164474,19.8471065 L75.1751645,19.8471065 L75.1751645,11.9136 L80.0164474,11.9136 C82.1751645,11.9136 83.9412007,13.6985351 83.9412007,15.8803532 C83.9412007,18.0621714 82.1751645,19.8471065 80.0164474,19.8471065 M80.0164474,8.44637922 L75.1751645,8.44637922 L71.7446546,8.44637922 L71.7446546,12.5656519 L71.7446546,23.3139117 L73.4597039,23.3139117 L75.1751645,23.3139117 L80.0164474,23.3139117 C84.0616776,23.3139117 87.3717105,19.9688727 87.3717105,15.8803532 C87.3717105,11.7918338 84.0616776,8.44637922 80.0164474,8.44637922" id="Fill-8" fill="#FFFFFF"></path>
                        <g id="Group-12" transform="translate(2.878289, 4.155844)">
                            <mask id="mask-2" fill="white">
                                <use xlink:href="#path-1"></use>
                            </mask>
                            <g id="Clip-11"></g>
                            <path d="M22.8305099,0.356238961 L18.1245066,5.94294026 C19.551727,7.44984935 20.4328947,9.48829091 20.4328947,11.726213 C20.4328947,16.3346286 16.7026316,20.105226 12.1425987,20.105226 L6.19523026,20.105226 L0.0266447368,27.4286545 L0.744572368,27.4286545 L4.36751645,27.4286545 L12.1425987,27.4286545 C20.6878289,27.4286545 27.6791941,20.3624727 27.6791941,11.726213 C27.6791941,7.2644987 25.8128289,3.22210909 22.8305099,0.356238961" id="Fill-10" fill="#007AFF" mask="url(#mask-2)"></path>
                        </g>
                        <path d="M5.68305921,18.5260883 L9.32779605,14.0760104 L7.24597039,15.5820883 L7.24597039,7.50312727 L15.0210526,7.50312727 C15.5050164,7.50312727 15.9762336,7.55507532 16.4375822,7.63694545 L23.4515625,2.7209974 C21.0185855,1.11933506 18.1250822,0.179698701 15.0210526,0.179698701 L7.24597039,0.179698701 L8.22368421e-05,0.179698701 L8.22368421e-05,8.88037403 L8.22368421e-05,22.7978805 L5.68305921,18.5260883 Z" id="Fill-13" fill="#007AFF"></path>
                        <g id="Group-17">
                            <mask id="mask-4" fill="white">
                                <use xlink:href="#path-3"></use>
                            </mask>
                            <g id="Clip-16"></g>
                            <polygon id="Fill-15" fill="#FFFFFF" mask="url(#mask-4)" points="28.5418997 0.179698701 -4.11184211e-05 20.6389195 -4.11184211e-05 31.5841662"></polygon>
                        </g>
                    </g>
                </g>
            </g>
        </g>
    </g>
</svg>